<?xml version="1.0" encoding="UTF-8"?>
<svg id="Layer_2" data-name="Layer 2" xmlns="http://www.w3.org/2000/svg" viewBox="0 0 93.03 213.11">
  <defs>
    <style>
      .cls-1 {
        fill: #0185d0;
      }

      .cls-1, .cls-2, .cls-3, .cls-4, .cls-5, .cls-6, .cls-7, .cls-8, .cls-9, .cls-10, .cls-11, .cls-12, .cls-13, .cls-14, .cls-15, .cls-16, .cls-17, .cls-18, .cls-19, .cls-20, .cls-21, .cls-22, .cls-23, .cls-24, .cls-25, .cls-26, .cls-27, .cls-28, .cls-29, .cls-30, .cls-31, .cls-32, .cls-33, .cls-34, .cls-35, .cls-36, .cls-37, .cls-38, .cls-39, .cls-40, .cls-41, .cls-42, .cls-43, .cls-44, .cls-45, .cls-46, .cls-47, .cls-48, .cls-49, .cls-50, .cls-51, .cls-52, .cls-53, .cls-54, .cls-55, .cls-56, .cls-57, .cls-58, .cls-59, .cls-60, .cls-61, .cls-62, .cls-63, .cls-64, .cls-65, .cls-66, .cls-67, .cls-68, .cls-69, .cls-70, .cls-71, .cls-72, .cls-73, .cls-74, .cls-75, .cls-76, .cls-77, .cls-78, .cls-79, .cls-80, .cls-81, .cls-82, .cls-83, .cls-84, .cls-85, .cls-86, .cls-87, .cls-88, .cls-89, .cls-90, .cls-91, .cls-92, .cls-93, .cls-94, .cls-95, .cls-96, .cls-97, .cls-98, .cls-99, .cls-100, .cls-101, .cls-102, .cls-103, .cls-104, .cls-105, .cls-106, .cls-107, .cls-108, .cls-109, .cls-110, .cls-111, .cls-112, .cls-113, .cls-114, .cls-115, .cls-116 {
        stroke-width: 0px;
      }

      .cls-2 {
        fill: #019ad7;
      }

      .cls-3 {
        fill: #01a3df;
      }

      .cls-4 {
        fill: #00a1e1;
      }

      .cls-5 {
        fill: #0197d7;
      }

      .cls-6 {
        fill: #0184ce;
      }

      .cls-7 {
        fill: #019cdb;
      }

      .cls-8 {
        fill: #01a7e3;
      }

      .cls-9 {
        fill: #0192d7;
      }

      .cls-10 {
        fill: #019dda;
      }

      .cls-11 {
        fill: #02afe9;
      }

      .cls-12 {
        fill: #0195d3;
      }

      .cls-13 {
        fill: #009fdc;
      }

      .cls-14 {
        fill: #0376c8;
      }

      .cls-15 {
        fill: #0181cb;
      }

      .cls-16 {
        fill: #019ce1;
      }

      .cls-17 {
        fill: #00c8f1;
      }

      .cls-18 {
        fill: #01a7e7;
      }

      .cls-19 {
        fill: #02aceb;
      }

      .cls-20 {
        fill: #029cdd;
      }

      .cls-21 {
        fill: #02aeea;
      }

      .cls-22 {
        fill: #01d6f1;
      }

      .cls-23 {
        fill: #01c1f0;
      }

      .cls-24 {
        fill: #019bdb;
      }

      .cls-25 {
        fill: #01a4df;
      }

      .cls-26 {
        fill: #01bbec;
      }

      .cls-27 {
        fill: #0194d2;
      }

      .cls-28 {
        fill: #01b8ea;
      }

      .cls-29 {
        fill: #01abe6;
      }

      .cls-30 {
        fill: #02a1dd;
      }

      .cls-31 {
        fill: #0173bf;
      }

      .cls-32 {
        fill: #04b0ec;
      }

      .cls-33 {
        fill: #0193d9;
      }

      .cls-34 {
        fill: #01a1df;
      }

      .cls-35 {
        fill: #01abe5;
      }

      .cls-36 {
        fill: #01bcef;
      }

      .cls-37 {
        fill: #019bdd;
      }

      .cls-38 {
        fill: #01a3de;
      }

      .cls-39 {
        fill: #03c2f0;
      }

      .cls-40 {
        fill: #00c7f1;
      }

      .cls-41 {
        fill: #019ee1;
      }

      .cls-42 {
        fill: #01a4e4;
      }

      .cls-43 {
        fill: #00a0d8;
      }

      .cls-44 {
        fill: #01a2e3;
      }

      .cls-45 {
        fill: #00c4ef;
      }

      .cls-46 {
        fill: #01b6ed;
      }

      .cls-47 {
        fill: #01bdeb;
      }

      .cls-48 {
        fill: #0189c9;
      }

      .cls-49 {
        fill: #01b4eb;
      }

      .cls-50 {
        fill: #01aae3;
      }

      .cls-51 {
        fill: #017fc6;
      }

      .cls-52 {
        fill: #0191d6;
      }

      .cls-53 {
        fill: #01b0e9;
      }

      .cls-54 {
        fill: #0194d7;
      }

      .cls-55 {
        fill: #01b9eb;
      }

      .cls-56 {
        fill: #0198d2;
      }

      .cls-57 {
        fill: #00c0ed;
      }

      .cls-58 {
        fill: #0191d4;
      }

      .cls-59 {
        fill: #0d7bc4;
      }

      .cls-60 {
        fill: #02b8ed;
      }

      .cls-61 {
        fill: #01a3db;
      }

      .cls-62 {
        fill: #01aae1;
      }

      .cls-63 {
        fill: #03b4e9;
      }

      .cls-64 {
        fill: #02bfef;
      }

      .cls-65 {
        fill: #0179ca;
      }

      .cls-66 {
        fill: #018acc;
      }

      .cls-67 {
        fill: #0493dd;
      }

      .cls-68 {
        fill: #01afe6;
      }

      .cls-69 {
        fill: #0293db;
      }

      .cls-70 {
        fill: #0494dc;
      }

      .cls-71 {
        fill: #016fbe;
      }

      .cls-72 {
        fill: #01bcee;
      }

      .cls-73 {
        fill: #0295d7;
      }

      .cls-74 {
        fill: #0198d5;
      }

      .cls-75 {
        fill: #0187ce;
      }

      .cls-76 {
        fill: #01a1de;
      }

      .cls-77 {
        fill: #01b8ed;
      }

      .cls-78 {
        fill: #0199d9;
      }

      .cls-79 {
        fill: #0493d9;
      }

      .cls-80 {
        fill: #01aee9;
      }

      .cls-81 {
        fill: #019bd4;
      }

      .cls-82 {
        fill: #0089cf;
      }

      .cls-83 {
        fill: #01b4ea;
      }

      .cls-84 {
        fill: #01bbed;
      }

      .cls-85 {
        fill: #02c1ee;
      }

      .cls-86 {
        fill: #0195d4;
      }

      .cls-87 {
        fill: #0190d3;
      }

      .cls-88 {
        fill: #00a2e3;
      }

      .cls-89 {
        fill: #02cff1;
      }

      .cls-90 {
        fill: #02d1f1;
      }

      .cls-91 {
        fill: #01a6e5;
      }

      .cls-92 {
        fill: #00c5f0;
      }

      .cls-93 {
        fill: #018fd0;
      }

      .cls-94 {
        fill: #0093d0;
      }

      .cls-95 {
        fill: #0175c3;
      }

      .cls-96 {
        fill: #00c2ee;
      }

      .cls-97 {
        fill: #02beef;
      }

      .cls-98 {
        fill: #01b6e8;
      }

      .cls-99 {
        fill: #01b5eb;
      }

      .cls-100 {
        fill: #02b5ee;
      }

      .cls-101 {
        fill: #0583cd;
      }

      .cls-102 {
        fill: #0185cf;
      }

      .cls-103 {
        fill: #019ade;
      }

      .cls-104 {
        fill: #04a4e7;
      }

      .cls-105 {
        fill: #018acd;
      }

      .cls-106 {
        fill: #019ad6;
      }

      .cls-107 {
        fill: #0189d2;
      }

      .cls-108 {
        fill: #0193da;
      }

      .cls-109 {
        fill: #01c0ee;
      }

      .cls-110 {
        fill: #01cbf1;
      }

      .cls-111 {
        fill: #009cd8;
      }

      .cls-112 {
        fill: #0178c5;
      }

      .cls-113 {
        fill: #018bd2;
      }

      .cls-114 {
        fill: #00aee8;
      }

      .cls-115 {
        fill: #0491d4;
      }

      .cls-116 {
        fill: #0182cf;
      }
    </style>
  </defs>
  <g id="Layer_1-2" data-name="Layer 1">
    <g>
      <path class="cls-43" d="M67.7,212.97c-.56.04-1.11.11-1.67.11-4.55,0-9.1,0-13.64,0-.56,0-1.12-.02-1.67-.06-.34-.03-.59-.26-.62-.61-.05-.47-.06-.96-.06-1.43,0-15.17-.01-30.33,0-45.5,0-.48.07-.95.11-1.43.27-.09.46-.01.59.24.11.22.18.46.23.7.1.63.09,1.26.14,1.89.06,2.07,0,4.14,0,6.2-.17,1.18.97,1.31,1.55,1.88,1.36,1.32,1.3,2.08-.27,3.12-1.16.77-1.77,2.97-1.19,4.18.33.7.83.64,1.38.39.71-.32,1.23-1.05,2.12-.99.57.33.76.85.74,1.47-1.71,2.22-1.71,2.25.8,3.78.34.21.63.47.92.74,1.32,2.52.91,3.69-1.62,4.5-.45.14-1.02.24-.87.87.12.47.63.48,1.01.37,1.14-.34,2.35-.34,3.47-.84,2.53-1.13,6.95.66,7.86,3.32.44,1.29.75,1.39,1.7.55,1.06-.93,2.18-.81,3.24.06,1.96,1.61,4.29,1.83,6.38.13,1.82-1.49,4.57-1.6,5.77-3.96.12-.24.48-.47.82-.25.48.3.53.84.37,1.28-.72,2.06.82,2.23,2.03,2.18,3.8-.16,5.21-1.28,4.73-5.93-.01-.24-.01-.48-.01-.72-.02-.75.01-1.51-.03-2.26-.01-.67-.03-1.33-.01-2-.03-1.26.05-2.52-.05-3.78.01-2.62-.05-5.25.04-7.87,0-.59,0-1.18-.02-1.77-.08-3.29-.07-6.59,0-9.88-.07-3.29-.09-6.59,0-9.88-.05-1.03,0-2.07,0-3.1-.06-1.19,0-2.37,0-3.56-.18-4.57.04-9.13,0-13.7,0-5.45,0-10.91-.02-16.36.05-.7,0-1.4.03-2.1.08-.92-.03-1.86.34-2.74.13-.24.33-.4.6-.47.04.8.12,1.59.12,2.39,0,32.77,0,65.54-.01,98.31,0,2.77.23,2.64-2.54,2.64-3.59,0-7.19,0-10.78,0-.64,0-1.27-.07-1.91-.11-1.03-.6-1.82-1.17-1.92-2.65-.14-1.95-.96-2.21-2.93-1.71-1.17.3-2.2.96-3.35,1.24-1.75.42-2.25,1.48-1.88,3.13Z"/>
      <path class="cls-45" d="M27.27,35.32c2.28-.66,4.56-1.32,6.84-1.98.29.48-.04.9-.11,1.35-.35,2.17.72,3.53,2.87,3.67,3.22.22,3.68.66,3.97,3.85-.1.63-.45,1.08-.98,1.41-.2.13-.41.23-.63.31-.55.19-1.1.37-1.66.52-.82.18-1.64.16-2.46-.02-.46-.11-.92-.23-1.41-.27-4.32-.29-5.08.38-4.86,4.6.1,1.94.22,3.67-2.57,3.29-.61-.08-.8.37-.6.96.91,2.81.2,5.65.17,8.49-.1.23-.26.42-.45.57-2.24.91-4.18,2.91-6.95,1.98-1.24-.67-1.49-1.52-.6-2.7.52-.7.96-1.45,1.53-2.12,1.21-1.43,1.32-3.02.29-4.6-.49-.74-.91-1.48-1.1-2.36-.45-2.08,0-2.5,2.41-1.96-.62-1.39-.63-2.3.91-3.27,2.55-1.6,2.52-3.28.49-5.58-.11-.12-.22-.23-.32-.36-2.16-2.66-1.72-4.19,1.5-5.19.32-.04.64-.08.97-.12-.25,1.97-.5,3.93,2.07,4.86.37-1.16-.97-2.85,1.31-3.44.84-.22-.54-1.2-.63-1.92Z"/>
      <path class="cls-110" d="M23.56,35.94c-.32.64-.9.81-1.56.94-.68.14-.94.59-.76,1.22.3,1.07.52,2.18,1.49,2.93.31.24.57.56.85.84q1.8,1.82.26,3.97c-.46.64-1.14,1.12-1.31,1.97-.07.34-.4.36-.76.34-1.03-.05-1.11.03-.54.94.47.75.53,1.45.29,2.25-.79-.02-1.05-.78-1.67-.97-.47-.15-1.12.25-.98.7.39,1.27.39,2.7,1.64,3.6.65.47.81,1.16.41,1.92-.05.09-1.6,3.48-1.66,3.56-.6.71-.51,1.89-1.56,2.31-.02,0,.03.3.1.43.15.28.34.54.51.81-.22.28-.53.38-.87.4-.22,0-.44-.03-.66-.08-.44-.12-.88-.18-1.33-.21-1.29-.21-2.69-.24-2.99-1.96.22-.35.96-.39.91-.66-.46-2.46,1.11-4.34,1.69-6.5.54-2.02.76-4.23-.57-6.18-.37-.82.37-1.67-.16-2.55-.94-1.56-2.2-1.89-4.26-.94-1.2.74-2.4,1.2-3.61,0-.13-.31-.19-.63-.21-.96-.07-1.14-.09-2.31-1.21-3.04-1.9-1.33-2.95-1.07-3.82.94-.25.59-.02,1.52-1.07,1.57-.03-1.68-.06-3.35-.07-5.03,0-.46.28-.73.74-.77,1.03-.09,2.07-.19,3.11-.26,3.19-.21,6.38-.41,9.57-.6.32-.02.64.03.95.05-1.41,3.29-1.05,5.13,1.29,6.64.48.31.94.65,1.54.34.6-.31.66-.85.52-1.44-.07-.31-.32-.75-.11-.92,2.58-2.16.02-3.31-.91-4.78.14-.07.28-.18.43-.2,2.13-.22,4.26-.43,6.38-.64Z"/>
      <path class="cls-17" d="M50.16,137.61c-.04-.56-.12-1.11-.12-1.67,0-9.59,0-19.17,0-28.76,0-.56.08-1.11.12-1.67,2.51.89,5.71-.41,7.63,2.39.17.15.33.32.48.49,1.04,1.39,1.8,3.01,3.51,3.8.57.26.84.95,1.08,1.54.64,1.58.14,2.27-1.55,2.18-.68-.04-1.35-.59-2.07.01-.04,1,.84,1.47,1.29,2.17.98,1.53,1.67,3.06,1.09,4.95-.57,1.84.15,3.44,1.16,4.95.59.88,1.14,1.82.13,2.79-.94.9-2.03,1.28-3.28.72-1.2-.53-2.39-1.33-2.7-2.57-.8-3.26-3.54-4.72-5.92-7.17.03,3.31-.02,6.16.06,9.02.02,1.79.05,3.58-.02,5.37-.03.39-.11.77-.28,1.13-.13.26-.34.37-.63.33Z"/>
      <path class="cls-80" d="M46.1,26.23c.03-.07.05-.16.1-.21,3.54-3.25,6.28-7.08,8.21-11.48.06-.14.2-.23.31-.35,1.53.97,1.9,2.69,2.64,4.16.48.96.98,1.7,2.14,2.03,2.21.62,2.64,1.69,1.21,3.64-1.28,1.75-.79,2.36,1.01,2.99,2.11.73,3.49,2.43,4.78,4.18,1,1.36.69,2.52-.56,3.52-1.09.88-2.31,1.34-3.74,1.31-3.09-.06-6.2.22-8.87-.38.07-.03.69-.21.89.39.22.67-.5.87-.95,1.15-2.13.19-3.74.59-4.53,3.21-.86,2.85-6.1,4.69-9.22,3.84-.23-.2-.26-.43-.1-.68h0c.8-.37,1.68-.49,2.48-.82,1.53-.63,2.56-1.6,2.21-3.47-.12-.62-.15-1.27-.1-1.91.16-2.06,1.18-2.98,3.26-2.95,3.03.04,6.06-.18,9.09-.11.81.02,1.59-.04,2.12-.83.79-1.2.31-2.39-1.11-2.29-1.49.1-3.03-.3-4.49.39-.5.24-1.09.29-1.64.1-.47-.16-.9-.41-.96-.95-.06-.58.35-.94.84-1,2.32-.28,3.13-2.31,4.41-3.77.41-.47.98-.99.33-1.64-.58-.57-1.3-.54-1.99-.16-.66.35-.98,1.04-1.47,1.56-1.53,1.61-3.46,1.86-5.52,1.5-.44-.08-.96-.27-.77-.94Z"/>
      <path class="cls-99" d="M46.1,26.23c1.04.93,2.3.58,3.41.38,1.22-.22,2.33-.68,2.95-2.1.74-1.68,2.78-1.92,4.22-.77.46.37.67,1.41.22,1.72-1.3.9-1.96,2.29-2.88,3.48-.76.98-1.77,1.26-2.95,1.24-.25,0-.4.26-.36.51.02.13.17.27.29.35.27.18.56.32.9.2.75-.27,1.5-.53,2.24-.83.39-.16.77-.29,1.11.03.5.46.99.38,1.53.1.43-.22.85-.42,1.36-.17.65.32,1.29.65,1.64,1.33.07.13.13.35.07.45-.44.75-.79,1.54-1.03,2.39-.04.15-.38.29-.59.31-.55.06-1.12.03-1.67.06-2.62.15-5.26-.29-7.88.28-.65.14-1.4-.2-2.11-.26-.68-.06-1.15.12-1.48.87-.37.82-.74,1.54-.44,2.47.12.36.11.81.01,1.19-.18.71.79,1.44.08,2.03-1.02.85-1.93,1.97-3.43,2.05-.64.03-1.28.01-1.92.02.32-.32.64-.64.96-.96,2.06-1.62,1.53-3.56.74-5.57-.44-1.11-1.27-2.01-1.67-3.12-.34-.95-.78-1.94-.07-2.94,2.25-1.57,4.49-3.15,6.74-4.72Z"/>
      <path class="cls-92" d="M49.48,66.08c-1.44.16-2.89.16-4.33,0-2.64-.81-5.36-1.43-7.27-3.7-.59-.7-1.46-1.05-2.37-.82-1.7.43-3.12-.18-4.53-.98-.62-1.21.58-1.27,1.12-1.63,3.02-2.06,6.11-4,9.03-6.19.17-.13.36-.24.55-.35.47-.25.97-.46,1.44-.71.19-.11.39-.19.6-.27.22-.06.44-.09.66-.08,1.79,1.16.79,2.52.05,3.59-1.87,2.68-1.61,2.99,1.65,3.87,2.93.8,5.37.49,7.96-1.06,1.5-.9,3.44-.47,5.18-.22.82.12.98.67.7,1.42-.28.76-.48,1.6-.12,2.34.78,1.6.35,2.53-1.16,3.52-1.47.97-2.42,1.62-3.18-.58-.32-.93-1.19-.54-1.88-.43-1.52.48-2.89,1.24-4.11,2.28Z"/>
      <path class="cls-107" d="M57.13,7.03c.4-2.2.81-4.41,1.22-6.61.01-.06.12-.09.18-.14.07-.03.14-.08.22-.09q5.53-.46,7.62,4.58c.42,1.02.91,2.01,1.22,3.07.15.45.25.92.42,1.36.22.63.66,1.16.89,1.79.08.34.04.67-.16.97-2.1,1.83-1.87,1.75.41,3.34,3.41,2.38,7.68,3.35,10.54,6.63.62.71,1.66,1.73,2.79.4.09-.19.18-.37.26-.56.15-.38.21-.79.23-1.19.1-1.35.47-2.65.71-3.96.06-.34.08-.68-.16-.98-.13-.12-.26-.23-.41-.34-.31-.22-.67-.4-.69-.85.15-.57.53-.88,1.1-.96.21,0,.42.05.61.13.55.34,1.11.35,1.66,0,.51-.22.98-.13,1.43.15.24.15.47.31.71.46.16.08.32.18.47.29.22.16.41.35.57.57.1.14.19.29.28.45.18.3.4.57.66.79.15.1.3.21.45.31.18.09.35.18.52.27.86.45,1.74.87,1.97,1.95.02.68,0,1.35,0,2.02,0,.34.01.67-.08,1-.25.24-.62.14-.87.29-2.21,1.33-2.2,1.34-3.12-1.06-.39-1.03-.73-2.08-1.04-3.14-.26-.9-1.17-.94-1.89-1.2-.06.39.1.78.05,1.18-.2,1.68-.96,3.27-.72,5,.32,1.37.93,2.68.84,4.13-.05.71-.08,1.52-.94,1.7-.77.16-1.04-.53-1.32-1.09-.27-.65-.36-1.34-.32-2.04.02-.3.07-.6-.11-.88-.2.22.02.57-.23.79-.78.83-1.73.88-2.63.38-1.74-.96-3.66-1.65-5.17-3.01-2.98-2.69-6.48-4.6-9.9-6.62-.96-.57-1.49-1.02-1.34-2.18.32-2.4.19-4.77-.92-6.92-.21.56.12,1.25.02,1.92-.2,1.33-1.2,1.94-2.22,1.42-1.55-.79-3.17-1.7-3.83-3.54Z"/>
      <path class="cls-91" d="M53.31,36.82c.19-.24.37-.48.55-.71-.39-.52-1.09.03-1.44-.49-.03-.19.06-.23.28-.23,3.18,0,6.37-.09,9.55.03,1.69.06,2.87-.75,4.01-1.75.57-.5.61-1.13.13-1.7-1.18-1.37-2.2-2.9-3.79-3.9-.47-.3-.87-.54-1.46-.64-.76-.13-1.49-.53-2.2-.88-.32-.15-.38-.58-.23-.84.28-.47.64-.9,1.03-1.3.57-.59.96-1.26,1.18-2.04.21-.73-.15-1.27-.89-1.36-.47-.06-.97.01-1.42-.12-.69-.19-1.19-.53-1.49-1.34-.55-1.46-1.02-2.99-2-4.27-.23-.3-.27-.73-.4-1.1-.04-.16,0-.29.13-.4.22-.1.44-.1.64.04,1.33,1.51,3.03,2.57,4.62,3.74,1.68,1.23,3.17,2.28,3.68,4.64.29,1.36,2.13,2.36,2.94,3.81.26.47.8.79.95,1.35.4,1.51,1.37,1.57,2.56,1.02.93-.43,1.93-.79,2.33.53.39,1.27,1.59,2.81-.03,3.85-1.04.67-1.16,1.6-1.64,2.47-.24.31-.55.51-.92.63-.89.23-1.81.18-2.71.22-3.49.62-7.01.93-10.52,1.41-1.05-.06-2.14.13-3.14-.37-.1-.09-.19-.19-.29-.28Z"/>
      <path class="cls-37" d="M55.67,11.77c0-.53.07-1.03.49-1.41.9.66,1.65,1.47,2.28,2.39.41.6.96,1.31,1.62,1.32,3.94.07,5.79,3.54,8.74,5.21.41.23.73.78,1.17.78,3.08,0,4.47,2.32,6.09,4.32,1.18,1.06,1.77,2.59,2.85,3.72.32.33.74,1.05,1.03.81,1.99-1.62,2.09.47,2.81,1.34.44,1.38-.3,2.17-1.48,2.47-.99.26-1.52.73-1.63,1.71-.54,1.51-1.62,2.7-2.39,4.07-.6.84-1.08,1.85-2.38,1.74-.62-1.26.24-2.25.68-3.26,1-2.32,1.04-2.3-1.21-3.02,1.77-2.23,1.08-4.17-.68-6-.33-.34-.56-.9-1.08-.84-3.46.41-4.48-2.36-5.9-4.54-.44-.68-.85-1.31-1.52-1.79-2.74-1.98-5.16-4.39-8.26-5.88-1.31-.63-1.81-1.73-1.23-3.17Z"/>
      <path class="cls-29" d="M67.22,8.51c-.76-2.3-2.14-4.37-2.53-6.83-.17-1.04-.69-1.29-1.91-1.32-1.42-.04-2.83-.05-4.25-.07.49-.38,1.07-.26,1.62-.26,10.3,0,20.6,0,30.9,0,.54,0,1.13-.16,1.59.29-.1.1-.19.2-.29.29-1.45.64-2.98.33-4.47.39-.68.02-1.36.03-2.04,0-1.6.04-3.2.03-4.79,0-1.35.21-3.32-.85-3.96.61-.73,1.68-.42,3.79.39,5.57.4.88.79,1.69.84,2.69.18,3.68-.75,4.73-4.54,4.91-.24-.03-.47-.09-.69-.17-.34-.12-.64-.3-.93-.52-.18-.16-.28-.37-.31-.6.05-.23.16-.42.33-.59,1.34-.85,1.86-1.9.93-3.41-.56-.9-.5-2.01-.72-3.01-.37-1.67-.92-2.54-2.67-1.4-.55.36-1.18.48-1.87.27-.25,1.01.64,2.03-.01,3.02-.18.16-.38.21-.61.12Z"/>
      <path class="cls-9" d="M75.86,24.82c-.6-.28-1-.75-1.37-1.29-.36-.52-.82-.97-1.13-1.52-.51-.88-1.24-1.13-2.2-1.04-.99.09-1.73-.2-2.48-1.01-1.16-1.25-2.62-2.23-4.19-2.99-.59-.29-1.01-.65-1.16-1.38-.16-.74-.54-.91-1.19-.8-.31.05-.6.22-.91.27-.3.05-.69.12-.91-.03-.79-.52-1.8-.82-2.28-1.67-.43-.77-.86-1.43-1.63-1.9-.23-.14-.17-.73-.25-1.11-.05-.17-.02-.31.1-.43.22-.31.17-.72.36-1.05,0-.66.04-1.31.5-1.85.24.2.45.46.72.6.86.45,1.69.9,2.19,1.79.25.45.7.66,1.15.81.8.26,1.64-.46,1.43-1.27-.16-.64-.26-1.25-.12-1.89.05-.21.22-.43.4-.55.25-.17.4.06.55.26,1.64,2.24,1.46,4.81,1.31,7.37-.02.39-.41.74-.2,1.14.24.47.84,0,1.05.24.83.93,2.2.96,3.02,1.85.6.64,1.55.86,1.99,1.69.16.31.48.4.8.46,1.33.23,2.34,1.04,3.2,1.96,1.18,1.25,2.54,2.17,4.09,2.86.51.23,1.06.44,1.46.8.95.84,1.88.71,2.86.15.71.72.45,1.6.4,2.45-.09.22-.22.41-.4.57-2.54-.87-4.69-2.55-7.19-3.5Z"/>
      <path class="cls-89" d="M30.77,60.35c.4.01.88-.12,1.18.06,1.22.74,2.43.86,3.8.46.87-.26,1.71.08,2.36.81.47.54,1.02,1.01,1.51,1.53.57.61,1.18,1.05,2.07.99.49-.04,1,.09,1.29.49.55.76,1.53.8,2.17,1.38-.47.04-.94.1-1.42.1-6.73,0-13.45,0-20.18,0-.47,0-.94-.07-1.41-.11-.11-1.74,1.27-2.37,2.4-3.15.71-.49,1.58-.7,2.31-1.16.17-.11.35-.2.52-.28.25-.12.51-.24.76-.35.15-.08.32-.15.48-.22.23-.11.46-.22.7-.32.23-.09.47-.15.72-.19.16-.04.32-.05.48-.06.08,0,.16,0,.24.01Z"/>
      <path class="cls-4" d="M55.67,11.77c-.1,1.12.28,1.96,1.29,2.56,1.36.81,2.61,1.84,4.15,2.29.67.2,1.08.58,1.41,1.17.55.98,1.3,1.74,2.4,2.16.51.19.96.56,1.38.91.3.25.71.58.74.9.13,1.81,1.56,2.68,2.62,3.82.48.52,1.03.97,1.48,1.4.65-.08.9-.54,1.28-.81.39-.27.81-.32.95.16.35,1.2,1.44,1.88,1.94,2.96.2.43.53.8.73,1.22.51,1.09.37,1.72-.52,2.54-.35.32-.73.6-1.1.89-1.18.71-2.33,1.55-3.84.96.13-.36.27-.68.1-1.12-.36-.93-.24-1.08.64-1.25.46-.09,1.02.12,1.35-.32.4-.54-.16-1.05-.18-1.59-.03-.79-.36-1.52-.84-2.33-.83.85-1.9.87-2.85,1.2-.68.24-1.29-.17-1.48-.84-.08-.3-.06-.64-.11-.95-.04-.23-.07-.56-.23-.65-1.07-.64-1.87-1.42-1.88-2.79,0-.14-.51-.34-.8-.39-.96-.15-1.49-.73-1.35-1.65.28-1.75-.67-2.67-2.01-3.4-1.67-.91-3-2.27-4.57-3.31-.61-.4-1.11-.92-1.13-1.74-.18-.2-.2-.42-.06-.65.01-.52.09-1.01.51-1.37Z"/>
      <path class="cls-85" d="M49.48,66.08c.02-.39-.1-.97.26-1.1,1.26-.47,2.25-1.45,3.58-1.75,1.15,1.39,2.26,2.8,2.75,4.59.18,1.7-.51,2.53-2.3,2.47-.85-.03-1.72-.07-2.64.02-.08,8.06.05,16.07-.01,24.09.01.78.03,1.56,0,2.34,0,.87,0,1.74-.01,2.6.06,1.2-.51,2.62,1.13,3.29.89.43,1.79.84,2.59,1.45.18.13.34.28.5.44.17.15.32.31.47.47.88.97,2.96,1.28,1.86,3.35-.67-.56-1.32-1.14-2-1.68-.58-.46-.91-.41-1.58.15-.68.56-.89.67-1.4.07-.69-.8-1.69-.85-2.48-1.36-.04-1.67-.12-3.34-.13-5.01,0-10.59,0-21.18,0-31.77,0-.64-.01-1.27-.05-1.91-.02-.34-.23-.58-.51-.76Z"/>
      <path class="cls-72" d="M39.36,30.95c.19.93.37,1.87.57,2.8.05.23.15.45.28.65,1.7,2.58,1.74,2.87,2.25,5.04.23.97-.09,1.73-.43,2.5-.3.69-1.03.64-1.67.64.02-.8-.05-1.56-.42-2.31-.77-1.54-.81-1.59-2.53-1.26-2.57.49-4.93-2.08-4.13-4.54.14-.42.55-.76.83-1.13,1.75-.8,3.5-1.6,5.25-2.39Z"/>
      <path class="cls-100" d="M.13,43.53c.57-.48.38-1.16.42-1.77.03-.51.19-.91.65-1.17.2-.12.38-.28.56-.43,1.62-1.34,1.98-1.3,3.4.37.05.06.12.09.19.14.89.94,1.03,2.21,1.44,3.36,0,.32,0,.64,0,.96-.25,1.33-.07,2.78-1.16,3.86-.1.05-.21.1-.31.15-.11,0-.23-.01-.34-.02-.08-.07-.17-.14-.26-.21-.12-.44-.05-.89-.05-.82.03-.83-.29-.7-.13-.55.23.21.06.66.08,1.01,0,.22-.02.44-.04.65-.08.77-.08,1.55-.2,2.33-.13.45-.3.87-.86.92-.8-2.08-2.29-.24-3.39-.6-.16-2.72-.17-5.45,0-8.17Z"/>
      <path class="cls-81" d="M67.7,212.97c-.34-.5-1.03-.77-.96-1.56.05-.58.06-1.09.77-1.3,1.79-.53,3.31-1.79,5.24-1.97.3-.03.58-.23.86-.37,1.36-.67,1.46-.66,2.14.72.32.63.95,1.28.75,1.97-.35,1.26.24,1.52,1.25,1.7.32.06.09.54.01.83-3.36.19-6.72.18-10.08,0Z"/>
      <path class="cls-23" d="M92.61,21.93c.03-.31.07-.62.1-.93l.2.04c.04.88.11,1.75.11,2.63,0,27.9,0,55.8,0,83.7,0,.8-.08,1.59-.12,2.38,0,0-.21.06-.21.06-.1-.1-.2-.2-.31-.3-.43-.8-.41-1.66-.41-2.53-.1-3.81-.02-7.61-.02-11.42-.03-1.58-.04-3.15.02-4.73,0-.71-.05-1.42,0-2.14,0-.29,0-.58,0-.86-.08-2.33-.03-4.66-.02-6.99-.09-4.39-.09-8.79,0-13.18-.07-1.67-.06-3.34,0-5.01-.18-5.98.06-11.95-.03-17.93.12-1.05,0-2.11.05-3.16.05-3.85-.14-7.71,0-11.56-.05-.44-.01-.87,0-1.3,0-.86-.05-1.72,0-2.58.18-1.4-.42-2.93.65-4.19Z"/>
      <path class="cls-64" d="M16.74,36.77c.61.09,1.33-.04,1.54.8.15.58.56.92,1.01,1.26.52.4.5.97.3,1.51-.18.5-.33,1.07-1.11.97-.39-.05-.49.28-.33.64.59,1.29.49,1.9-.45,2.56-.71.51-1.15.5-1.88-.1-.79-.66-1.56-1.34-2.31-2.04-.57-.54-1.26-1.05-.43-1.97.18-.2-.06-.75-.07-1.14q-.06-1.47,1.4-2.33c.76-.18,1.54-.26,2.32-.15Z"/>
      <path class="cls-39" d="M2.94,66.07c-.46.04-.92.1-1.38.1-1.5-.01-1.52-.02-1.53-1.58,0-.77.07-1.54.1-2.31,1.34.27,2.07-.29,2.37-1.61.58-2.6,1.85-4.9,3.23-7.14.28-.45.38-1.11,1.17-.91.84,1.14,1.61,2.3,1.56,3.81-1.43,2.57-2.62,5.27-4.08,7.83-.43.64-.83,1.31-1.43,1.82Z"/>
      <path class="cls-90" d="M6.78,52.67c-.51,1.29-1.27,2.44-2.01,3.61-.93,1.48-1.33,3.19-1.78,4.85-.15.54-.25,1.04-.63,1.48-.89,1.04-1.1,1.03-2.04-.18-.05-.06-.12-.1-.18-.15-.13-.49-.14-.98,0-1.47.88-2.96,1.59-5.98,3.3-8.62.38-.21.47-.57.48-.97.59-.71-.08-1.68.48-2.4h0c.16-.22.32-.22.48,0h0c.25.22.22.52.25.81,0-.29-.02-.59.23-.81.18-.18.38-.19.58-.05.3.38.33.82.26,1.27.03.33-.38.7.11.98.18,0,.36.03.53.09.14.13.24.29.3.48.06.41.01.79-.33,1.07Z"/>
      <path class="cls-32" d="M2.94,66.07c.08-.75.34-1.41.94-1.9,2.29-1.34,4.28-3,5.67-5.3,1.64.3,2.3,1.61,2.98,2.91.77,1.29,2.01,1.48,3.35,1.44.12.11.17.22.16.35-.01.13-.04.2-.07.2-.66.53-1.48.78-2.17,1.27-.19.11-.38.2-.59.28-.21.07-.43.09-.65.08-.76-.16-1.1-1.82-2.26-.61-.39.41-.94.65-1.44.12-.55-.58-.15-1.15.18-1.88-.89,1.4-1.89,2.4-3.22,3.02-.96.16-1.92.15-2.88,0Z"/>
      <path class="cls-97" d="M27.27,35.32c1.12.14,1.47,1.07,1.88,1.9.15.31-.14.59-.4.78-.43.32-.88.16-1.35.08-.54-.09-.79.26-.45.65.66.78.46,1.62.35,2.46-.07.55-.66.78-1.05.42-.64-.59-1.27-1.19-1.86-1.82-1.04-1.11-1.11-1.85-.37-3.17.15-.27.33-.53.49-.8.85-.51,1.81-.46,2.75-.5Z"/>
      <path class="cls-21" d="M3.43,52.19c-.32,2.06-2.16,6.85-3.3,8.62-.17-3.04-.17-6.08,0-9.12.94-.39,1.68-1.07,2.49-1.65.29-.21.66-.02.71.31.09.6.07,1.23.1,1.84Z"/>
      <path class="cls-67" d="M13.5,64.67c.76-.43,1.39-1.18,2.4-.98.32-.28.64-.25.95.01.16.01.31.02.47.01.88.48,1.83.11,2.73.24.57.08,1.37-.32,1.62.48.26.8-.33,1.28-.98,1.63-2.72.2-5.44.18-8.16.01-.28-.54.22-.67.48-.93.16-.16.33-.31.49-.48Z"/>
      <path class="cls-104" d="M13.02,65.14c-.16.31-.32.62-.48.93-2.24.17-4.48.17-6.71,0,1.14-1.53,2.55-2.79,3.96-4.05.07-.06.33-.04.4.04.07.08.09.32.02.41-.36.51-.77.99-1.12,1.5-.19.28-.19.61.13.82.23.15.46.03.62-.16.35-.42.63-.88,1.17-1.13.67-.31,1.29-.1,1.38.69.06.5-.08.95.63.95Z"/>
      <path class="cls-26" d="M20.69,66.07c.21-.5.61-.93.59-1.69-.57-.37-1.3-.12-1.96-.19-.69-.07-1.45.18-2-.47.32,0,.65-.01.97-.02.64,0,1.28,0,1.92.01.66.02,1.22-.17,1.79-.54,1.06-.69,2.13-1.45,3.5-1.38.64-.15,1.29-.57,1.93,0-.21.44-.52.78-1.01.91-1.92.5-3.27,1.71-4.27,3.37-.48.14-.96.14-1.44,0Z"/>
      <path class="cls-79" d="M92.91,21.04s-.2-.04-.2-.04c-.04-.82-.08-1.63-.12-2.45-1.22-2.76-.44-5.67-.62-8.5.01-.66,0-1.31-.65-1.72-.16-.15-.25-.34-.28-.56.04-.22.14-.4.29-.56,1.11-.93.42-1.88.03-2.83.07-1.42.64-2.69,1.22-3.95,0,0,.06-.1.06-.1.31.19.38.48.38.81-.02,6.56-.04,13.11-.06,19.67,0,.08-.03.16-.04.24Z"/>
      <path class="cls-59" d="M50.41,164.03c-.09,0-.18,0-.27.02-.16-4.17-.2-8.35,0-12.52.25-.07.47,0,.65.18,1.86,1.02,1.97,2.12.79,3.99-1.22,1.93-.34,4.37-.52,6.59-.04.65-.09,1.29-.64,1.74Z"/>
      <path class="cls-28" d="M50.16,137.61h.23c.74.65.69,1.52.72,2.38.05.97,0,1.93,0,2.9.02,1.75,0,3.49-.05,5.24-.02.4-.1.79-.28,1.15-.13.26-.35.36-.64.31-.19-3.99-.19-7.98,0-11.97Z"/>
      <path class="cls-115" d="M50.15,149.59c.08.02.16.03.24.03.21.15.35.34.42.58.09.51.04.98-.4,1.33h-.14s-.14,0-.14,0c-.17-.65-.14-1.3,0-1.94Z"/>
      <path class="cls-37" d="M56.63,8.88c.04.4,0,.78-.36,1.05-.06-.41.04-.77.36-1.05Z"/>
      <path class="cls-80" d="M55.16,13.13c.02.22.04.44.06.65,0,0-.19,0-.19,0,0,0-.19,0-.19,0-.04-.29.07-.5.32-.65Z"/>
      <path class="cls-106" d="M92.6,189.95c.02.96.07,1.91.04,2.87-.04,1.53-1.36,3.06-2.84,3.36-.08.02-.17.03-.24,0-.9-.3-1.53,1.11-2.4.46-.8-.58-1.69-.33-2.52-.54-.35-.09-.5-.36-.4-.73.24-.83.49-1.65.5-2.63-.53.6-1.12,1.17-1.58,1.82-.43.63-1.08.91-1.67,1.3-.79-.69-1.45-.08-1.81.42-1.34,1.84-3.45,1.78-5.32,2.25-1.07.27-2.1-.02-2.49-1.26-.24-.76-.83-.82-1.46-.97-.65-.16-1.05.02-1.39.58-.2.33-.51.61-.8.87-.32.29-.72.36-1.11.21-.48-.19-.78-.56-.76-1.1,0-.23.08-.47.16-.69.17-.45,0-.73-.35-1.01-1.24-1-2.73-1.6-3.97-2.62-.54-.44-1.42-.37-2.04.05-1,.68-1.94,1.35-3.27,1.02-.28-.07-.67.39-1.04.52-.65.23-1.23.09-1.77-.37-.8-.68-.75-1.36.17-1.88.85-.49,1.75-.72,2.75-.2.16-1.1.31-1.95.4-2.8.05-.48-.33-.68-.69-.87.16-2.05,1.17-3.83,1.87-5.7.26-.7.85-1.28.77-2.12.16-.61.52-1,1.17-1.06.64.17.95.49.77.79.21-.97.71-2.28,1.71-3.33.46-.57,1-1.01,1.8-.94.23.05.43.15.61.3.22.83-.4,1.33-.8,1.9-.79,1.09-.43,2,.49,2.7,1.03.78,1.4-.32,1.85-.85,1.71-2.08,3.63-3.59,6.55-2.85.27,1.57-1.36,1.95-1.91,3.13,1.11,1.08,2.21,1.15,3.67.34,1.95-1.09,2.82-.48,3.21,1.95-.21.52-.43,1.17-1.14.92-2.67-.93-5.16,1.23-7.92.37-.86-.27-1.99,1.13-3.03,1.72-1.45.82-3.52.96-3.92,3.67.83-1.85,1.68-1.48,2.72-.78,1.2.8,2.47,1.48,3.95.34.78-.6,1.31.03,1.66.74.26.53.11,1.1.17,1.65.2,1.91,1.14,2.46,3.03,2.4,1.95-.06,3.93-.7,5.86.09.77.31.26-.44.51-.57,1.77-.91,3.36-2.03,4.8-3.47.76-.75,1.62.59,2.38,1.1,1,.49.92,1.5,1.05,2.48,1.24-.21,1.76-1.01,2.21-1.94.36-.75.68-1.69,1.86-1.06Z"/>
      <path class="cls-86" d="M87.37,190.9c-.8.05-.96-.74-1.45-1.11-.37-.27-.79-.26-1.05.12-.36.52-.62,1.11-.96,1.65-.55.85-1.2,1.51-2.36,1.03-.45-.19-.76.02-.85.51-.08.47-.1.95-.24,1.4-.09.29-.35.58-.72.52-.4-.08-.34-.39-.31-.73.06-.85-.03-.95-.66-.74-.63.21-1.25.23-1.88.23-.4,0-.8.01-1.2,0-1.28-.05-2.55-.05-3.62.84-.12.1-.49.02-.66-.1-.21-.15-.14-.41,0-.62.13-.18.39-.34.09-.58-.12-.1-.26-.18-.39-.27-.86-.64-1.27-1.44-.82-2.49.26-.6.1-1.09-.25-1.56-.21-.28-.59-.45-.75-.06-.49,1.24-1.44,1.19-2.35.79-1.13-.5-2.48-.66-3.08-1.87-.42.15-.44.37-.49.6-.07.31-.13.63-.27.9-.22.42-.92.63-1.24.41-.37-.26-.4-.66-.36-1.06.09-.76.76-1.2,1.02-1.87.31-.81.99-1,1.78-1.31,1.43-.57,2.97-1.1,4.08-2.29.66-.71,1.23-1.11,2.22-.36.88.66,1.97.44,2.97.03.74-.3,1.49-.56,2.22-.87.52-.22,1-.14,1.25.33.54,1.02.81,0,1.2-.11.09.02.18.04.28.06.16.09.3.21.43.34.12.13.26.24.41.33,1.06-.72,1.43-1.62.63-2.73-.86-1.19-.68-2.15.49-2.98.16-.12.33-.23.5-.34.08-.05.16-.11.24-.16.14-.11.29-.22.44-.32.13-.12.25-.23.37-.36.21-.3.19-.64.15-.98-.03-.4.03-.77.22-1.12.49-.56.61-1.31,1-1.92.15-.16.33-.28.53-.38,1.63-.48,1.83.66,2.12,1.8.19.77-.06,2.2,1.03,2.02,1-.17,1.19-1.47,1.08-2.59-.2-1.99.65-2.89,2.2-2.65,1,.16,1.16,1.51,2.25,1.44,0,.47,0,.95,0,1.42-.57.79-1.36,1.35-2.09,1.96-1.77,1.48-2.07,3.28-1.9,5.57.16,2.2,1.14,4.79-1.19,6.64-1.22.97-2.65.62-2.6-.82.07-2.13-1.04-1.44-1.87-.93-1.99,1.23-4.05,1.25-6.24.86-.97-.17-1.87-.31-2.56-1.09-.55-.63-1.17-.78-2.14.26,2.25.14,2.53,1.51,2.3,3.16-.13.92.39,1.1,1.14,1.04.48-.04,1.03.02,1.41-.21,3.69-2.24,7.84-1.26,11.78-1.71,1.34-.15,2.55-.93,3.94-.78,0,.79,0,1.59,0,2.38-.98.34-1.89.78-2.74,1.39-.78.56-1.64.5-2.48.05Z"/>
      <path class="cls-1" d="M92.6,114.59c0,5.59,0,11.19,0,16.78-.06,2.22-.81,4.23-1.94,6.11-.24.4-.43.89-1.05.56-.33-.4-.41-.88-.43-1.38.1-1.43.4-2.82.51-4.26.19-2.47-.83-4.46-2.61-5.84-2.63-2.03-3.08-4.94-3.66-7.77-.39-1.88,1.37-3.44,3.27-3.7-2.71-.76-5.88-.49-9.04-.46-.67-.11-1.3-.34-1.94-.55-.48-.18-.96-.37-1.45-.52-.19-.06-.38-.12-.56-.2-.47-.17-.97-.2-1.47-.27-.32-.07-.6-.19-.81-.45-.05-.22-.02-.42.09-.61.7-.43,1.01-1.41,2.02-1.39,2.58.23,3.69-1.62,4.45-3.52.61-1.53,1.63-2.73,2.48-4.05.84-1.33,2.66-1.32,3.05.04.67,2.34,2.6,4.02,3.08,6.65,2.05-1.99,4.04-1.13,6.03-.02,0,0,.07.06.07.06-.03.94-.06,1.89-.09,2.83-1.59.26-3.53-1.51-4.75.82,1.59.36,3.31.16,4.75,1.14Z"/>
      <path class="cls-87" d="M92.6,187.08c-1.76,1.31-3.8,1.56-5.88,1.37-.75-.07-1.31-.09-1.95.44-.92.78-1.17.7-2.02-.09-.89-.82-1.12-.84-2.01-.31-.48.28-.77.75-1.31,1-1.85.85-3.77,1.05-5.75.87-.35-.03-.6-.44-.33-.69.73-.65.32-1.51.5-2.25.2-.81-.4-1.2-1.34-1.07-.23.03-.46.14-.69.15-.48.02-.83-.59-.62-1.03.29-.6.77-.99,1.35-1.31.9-.49,1.23-.47,1.79.35.32.47.6,1.22,1.08,1.2,2.29-.1,4.72,1.29,6.87-.54.64-.55,1.45-.63,2.19-.89.49-.18.93.07,1.22.51.24.37.22.75-.04,1.11-.05.06-.11.12-.17.17-.47.42-.39.84.06,1.19.43.33.95.33,1.31-.05.57-.61.71-1.58,1.66-1.9.15-.05.01-.4-.19-.57q-1.07-.88-.45-1.78c.05-.07.1-.13.16-.18.63-.5.45-1.04.22-1.7-.75-2.18-.59-4.13,1.26-5.85.94-.88,1.81-1.74,3.07-2.1,0,2.72,0,5.45,0,8.17-.54,1.27-.99,2.54,0,3.81,0,.65,0,1.3,0,1.95Z"/>
      <path class="cls-94" d="M92.6,151.55c0,3.36,0,6.71,0,10.07-3.17-.45-6.37.81-9.53-.11-.96-.28-2.13-.35-2.36-1.69-.23-1.37.5-2.23,1.19-2.63-1.37,1.11-3.04,2.71-5.59,1.97-.22-.09-.4-.23-.55-.41-.05-.23,0-.45.15-.64,2.17-.8,3.89-2.01,4.23-4.55.08-.64.45-1.5,1.09-1.3,1.26.41.62-.94,1.2-1.06.61-.26,1.24-.23,1.87-.12,1.96.37,3.89.64,5.86-.05.82-.29,1.74-.16,2.45.51Z"/>
      <path class="cls-24" d="M54.75,181.78c-.55.46-1.11.9-1.64,1.38-.44.4-.95.55-1.53.53-.71-.03-1.09-.29-1.12-.96-.04-1.2,0-2.4-.03-3.59-.02-.76.39-1.17,1.03-1.45.07-.03.15-.06.22-.1.52-.25,1.4.09,1.52-.83.08-.65-.64-.86-.9-1.34-.23-.42-.57-.77-1.14-.7-1.03.12-.62-.65-.68-1.13.69-3.61,2.66-5.93,6.45-6.41,1.26-.15,1.99-1.27,3.08-1.73.45-.19.92-.37,1.35-.04.45.35.28.84.22,1.32-.42,3.01-1.29,5.72-5.14,6.73,1.83,1.19,3.46-.02,4.59,1.05-2.16,1.6-2.57,4.49-4.57,6.21-.51.44-.81,1.24-1.71,1.06Z"/>
      <path class="cls-74" d="M75.86,158.74c.16,0,.32-.02.48,0,1.68.24,3.12-.26,4.42-1.32.87-.71,1.87-1.2,2.95-1.49.12-.03.34.07.4.17.05.08-.03.33-.12.39-.61.38-1.26.69-1.84,1.09-.61.42-1.02.99-.99,1.8.02.67.13,1.26,1.05,1.27.08,0,.16,0,.24.02,1.19.2,2.18,1.04,3.6.56,1.15-.39,2.52.05,3.75-.46.44-.18.97-.13,1.32.29.4.49.92.59,1.5.56,0,3.37,0,6.74,0,10.11-.5.23-.99.55-1.58.43-.23-.05-.5-.14-.27-.44.43-.57.24-.85-.4-.94-.23-.03-.48-.03-.71,0-1.1.15-1.6.94-.99,1.84.56.82.52,1.37-.08,2.09-.4.48-.6,1.12-.94,1.66-.41.65-1.25.61-1.5-.09-.3-.81-.71-1.61-.68-2.52.01-.32.04-.65-.05-.95-.09-.29-.25-.66-.49-.76-.24-.1-.6.08-.9.14-.48-.66-.15-1.15.34-1.61.28-.16.58-.32.9-.28,1.87.23,2.55-.19,2.09-2.37-.43-2.02.38-4,2.38-5.35-1.28-.22-2.22.23-3.03.86-1.13.87-2.46,1.11-3.77,1.42-1.29.3-2.29-.18-2.59-1.48-.5-2.14-1.43-3.7-3.89-3.8-.39-.02-.72-.33-.58-.84Z"/>
      <path class="cls-56" d="M92.6,151.55c-.55,0-1.1,0-1.65,0-.72-.02-1.41.04-1.99.55-.46.4-.96.35-1.54.21-1.29-.3-2.6-.52-3.9-.73-.46-.07-.94-.02-1.41-.03-.15.16-.33.24-.55.22-.31-.03-.63-.08-.94-.12-.98-.06-1.94-.19-2.86-.58-.41-.17-.77-.41-1-.8-.02-.59-.08-1.18.11-1.76.28-.19.6-.25.93-.22.45.07.83.29,1.22.51,3.13.58,4.62-.81,3.89-3.65-.06-.22-.08-.44-.07-.66.06-.22.16-.42.3-.6.15-.17.32-.31.5-.44.67-.31,1.26-1.03,2.13-.5.62.6,1.3,1.14,1.54,2.05.81,3.15,1.14,3.4,4.39,3.49.32,0,.63.02.91.19,0,.96,0,1.92,0,2.87Z"/>
      <path class="cls-25" d="M54.75,181.78c.8-.88,1.57-1.78,2.4-2.63.58-.59,1.05-1.2.96-2.08-.13-1.2.56-1.75,1.61-1.96.46-.09.97-.05,1.27-.52.12-.47.47-.71.86-.92,1.03-.39,1.81-1.12,2.57-1.88,1.13-.77,1.93-1.86,2.78-2.91.82-1.01,1.87-2.08,3.18-.93,1.27,1.12.54,2.25-.49,3.23-.8.77-1.51,1.63-2.09,2.58-.66,1.2-1.77,1.79-2.98,2.27-.69,0-1.17.32-1.44.96-1.18.54-1.65,1.92-2.88,2.4-.46.18-.78.5-.96.96-.98,1.65-1.9,3.38-4.32,2.88-.2-.47-.51-.9-.48-1.44Z"/>
      <path class="cls-6" d="M50.48,166.41c0-.64,0-1.28,0-1.91.93-.84,2.08-.56,3.15-.59,1.65-.04,3.27-.13,5.07-.96-.89-.6-2.06-.7-2.06-1.88.11-2.52,1.07-5,.39-7.56.25-.31.58-.41.96-.4,1.22.3,1.51,1.33,1.6,2.34.12,1.42.84,2.33,2.07,2.89,1.43.65,2.06,2.35,3.69,2.71.18,1.15-.65,1.33-1.46,1.54-.3.05-.61.07-.91.15-.53.2-.54.75-.77,1.15-.11.18-.26.32-.44.44-.76.35-1.58.61-2.07,1.37-1,.45-1.38,1.86-2.74,1.74-1.3-.51-2.62.2-3.92-.06-.91-.18-1.86-.28-2.56-.99Z"/>
      <path class="cls-101" d="M89.77,138.1c.25-.21.46-.45.45-.79-.02-.92.25-1.61,1.06-2.22.88-.67,1.11-1.68.65-2.78-.27-.64.15-.84.67-.94,0,4.64,0,9.29,0,13.93-3.1,1.3-5.06-.19-5.29-4,.03-.24.09-.48.18-.71.64-.93,1.03-2.11,2.27-2.49Z"/>
      <path class="cls-93" d="M87.85,140.5c0,.23.04.48,0,.7-.29,1.49.51,2.52,1.42,3.54.35.39.73.55,1.22.55.7,0,1.41,0,2.11,0,0,1.12,0,2.25,0,3.37-2.22,1.15-3.98.11-5.66-1.21-.32-.25-.51-.65-.32-1.07.46-1.03.3-1.83-.72-2.43-.36-.21-.41-.66-.44-1.06-.11-.71.13-1.29.65-1.77.53-.36.99-.92,1.75-.63Z"/>
      <path class="cls-112" d="M57.15,161.14c.03.32.07.69.42.78.45.11.94-.14,1.4.1.32.17.89.09.84.64-.02.28-.26.56-.46.79-.26.31-.62.49-1.04.54-1.65.2-3.27.67-4.96.52-.95-.08-1.91-.02-2.87-.02-.03-.16-.05-.31-.07-.47.03-.64.05-1.28.08-1.92,2.22-.34,4.22-2.17,6.66-.97Z"/>
      <path class="cls-24" d="M55.23,183.22c1.05-.12,1.86-.66,2.59-1.38.54-.54,1-1.17,1.73-1.5.46.32.57.76.3,1.21-.24.39-.57.74-.9,1.06-.53.52-.91,1.03-.5,1.84.28.56-.03,1.04-.41,1.47-.56.63-1.37,1.09-1.36,2.09-.47-.25-.64-.9-1.28-.94-.55-.03-1.14-.12-1.38-.69-.27-.63-.45-1.31-.6-1.98-.04-.16.16-.46.33-.55.48-.25.99-.43,1.49-.64Z"/>
      <path class="cls-33" d="M50.48,166.41c.62.03,1.25-.01,1.85.24.9.37,1.85.37,2.76.06.89-.31,1.51.05,2.06.68.17.11.22.21.16.32-.05.11-.11.16-.17.16-1.11-.03-2.24-.13-2.87,1.1-.97.37-1.82.84-2.31,1.85-.24.49-.58.92-.6,1.51-.02.61-.36,1.03-.9,1.28,0-2.4,0-4.79,0-7.19Z"/>
      <path class="cls-101" d="M92.6,114.59c-1.1-.04-2.17-.02-3.26-.36-.87-.27-1.87-.16-2.8-.24-.1,0-.25-.2-.27-.32-.02-.12.06-.34.16-.38.36-.15.79-.17,1.1-.38.73-.48.71-1.96,2.3-1.35.92.35,1.96.41,2.78,1.07,0,.65,0,1.31,0,1.96Z"/>
      <path class="cls-74" d="M87.37,190.9c.69-.03,1.51.19,2.01-.41.88-1.05,2.02-1.08,3.21-1.03,0,.16,0,.32,0,.48-.6.04-1.22.28-1.25.87-.06,1.3-.87,1.93-1.83,2.52-.13.08-.23.21-.35.32-.31.28-.63.5-1.02.14-.41-.37-.98-.83-.5-1.36.7-.75.09-1.08-.28-1.53Z"/>
      <path class="cls-74" d="M92.6,185.13c-.3-.24-.64-.43-.88-.72-.61-.72-.62-1.01-.08-1.83.29-.44.64-.84.96-1.26,0,1.27,0,2.54,0,3.81Z"/>
      <path class="cls-83" d="M27.41,61.79c-.3.07-.63.1-.91.22-.41.17-.75.18-1.02-.23h0c1.24-2.14,3.19-3.53,5.21-4.81.6-.38,1.27-.67,1.79-1.18,1.41-1.38,1.32-1.95-.43-2.75-2.19-1.01-3.33-3.24-2.78-5.47.13-.54.25-1.35.87-1.25,1.17.18,1-.28.89-1.09-.14-.99.54-1.46,1.48-1.42.86.04,1.75-.25,2.57.22.96,0,1.92,0,2.88,0,.02.11.05.22.07.33-1.52,1.32-1.75,2.85-.72,4.56.29.48.52.97.69,1.49.38,1.17.73,2.32,2.43,1.56.48-.22,1.06.17,1.37.7-1.19,1.14-2.31,2.34-3.9,2.99-.71.29-1.28.93-1.94,1.36-1.72,1.12-3.46,2.22-5.19,3.33,0,0,0,0,0,0-.17.15-.33.31-.49.47-.32,0-.63,0-.95,0-.15.17-.35.29-.49.47-.16,0-.32,0-.47,0-.15.17-.35.29-.49.47-.16,0-.32,0-.47,0Z"/>
      <path class="cls-26" d="M35.08,44.02c-.8,0-1.6-.03-2.39.02-1.18.08-1.46.62-.93,1.71.14.28.33.56.37.86.06.42-.14.78-.53.98-.51.26-.7-.1-.85-.5-.09-.23-.22-.42-.49-.41-.29.02-.38.26-.4.5-.04.32.02.65-.06.95-.5,1.84.58,2.98,1.76,4.08.37.35.83.45,1.32.44.58-.01,1.08.13,1.53.54.43.4.48.73.05,1.19-.22.23-.64.39-.68.63-.23,1.33-1.36,1.8-2.3,2.23-1.78.82-3.13,2.11-4.46,3.44-.47.47-.96.8-1.53,1.09.01-1.81-.04-3.62-.29-5.41-.05-.34-.06-.65.17-.89.77-.79.4-1.41-.25-2.02-.29-.27-.48-.61-.55-1.03-.1-.6.27-1.13.85-1.19.65-.07,1.25.14,1.86.32.65.19,1.04-.17,1.07-.88.02-.47.07-.99-.08-1.42-.22-.64-.22-1.21.01-1.84.23-.63-.09-1.24-.26-1.85-.17-.61.12-1.21.64-1.37,1.99-.63,4.01-.92,6.08-.48.13.03.24.2.35.3Z"/>
      <path class="cls-99" d="M39.4,43.54c0,.16,0,.32,0,.48-.48.41-.96.4-1.44,0,0,0,0,0,0,0,.35-.56.91-.46,1.44-.48Z"/>
      <path class="cls-22" d="M12.54,61.79c-1.24-.67-1.96-1.88-2.89-2.86-1.51-.17-1.91-1.02-1.44-2.39.04-.59-.38-.98-.61-1.46-.35-.76-.55-1.6-.82-2.4,0-.48,0-.97,0-1.45-.26-.28-.37-.6-.35-.98.2-.9.79-1.44,1.61-1.77.8-.22,1.58-.16,2.31.24.18.1.35.21.51.34.29.2.58.43.97.43.16-.02.32-.03.48-.06.23-.04.45-.08.67-.16.13-.06.26-.13.38-.21.11-.09.23-.18.34-.27,0,0,.17-.14.17-.14.11-.1.23-.18.37-.24,0,0,.22-.04.22-.04.71.04,1.34.36,1.36,1.08.04,2.05.41,4.12-.33,6.13-.16.45-.25.95-.64,1.25-1.22.93-.69,2.36-1.03,3.53-.1.32.3.51.54.71.26.22.41.5.17.81-.21.28-.52.33-.85.24-.38-.1-.76-.21-1.14-.31Z"/>
      <path class="cls-60" d="M12.53,49.78c-.16,0-.32,0-.48,0-.63.29-.98-.27-1.44-.48h0c0-1.19,1.06-2.66-.98-3.34-.43-.15-.3-.96.02-1.46,2.87-1.52,2.87-1.23,4.88.81,1.1,1.12,1.08,1.19.15,2.62-.09.13-.16.28-.23.42h0c-.18.14-.32.32-.48.48h0c-.16.16-.32.32-.48.48h0c-.26.28-.71.18-.96.48Z"/>
      <path class="cls-39" d="M9.66,44.51c.07.38.02.84.23,1.12.38.52.95.77,1.64.65.48-.08.5.3.45.6-.17.96-.9,1.62-1.36,2.43-.74-.45-1.56-.53-2.4-.48-.29-.52-.14-1.96-1.3-.59-.28.34-.51.81-1.1.59-.16,0-.32,0-.48,0,.22-.49.41-.98.51-1.53.15-.82.31-1.67.92-2.31.71.43,1.47-.09,2.2.1.16.04.45-.38.68-.58Z"/>
      <path class="cls-39" d="M6.78,44.03c-.61-1.06-1.19-2.14-1.44-3.36.4.05.76.17.92.61.32.89.63,1.78.52,2.75Z"/>
      <path class="cls-45" d="M16.85,63.7c-.32,0-.63,0-.95,0,0-.15,0-.31-.01-.46.4,0,.76.08.97.47Z"/>
      <path class="cls-28" d="M57.63,108.34c.09-1.19-.43-2-1.56-2.36-.54-.17-.8-.47-.83-1,2.17-.51,3.49,1.27,5.22,1.95.65.42,1.38.72,1.98,1.22.16.15.3.33.41.52.48,1.42,2,1.06,2.93,1.72.2.11.39.23.57.37,3.95,2.2,5.11,6.29,6.78,10.03.19.43.37.99.14,1.39-1.15,2.06-.13,3.98.31,5.94.07.31.22.62.19.93-.49,4.05,1.07,7.75,2.04,11.53.41,1.6.15,2.45-1.47,2.79-.36.05-.71.03-1.06-.05-.23-.06-.44-.16-.65-.29-1.19-.95-2.68-1.47-3.79-2.56-2.23-2.1-5.01-2.55-7.9-2.62-2.61-.06-5.21.02-7.82-.04-1.02-.02-2.1.02-2.67-1.12,0-2.08,0-4.17,0-6.25.11-.12.28-.3.38-.25,2.75,1.11,5.86,1.18,8.44,2.77,1.3.8,2.49,1.66,4.15,1.5,1.38-.14,2.21,1.12,3.44,1.71.59-1.16.36-2.23.16-3.31-.44-2.34-.76-4.69-.8-7.09-.03-2.3-.31-4.64-2.74-5.95-.65-.35-1.51-.96-.94-1.87.43-.68,1.27-.37,1.99-.21.81.18,1.7,1.51,2.25.68.75-1.13-.8-1.64-1.47-2.32-2.56-2.59-5.06-5.24-7.72-7.74h0Z"/>
      <path class="cls-96" d="M57.63,108.34c.61,0,1.04.32,1.45.73,2.2,2.19,4.4,4.39,6.61,6.57.28.28.58.67.92.72,1.4.24,1.08,1.42,1.26,2.27.1.47-.43.82-.87,1.03-.32.15-.61,0-.87-.21-.37-.31-.7-.66-1.11-.91-.54-.32-1.1-.67-1.79-.57-.15.02-.35.08-.41.18-.06.1,0,.32.09.43.58.8,1.54,1.12,2.31,1.68.64.46,1.04.92,1.07,1.73.02.47.19.93.29,1.39.11.55.38,1.12.3,1.63-.24,1.69.12,3.3.31,4.95.13,1.11.08,2.23.69,3.23.17.27.25.6.11.91-.3.63-.21,1.22.03,1.85.15.41-.11.76-.5.98-.38.22-.8.22-1.13-.04-.37-.29-.73-.63-.99-1.02-.51-.76-1.33-.78-2.09-.98-1.41.88-2.35-.34-3.46-.78-.35-.14-.68-.43-.93-.73-.74-.9-1.69-1.11-2.78-1.04-1.48.1-2.75-.54-3.9-1.34-.56-.39-1.1-.61-1.76-.57-.01-3.03-.03-6.06-.03-9.1,0-.22-.04-.51.28-.56.26-.04.42.14.56.34.23.32.41.75.73.92,1.94,1.01,2.92,3.07,4.74,4.21.38.24.4.68.39,1.08-.08,2.14,1.48,3.01,3.03,3.87.37.2.77.19,1.15,0,.72-.34,1.48-.63,1.83-1.54-.4-.63-.83-1.29-1.26-1.95-1.06-1.6-1.55-3.34-.75-5.15.54-1.23,0-2.2-.48-3.16-.57-1.14-1.43-2.1-2.36-2.98-.62-.59-.43-1.06.43-1.33.7-.22,1.37-.33,2.06.09.33.2.74.27,1.13.34.57.1.97-.35.75-.85-.51-1.16-.9-2.37-2.42-2.69-.61-.13-.94-.81-1.25-1.38-.42-.77-.9-1.5-1.36-2.24Z"/>
      <path class="cls-50" d="M50.47,136.68c.71.42,1.48.48,2.28.47,2.29-.02,4.59.11,6.87-.04,2.16-.14,4.21.57,6.34.55.22,0,.51.07.65.22.91.98,2.19,1.52,3,2.62-.16.16-.35.26-.57.32-.15.03-.31.02-.46.06-1.03.22-4.44-.42-5.33-1.02-.7-.48-1.46-.47-2.25-.32-.32.05-.64.08-.96.1-.78-.04-1.43.28-2.05.7-2.52.16-5.02-.01-7.52-.3-.03-.8-.06-1.6-.1-2.41.03-.31.06-.63.09-.94Z"/>
      <path class="cls-91" d="M37.96,44.03c.48,0,.96,0,1.44,0,2.03.16,3.92-.27,5.76-1.16,1.09-.53,1.6-1.78,2.85-2.07.2-.05.37-.5.45-.79.1-.38.02-.81.14-1.18.7-2.16.51-1.99,2.57-2,.72,0,1.43,0,2.15,0,0,0,0,0,0,0,.78,1.76-1.77,2-1.57,3.5-2.66,1.74-4.57,4.79-8.25,4.79-1.41-.09-2.64.41-3.8,1.13-1.03.64-1.41,1.55-.7,2.61.64.95,1.47,1.72,2.78,1.06.5-.25.93-.61,1.4-.89,1.37-.82,2.61-1.01,3.49.69.09.21.1.42.02.63-.75.99-2.02.8-2.97,1.35h0c-.16.14-.35.22-.56.24-.52.11-.94.41-1.36.72,0,0,0,0,0,0-.23-.04-.49-.04-.7-.13-.6-.28-.99-.26-1.29.47-.24.57-.77.58-1.06.1-.52-.87-1.28-1.6-1.34-2.74-.03-.62-.38-1.22-.98-1.56-.59-.34-.74-.81-.38-1.39.43-.69.42-1.3-.12-1.95-.24-.29.05-.59.33-.77.53-.33,1.31,0,1.71-.66Z"/>
      <path class="cls-84" d="M43.72,51.7c.81-.79,1.78-1.24,2.88-1.44,1.07-.81,1.79-.11,2.45.61.7.76,1.33,1.59,2.02,2.36,1.65,1.83,3.37,3.32,6.16,2.74,1.32-.27,2.66.42,4.03.44,1.67.04,2.3.94,1.34,2.3-1.41,2.01-.66,3.31.93,4.65.56.47,1.42.84,1.35,1.83-.03.41-.39,1.13.45.94.89-.21.47-.8.1-1.26-.15-.19-.23-.41-.23-.66.25-.45.66-.71,1.09-.95.94-.49,1.93-.68,2.97-.43.67.23,1.41.25,2.06.57.54.27,1.33.4,1.16,1.25-.13.69-.7,1.16-1.39,1.01-1.33-.3-2.02.5-2.85,1.28-2.05,1.92-9.37,2.91-11.8,1.65-.41-.21-.87-.44-.72-1.06-.96-1.35-2.15-2.58-2.4-4.32.46-.13.91-.28,1.37-.39.63-.16,1.07.19,1.46.61.37.39.51.77.07,1.23-.27.28.04.43.26.45.36.04.87.47,1.06-.04.32-.89,1.04-1.12,1.78-1.41.63-.25.77-.53.36-1.08-1.1-1.48-.78-2.94-.08-4.57-.81-.03-1.57-.06-2.33-.07-.8,0-1.6,0-2.39.01-.42,0-.79.13-1.03.5-.43.66-1.03.96-1.82.94-.23,0-.55-.02-.69.11-1.39,1.34-2.84.46-4.24.08-.69-.19-1.28-.45-2.06-.29-.99.2-2.25-.72-2.61-1.68-.08-.21-.11-.5-.03-.7.24-.59.58-1.14.81-1.73.25-.68,1.2-.46,1.4-1.19.15-.56-.49-1.04-.12-1.6.11-.17.45-.36.16-.54-.24-.15-.6-.11-.91-.15Z"/>
      <path class="cls-83" d="M41.8,52.66c.27-.64.75-.96,1.44-.96.11.11.14.21.11.32-.04.11-.07.16-.11.16-.47.2-.9.51-1.44.48Z"/>
      <path class="cls-84" d="M43.24,52.18v-.48c.16,0,.32,0,.48,0-.16.16-.32.32-.48.48Z"/>
      <path class="cls-78" d="M80.66.42h5.27c.29.31.39.68.39,1.1-.02,3.11-1,6.11-1.03,9.24-.01,1.16-.8,2.23-1.76,3.03-.46.18-.78.5-.96.96-.52.6-1.3.61-1.97.88-.25.08-.5.14-.75.17-1.35.12-2.7.1-4.04.05-.77-.03-1.63,0-1.97-.96,1.48-.6,3.04-.7,4.6-.84,2.73-.23,2.77-.72,1.95-3.28-1.09-3.4-1.74-6.96.28-10.35Z"/>
      <path class="cls-105" d="M91.21,7.54c0,.16,0,.32,0,.48-2.53,1.22-3.23,4.11-5.28,5.76-.05.67-.41.97-1.08.93-.59-.04-.78-.42-.84-.93.2-1.49,1.04-2.75,1.53-4.14.85-2.42,1.13-4.89,1.39-7.38.08-.76.31-1.38.92-1.84,1.57,0,3.15,0,4.72,0,.15,1.2.2,2.35-.75,3.32-.18.18-.09.61-.13.92-.17.96-.4,1.91-.48,2.88Z"/>
      <path class="cls-116" d="M73.94,14.74c.39.52.95.48,1.5.48,1.74,0,3.47,0,5.21,0-.5,1.62-1.89.86-2.92,1.08-.52.11-1.26-.17-1.5.4-.29.69.39,1.15.83,1.54,1.77,1.59,4.1,2.28,5.99,3.7-.03.32.01.66-.09.95-.31.85-.93,1.16-1.68.76-1.18-.63-2.46-1.14-3.17-2.43-.36-.65-.93-1.06-1.67-1.27-.64-.19-.96-1.15-1.86-.76-.34.15-.57-.1-.81-.33-1.23-1.15-2.89-1.66-4.16-2.8-.5-.45-1.3-.55-1.97-.8-1.55-.58-1.66-.96-.72-2.43.17-.27.32-.55.49-.82.35-.58.81-.31,1.26-.15,1.56-.13,2.4.99,3.35,1.93h0c.26.29.7.2.96.48h0c.24.32.73.15.96.48Z"/>
      <path class="cls-14" d="M85.93,13.78c.17-1.15,1.02-1.9,1.61-2.8.3-.45.73-.85.91-1.35.49-1.32,1.42-1.79,2.76-1.61.44.35,1.18.26,1.38.95,0,3.19,0,6.38,0,9.57-.78-.47-1.56-.94-2.34-1.41-.14-.18-.32-.32-.48-.48h0c-.23-.41-.55-.73-.96-.96,0-.16,0-.32,0-.48-.16-.16-.31-.32-.47-.47-.16,0-.32,0-.48,0-.14-.18-.33-.31-.48-.48-.47-.2-.9-.51-1.44-.48Z"/>
      <path class="cls-79" d="M92.61,21.93c0,1.44,0,2.88,0,4.33-1.96-1.39-3.78.17-5.66.34-.67.06-.35.95-.41,1.46-.1.78.04,1.66-.79,2.13-.58.33-1.1,0-1.49-.42-.7-.77-1.05-1.61-.25-2.55.17.25.32.52.51.76.13.17.3.4.47.42.25.03.4-.24.41-.48.06-.94.13-1.86-.25-2.78-.29-.72-.45-1.49-.66-2.24,1.26-1.05,1.3-2.68,1.92-4.03.46-1.01-.52-.93-.96-1.25-.12-.46-.28-.91-.33-1.38-.02-.19.12-.47.28-.6.24-.2.43,0,.51.24.14.4.29.71.83.62,1.01-.18,1.33.65,1.79,1.27-.19,1.51.83,2.67,1.15,4.03.05.23.09.48.19.69.1.2.26.44.45.5.26.09.35-.18.43-.4.17-.44.37-.87.54-1.26.64-.09.87.48,1.33.59Z"/>
      <path class="cls-65" d="M83.06,21.95c-.87.01-1.74.05-2.39-.71-.37-.43-.88-.61-1.41-.8-1.66-.62-2.84-1.86-3.95-3.18-.26-.31-.41-.67-.23-1.08.2-.44.62-.44,1.01-.45,1.1-.02,2.21-.01,3.31-.02.48,0,.95-.05,1.27-.48h0c.96-.36,1.92-.37,2.88,0,.39.25.71.57.96.96-.52,1.56-.94,3.14-.96,4.8-.3.25-.2.7-.48.96h0Z"/>
      <path class="cls-37" d="M84.02,27.22c-.02.88-.08,1.77.74,2.38.25.18.52.44.84.19.16-.13.29-.38.3-.58.04-.87.03-1.74.04-2.61,0-.32,0-.64.04-.95.03-.23.07-.49.36-.54.26-.04.43.1.51.35.18.53.56.9,1.03.46.77-.71,1.78-.6,2.66-.93.96-.36,1.09-.21,1.77.92.08.13.21.23.31.35,0,.8-.01,1.61-.02,2.41-2.28.81-1.76-.86-1.91-2.13-.4,1.22-.9,2.36-2.28,2.65-.81.17-1.2.65-1.33,1.45-.14.84-.6,1.51-1.51,1.59-.95.09-1.37-.66-1.74-1.37-.44-.83-.98-1.65-.78-2.67,0-.96,0-1.92,0-2.88.02-.31.05-.62.08-1.11,1.14.9.8,2.03.88,3.03Z"/>
      <path class="cls-27" d="M87.85.42c-.1.83-.65,1.57-.22,2.52.4.86-1.1,1.5-.4,2.63.5.8-.22,1.65-.57,2.44-.32.72-.64,1.45-.87,2.2-.4,1.29-.93,2.51-1.78,3.58-.16,0-.32,0-.48,0,.07-.98.69-1.74,1.06-2.6.23-.51.53-1.05.31-1.58-.37-.88-.14-1.69.06-2.52.53-2.19.63-4.45.97-6.66.64,0,1.28,0,1.91,0Z"/>
      <path class="cls-20" d="M85.46,17.62c.44-.16.82-.48,1.33-.42.76.09,1.11.77.6,1.33-.62.68-.95,1.42-.99,2.33-.05,1.19-.71,1.88-1.9,2.04-.16-1.85.61-3.53.96-5.28Z"/>
      <path class="cls-34" d="M72.02,13.79c-1.36-.22-2.21-1.33-3.35-1.93,0-.32,0-.64-.01-.95.1-.04.2-.08.31-.12,1.24.57,2.72.84,3.06,2.52,0,.16,0,.32,0,.49Z"/>
      <path class="cls-105" d="M83.54,15.22c-.96,0-1.92,0-2.88,0,.5-.7,1.26-.41,1.92-.48.4.01.76.09.96.48Z"/>
      <path class="cls-34" d="M68.66,10.91c-.63-.27-.95-.75-.96-1.44.09-.05.18-.1.27-.16.21.01.4.09.56.22.34.42.64.85.14,1.36h-.02Z"/>
      <path class="cls-105" d="M88.81,15.71c.63.01.95.33.96.96-.46-.18-.78-.5-.96-.96Z"/>
      <path class="cls-105" d="M84.49,16.19c-.46-.19-.78-.5-.96-.96.63.02.95.34.96.96Z"/>
      <path class="cls-34" d="M67.22,8.51c.16,0,.32,0,.48,0,.06.07.13.14.19.2.1.29.06.55-.19.75,0,0,0,0,0,0-.38-.21-.47-.57-.48-.96Z"/>
      <path class="cls-116" d="M83.06,21.94c0-.4.09-.75.48-.96,0,.4-.09.76-.48.96Z"/>
      <path class="cls-105" d="M89.77,16.67c.16.16.32.32.48.48-.16-.16-.32-.32-.48-.48Z"/>
      <path class="cls-105" d="M87.37,14.27c.16.16.32.32.48.48-.16-.16-.32-.32-.48-.48Z"/>
      <path class="cls-105" d="M88.33,14.75c.16.16.32.32.47.47-.16-.16-.32-.32-.47-.47Z"/>
      <path class="cls-44" d="M51.39,40.18c-.06-1.01,0-1.89,1.29-2.17.48-.1.6-.69.63-1.19,1.12,0,2.24,0,3.36,0,2.11.83,3.76,1.93,3.7,4.62-.02,1.12.74,2.04,2.11,2.23,1.77.24,2.93,1.25,3.14,3.08.36,3.07-.1,3.93-2.58,5.22-1.02.02-1.39-.89-2.05-1.48-1.06,1.46.66,3.25-.6,4.63-2.62-.52-5.35-.64-7.66-2.23-.52-.36-1.14-.62-1.05-1.43,1.62-.69,2.56-1.78,2.61-3.68.03-1.28.96-2.29,1.64-3.34.49-.53,1.12-.89,1.61-1.42.7-.74,1.14-1.58.72-2.6-.44-1.07-1.48-1.63-2.47-1.64-2.15-.01-1.51,1.51-1.22,2.74-.09.93.69,2.44-.75,2.59-1.48.15-1.78-1.28-1.75-2.56.01-.58.38-1.32-.67-1.37Z"/>
      <path class="cls-41" d="M62.91,51.71c.37-.29.76-.57,1.11-.88.81-.7,1.55-1.42.87-2.63-.1-.18-.03-.47,0-.7.06-.52.57-1.04.08-1.57-.54-.58-1.11-1.13-1.71-1.65-.26-.23-.59-.04-.9.01-1.23.19-1.33.13-1.9-.86-.6-1.05-1.05-2.12-.93-3.38.1-1.01-.34-1.7-1.45-1.78-.89-.07-1.08-.83-1.42-1.44,1.17-.03,2.38.21,3.37-.8.31-.32.92-.13,1.38.06.95.4,1.85.25,2.79-.1.96-.35,1.95-.75,3.02-.6.94,3.02-.17,6.18.64,9.21.32,1.19.43,2.31-.34,3.42-.87,1.25-.21,2.43.32,3.6.06,2.04-1.42,2.83-2.94,3.59-.24.02-.47-.04-.67-.17-.51-1.08-2-1.77-1.34-3.33Z"/>
      <path class="cls-103" d="M67.71,51.71c-.31-.07-.67-.08-.8-.42-.13-.37-.1-.81-.28-1.14-.54-1-.3-1.88.44-2.6.61-.59.69-1.18.46-1.93-.21-.68-.33-1.38-.55-2.06-.31-.94-.31-1.86-.03-2.8.15-.53.2-1.09.38-1.61.23-.66,0-1.07-.58-1.35-.14-.07-.29-.15-.4-.25-.54-.48-.55-.9-.02-1.4.28-.27.6-.5.9-.75.96,0,1.92,0,2.88,0-.14,1.34-.09,2.3,1.58,2.97,1.32.54,1.52,2.45,2.01,3.85-1.33,3.38-3.4,6.35-5.34,9.39-.12.19-.41.18-.65.1Z"/>
      <path class="cls-108" d="M73.46,42.11c-.77-.74-1.09-1.72-1.46-2.68-.35-.91-.37-.91-1.57-.87-.84.02-1.28-.46-1.28-1.29,0-.81.69-1.23.95-1.88.16-.16.32-.32.48-.48.44-.15.92-.23,1.33-.45.8-.42,1.63-.57,2.51-.51.46-.07.94-.1,1.39-.22.4-.11.76-.16,1.08.16.44.45.44.99.27,1.54-.04.14-.19.24-.28.37-.94,1.34-1.45,2.87-1.97,4.4.19,1.14-.09,1.93-1.44,1.91Z"/>
      <path class="cls-77" d="M73.46,42.11c.86-.35,1.04-1.21,1.44-1.91.8-.48,1.45-1.11,1.91-1.93.52-.49,1.23-.69,1.69-1.29,1.36-1.78,2.9-1.66,4.5-.3.14.18.23.39.26.62-.12.78-.77.92-1.37,1.12-2.1.72-3.19,2.19-3.16,4.33.03,1.75-.27,3.47-.45,5.21-2.61.7-4.2,2.75-5.99,4.54-1.73,1.79-3.46,3.57-5.95,4.33-.9.13-1.63-.11-2.09-.95,0-.39.2-.66.55-.82.2-.25.34-.6.59-.72,1.17-.54,1.81-1.51,2.29-2.63.97-.89,1.27-2.18,1.97-3.25,1.35-2.06,2.53-4.23,3.79-6.35Z"/>
      <path class="cls-53" d="M83.05,36.82c-.47,0-.94.02-1.36-.24-.38-.24-.72-.74-1.22-.53-.41.18-.76.54-1.09.85-.73.7-1.36,1.56-2.56,1.36.62-1.39,1.65-2.53,2.4-3.84,2.01-.72,4.11-1.3,6.04-2.07,1.93-.77,4.06-1.11,5.85-2.24.46-.29.86-.73,1.49-.48,0,3.99,0,7.97,0,11.96-.99.2-1.21-.55-1.38-1.22-.26-.99-.47-1.99-.56-3.01-.23-2.65-.26-2.71-2.82-1.86-1.09.36-1.94-.68-2.96-.26-.16.1-.33.19-.48.3-.14.12-.28.23-.41.35-.06.06-.13.12-.19.19-.17.2-.33.41-.52.6-.07.05-.15.09-.23.14Z"/>
      <path class="cls-42" d="M92.6,29.64c-.25.19-.55.33-.75.56-.82.95-1.76,1.55-3.09,1.35-1.25-.19-2,.81-2.93,1.35-.52.31-.87.56-1.43.04-.41-.38-.72.13-.94.4-.45.56-.78,1.2-1.7.77-.22-.1-.59.13-.9.17-.55.06-1.1.09-1.64.14,0-.32-.03-.64.02-.95.17-1.14.27-1.26,1.52-1.14.56.05.89-.15,1.25-.48.52-.48.59-1.1.56-1.75,0-.1-.02-.19-.03-.29-.03-.4.02-.79.15-1.16.1-.17.22-.33.36-.46,0,0,0,0,0,0,.59.91,1.14,1.85,1.51,2.89.17.48.48.89,1.03.78.48-.09,1.05-.53.95-.93-.42-1.82.32-2.46,2.05-2.34.33.02.54-.28.73-.54.42-.57.89-1.1,1.09-1.93.57.47.75,1.02.8,1.63.07.9.72.9,1.38.91,0,.33,0,.65,0,.98Z"/>
      <path class="cls-108" d="M83.06,28.19c0,.16,0,.32,0,.48-.46.38-.05,1.05-.48,1.44-.45.15-.94.37-.96-.44,0-.31-.03-.62-.07-1.3-.35.6-.5.98-.75,1.26-.49.58-1.25.58-1.54-.1-.42-.99-1.61-1.37-1.86-2.37-.25-1.01-1.16-1.48-1.53-2.35.48,0,.95.01,1.43,0,.67-.02,1.21.13,1.61.76.55.86,1.28,1.37,2.4.96.22-.08.6.16.87.31.34.19.23.54.23.85,0,.43.34.45.65.48Z"/>
      <path class="cls-34" d="M73.94,14.74c-.39-.01-.76-.09-.96-.48,1.88.36,3.36-.57,4.83-1.52.29-.18.4-.54.16-.82-.52-.61-.58-1.19-.3-1.97.26-.75.23-1.57-.63-2.09-.61-.37-.69-1.01-.71-1.67-.05-1.87-.12-3.74-.19-5.69,1.52-.26,3.02-.17,4.52-.08-.53,1.77-.57,3.59-.47,5.41.05,1.01.43,1.98.03,3.02-.17.45.11.91.41,1.31.42.57.84,1.16,1.19,1.77.56.99.22,1.9-.82,2.29-.89.33-1.79.58-2.78.53-1.43-.06-2.86-.02-4.28-.02Z"/>
      <path class="cls-49" d="M68.68,10.9c-.16-.48-.33-.95-.49-1.43-.33-.23-.16-.72-.48-.96h0c.06-1.26-.84-2.42-.39-3.75.51-.36.71.56,1.19.33.35-.17.69-.36,1.03-.54.42-.22.82-.5,1.26-.67.97-.37,1.68.14,1.75,1.32.03.59.3,1.06.52,1.56.19.44.48.87.3,1.35-.24.63.08,1.01.42,1.48.97,1.34.73,2.54-.65,3.37-.33.2-.74.24-1.12.35-1.12-.8-2.23-1.6-3.35-2.41Z"/>
      <path class="cls-34" d="M72.98,14.26c-.4,0-.75-.09-.96-.48.4,0,.76.09.96.48Z"/>
      <path class="cls-26" d="M27.89,61.78c.16-.16.32-.32.49-.47-.16.16-.32.32-.49.47Z"/>
      <path class="cls-26" d="M28.85,61.3c.16-.16.32-.32.49-.47-.16.16-.32.32-.49.47Z"/>
      <path class="cls-92" d="M30.28,60.82c.16-.16.32-.32.49-.47-.16.16-.32.32-.49.47Z"/>
      <path class="cls-92" d="M55.71,67.55c.76.63,1.66.95,2.62.94,1.5-.01,3.02.25,4.48-.34.35-.14.78-.11,1.18-.11,2.16,0,3.79-.85,4.79-2.84.33-.65,1.03-.69,2.09-.23.2.09.34.42.59.29.26-.14.53-.36.67-.61.14-.26-.16-.35-.36-.47-.81-.51-1.91-.18-2.62-.95.09-.09.18-.17.27-.26.57-.31,1.19-.32,1.8-.35,2.89.25,5.64-.97,8.54-.73,2.4.2,2.56.54,1.49,2.71-.82,1.66-1.81,2.91-3.33,4.1-1.44,1.12-2.19,3.32-2.01,5.38.15,1.67-.16,3.16-.82,4.64-.88,3.89-2.98,7.31-4.3,11.03-.23.64-.61,1.13-1.39,1.09-.96-.24-1.58-.99-2.35-1.53-2.34-2.16-4.67-4.35-6.5-6.97-.57-.82-1.62-1.72.27-2.57,1.17-.53.17-1.39-.45-1.66-1.33-.58-2.74-.58-4.61.26,2.95,1.44,4.27,3.9,5.91,6.1,1.77,2.37,1.6,3.26-.61,5.16-1.37,1.18-2.74,2.08-4.58,2.29-1.24.14-2.11,1-2.88,1.98-.84,1.06-1.89,1.45-3.11.53-.14-1.65.3-3.27.02-4.95-.27-1.63-.06-3.35-.06-5.02,0-1.76,0-3.51,0-5.27v-10.05c.57-.31.65.26.9.46.43.32.91.46,1.32.14.58-.44,1.01-.55,1.69-.09.63.42,1.28-.07,1.2-.84-.04-.45-.41-.9.16-1.26Z"/>
      <path class="cls-57" d="M50.47,94.43c.56-.02,1.12-.01,1.67-.05.42-.03.81-.24.95-.63.72-1.96,2.44-2.41,4.17-2.63,1.1-.14,1.99-.27,2.53-1.38.29-.59,1.03-.71,1.57-1.04,1.06-.65,1.28-1.28.82-2.39-.25-.6-.58-1.13-1.06-1.58-.53-.49-1.1-1-1.27-1.71-.36-1.5-1.84-2.07-2.6-3.24-.13-.19-.56-.21-.86-.26-.51-.08-.87-.37-1.18-.74-.24-.28-.24-.58-.02-.85.36-.45.81-.77,1.42-.77.72,0,1.44,0,2.15-.01,2.56-.03,1.98.11,3.37,1.99.31.42.31.89-.04,1.32-.33.4-.7.21-1.08.07-.22-.08-.45-.14-.81-.25-.14.74.2,1.37.64,1.67.84.58,1.26,1.41,1.74,2.23.16.27.36.57.62.71,1.49.83,2.2,2.48,3.6,3.42.22.14.26.55.38.83-.05.1-.1.2-.16.3-1.8,1.46-4.24,1.91-5.89,3.48-2.1,2-5.19,2.47-7,4.82-.14.17-.3.33-.46.47-2.13,2.01-2.2-.84-3.24-1.39,0-.8,0-1.6,0-2.4Z"/>
      <path class="cls-35" d="M53.32,97.79c.16,0,.32,0,.48,0,.5-.21.66-.98,1.44-.77,2.09.55,3.68-.51,5.24-1.7.85-.65,1.82-1.24,2.77-.26.95.99-.05,1.73-.53,2.5-.21.34-.43.67-.57,1.05-.15.37-.31.8.03,1.1.36.32.77.09,1.1-.12,1.22-.77,2.33-1.63,3.14-2.88.42-.65.7-1.74,1.92-1.22-.1,3.65-3.01,7.49-6.27,8.25-1.31.31-2.71-.14-3.66-.69-2.16-1.25-4.05-.52-6.05.03-.31-.01-.61-.02-.92-.03-.65-.03-.97-.39-.98-1.02,0-.77.02-1.53.03-2.3,1.5.18,2.48-.41,2.84-1.92Z"/>
      <path class="cls-38" d="M52.35,103.07c.07-.52.28-.94.87-.94.91.01,1.69-.31,2.45-.76,1.01-.6,1.04-.59,1.53.5.18.41.43.66.86.68,1.1.05,2.16.02,3.16.75.54.39,1.29-.13,1.67-.58.6-.71,1.2-1.22,2.18-1.17.18.01.5-.18.56-.36.74-1.99,2.13-3.7,2.56-5.82-.02-2.09.77-2.83,3.23-3.05.36.34.31.77.04,1.06-2.25,2.48-3.05,5.7-4.4,8.64-.68,1.48-1.39,2.75-3.27,3.09-1.32.24-1.97,1.8-3.29,2.26-1.2-.35-2.27-.97-3.33-1.62-.6-.36-1.2-.76-1.94-.79,0,0,0,0,0,0-.14-.18-.33-.3-.48-.47-.8-.49-1.76-.69-2.4-1.44Z"/>
      <path class="cls-98" d="M53.32,97.79c.18,1.35-.95,2.04-1.35,3.1-.73-.33-.65-1.31-1.49-1.17,0-.96,0-1.92,0-2.88.89.12,1.69.32,1.61,1.52-.02.22.36.24.56.08.24-.19.45-.42.67-.64Z"/>
      <path class="cls-28" d="M54.75,104.51c.16.16.32.31.48.47-.16-.16-.32-.31-.48-.47Z"/>
      <path class="cls-39" d="M4.86,48.82c-.16,0-.32,0-.48,0v-2.33c.63.73.41,1.55.48,2.33Z"/>
      <path class="cls-39" d="M4.38,48.83c-.11.81.31,1.72-.48,2.4.11-.81-.31-1.73.48-2.4Z"/>
      <path class="cls-39" d="M5.34,48.82c-.02.23.01.6-.24.6-.25,0-.22-.36-.24-.59.16,0,.32,0,.48,0Z"/>
      <path class="cls-36" d="M74.42,78.58c.05-.23.02-.53.16-.69,1.06-1.24.99-2.64.56-4.05-.2-.68-.18-1.22.26-1.77.55-.7.83-1.5,1-2.39.21-1.13.7-2.01,2.11-2.22,1.22-.18,1.45-.68,1.37-1.99-.03-.45.06-.78.39-1.04.25-.2.55-.32.8-.52.42-.34.62-.99.4-1.25-.33-.4-.72-.21-1.07-.05-.78.33-1.53-.58-2.3-.04-2.37-.12-4.63,1.02-7.02.64-.11-.13-.15-.26-.13-.4.03-.14.06-.21.09-.21,3.17-.2,4.7-2.48,6.12-4.9-.26-.1-.33.24-.51.35-.51.34-.95,1.13-1.59.77-.82-.45-.34-1.28-.13-1.93.5-1.51,1.42-2.85,1.9-4.37.63-1.35,1.3-2.69,2.39-3.75.23-.08.45-.06.65.08.56,1.82,1.7,3.49,1.36,5.53-.2.4-.44.77-.66,1.16-.1.2-.21.38-.33.57-.11.2-.32.47-.18.64,1.1,1.35,1.11,1.34.28,2.58,1.21-.98,2.68-1.07,4.08-.93,1.58.16,2.35-.54,2.91-1.86.47-1.11.75-2.27.97-3.44.21-1.11.56-2.12,1.39-2.98,1.6-1.66,1.7-3.42.26-5.24-.69-.87-1.55-1.57-1.57-2.83,0-.81-.83-.84-1.39-1.09-1.73-.76-3.1-1.92-3.9-3.68,0-.16,0-.32,0-.48h0c.3-.25.2-.7.48-.96.16-.16.32-.32.48-.48,4.22,1.75,7.68,4.22,8.59,9.1,0,6.09,0,12.18,0,18.26-5.98.86-8.64,5.59-11.81,9.89-1.58,2.15-2.09,4.84-3.98,6.8-.72.75-.32,1.99-.31,3.02,0,.73.53,1.62-.57,2.06-1.96-.9-2.42-1.86-1.79-3.8.23-.7.96-1.31.27-2.12Z"/>
      <path class="cls-75" d="M92.59,88.68c0,.64,0,1.27,0,1.91-.28.28-.51.63-.87.79-5.17,2.27-8.82,6.28-12.25,10.57-.49.61-.95,1.28-1.71,1.62-.95.34-1.75-.11-1.79-.95-.15-3.55-2.68-6.38-2.88-9.89,0-.27.08-.51.2-.75.34-.42.8-.67,1.3-.85,4.91-1.37,10.04-1.75,14.85-3.53,1.34-.49,2.31.07,3.13,1.09Z"/>
      <path class="cls-46" d="M75.86,84.34c.26-.22.44-.48.29-.82-.48-1.07-.28-2.2-.27-3.31.02-1,.32-1.81,1.44-2.21.85-.3.84-.45.36-1.4-.21-.42-.27-.77.08-1.06,1.18-.97,2.24-2.02,2.65-3.56,1.43-1.2,2-3,3.1-4.44.69-.9,1.34-1.72,2.53-2.03.93-.24,1.68-.68,1.52-1.98-.09-.79.58-1.12,1.46-.92,1.19.26,2.38.08,3.57.15,0,1.6,0,3.19,0,4.79-2.63,1.69-4.29,4.41-6.7,6.32-.54-.64-.99-1.22-1.86-.27-1.63,1.8-3.89,3.06-4.65,5.6-.13.44-.55.78-.96,1.03-1.21.73-1.5,1.38-.28,2.53,1.12,1.05.69,2.32-.32,3.36-.49.5-1.32.62-1.54,1.41-.03.32-.07.64-.18.94-.12.2-.29.32-.52.34-.49-.08-.82-.37-1.04-.8-.78-1.66-.36-2.9,1.33-3.67Z"/>
      <path class="cls-109" d="M85.94,73.79c.57-1.24,1.45-2.24,2.43-3.17.34-.32.6-.74.91-1.1.89-1.02,1.95-1.76,3.33-1.97,0,4.48,0,8.97,0,13.45-.41.39-.59.91-.78,1.42-.33.86-.8,1.4-1.7.57-1.23-1.13-3.59-.28-4.26-2.42-.68-2.27-1.14-4.54.07-6.78Z"/>
      <path class="cls-58" d="M92.62,109.75c-1.17.21-2.19-.32-3.24-.66-.52-.17-.92-.12-1.31.25-.57.54-1.15,1.06-1.64,1.51-.49-.07-.49-.33-.49-.55.02-1.68-.56-3.06-1.99-4.03-.38-.26-.42-.66-.42-1.06,0-.73-.06-1.43-.49-2.06-.45-.66-1.72-.79-2.03-.07-.49,1.12-1.19,2.04-2.01,2.92-.1.11-.18.28-.2.43-.37,2.8-2.31,4.21-4.64,5.27-.14.06-.29.1-.44.16-.37-.3-.24-.72-.27-1.11-.06-.81.4-1.46.65-2.18.4-.76.52-1.78,1.71-1.77.26.36.32.96.97.19,1.34-1.59,1.81-3.74,3.45-5.1.72-.38,1.44-.76,1.86-1.52.12-.18.25-.35.4-.5.16-.15.34-.27.55-.37.22-.06.44-.06.66-.02q2.63,3.13,5.89.55c.6-.47,1.34-1.27,2.08-.68.82.65.41,1.62-.1,2.37-.75,1.1-.93,2.57-2.19,3.35-.43.27-.59.75-.31,1.26.28.5.74.55,1.24.46.85-.15,1.75-.53,2.28.57,0,.79,0,1.59.01,2.38Z"/>
      <path class="cls-73" d="M92.61,107.37c-.43-.16-.82-.47-1.35-.26-.66.26-1.35.43-1.98.62-.64-.43-.82-1.06-1.09-1.63-.36-.78-.26-1.25.57-1.49,1.01-.29,1.48-.82,1.53-1.83.03-.61.51-.97.88-1.38.34-.37.53-.79.49-1.3-.01-.15-.05-.34-.15-.43-.08-.07-.32-.08-.41-.01-.63.47-1.46.68-1.82,1.49-.24.54-.72.81-1.22,1.08-2.13,1.17-3.02.89-3.99-1.44-.23-.55-.31-1.06-1.02-1.1,1.04-3.35,6.87-5.99,9.55-4.32,0,4,0,7.99,0,11.99Z"/>
      <path class="cls-30" d="M92.61,95.38c-.16,0-.33.03-.47-.02-1.4-.45-2.75-.77-3.84.67-.15.2-.57.28-.87.29-.69.04-1.21.37-1.61.87-.79.99-2.23,1.24-2.76,2.51-.18.14-.32.32-.48.48-.5.78-1.14,1.42-1.92,1.92-.79.79-1.41,1.71-1.83,2.74-.49,1.2-1.4,2.1-2.12,3.14-.2.28-.52.4-.83.24-.41-.21-.08-.55-.07-.84,0-.16.03-.32.05-.47-.16-.17-.22-.37-.19-.6.3-1.34,1.28-2.24,2.11-3.24,1.95-2.29,3.95-4.54,5.95-6.79,2.47-2.78,5.57-4.34,8.87-5.7,0,1.6,0,3.2,0,4.8Z"/>
      <path class="cls-76" d="M92.59,88.68c-.44-.16-.91-.26-1.33-.48-.69-.36-1.28-.47-1.93.12-1.13,1.03-2.68.98-4.03,1.18-2.73.41-5.38,1.15-8.08,1.7-.94.19-1.85.36-2.8.36-.05-.1-.09-.2-.14-.3.06-.22.18-.4.36-.54,1.31-.54,1.69-1.98,2.72-2.79,2.04-.3,3.7-2.39,6.07-1.28.38.18.59-.37.82-.7,2.11-2.93,2.15-2.93,4.77-.62.24.21.53.35.8.52,1.03.64,2.28,1.03,2.77,2.32,0,.17,0,.33-.01.5Z"/>
      <path class="cls-77" d="M92.6,44.48c-.87-.44-1.16-1.27-1.36-2.13-.41-1.81-1.38-3.12-3.07-3.95-1.55-.77-2.94-1.78-4.17-3.02.13-.2.22-.43.39-.59.79-.8.79-.8,1.7-.16.19.14.39.27.59.39.47.27.88.3,1.21-.23.56-.9,1.36-1,2.27-.62.63.27,1.1.68,1.02,1.43-.18,1.61.35,3.13.51,4.7.06.61.36,1.03.9,1.3,0,.96,0,1.92,0,2.88Z"/>
      <path class="cls-55" d="M92.6,88.18c-.94-.64-1.89-1.27-2.83-1.91-1.59-1.26-2.99-2.68-3.63-4.68.02-.23.12-.43.28-.61.73.39,1.31,1.19,2.34.59.43-.25.92.05,1.27.41.32.34.63.69,1.08,1.19.1-1.12.2-2.13,1.49-2.18,0,2.39,0,4.79,0,7.18Z"/>
      <path class="cls-70" d="M8.2,56.53c.2.97.54,1.85,1.44,2.39-.04.39.05.86-.15,1.14-.96,1.34-2.1,2.56-3.48,3.44-.62.4-1.32.67-1.87,1.21-.09.09-.23-.32-.27-.54,1.14-2.35,2.28-4.69,3.4-7.05.2-.43.5-.57.92-.6Z"/>
      <path class="cls-63" d="M5.82,48.83c.56-.36.68-1,1-1.52.45-.73,1.59-.66,2.03.12.13.23.02.43-.12.63-.18.25-.34.51-.51.77-.65.31-1.13.79-1.44,1.44-.31.24-.16.72-.48.96h0c-.89.05-.77-.41-.48-.96,0-.48,0-.96,0-1.44Z"/>
      <path class="cls-39" d="M5.82,50.26c.01.39.09.75.48.96-.01.08,0,.17-.04.23-.12.18-.24.43-.41.49-.27.08-.4-.19-.45-.42-.1-.49-.04-.94.42-1.25Z"/>
      <path class="cls-39" d="M6.3,51.22c0-.4.09-.75.48-.96,0,.32,0,.64,0,.95-.16,0-.32,0-.48,0Z"/>
      <path class="cls-104" d="M13.5,64.67c-.16.16-.32.32-.49.48.16-.16.32-.32.49-.48Z"/>
      <path class="cls-54" d="M91.21,7.54c-.62-.43-.49-1.07-.45-1.67.04-.6.41-.96.93-1.21.4.06.78.18.88.63.07.3.07.62.07.93-.01,1.04-.06,1.07-1.43,1.32Z"/>
      <path class="cls-105" d="M92.59,8.98c-.47-.3-1.07-.42-1.38-.95q1.17.06,1.38.95Z"/>
      <path class="cls-51" d="M57.15,161.14c-.39-.03-.78-.03-1.15-.1-.34-.06-.64-.06-.76.29-.21.65-.68.77-1.26.77-1.16,0-2.33,0-3.49.01-.02-1.67.01-3.35-.06-5.02-.05-1.04.26-1.86,1.05-2.53.24-.2.43-.47.62-.72.2-.27.04-.62-.31-.7q-1.17-.27-1.38-1.61c.02-.47.05-.95.07-1.42,1.62-1.1,3-.5,4.33.57.4,1.24,2.4,1.15,2.34,2.78.86,1.04,1.15,2.12.71,3.51-.42,1.33-.49,2.78-.71,4.17Z"/>
      <path class="cls-102" d="M54.75,151.07c-1.31-.84-2.73-1.13-4.27-.96-.03-.17-.06-.33-.1-.5.03-.32.06-.64.08-.96.29-.47.6-.95.62-1.51.14-2.9,1.16-3.93,4.08-4.05.55-.02,1.09-.17,1.65-.03.61.21,1.13.58,1.65.94,1.73,1.17,1.83,2.07.22,3.29-1.48,1.11-2.38,2.77-3.94,3.78Z"/>
      <path class="cls-115" d="M56.67,143.38c-.9.07-1.74.74-2.72.18-.35-.2-.71.19-1.01.45-.47.41-.71,1-1.24,1.4-.69.51-.64.58-.05,1.23.6.66.61.67-.05,1.19-.37.29-.76.55-1.14.83,0-1.92,0-3.85,0-5.77,2.18-2.3,5.28-1.9,7.97-2.72.49-.15,1.04.05,1.22.53.64,1.68,2.29,2.4,3.37,3.66-.26,1.52-1.19,1.24-2.25.91-1.46-.45-2.47-1.87-4.11-1.89Z"/>
      <path class="cls-7" d="M62.91,144.34c-1.74-.41-2.94-1.53-3.55-3.11-.29-.74-.65-.73-1.2-.72-.08,0-.16,0-.23.02-1.11.39-2.2,1.03-3.33,1.09-1.15.06-2.09.3-3.01.96-.29.21-.74.21-1.11.3,0-.95,0-1.9,0-2.85.32-.03.69.04.94-.1.83-.46,1.6-1.16,2.51-.14.05.05.17.11.22.08,1.35-.61,2.64.32,3.96.15.48-.65,1.33-.54,1.92-.96h.96c1.29,1.46,2.71,2.82,3.58,4.62-.18.48-.58.69-1.03.84-.24.04-.45-.02-.63-.18Z"/>
      <path class="cls-111" d="M64.83,176.02c.19-.44.52-.75.95-.96.64-.31,1.13-.79,1.45-1.44,2.34-3.25,5.81-4.53,9.48-5.46,1.24-.32,2.47-.61,3.42-1.59.61-.62,1.36-1.34,2.3-.76.88.54,1.06,1.47.75,2.48,1.26-.84,2.13-2.1,3.39-3.32-1.18.04-2.15.28-3.14.39-2.18.25-4.28.3-5.81-1.81-.93-1.29-2.34-1.39-3.61-.48-1.01.72-1.9.63-2.88.09-.19-.1-.37-.22-.53-.37-.13-.17-.2-.37-.2-.59.05-.32.17-.61.31-.89.1-.19.22-.36.36-.52.15-.15.32-.28.5-.39.2-.09.4-.15.62-.18q2.26.21,3.68-1.48h0c.54.7,1.31.47,1.99.47.7,0,1.16.27,1.59.84.63.83,1.35,1.54,1.27,2.72-.03.36.23.75.4,1.1.23.5.73.76,1.18.57,1.42-.59,3.1-.39,4.31-1.71.87-.95,2.28-.98,3.54-1.03.2,0,.44.17.61.32.25.22.35.52.12.83-.05.06-.11.11-.17.17-.68.63-2.02.34-2.28,1.51-.18.85-.14,1.73-.76,2.45-.24.28-.09.62.15.85.7.66.57,1.44.34,2.21-.29.97-.71,1.21-1.78.91-.63-.18-1.25-.19-1.89-.21-1.68.11-2.72.48-2.14,2.67.34,1.3-.18,2.74-1.65,3.64-1.24.76-1.89,1.85-.62,3.32.97,1.12.02,2.26-.46,3.27-.19.4-.64-.14-.89-.42v-.48c-.17-.15-.3-.34-.48-.48-.13-.29-.27-.58-.4-.86-.47-1.03-1.32-1.35-2.21-.81-.2.12-.32.35-.52.48-1.34.93-1.82,1-3.12-.1-.51-.43-1.31-.03-1.58-.77,1.01-1.08,2.02-2.15,3.03-3.22,1.36-1.07,3.22-1.81,2.41-4.18-.2-.58-.35-1.23-1-.98-1.78.68-3.95.59-5.17,2.49-1.04,1.62-2.51,2.24-4.4,1.72h-.48Z"/>
      <path class="cls-12" d="M65.31,176.02c.76-.22,1.51-.44,2.27-.66.86-.25,1.63-.54,1.67-1.68.02-.61.58-.99,1.12-1.11,1.82-.4,3.44-1.43,5.32-1.66.59-.07,1.17.45.95,1.01-.39.98-.17,1.84.11,2.76.22.72-.06,1.21-.8,1.5-.8.32-1.65.53-2.47.79-1.09.18-2.18.35-3.26.54-.5.09-.83.45-1.17.78-1.07,1.05-2.13,2.11-2.85,3.45-.24.44-.63.43-.97.07-.43-.46-.7-1.03-1.19-1.47-.82-.72-.86-1.7-.23-2.53.48-.63,1.01-1.21,1.52-1.82Z"/>
      <path class="cls-24" d="M60.51,179.38c.76-1.04,1.45-2.16,2.88-2.4-.63.97-1.6,1.76-1.6,3.07,0,.14-.31.4-.48.4-.28.01-.26-.34-.37-.53-.11-.2-.28-.36-.43-.54Z"/>
      <path class="cls-106" d="M78.74,183.22c.35.08.77.41.94-.21.11-.38.1-.8.24-1.16.21-.52.08-.91-.27-1.3-.36-.41-.97-.79-.73-1.39.36-.92.26-2.19,1.44-2.59.88-.3,1.24-.93,1.56-1.67.31-.73.08-1.39-.18-2.07-.2-.51-.31-1.06-.51-1.76.15-.1.36-.21.53-.37.66-.62,1.31-.76,2.05-.1.15.14.45.11.69.15-.2.47-.51.9-.48,1.44h-.48c-.72.44-.3,1.45-.96,1.92v1.44c.34.57-.24.68-.48.96-.16.16-.32.32-.48.48-.16.16-.34.3-.48.48-.31.24-.65.46-.93.73-.38.36-.52.79-.15,1.26.1.12.2.25.32.36.88.84,1.03,1.74.26,2.75-.23.31-.36.7-.52,1.06-.14.32-.37.51-.73.47-.52-.06-.57-.47-.64-.86Z"/>
      <path class="cls-74" d="M82.58,174.1c0-.45-.01-.89,0-1.34.03-.72.04-.72.96-.58,0,.3-.01.6-.01.9,0,.64-.32.97-.95,1.02Z"/>
      <path class="cls-74" d="M82.1,176.5c.16-.32.32-.64.48-.96.49.65.44.75-.48.96Z"/>
      <path class="cls-74" d="M81.62,176.98l.48-.48-.48.48Z"/>
      <path class="cls-74" d="M81.14,177.46l.48-.48-.48.48Z"/>
      <path class="cls-106" d="M78.26,182.26c.16.16.32.32.48.48-.16-.16-.32-.32-.48-.48Z"/>
      <path class="cls-10" d="M86.41,141.46c-.62.28-.34,1.16-.96,1.44-.67.26-1.07,1.05-1.92.96-.68-.74-.3-1.48.02-2.2.99-2.24,1.49-4.47.02-6.72-.43-.65.11-1.4-.13-2.09.05-1.29.48-2.64-1.16-3.44-.65-.32-.8-1.21-.73-1.93.24-2.61-1.1-4.68-2.58-6.49-1.45-1.78-2.32-4-4.22-5.43-.74-.56-.83-1.34,0-2,.22-.12.43-.11.62.06.7-.07,1.32.16,1.92.49,3.13,1.75,5.02,4.55,6.2,7.79.64,1.74,1.17,3.43,2.48,4.8.71.75,1.08,1.76,1.39,2.75.14.45.24.93.52,1.33.68.95,2.64,1.08,2.07,2.79-.71,2.15-.88,4.54-2.47,6.33-.43.49-.73,1.04-1.08,1.56Z"/>
      <path class="cls-52" d="M86.41,141.46c-.06-.76.24-1.34.71-1.95.76-.98,1.56-2,1.28-3.4-.09-.45.24-.71.53-1,.46-.46.75-1.02.81-1.69.07-.73-.24-1.23-1.02-1.22-.68.01-1.05-.25-1.33-.78-.11-.21-.27-.42-.3-.65-.33-2.14-1.36-3.89-2.97-5.31-.37-.33-.52-.77-.6-1.27-.11-.7-.3-1.4-.48-2.09-.3-1.17-.79-2.28-1.64-3.15-.9-.92-1.74-1.85-2.27-3.05-.15-.33-.52-.6-.84-.81-.42-.26-.79-.54-.99-1,1.42-.08,2.86.22,4.25-.37.27-.11.64-.09.94-.04,1.71.33,3.41.67,5.11,1.04.28.06.62.18.77.6-.55.36-1.18.17-1.76.2-.69.03-1.12.36-1.59.86-1.33,1.43-1.5,2.85-.35,4.44.18.24.33.61.28.88-.31,1.67,1.02,2.57,1.71,3.78.45.8,1.59.32,2.02,1.07.34.59-.05,1.45.7,1.94,1.19.79,1,2.05.98,3.21-.03,1.66-.21,3.31-.57,4.94-.3,1.45-1.18,2.61-1.92,3.84-.48.32-.96.64-1.44.96Z"/>
      <path class="cls-3" d="M74.9,113.63c-.29.59-.59,1.13.26,1.6.55.3.98.81,1.48,1.2.25.2.58.37.58.71.01,1.19.87,1.83,1.58,2.56.79.8,1.38,1.74,1.84,2.76.13.29.18.67.4.85,1.08.87,1.11,2.05,1.06,3.26-.02.4.02.8,0,1.2-.05.93.42,1.5,1.24,1.84.15.06.29.14.43.21,1.17.56,1.21.59.33,1.72-.38.48-.26.86-.08,1.3-.7,1.94-2.08,3.59-2.4,5.7-.07.44-.53.77-1.1.61-.84-.53-.94-1.45-1.14-2.29-.82-3.33-2.13-6.59-.61-10.11.68-1.59.13-3.09-1.03-4.42-1.58-1.8-1.93-4.37-3.78-6.05-.78-.71-1.44-1.48-2.52-1.71-.78-.45-1.64-.84-1.33-2.01.5-.33.98-.27,1.43.11.32,0,.64,0,.96,0,.38.45,1.05.05,1.44.48h0c.24.32.73.15.96.48Z"/>
      <path class="cls-15" d="M74.42,108.83c-.08.76-.33,1.43-.96,1.92-.14.17-.38.32-.41.5-.15.92-.8.96-1.51.94-.43.42-.97.14-1.46.25-.2.04-.41.03-.61-.01-.4-.1-.8-.19-1.2-.28-.91-.33-1.71-.84-2.48-1.4h0c-.66-.96-2.56-.44-2.58-2.17,2.34-1.17,4.45-2.83,7.24-2.98,2.96-.16,3.32.06,3.97,3.23Z"/>
      <path class="cls-101" d="M90.59,127.4c-.57-.23-1.12-.4-1.25-1.05-.24-1.24-.67-2.44-.54-3.74.09-.89-.03-1.71-.9-2.3-.48-.33-.4-.79.01-1.19.84-.82,1.69-.92,2.53-.22.48.41.91.89,1.34,1.35.31.33.36.73.06,1.07-.43.5-.43.98-.11,1.52.94,1.57,0,2.89-.61,4.24-.07.16-.38.23-.54.32Z"/>
      <path class="cls-93" d="M87.85,140.5c.11-.37.15-.76.33-1.09.5-.93,1.06-1.83,1.59-2.75,0,.48,0,.96,0,1.44-.65.79-.92,1.89-1.92,2.4Z"/>
      <path class="cls-58" d="M69.63,112.19c.64,0,1.28,0,1.91,0,0,.16,0,.32,0,.48-.48,0-.96,0-1.44,0-.44.13-.57-.06-.48-.47Z"/>
      <path class="cls-58" d="M74.9,113.63c-.39-.01-.75-.09-.96-.48.53.01,1.09-.09,1.44.47-.16,0-.32,0-.48,0Z"/>
      <path class="cls-58" d="M73.94,113.15c-.53-.01-1.09.08-1.44-.48.53.01,1.1-.09,1.44.48Z"/>
      <path class="cls-48" d="M77.78,150.59c1.1.32,2.2.59,3.36.48.14.18.33.31.48.48.16,0,.32,0,.48,0,.18.29.46.4.77.5.44.13.99.24.79.9-.12.4-.62.44-1.2.13-.28-.15-.53-.35-.81-.47-.34-.14-.83.15-.91.53-.05.23-.08.47-.08.71,0,1.98-1.41,3.07-2.72,4.18-.57.49-1.38.18-2.08.24-.41.18-.6-.07-.76-.38-.37-1.3,1.26-2.28.58-3.63.21-1.5,1.09-2.62,2.1-3.67Z"/>
      <path class="cls-74" d="M75.38,157.79c.16.16.32.32.48.48v.48c-.44.31-.29.59-.04.98.44.68.19,1.25-.52,1.36-.56.09-1.13.13-1.65-.11-.68-.31-1.39-.31-2.11-.31-.28-1.17.75-1.61,1.3-2.33.75-.61,1.48-1.35,2.54-.55Z"/>
      <path class="cls-74" d="M88.83,158.49c.49.2.45.61.39.99-.07.44-.36.68-.83.58-.37-.08-.58-.54-.41-.94.16-.36.38-.69.85-.62Z"/>
      <path class="cls-9" d="M57.15,167.86c0-.16,0-.32,0-.48.8-.64,1.6-1.28,2.4-1.92.51-.96,1.7-.8,2.4-1.44h0c.54-.54-.03-1.37.48-1.92.32,0,.64,0,.96,0,.51.4,1.21.43,1.53,0,1.67-2.12,4.06-1.21,6.14-1.58.21.2.21.41,0,.61h0c-.3.25-.2.7-.48.96-.14.17-.25.37-.32.58-.15.17-.33.3-.53.41-.66.35-1.36.08-2.11.1,2.08.44,2.37,1.04,1.27,2.64-.8,1.17-2.2,1.9-2.55,3.41-.08.21-.17.41-.29.6-.12.19-.26.36-.42.51-.16.16-.33.3-.5.44-1.07,1.11-1.79,2.54-3.19,3.32-.32.16-.64.32-.96.48-1.11.02-2.22-.09-3.29.36-.59.25-1.05-.16-1.45-.58-.25-.26-.33-.56-.12-.85.45-.63.84-1.2,1.77-1.41,1.73-.38,2.53-1.58,2.6-3.47.03-.82.1-1.58.66-2.22.16-.18.22-.44.01-.64-.19-.18-.43-.16-.64-.01-.71.51-1.43,1-2.1,1.55-.39.31-.78.54-1.28.55Z"/>
      <path class="cls-25" d="M57.45,177.12c-.14.05-.3.18-.4.14-.09-.04-.12-.25-.17-.39.14-.05.3-.18.4-.14.09.04.12.25.17.39Z"/>
      <path class="cls-61" d="M80.66,139.06c.44-.26.78-.74.74-1.13-.2-2.01,1.06-3.23,2.24-4.52.15-.17.25-.39.38-.59.42.27.38.58.18,1-.43.92-.43.98.38,1.36.48.23.87.39.63,1.01-.4.99-.21,2.03-.22,3.05-.01.81-.11,1.53-.65,2.21-.55.68-.89,1.49-.8,2.41-.18.14-.31.33-.48.48v.48c.17,3.01-1.62,4.8-4.32,4.32-.32-.16-.64-.32-.96-.48-3.05-1.14-5.68-3.09-8.57-4.55-1.43-.72-2.6-.98-3.9.02-.36.06-.69,0-.95-.27-.07-.22-.07-.57-.22-.64-1.74-.87-2.49-2.47-3.14-4.15.75-.58,1.48-.18,2.23.01.59.15.94.53,1.18,1.06.16.36.35.71.55,1.05.33.56.61.6,1.13.22.44-.32.89-.64,1.32-.97.61-.46,1.18-.25,1.75.07,1.55,1.26,2.57,3.37,5.05,3.11.22.04.43.13.62.24,1.41,1.34,3,.37,4.5.28.72-.04.41-.61.31-1.08-.32-1.49-.43-2.96,1.03-4Z"/>
      <path class="cls-66" d="M62.91,144.34c.16,0,.32,0,.48,0,.82-.41,1.42-.3,1.96.55.19.3-.71.67,0,.51,1.25-.3,2.49-.18,3.73-.25,3.03.19,5.54,1.51,7.74,3.52.29.48.29.96,0,1.44-.26.29-.6.4-.97.42-.23,0-.47-.03-.7-.07-1.88-.15-3.72-.82-5.65-.47-.77.14-1.47-.12-1.72-.93-.66-2.09-2.06-1.26-2.94-.51-1.93,1.65-4.07,2.33-6.51,2.11-.43,1,.67,1.98-.23,2.82h-.96c-.27-.6-.74-.94-1.4-.96-.97-.04-1-.72-1-1.43.05-.23.01-.54.15-.68,1.23-1.29,2.12-2.91,3.83-3.74.91-.45.9-1.23.04-1.84-.69-.48-1.57-.69-2.1-1.42.42-.58.99-.59,1.43-.17,1.02.96,2.45,1.06,3.56,1.85.57.41.98-.22,1.25-.73Z"/>
      <path class="cls-2" d="M76.82,148.66c-1.26-.68-2.48-1.43-3.78-2.02-1.22-.55-2.53-.91-3.9-.86-1.13-.93-2.54-1.31-3.84-1.92,1.7-1.61,1.67-1.55,3.52-.57,1.59.85,3.24,1.58,4.7,2.68.29.22.75.2,1.12.32.29.1.71.19.82.41.49,1.01,1.67,1.17,2.32,1.96h-.96Z"/>
      <path class="cls-10" d="M78.74,149.15c.48,0,.96,0,1.44-.03.43-.02.82-.19.88-.64.09-.69.47-1.12.99-1.55.63-.52.94-1.27,1.02-2.1.5.32.7.85.86,1.37.2.64.04,1.22-.4,1.76-1.08,1.34-2.55,1.77-4.16,1.84-.2,0-.41-.42-.62-.65Z"/>
      <path class="cls-51" d="M75.86,150.11c.32,0,.64,0,.96,0,.32.16.64.32.95.48-.05.8-.47,1.43-.88,2.07-.37.57-.69,1.18-1.04,1.77-.02.09-.04.19-.06.28-.09.17-.21.33-.35.47-.08.07-.15.13-.23.19-.18.11-.37.17-.58.19-.1-.04-.19-.08-.29-.12-.05-.09-.11-.18-.16-.28-.02-.11-.03-.21-.05-.32.38-1.65,1.95-2.87,1.72-4.74Z"/>
      <path class="cls-94" d="M81.62,151.54c-.16-.16-.32-.32-.48-.48.16.16.32.32.48.48Z"/>
      <path class="cls-10" d="M83.06,144.35c.16-.16.32-.32.48-.48-.16.16-.32.32-.48.48Z"/>
      <path class="cls-13" d="M70.58,162.58c.48.01.99-.06,1.38.27.63.53.98.39,1.56-.21,1.01-1.05,2.99-1.09,4.16-.27.19.13.41.35.44.55.21,1.57,1.54,1.69,2.65,1.98.67.17,1.49.22,2.12,0,1.3-.47,2.71-.2,3.97-.76.07-.03.17-.05.23-.02.2.1.46.17.57.34.2.3.11.74-.18.82-.92.27-1.42.92-1.91,1.68-.62.97-1.67,1.45-2.6,2.05-.08.05-.32-.02-.41-.11-.09-.09-.14-.36-.1-.4.69-.54.35-1.12.12-1.71-.32-.84-.74-.99-1.38-.42-.65.57-1.18,1.35-1.91,1.76-.73.4-1.67.43-2.51.66-1,.27-2,.51-2.97.86-1.05.37-2.05.86-3.09,1.27-1.02.4-1.43,1.46-2.31,2.03-.39.25-.67.67-1.19.69.66-1.27,1.59-2.33,2.67-3.25.31-.26.59-.5.65-.93.08-.56-.2-1.16-.69-1.4-.48-.23-.92-.12-1.31.22-.54.47-.97,1.01-1.39,1.59-.73,1-1.39,2.15-2.81,2.33-.61-1.1.41-1.39.96-1.92.16-.16.32-.32.48-.48.45-1.31,1.33-2.2,2.45-3.01.98-.7,2.5-1.36,1.23-3.1-.32-.45.28-.8.64-1.09h0c.16-.17.32-.17.48,0Z"/>
      <path class="cls-74" d="M65.31,170.26c-.26.67-1.05,1.07-.96,1.92-.37,1.18-1.31,1.64-2.4,1.92.64-1.13,1.89-1.84,2.18-3.24.1-.47.69-.57,1.17-.6Z"/>
      <path class="cls-51" d="M58.11,153.46c0-.56-.01-1.11-.4-1.59-.2-.24-.36-.53-.47-.82-.2-.54.27-1.19.83-1.15.31.02.62.16.94.17.95.03,1.93.16,2.79-.4.76-.49,1.71-.52,2.28-1.54.49-.88,1.8-.86,2.81-1.02.88-.14,1.08,0,1.27.93.05.23.01.48.06.71.12.62.43.87.98.74.62-.15,1.2-.45,1.86-.34,1.39.24,2.78.5,4.16.77.06.01.11.11.17.17-.97.91-2.17.59-3.3.66-1.49-.22-2.63.12-3.21,1.71-.66,1.79-2.72,2.09-3.83,3.44-.41.5-1.52.87-.73,1.63.7.67,1.25-.22,1.67-.77.5-.66.86-1.32,1.83-.45,2.26,2.03,2.6,1.96,4.77-.39.52-.5,1-1.11,1.83-.54h0c.16.11.22.26.19.45-.09.25-.24.47-.4.68-.14.22-.28.44-.41.66-.09.16-.19.3-.29.44-.1.15-.22.29-.33.43-.06.08-.11.15-.17.22-.21.34-.43.66-.72.93-1.09,1.31-2.45,1.83-3.97.94-1.51-.88-2.32-.24-3.01,1.02-.63-.02-1.26-.02-1.89-.08-.32-.03-.73-.31-.67-.56.27-1.16-.62-1.22-1.3-1.56-.49-.24-.95-.56-1.37-.9-.63-.51-1.06-1.14-1.01-2.03.06-.98-.14-1.89-.95-2.55Z"/>
      <path class="cls-113" d="M65.31,161.15c0-.24-.02-.48,0-.71.2-1.6.76-1.94,2.18-1.3.58.26,1.13.56,1.71.82.8.36,1.52.28,2.19-.34.34-.32.74-.58,1.11-.87.08-.06.16-.12.24-.18.08.06.16.12.24.19-.48.64-.96,1.28-1.44,1.92-.16.16-.32.17-.48,0-.5,0-.91.22-1.29.54-.47.4-.99.47-1.55.2-1-.48-1.84-.23-2.56.57-.4.43-.89.64-1.49.59-.34-.03-.59-.19-.79-.46.82.04,1.56-.08,1.92-.96Z"/>
      <path class="cls-113" d="M61.95,164.02c-.22.51-.6.82-1.15.96-.43.11-.83.32-1.25.48.27-1.36,1.35-1.37,2.4-1.44Z"/>
      <path class="cls-113" d="M62.43,162.11c-.07.66.22,1.42-.48,1.92.07-.66-.22-1.42.48-1.92Z"/>
      <path class="cls-39" d="M10.62,49.3c.54-.03.97.28,1.44.48-.73.52-.8.5-1.44-.48Z"/>
      <path class="cls-110" d="M12.53,49.78c.21-.39.56-.47.96-.48-.2.39-.56.47-.96.48Z"/>
      <path class="cls-110" d="M13.97,48.82c.16-.16.32-.32.48-.48-.16.16-.32.32-.48.48Z"/>
      <path class="cls-110" d="M13.49,49.3c.16-.16.32-.32.48-.48-.16.16-.32.32-.48.48Z"/>
      <path class="cls-68" d="M69.63,112.19c.16.16.32.32.48.47.31.65.79,1.13,1.44,1.44,1.6.62,2.47,1.95,3.2,3.38.72,1.42,1.48,2.81,2.3,4.17.94,1.56,1.37,2.9.68,5.03-.65,2.03-1.23,4.54-.42,6.94.77,2.27.79,4.71.88,7.07.14,3.25-.86,3.94-3.76,3.18h0c-.37-.22-.75-.42-.48-.96.5,0,.92-.22,1.34-.46.31-.18.55-.53.36-.77-1.02-1.23-.67-2.91-1.47-4.23-.5-.82-.16-1.88-.22-2.83-.02-.4.03-.94-.36-1.07-1.11-.38-.84-1.1-.66-1.9.12-.54-.07-1.18.15-1.65.43-.96.13-1.7-.39-2.45-.22-.32-.6-.64-.26-1.04.49-.59.15-.98-.17-1.46-.26-.39-.48-.85-.54-1.3-.08-.55.46-.78.84-1.06.38-.28.41-.66.31-1.07-.27-1.11-.98-1.96-1.55-2.91-.54-.92-.26-2.17-.99-3.13-1.01-1.33-1.87-2.77-3.44-3.58-.49-.25-.87-.69-1.09-1.24.96.32,1.91.65,2.87.97.25.29.7.19.96.47h0Z"/>
      <path class="cls-5" d="M73.47,92.03c0,.16,0,.32,0,.47-.44,1.04,0,1.96.23,2.98.33,1.38,1.23,3.36-1.62,3.37-.41,0-.71.35-.96.67-1.27,1.63-2.85,2.97-4.2,4.51-.09.19-.2.38-.3.57-.14.29-.27.59-.39.89-.65,1.65-2.52,1.6-3.62,2.62-.06.08-.13.15-.19.22-.76-.08-1.42-.35-1.91-.96.07-.22.07-.52.21-.66.74-.71,1.53-1.37,2.28-2.07.31-.29.64-.45,1.07-.3.63.23,1.03-.03,1.37-.58.93-1.47,1.75-2.99,2.2-4.67.16-.61.4-1.17.65-1.74.8-1.83,1.94-3.4,3.26-4.86.22-.65.71-.86,1.35-.82.23.06.42.17.58.35Z"/>
      <path class="cls-62" d="M73.94,142.91c.16.32.32.64.48.96-.73.41-1.43.66-2.19,0-.28-.24-.69-.41-1.06-.46-.64-.09-1.05-.35-1.06-1.03-.01-.79-.69-1.22-.97-1.87.16,0,.32,0,.48,0,.65.27,1.08.89,1.84,1.02.74.13,1.18.73,1.52,1.38.32,0,.64,0,.96,0Z"/>
      <path class="cls-68" d="M63.38,108.84c.29.48.83.63,1.28.87.48.25.91.52,1.13,1.03-.6-.15-1.24-.52-1.79-.41-1.35.25-1.25-.8-1.57-1.5.13-.15.29-.24.48-.27.2.03.35.12.47.28Z"/>
      <path class="cls-5" d="M62.91,108.82c-.16,0-.32,0-.48,0,0-.16,0-.32,0-.47,0,0,.01-.01.01-.01.42-.1.6.04.48.48Z"/>
      <path class="cls-61" d="M60.03,139.07c-.49.63-1.16.88-1.92.96.05-.63.38-.95,1.02-.95.3,0,.6,0,.9-.01Z"/>
      <path class="cls-16" d="M56.19,44.51c-.11.38-.14.81-.35,1.12-.76,1.14-1.24,2.31-1.14,3.75.07.91-.65,1.61-1.3,2.15-.49.41-1.03-.11-1.54-.29-.87.28-1.39-.13-1.73-.88.74-1.9-.26-2.41-1.92-2.48-.95-.04-1.89.21-2.83.16-2.11-.1-3.19-1.9-2.15-3.53,1.98.02,3.68-.6,4.93-2.18.85-1.08,2.09-1.51,3.22-2.14.38-.22.43-.64.62-.97.06-.11.25-.21.36-.2.12.01.3.15.33.27.18.7.24,1.43-.04,2.09-.29.68-.1,1.23.23,1.79.2.34.43.77.88.64.66-.19.44-.72.27-1.15-.17-.42-.17-.75.22-1.03,1.18-.26,1.46.66,1.87,1.42.12.3.21.6.27.91.02.22-.05.4-.22.55Z"/>
      <path class="cls-11" d="M50.43,50.27c.33.54.94.67,1.44.96.04.15.04.33.12.45.51.78,1.62.59,2.16,1.32.56.77,1.39.59,2.16.63,1.54.08,2.87.76,4.2,1.43.1,0,.21,0,.31,0,.21.03.41.09.6.16.79.43,1.59.1,2.38.03.1.02.21.05.31.07.08.07.15.15.23.22.48.63,1.16.88,1.92.96.11,1.23-1.07,1.18-1.69,1.69-1.7,1.38-1.8,2.49-.25,3.91.64.58.95,1.25.98,2.09.31.57,1,.43,1.43.79.39.33.45.96.03,1.23-.46.3-.95.6-1.47.76-.52.16-1.23.29-1.58-.17-.46-.6.28-.95.57-1.39.08-.13.13-.28.19-.41-1.09-1.01-2.24-1.95-3.23-3.04-.5-.55-.36-1.36,0-2.03.27-.49.6-.94.87-1.42.23-.41.51-.82.33-1.44-1.46-.09-2.96-.11-4.42-.53-.44-.13-.96.03-1.43-.04-.89-.14-1.87.91-2.5.26-.95-.96-2.23-1.49-3.02-2.63-.72-1.04-1.82-1.77-2.44-2.93-.41-.76-1.19-1.02-2.06-.94,0-.16,0-.32,0-.48,1.48-1.43,2.71-.93,3.84.48Z"/>
      <path class="cls-88" d="M50.43,50.27c-.21-.1-.43-.21-.64-.31-1.04-.45-2.1-.56-3.19-.17-.33-.18-1.25.45-.91-.69.09-.31-.31-.27-.52-.26-.91.06-1.66.48-2.3,1.09-.47.45-1.01.69-1.62.91-.71.26-1.18.22-1.59-.45-.15-.25-.47-.41-.71-.61-.91-.76-1.25-1.84-.86-2.92.1-.28.32-.6.57-.72,1.46-.73,2.8-1.85,4.6-1.64-.3.58-.6,1.15.04,1.71.3.26.57.55.84.84.41.44.83.58,1.48.42,1.81-.44,3.59-.2,5.35.38.4.13.79.21.83.68.04.48-.33.67-.73.8-.45.15-.56.52-.61.93Z"/>
      <path class="cls-41" d="M79.21,48.83c-.05.79-.46,1.43-.88,2.07-.37.57-.69,1.17-1.04,1.76-1.84,2.59-2.56,5.79-4.57,8.29-.66.82-1.28,1.6-2.36,1.85-.38.22-.89.07-1.22.42,0,0,0,0,0,0-1.01-.16-1.91.35-2.87.49-1.14.54-1.38-.31-1.14-.99.59-1.71-2.48-3.16-.27-4.89.12-.09.28-.15.44-.18,3.28-.55,4.98-3.04,6.73-5.47.86-1.33,2.08-2.31,3.2-3.39.83-.8,1.9-1.02,3.04-.93.3-.21.51-.03.71.18.11.15.19.33.24.51,0,.09,0,.19,0,.28Z"/>
      <path class="cls-18" d="M72.02,52.18c-.57,1.85-1.95,3.2-2.93,4.79-.29.47-.78.51-1.26.48-.99-.07-1.86.33-2.73.67-.85.34-.87,1.15,0,1.72.38.25.56.45.51.91-.09.76.25,1.51-.09,2.31-.21.48.38.56.76.64-.21.38-.57.47-.96.48-.15-.03-.43-.05-.44-.11-.23-1.41-1.28-1.98-2.57-2.47-.02-2.16,1.05-3.58,3.03-4.42.35-.15.63-.45.94-.68.29-.27.55-.74.86-.77,1.5-.15,2.32-1.24,3.28-2.17.51-.49.94-1.09,1.62-1.38Z"/>
      <path class="cls-92" d="M62.76,65.38c-.38.68-.64,1.24-.98,1.75-.38.57-.98.42-1.53.34-.47-.06-.61-.43-.69-.85-.07-.39-.2-.77-.28-1.16-.09-.42.24-.84.66-.75.91.18,1.82.43,2.82.67Z"/>
      <path class="cls-29" d="M67.7,8.5c.39.21.47.56.48.96-.16,0-.32,0-.47,0,0-.32,0-.64,0-.95Z"/>
      <path class="cls-91" d="M55.71,43.54c-.04-.97-.67-1.5-1.44-1.92-.04-.07-.06-.16-.11-.21-1.45-1.53-.72-2.12.38-3.15.59-.55.94-.57,1.71-.12.41.24.82.45,1.26.65,1.84.85,2.19,2.78.79,4.29-.58.62-1.1,1.41-2.11,1.42,0-.16,0-.32,0-.48-.17-.15-.3-.34-.48-.48Z"/>
      <path class="cls-69" d="M63.86,55.54c-.14.07-.29.11-.41.21-.89.69-1.69.49-2.46-.2-.15-.17-.31-.33-.48-.48h0c0-.56-.1-1.08-.29-1.61-.34-.99-.21-2.03-.13-3.04.02-.27.25-.6.49-.75.29-.17.57.08.81.3.58.52.68,1.46,1.52,1.75,0,.6.3,1.06.72,1.44.58.52.78,1.17.71,1.92,0,0-.08.22-.08.22-.15.05-.29.14-.4.25Z"/>
      <path class="cls-11" d="M64.82,55.06c-.16.16-.32.32-.47.49,0,0,0,0,0,0-.1-.11-.14-.21-.1-.32.03-.11.07-.16.1-.16,0,0,0,0,0,0,.16,0,.32,0,.48,0Z"/>
      <path class="cls-23" d="M78.74,48.35c-.16-.16-.32-.32-.48-.48-.39-.45-1.04-.86-.26-1.53.1-.08.18-.33.13-.43-.57-1.23.59-2.47-.05-3.69-.19-.37-.26-.79.06-1.1.63-.63.97-1.4,1.32-2.2.28-.63.79-1.1,1.69-.97.66.1,1.42,0,1.91-.64.82.39,1.35,1.11,1.95,1.73.92.94,1.92,1.61,3.31,1.67.8.03,1.1.41.82,1.07-.45,1.03-.13,1.59.72,2.17.88.59,1.51,1.41,1.38,2.6-.02.22.05.51.19.67.89,1,.39,1.89-.4,2.45-1.64,1.17-2.21,2.77-2.38,4.67-.12,1.36-.87,2.52-1.4,3.74-.43.99-.93,1.27-2.06.93-1.31-.4-2.49.34-3.75.19-.52-.06-.68.58-.95.96-.34.48-.75.83-1.45.42.38-.79.8-1.54,1.4-2.18.2-.21.56-.45.25-.77-.24-.25-.58-.09-.89.02-.2.07-.43.08-.67.12,0-.96.09-1.8,1.05-2.22,1.29-.2,2.58-.84,3.71.55.69.84,1.36.4,1.38-.56.07-2.49,1.52-4.61,1.69-7.13.19-2.87-1.59-6.47-4.32-7.5-.88-.33-1.55-.1-2.12.58-.58.69-.8,1.55-.07,2.13,1.24.98.93,2.3.98,3.51.04,1.02-.46,1.84-1.73,1.7-.16,0-.32,0-.49,0,0,0,0,0,0,0-.14-.18-.3-.33-.47-.48Z"/>
      <path class="cls-77" d="M83.54,35.86c0,.4-.09.75-.48.96,0-.4.09-.75.48-.96Z"/>
      <path class="cls-77" d="M84.02,35.38c-.16.16-.32.32-.48.48.16-.16.32-.32.48-.48Z"/>
      <path class="cls-37" d="M82.58,30.1c.02-.53-.09-1.1.48-1.44-.02.53.09,1.1-.48,1.44Z"/>
      <path class="cls-47" d="M75.86,84.34c-.03.07-.05.16-.1.22-.93,1.06-1.37,2.23-.86,3.62-1.16,3.35-2.95,4.21-5.77,2.79,0-.13.01-.26.02-.39,1-.13,1.44-.85,1.23-1.68-.24-.94,0-1.6.68-2.1,1.11-.81,1.51-2.08,1.84-3.23.49-1.67,1.04-3.32,1.53-4.99.91.82.94.83.47,1.68-.19.35-.38.68-.46,1.08-.27,1.37.39,2.27,1.43,3Z"/>
      <path class="cls-47" d="M67.22,89.14c.97.04,1.5.67,1.92,1.44,0,0,0,0,0,0-1.38.51-1.9-.13-1.92-1.44h0Z"/>
      <path class="cls-84" d="M69.14,63.22c.21-.38.57-.47.96-.48.32-.27.64-.27.96,0,0,.16,0,.32,0,.48-.64,0-1.28,0-1.92,0Z"/>
      <path class="cls-98" d="M67.22,89.15c.42.77.95,1.4,1.92,1.44.95.87,2.08.38,3.14.41.14,0,.38-.1.4-.19.25-1.3,1.68-1.58,2.21-2.62.32.16.64.32.96.48.29,1.26-.84,1.67-1.44,2.4-.26.64-.96.63-1.44.95-.48.16-.96.33-1.44.49-1.64.36-2.93,1.12-3.36,2.88-.76.29-1,1-1.29,1.64-.78,1.72-2.5,2.38-3.83,3.48-.36.3-.92.19-1.39.09-.47-.09-.7-.45-.57-.87.25-.83.38-1.71,1.01-2.39.27-.29.45-.66.73-.93.33-.32.48-.65.18-1.03-.33-.41-.79-.53-1.28-.31-.21.09-.39.26-.58.4-.64.47-1.29.93-1.91,1.41-1.15.89-2.42,1.1-3.82.75-.79-.2-.81-.15-.82.88,0,.26-.08.48-.36.47-.28,0-.38-.24-.41-.49,0-.08-.02-.16-.02-.24,0-.16,0-.32-.01-.48.44-1.77,1.72-2.62,3.38-2.83,1.08-.14,1.83-.38,1.93-1.6.05-.57.44-.8.98-.82.56-.03,1.12-.04,1.55-.46,1.05-1.01,2.32-1.62,3.7-2.03.67-.2,1.09-.96,1.9-.89Z"/>
      <path class="cls-40" d="M79.7,48.82c.37-.3.76-.57,1.09-.92.36-.38.45-.89.07-1.29-.33-.35-.4-.63-.12-1.02.34-.47.26-.75-.29-1.12-1.47-.98-1.6-2.11-.5-3.34,1.38-1.54,1.69-1.66,3.4-.53,1.94,1.28,3.47,2.98,4.36,5.18.06.15.11.31.11.46,0,.48.19,1.11-.04,1.41-1.12,1.45.24,3.39-1.02,4.75-.78.84-.87,1.83-.83,2.9.02.47-.02.97-.16,1.41-.31.95-1.13,1.13-1.8.43-.38-.4-.69-.88-1.08-1.28-.45-.47-1.14-.38-1.64.17q-.66.72-1.04-.26c-.03-.07-.02-.16-.02-.24.31-.25.19-.71.48-.96.2-.49.53-.94.14-1.53-.83-1.28-1.11-2.72-1.1-4.23Z"/>
      <path class="cls-19" d="M71.06,62.75c-.32,0-.64,0-.96,0,1.59-.99,2.52-2.54,3.45-4.08.98-1.63,1.85-3.33,2.76-5,.24-.44.53-.8.99-1-.12,1.15-.83,2.05-1.29,3.05-.43.92-.77,1.84-.99,2.9.82-.15.82-.97,1.37-1.13.79-.22.98-1.56,2.11-1.12.16.92-.6,1.44-1.03,2.02-.81,1.08-1.57,2.18-2.31,3.3-.52.79-1.25,1.29-2.22.96-.67-.23-1.24.09-1.86.1Z"/>
      <path class="cls-23" d="M80.66,54.58c0,.4-.09.75-.48.96,0-.4.09-.75.48-.96Z"/>
      <path class="cls-58" d="M66.27,104.5c.22-1.24.66-2.28,2.08-2.54.2-.04.5-.27.52-.44.16-1.58,2.09-1.88,2.39-3.37.06-.32.51-.37.82-.27.36.12.7.32,1.05.5.49-1.74.48-1.94-.19-3.29-.66-1.33-.63-1.46.52-2.59.46.68.42,1.5.66,2.24.34,1.02.54,2.05,1.28,2.97.71.88.84,2.16.93,3.34.03.47-.02.95.07,1.41.05.28.25.64.48.74.24.1.59-.08.89-.13-.36,1.28-1.13,2.33-1.92,3.36-2.13-1.47-4.46-2.14-7.06-1.84-.84.1-1.71.34-2.54-.09Z"/>
      <path class="cls-114" d="M72.98,92.01c.34-.53.94-.67,1.44-.95,0,.16,0,.33,0,.49-.22.37-.57.46-.96.48-.16,0-.32-.01-.48-.02Z"/>
      <path class="cls-114" d="M74.42,91.07c0-.5.21-.91.56-1.28.32-.35.59-.74.88-1.12h0c.31-.32.29-.64,0-.96-.52-.95-.49-1.17.24-1.39.45-.13.93-.13,1.32-.46.5-.44.82-.93.83-1.63.01-.72-.2-1.2-.96-1.41-.27-.07-.53-.34-.72-.57-.39-.5-.24-1.32.27-1.69.26-.18.54-.34.82-.48.82-.41,1.31-1.02,1.63-1.91.57-1.58,1.49-2.91,3.12-3.64.59-.26.9-.85,1.24-1.4.37-.61.83-1.32,1.64-1.14.99.22.52,1.16.65,1.8,0,2.41-.14,4.83.48,7.2,0,.16,0,.32,0,.48-1.56.19-2.96.96-4.49,1.29-1.14.24-1.49,1.29-1.66,2.35-.27,1.71-1.13,2.87-2.96,3.08-.04,1.04-.86,1.65-1.35,2.44-.33.52-.97.43-1.53.44Z"/>
      <path class="cls-98" d="M75.86,87.71c.49.32.49.64,0,.96v-.96Z"/>
      <path class="cls-82" d="M66.27,104.5c.58-.29,1.16-.51,1.83-.49.72.03,1.44.05,2.12-.27.46-.22.96-.22,1.35.13.65.59,1.43.61,2.24.64,1.21.04,1.91.7,2.06,1.91,0,.16,0,.32,0,.47-.52.23-.86.61-.96,1.19-.05.32-.21.56-.48.74-.35-.51-.85-.84-1.02-1.55-.3-1.27-.81-1.52-2.08-1.17-.71.2-1.36.38-2.09.15-.6-.18-1.25.07-1.5.5-.61,1.07-1.7,1.05-2.63,1.42-.57.23-1.32-.01-1.73.64-.16,0-.31,0-.47-.02-.16-.16-.32-.32-.48-.48-.09-.35-.42-.82.19-.94.88-.17,1.42-.98,2.34-1.12.6-.09.81-.7.83-1.3.17-.15.33-.31.48-.48Z"/>
      <path class="cls-73" d="M80.66,102.1c.46-.82,1.1-1.46,1.92-1.92-.13,1.15-.77,1.79-1.92,1.92Z"/>
      <path class="cls-73" d="M82.58,100.18c.16-.16.32-.32.48-.48-.16.16-.32.32-.48.48Z"/>
      <path class="cls-8" d="M77.3,88.19c.37-.64,1.3-.5,1.65-1.27.29-.64.71-1.17.77-1.94.16-2.07.92-2.85,2.89-3,.75-.06,1.35-.26,1.93-.75.82-.7.86-.66,1.87.26.78,1.84,2.16,3.26,3.36,4.8-1.19-.08-1.71-1.04-2.37-1.82-.43-.51-.74-.57-1.17-.11-.66.72-1.74,1.17-1.6,2.47.05.44-.86.89-1.28.72-.29-.12-.53-.34-.8-.5-.69-.4-1.46-.47-1.98.13-.91,1.05-2.06,1.07-3.27,1.02Z"/>
      <path class="cls-115" d="M65.3,143.86c.46,0,.92,0,1.38,0,.46.01.95-.05,1.37.09.55.18.07.86.44,1.19.23.2.44.43.65.64h-4.67c-.26-.46.22-.44.39-.61.25-.26.04-.43-.13-.57-.39-.33-.88-.24-1.34-.27.21-.39.57-.47.96-.48h.96Z"/>
      <path class="cls-13" d="M78.08,160.69c-.11.08-.24.25-.33.23-.4-.08-.44-.39-.34-.71.06-.2.22-.24.39-.11.2.14.32.33.28.6Z"/>
      <path class="cls-74" d="M70.58,162.1c0-.4.09-.75.48-.96,0,.4-.09.75-.48.96Z"/>
      <path class="cls-74" d="M71.06,160.67c.16,0,.32,0,.48,0-.16.16-.32.32-.48.48,0-.16,0-.32,0-.48Z"/>
      <path class="cls-74" d="M70.58,162.58h-.48c.16-.16.32-.32.48-.48v.48Z"/>
      <path class="cls-62" d="M74.42,143.86c.23-.04.55,0,.69-.14.62-.61,1.41.31,2.01-.26,0-1.26,1.01-2.42.48-3.69-.45-1.07-.08-2.23-.56-3.27-.11-.24-.01-.63.09-.91.21-.59,0-1.04-.26-1.56-.76-1.55-.89-3.15.08-4.69.19-.31.2-.59.07-.89-.16-.37-.34-.72-.49-1.09-.2-.49-.15-.92.32-1.25.26-.18.51-.38.75-.59.32-.28.53-.62.24-1.03-.77-1.07-.74-2.62-2.08-3.37-.53-.3.11-1.1-.45-1.5-.37-.27-.78-.51-.87-1.07-.25-1.66-1.18-2.9-2.49-3.89-.18-.14-.27-.38-.4-.58.76-.06,1.42.13,1.93.73.98,1.15,1.96,2.3,2.93,3.46.15.18.32.41.33.62.08,1.57,1.02,2.62,2.04,3.67.5.52.93,1.2.87,1.92-.15,1.94,0,3.98-1.33,5.64-.3.37-.33.73.02,1.04.71.64.8,1.45.93,2.35.27,1.88.69,3.74,1.4,5.52-.67.95-.39,2.14-.77,3.17-.23.62.44.92.85,1.27.26.22.35.5.23.83-.13.35-.43.45-.75.46-1.25.03-2.49.06-3.71.46-1.17.38-1.7-.46-2.09-1.39Z"/>
      <path class="cls-58" d="M69.62,112.18c-.4,0-.75-.09-.96-.47.4,0,.76.08.96.47Z"/>
      <path class="cls-113" d="M73.94,156.35c.16-.16.32-.32.48-.48.12-.2.3-.34.48-.48h0c.16-.16.33-.31.48-.48.16-.16.34-.3.48-.48.57.26.87.59.56,1.29-.32.71-1.1,1.18-1.04,2.07-1.02-.22-1.64.54-2.4.96h0c-.29-.32-.26-.64,0-.96.16-.16.32-.31.48-.48h0c.3-.25.19-.7.48-.96Z"/>
      <path class="cls-74" d="M70.1,162.59q-.33.98.34,1.48c.65.49.75,1.03.18,1.54-.77.69-1.54,1.41-2.43,1.92-1.01.57-1.69,1.42-2.41,2.26-.04-1.3.49-2.36,1.51-3.09.74-.53,1.21-1.25,1.68-1.98.18-.28.15-.62-.09-.88-.25-.27-.57-.26-.88-.13-.22.09-.41.24-.61.38-.35.25-.74.42-1-.04-.22-.38.07-1.04.49-1.21.28-.11.7-.25.9-.12.83.53,1.55-.1,2.31-.12Z"/>
      <path class="cls-74" d="M65.79,169.78c-.16.16-.32.32-.48.48.16-.16.32-.32.48-.48Z"/>
      <path class="cls-71" d="M71.54,150.1c1.28,0,2.56,0,3.84,0,.16,0,.32,0,.48,0,.1.12.18.27.31.36.46.31.65.64.29,1.18-.66,1-1.28,2.01-1.89,3.04-.12.19-.11.46-.15.69-.69,0-1.17.33-1.44.96-1.18.73-2.34,2.26-3.76,1.42-1.27-.75-.19-2.34-.27-3.55-.14-2.12.86-3.29,2.6-4.11Z"/>
      <path class="cls-48" d="M74.9,155.39c-.16.16-.32.32-.48.48,0-.16,0-.32,0-.48.16,0,.32,0,.48,0Z"/>
      <path class="cls-48" d="M75.38,154.9c-.16.16-.32.32-.48.48.16-.16.32-.32.48-.48Z"/>
      <path class="cls-48" d="M75.86,154.42c-.16.16-.32.32-.48.48l.48-.48Z"/>
      <path class="cls-95" d="M71.54,150.1c-.34.74-.98,1.22-1.54,1.76-.5.49-.82.94-.23,1.58.31.34.2.72-.04,1.07-.17.26-.41.51-.48.8-.16.69-.36,1.52.12,2.03.58.62,1.31-.06,1.93-.25.57-.17.98-.8,1.67-.76-.65,1.36-2.03,1.73-3.24,2.28-.47.21-.96.01-1.27-.41-.47-.64-.9-1.3-1.5-2.18-.29,1.12-.88,1.8-1.62,2.37-.58.44-1.26.37-1.68-.2-.19-.25-.32-.55-.46-.83-.2-.4-.21-.8.24-1.02,1.59-.75,2.43-2.54,4.22-3.01.19-.05.35-.3.45-.5.15-.28.26-.58.35-.89.45-1.59,1.52-2.13,3.08-1.86Z"/>
      <path class="cls-31" d="M66.63,148.27c.61.36.57.81.74,1.15.36.71.14,1.22-.51,1.58-.42.23-.76.54-1.04.94-1.27,1.84-3.04,3.22-4.56,4.82-.23.24-.57.39-.83.12-.19-.21-.33-.55-.34-.84,0-.29.16-.61.3-.88.56-1.12,1.63-1.93,1.94-3.21.05-.2.29-.39.49-.5.77-.44,1.31-1.07,1.86-1.77.46-.59,1.25-.92,1.95-1.4Z"/>
      <path class="cls-48" d="M73.94,156.35c0,.4-.09.75-.48.96,0-.39.09-.75.48-.96Z"/>
      <path class="cls-48" d="M72.98,157.78c0,.32,0,.64,0,.96-.16,0-.32,0-.48,0,.01-.39.1-.75.48-.96Z"/>
      <path class="cls-48" d="M73.46,157.3c-.16.16-.32.32-.48.48.16-.16.32-.32.48-.48Z"/>
      <path class="cls-58" d="M66.27,104.5c-.16.16-.32.32-.48.48.16-.16.32-.32.48-.48Z"/>
      <polygon class="cls-50" points="72.98 142.9 72.87 143.11 72.78 143.02 72.98 142.9"/>
      <path class="cls-44" d="M55.71,43.54c.16.16.32.32.48.48-.16-.16-.32-.32-.48-.48Z"/>
      <path class="cls-41" d="M64.34,55.06c0,.16,0,.32,0,.48,0,0-.24,0-.24,0,0,0-.24,0-.24,0,.16-.16.32-.32.48-.48Z"/>
      <path class="cls-44" d="M60.51,55.07c.16.16.32.32.48.48-.16-.16-.32-.32-.48-.48Z"/>
      <path class="cls-36" d="M78.74,48.35c.16.16.32.32.47.48-.16-.16-.32-.32-.47-.48Z"/>
    </g>
  </g>
</svg>