<?xml version="1.0" encoding="UTF-8"?>
<svg id="Layer_2" data-name="Layer 2" xmlns="http://www.w3.org/2000/svg" viewBox="0 0 77.7 251.06">
  <defs>
    <style>
      .cls-1 {
        fill: #03a2e6;
      }

      .cls-1, .cls-2, .cls-3, .cls-4, .cls-5, .cls-6, .cls-7, .cls-8, .cls-9, .cls-10, .cls-11, .cls-12, .cls-13, .cls-14, .cls-15, .cls-16, .cls-17, .cls-18, .cls-19, .cls-20, .cls-21, .cls-22, .cls-23, .cls-24, .cls-25, .cls-26, .cls-27, .cls-28, .cls-29, .cls-30, .cls-31, .cls-32, .cls-33, .cls-34, .cls-35, .cls-36, .cls-37, .cls-38, .cls-39, .cls-40, .cls-41, .cls-42, .cls-43, .cls-44, .cls-45, .cls-46, .cls-47, .cls-48, .cls-49, .cls-50, .cls-51, .cls-52, .cls-53, .cls-54, .cls-55, .cls-56, .cls-57 {
        stroke-width: 0px;
      }

      .cls-2 {
        fill: #02a3de;
      }

      .cls-3 {
        fill: #0189d3;
      }

      .cls-4 {
        fill: #01abdd;
      }

      .cls-5 {
        fill: #01abe9;
      }

      .cls-6 {
        fill: #02b9e8;
      }

      .cls-7 {
        fill: #01a2d8;
      }

      .cls-8 {
        fill: #019ce1;
      }

      .cls-9 {
        fill: #08abe1;
      }

      .cls-10 {
        fill: #1195d9;
      }

      .cls-11 {
        fill: #01c2f1;
      }

      .cls-12 {
        fill: #01a7e5;
      }

      .cls-13 {
        fill: #019ddc;
      }

      .cls-14 {
        fill: #01a4df;
      }

      .cls-15 {
        fill: #0185ce;
      }

      .cls-16 {
        fill: #009ad9;
      }

      .cls-17 {
        fill: #05ace3;
      }

      .cls-18 {
        fill: #01a8e5;
      }

      .cls-19 {
        fill: #00b3e3;
      }

      .cls-20 {
        fill: #01baec;
      }

      .cls-21 {
        fill: #01a2e3;
      }

      .cls-22 {
        fill: #01c1ee;
      }

      .cls-23 {
        fill: #02a7e2;
      }

      .cls-24 {
        fill: #0192d5;
      }

      .cls-25 {
        fill: #029ddb;
      }

      .cls-26 {
        fill: #01afe7;
      }

      .cls-27 {
        fill: #02b8ec;
      }

      .cls-28 {
        fill: #01baea;
      }

      .cls-29 {
        fill: #00c6f0;
      }

      .cls-30 {
        fill: #02abe3;
      }

      .cls-31 {
        fill: #0bc6ef;
      }

      .cls-32 {
        fill: #01ace9;
      }

      .cls-33 {
        fill: #0568c2;
      }

      .cls-34 {
        fill: #0181c6;
      }

      .cls-35 {
        fill: #018ccd;
      }

      .cls-36 {
        fill: #0170c0;
      }

      .cls-37 {
        fill: #039fdd;
      }

      .cls-38 {
        fill: #018fd7;
      }

      .cls-39 {
        fill: #01b6eb;
      }

      .cls-40 {
        fill: #01bbed;
      }

      .cls-41 {
        fill: #0298d8;
      }

      .cls-42 {
        fill: #00a4da;
      }

      .cls-43 {
        fill: #01c3f0;
      }

      .cls-44 {
        fill: #01a8dc;
      }

      .cls-45 {
        fill: #0298da;
      }

      .cls-46 {
        fill: #02ade8;
      }

      .cls-47 {
        fill: #028bd1;
      }

      .cls-48 {
        fill: #0186ce;
      }

      .cls-49 {
        fill: #0185cf;
      }

      .cls-50 {
        fill: #01c3ed;
      }

      .cls-51 {
        fill: #0392d5;
      }

      .cls-52 {
        fill: #0179c5;
      }

      .cls-53 {
        fill: #027ecc;
      }

      .cls-54 {
        fill: #009fde;
      }

      .cls-55 {
        fill: #03aee8;
      }

      .cls-56 {
        fill: #019fd7;
      }

      .cls-57 {
        fill: #027fca;
      }
    </style>
  </defs>
  <g id="Layer_1-2" data-name="Layer 1">
    <g>
      <path class="cls-42" d="M36.07,208.88c-.17.44-.3.9-.51,1.33-5.34,10.71-10.68,21.41-16.03,32.11-.21.42-.51.79-.76,1.19-.56.07-1.22.17-1.61-.19-1.89-1.71-3.74-.79-5.67-.1-1.26.45-2.51.94-3.82,1.24-.73.17-1.35.44-1.66,1.18-.87,2.14-2.43,1.83-4.09,1.14,1.05-2.67,2.33-5.23,3.84-7.68.24-.22.49-.45.82-.47,2.69-.14,5.13-.63,6.66-3.29.53-.92,1.72-1.07,2.81-.51,1.84.94,2.87.31,3.24-1.66.07-.39.21-.81.48-1.09,1.03-1.09,1.59-1.86.24-3.44-1.36-1.6,1.8-7.3,3.93-7.28,2.23.03,2.9-1.4,3.35-3,.26-.93.58-1.77,1.37-2.72-2.04.33-3.8-1-5.59.18-.29.19-.81.02-.98-.44-.18-.49.04-.94.28-1.36.86-1.45,2.56-1.53,3.84-2.37-2.07,1.18-3.91-.66-5.94-.39-.33.04-.37-.61-.1-.99h0c.3-.25.22-.69.48-.96h0c1.27-.56,1.31-1.74,1.44-2.88h0c.3-.25.22-.69.48-.96h0c.22-.32.45-.63.84-.76,1.41-.02,2.32.74,2.53,2.05.27,1.68,1.3,1.93,2.72,1.93,1.75,0,3.49.16,5.22-.29.76-.2,1.59-.24,2.21.46Z"/>
      <path class="cls-44" d="M20.15,210.28c.1.49.18,1.01.89.7.21-.09.39-.28.59-.4.56-.34,1.06-.31,1.43.29.59.96,1.37.97,2.25.44.14-.08.29-.14.43-.2.91-.37,1.75-.38,1.71-.04-.09.71-.68,1.09-1.21,1.39-.61.35-1.33.52-2.02.72-.84.24-1.36.8-1.7,1.56-.1.21-.22.46-.02.64.29.26.6.14.83-.11.28-.28.49-.63.79-.88.25-.2.68-.31.89-.07.88.99,2.02.76,3.11.78.32,0,.64,0,.96.01.31.02.67-.02.82.33.18.45-.23.49-.49.63-.21.11-.45.18-.64.32-.79.58-1.16,1.33-.8,2.29.23.62.25,1.06-.53,1.26-.72.18-.97.65-.9,1.44.06.61-.35.9-.89.75-.54-.15-1.06-.31-1.63-.3-1.29.02-2.34.83-2.39,2.14-.04,1.03-.34,1.85-1.07,2.55-.37.35-.41.85-.4,1.34,0,.5.08.97.66,1.14.39.12.73.29,1.01.6.47.53.42,1.07-.25,1.41-1.27.66-1.74,1.75-1.92,3.09-.23,1.69-1.24,2.25-2.86,1.71-.23-.08-.46-.13-.69-.21-.5-.18-.85-.92-1.46-.6-.69.36-1.43.73-1.8,1.5-.39.8-.86,1.53-1.55,2.1-.32.26-.68.56-1.07.43-1.51-.53-2.98.38-4.47.07.13-.37.22-.76.4-1.11,4.44-8.91,8.89-17.82,13.35-26.72.17-.35.43-.65.65-.98Z"/>
      <path class="cls-13" d="M36.07,208.88c-.64.01-1.34-.15-1.9.07-2.49.97-5.04.21-7.56.36-.88.05-1.08-.24-1.17-1.15,0-.08-.01-.16,0-.24.23-1.81-.69-2.67-2.38-2.9-.15-.1-.2-.2-.17-.32.04-.12.08-.17.13-.17,1.4-3.3,2.99-6.5,4.8-9.6,2.57-.5,5-1.65,7.68-1.61.39,0,.95.06,1.03-.38.34-1.88,1.97-1.82,3.26-2.29,1.74-.58,3.5-1.08,4.88-2.42.49-.47,1.16-.91,1.94-.43-.13.37-.23.76-.4,1.11-3.16,6.34-6.32,12.68-9.49,19.01-.17.35-.43.65-.65.98Z"/>
      <path class="cls-29" d="M45.95,92.39c-.44-.45-.71-1-.82-1.62.55-1.57,2.06-2.61,2.36-4.32.21-.13.43-.18.67-.17.36.03.72.11,1.07.19,2.98.94,5.93-.52,8.9-.14.11.12.25.21.31.35,2.54,5.06,5.07,10.12,7.59,15.18.07.14.07.31.1.46-.15,1.3-.75,2.42-1.49,3.46-.53.74-.79,1.49-.89,2.4-.26,2.23-1.18,2.61-2.96,1.29-.57-.42-1.15-.86-1.65-1.37-.88-1.13-1.93-2.09-2.9-3.14-1.28-1.38-2.04-2.96-2.2-4.88-.23-2.74-.83-3.28-3.52-3.39-.96-.04-1.9-.04-2.75-.58-.65-.88-1.11-1.85-1.44-2.89.74-.75,1.44-.15,2.15.07.79.25,1.58.72,2.59-.06-1.63-1.35-3.45-.79-5.15-.85Z"/>
      <path class="cls-40" d="M31.8,33.59c1.24,2.01,2.3,4.11,3.17,6.31.03,1.53-.78,2.71-1.71,3.8-2.53,2.98-1.34,6.01-.05,8.95.58,1.31,1.25,2.59,1.73,3.94,1.11,3.12.41,4.69-2.56,6.06-.22.08-.44.12-.68.12-.22-.05-.43-.14-.61-.27-.4-1.24-.37-2.72-1.81-3.42v-.02c-.32-.23-.2-.68-.48-.92-1.8-3.22-3.49-6.49-4.92-9.9.91-2.26,2.1-4.34,3.86-6.06,1.02-1,1.65-.67,1.97.61-.34-1.41-1.04-2.65-1.93-3.8.05-1.72,1.66-2.66,2.1-4.18.53-.58.8-1.55,1.91-1.21Z"/>
      <path class="cls-28" d="M66.29,148.41c-.13.89-.64,1.62-1.04,2.39-1.43,2.73-2.59,5.61-4.26,8.22-1.29-.47-2.1-1.42-2.63-2.65-.02-.23.03-.46.12-.67,1.84-2.86.37-5.57-.59-8.19-.46-1.25-.93-2.34-.51-3.64.69-2.11-.77-3.74-1.25-5.59h0c.3-.25.22-.69.48-.96h0c.55-.57,1.21-.02,1.8-.14.54-1.03-.77-1.77-.36-2.73h0c.31-.24.2-.7.48-.97.27-1.06.75-2.01,1.43-2.86.22.09.42.22.59.38,2.15,2.23,3.26,5.06,4.48,7.83.2.45.35,1.02.08,1.4-1.96,2.74-.29,4.96.95,7.26.15.29.16.62.23.93Z"/>
      <path class="cls-56" d="M1.92,246.77c.63-.07,1.25-.16,1.88-.19,1.18-.05,1.22-.02,1.52-1.1.29-1.03.79-1.71,1.99-1.6.57.05,1.11-.07,1.56-.46.38-.32.81-.5,1.31-.48.66.02,1.25-.17,1.75-.61.71-.62,1.77-.07,2.47-.68.67-.59,1.15-.31,1.6.24.59.72,1.35,1.06,2.26,1.15.19.02.34.3.52.46-.85,2.41-2.19,4.59-3.28,6.88-.3.62-.81.68-1.39.68-3.03,0-6.05,0-9.08,0-1.43,0-2.87,0-4.3-.02-.62,0-.87-.38-.6-.93.56-1.13,1-2.34,1.81-3.34Z"/>
      <path class="cls-43" d="M47.98,86.45c-.12.19-.38.44-.33.56.39.9.06,1.42-.7,1.96-.68.49-.98,1.43-1.82,1.8-.74-1.39-1.53-2.76-2.22-4.17-1.44-2.9-2.83-5.82-4.24-8.73.1-.13.24-.32.35-.29,3.12.79,5.87-.48,8.67-1.5.93-.34,1.87-.11,2.82.03,1.62.25,2.31.95,2.09,2.73-.28,2.27.66,3.48,2.81,4.26,2.01,1.77-.31,2.48-1.02,3.24-1,1.08-2.4.86-3.18-.53-.46-.81-.62-1.37-1.85-.96-1.28.43-1.48-1.37-2.45-2.03-.44,1.62,1.47,2.26,1.07,3.63Z"/>
      <path class="cls-14" d="M17.59,35.66c-1.26-2.11-2.39-4.28-3.26-6.58-.13-3.6.69-4.69,4.15-6.1,1.39-.57,2.24-2.01,3.6-2.71.89-.46,1.69-1.34,2.82-.53,1.52,2.61,2.88,5.3,4.03,8.09-.25,2.36-1.91,2.21-3.59,2.04-.38-.08-.72-.26-1.05-.48-2.11-1.4-2.81-1.21-3.89,1-.27.56-.59,1.1-.77,1.7-.65,1.2.02,3.16-2.03,3.56Z"/>
      <path class="cls-39" d="M32.15,62.45c.29-.65.81-.93,1.5-.99.56-.04.72-.42.91-.91.63-1.61.22-3.08-.46-4.53-.56-1.19-.86-2.49-1.8-3.53-.39-.42-.63-1.21-.55-1.77.16-1.16-.24-1.91-1.11-2.57-.35-.27-.39-.74-.08-1.06.84-.88,1.45-1.87,1.74-3.06.05-.21.23-.42.4-.58,1.02-1.02,1.56-2.34,2.28-3.55.12.06.16.15.11.28.02.27.2.46.36.66.13.08.18.19.14.34.44,1.32-2.11,1.87-.95,3.19.75.85,2.26.5,3.21,1.28,1.52,2.61,2.88,5.3,4.03,8.1-.22.59-.72.78-1.29.91-2.9.7-2.9.71-2.71,3.82.2,3.14-2.68,5.12-5.74,3.96Z"/>
      <path class="cls-34" d="M56.66,167.68c-.06.23-.07.48-.17.68-2.19,4.39-4.39,8.78-6.59,13.17-.1.2-.29.36-.43.55-.53-1.2-1.12-1.93-2.6-1.02-1.26.77-2.71.8-4.11.13-.52-.98-.17-2.06-.37-3.07,1.55-2.63,2.19-5.69,4-8.19.21-.1.44-.14.67-.11.66.25,1.29.57,1.98.95-.27-1.98.77-2.79,2.57-2.8,1.4-.01,2.59-.59,3.82-1.16.79-.36,1.68-.61,1.24.88Z"/>
      <path class="cls-50" d="M56.13,138.29c.2.46.55.77.99.99.65.32,1.01.77.66,1.53-.06.14-.13.37-.06.46.84,1.12.41,2.26.04,3.37-.28.84-.21,1.55.43,2.19.7.7,1.1,1.44.99,2.54-.08.74.28,1.55.53,2.3.18.54.21,1.08.26,1.64.1,1.24-.28,2.19-1.45,2.75-2.96-1.62-6.07-2.91-9.13-4.32.1-.3.15-.62.29-.9,1.96-3.93,3.92-7.86,5.89-11.78.14-.28.36-.51.54-.77Z"/>
      <path class="cls-18" d="M24.89,19.73c-.31.03-.71-.06-.93.1-1.52,1.08-3.43,1.67-4.41,3.45-.27.5-.69.46-1.21.4-1.25-.14-2.63.53-2.77,1.63-.18,1.37-.99,2.46-1.24,3.76-.73-.85-1.11-1.9-1.59-2.88-1.29-2.61-2.54-5.24-3.81-7.87,4.13-.44,8.22-1,12.02-2.83.57-.21,1.14-.47,1.75-.14.93,1.36,1.64,2.83,2.2,4.38Z"/>
      <path class="cls-24" d="M61.9,124.32c-1.03-1.48-1.76-3.11-2.4-4.79-.74-3.62,1.6-5.9,3.6-8.34.53-.35,1.1-.6,1.74-.66.38,0,.73.08,1.04.3,1.19,2.9,2.61,5.72,3.25,8.81.18.88.3,1.71,1.05,2.29.24,1.62-.57,2.67-1.87,3.46-1.99-1.22-4.04-2.09-6.41-1.08Z"/>
      <path class="cls-54" d="M21.11,15.89c-1.65.96-3.36,1.71-5.28,1.95-.62.08-1.23.3-1.83.49-1.69.53-3.38.53-5.07,0-.3-.18-.37-.46-.35-.78-.61-1.6-.07-2.7,1.39-3.55,2.37-1.38,3.32-3.39,3.47-6.26.13-2.35-.16-4.92,1.17-7.13.21-.2.44-.23.7-.08,1.46,2.48,2.76,5.03,3.85,7.69-.6,2.5-.49,5.18-2.14,7.5,1.46.56,2.87-1.05,4.11.17Z"/>
      <path class="cls-20" d="M55.66,83.57c-.4,0-.79-.01-1.19,0-.62.01-1.07-.18-1.24-.84-.06-.22-.16-.48-.32-.62-1.22-1.11-1.31-2.41-.84-3.9.31-1,.14-1.08-.98-1.36-1.4-.35-2.76-.58-4.15.01-.29.12-.69.12-.87.32-1.02,1.2-2.67.7-3.86,1.49-.45.3-1.1.11-1.55-.29-.59-.52-1.26-.61-2-.51-1.38-2.33-2.59-4.75-3.62-7.26.71-1.42,2.08-1.7,3.43-2,1.25-.09,2.28.15,3.18,1.21,2.5,2.96,5.13,5.8,9.64,4.72.4-.1.77.15,1.12.35.32.18.4.48.4.82.03.27.2.46.35.65.13.08.17.19.13.34.09.23.15.46.17.7-.13,2.36,1.51,4.09,2.17,6.18Z"/>
      <path class="cls-32" d="M6.15,12.73c-1.5-2.34-2.55-4.91-3.82-7.37C1.56,3.88.83,2.38.1.88-.1.46.13.07.57.04c.47-.03.95-.03,1.43-.03,3.49.03,6.97.06,10.46.1-.27,1.37-1.53.71-2.27,1.1.25,4.4,1.23,9.05-4.04,11.51Z"/>
      <path class="cls-12" d="M6.15,12.73c.11-.29.16-.77.36-.84,1.02-.38,1.45-1.45,2.38-1.92.65-.33.79-.94.54-1.64-.1-.28-.2-.69-.08-.9.56-.95.65-1.92.32-2.95.68-1.17.12-2.11-.54-3.05-.12-.17-.08-.45-.12-.69.79-.36,1.6-.14,2.38-.19.41-.03.79-.1,1.07-.42.81-.14,1.61-.18,2.42.04.13.08.17.17.13.25-.04.09-.08.13-.12.13-.36,1.29-.78,2.58-.24,3.93.08.2.1.53-.01.67-1.09,1.32-.61,2.87-.71,4.34-.03.39-.01.79-.02,1.19,0,.41-.15.79-.44,1.07-.95.95-1.7,2.17-2.96,2.7-1.48.61-2.06,1.6-1.93,3.12-.67-.86-1.19-1.79-1.43-2.86,0-.3-.19-.5-.38-.71-.12-.05-.16-.13-.1-.25,0-.3-.2-.5-.38-.71-.13-.06-.17-.16-.13-.29Z"/>
      <path class="cls-6" d="M64.77,110.94c-.48.16-.96.32-1.43.48-1.52.95-2.31,2.48-3.25,3.92-.43.66-.64,1.94-2,1.35-1.16-1.92-2.22-3.9-2.99-6.02.07-2.34,2.24-3.63,4.39-2.62,1.11,0,1.56.99,2.3,1.54.57.42,1.32.14,1.46-.56.03-.15.1-.34.05-.47-.66-1.42.14-2.28,1.01-3.29.74-.86.97-2.13,1.84-2.97,1.04,1.65,1.93,3.37,2.6,5.2-.81,1.74-2.04,3-3.98,3.43Z"/>
      <path class="cls-22" d="M59.49,108.05c-1.41-.5-2.32.69-3.48,1.06-.68.22-.85.9-.91,1.56-.26-.4-.55-.77-.76-1.19-1.82-3.63-3.63-7.27-5.43-10.91-.21-.42-.34-.88-.51-1.32,0-.3-.19-.5-.38-.7-.07-.14-.15-.29-.22-.43,1.27-.02,2.55-.07,3.82-.05,1.86.03,3.14,1.24,3.04,3.14-.12,2.44.85,4.3,2.58,5.89.59.54,1.12,1.13,1.69,1.69.36.35.55.77.56,1.27Z"/>
      <path class="cls-8" d="M44.57,59.09c1.15,1.95,2.23,3.94,3.02,6.08.08,1.41.29,2.84-.35,4.17-.46.96-1.1,1.75-2.31,1.72-1.12-.16-1.86-.83-2.39-1.78.87-1.9-.24-2.32-1.81-2.5-.97-.11-1.89.08-2.84.14-1.63.1-2.57-.89-2.84-2.32-.27-1.42,1.07-1.58,2.03-1.81,2.21-.54,4.19-1.41,5.69-3.21.44-.53,1.01-1.08,1.82-.51Z"/>
      <path class="cls-26" d="M66.29,148.41c-1.79-1.31-2.1-3.44-2.85-5.3-.29-.73-.13-1.47.61-2.11.97-.85,1-1.5.2-2.45-.6-.71-.97-1.4-.95-2.34.01-.57-.32-1.05-.65-1.5-.88-1.2-1.75-2.41-2.63-3.62,2.58-.45,4.19,1.42,5.47,2.95,1.84,2.2,3.31,4.81,4.17,7.64-.9,2.35-2.03,4.59-3.36,6.72Z"/>
      <path class="cls-48" d="M70.05,121.98c-.15.06-.3.12-.44.18-.43.19-.83.15-.92-.35-.1-.54-.02-1.12-.09-1.67-.16-1.33-.23-2.68-1.24-3.75-.38-.4-.55-.95-.67-1.51-.28-1.32-.63-2.62-.95-3.93,1.27-.98,2.57-1.83,4.26-.98,1.33,2.26,2.54,4.59,3.5,7.03.09,2.51-1.32,3.99-3.44,4.97Z"/>
      <path class="cls-49" d="M76.33,128.32c-.55,1.69-1.36,3.26-2.36,4.73-1.81,1.09-3.69.66-5.55.2-1.46-.37-2.88-.89-4.39-1.06-.51-.11-1-.27-1.26-.78.6-1.12,1.81-1.3,2.81-1.8.42.05.39,1.23,1.32.28.85-.87,2-1.54,3.01-2.32.89-.56.93-1.63,1.46-2.41.95-1.41,2.3-1.59,3.32-.27.76.99,2.16,1.79,1.66,3.43Z"/>
      <path class="cls-53" d="M42.7,178.14c.62.96.61,1.92,0,2.88-.74,1.84.82,1.52,1.65,1.61,1.55.17,3.16-.48,4.67.34-.13.74-.45,1.38-.97,1.92-1.18.93-2.49,1.27-3.95.82-2-1.11-4.13-.64-6.22-.45-1.25.12-2.49.35-3.75.29-.71-.03-1.53-.06-1.04-1.19.74-2.03,1.71-3.94,2.87-5.76.2.07.39.18.56.31,1.55,1.08,3.18.92,4.84.33.2.06.41.12.61.19-.18-.12-.3-.29-.38-.49.14-.59.37-1.04,1.11-.79Z"/>
      <path class="cls-21" d="M44.57,59.09c-.81.03-1.32.53-1.69,1.16-.93,1.54-2.51,2.09-4.04,2.67-.95.36-1.98.52-2.95.82-.56.18-.66.59-.35,1.12.12.2.24.41.38.6.63.8,1.32,1.27,2.43.85,2-.75,3.83.29,5.71.75.28.07.34.63.1.79-.26.17-.54.31-.84.41-.46.15-.55.52-.61.92-1.44,0-2.88-.87-4.32,0-1.23.19-2.22.94-3.32,1.44-1.18-1.93-2.22-3.92-3.01-6.04-.19-.9.31-1.42,1.08-1.55,3.33-.58,5.91-2.67,8.75-4.26.69-.39,1.34-.91,2.21-.62.27.26.49.55.48.95Z"/>
      <path class="cls-15" d="M47.02,169.97c-.16,0-.32,0-.48,0-1.79.32-3.67-.06-5.42.68-.33.14-.69-.29-.82-.69-.01-.4.14-.72.47-.96.74-.84,1.06-1.88,1.45-2.89h0c.31-.24.23-.68.48-.96h0c.23-.22.35-.53.6-.75.98-1.33,1.86-2.84,3.94-2.28.42.05.83-.01,1.25-.1.22-.03.43-.03.65,0,.47.12.85.41,1.24.66,2.54,1.57,2.56,2.03.17,3.84-1.32,1-2.13,2.52-3.51,3.46Z"/>
      <path class="cls-7" d="M24.95,29.33c.31,0,.63,0,.94,0q1.86-.01,3.03-1.51c1.13,1.83,2.13,3.74,2.87,5.77-.82.19-.95,1.1-1.57,1.5-1.77,2.7-4.05,4.86-6.85,6.45-.56.32-1.13.81-1.72.26-.61-.56-.28-1.33.2-1.68,3.39-2.49,3.33-5.88,2.65-9.48-.09-.48.08-.95.45-1.31Z"/>
      <path class="cls-35" d="M47.02,169.97c.09-.3.08-.69.27-.89,1.37-1.39,2.41-3.18,4.39-3.89.12-.04.19-.22.32-.39-.78-1.39-2.3-1.77-3.54-2.52.47-1.64,1.55-.85,2.37-.5,1.21.51,2.33,1.29,3.75.94,1.33-.1,2.68-.37,3.94.37.22.23.24.48.05.74-.43,1.39-1.05,2.68-1.92,3.85-.1-.33-.02-.89-.64-.64-.36.14-.66.41-1,.61-1.04.6-2.11,1.05-3.36.89-.31-.04-.63-.01-.94.03-.98.13-1.51.93-1.2,1.89.14.44.45.81.65,1.24.04.09-.08.27-.15.4-.02.03-.19.04-.21,0-.64-.86-1.63-1.1-2.55-1.48-.14-.06-.16-.42-.23-.64Z"/>
      <path class="cls-36" d="M40.29,169.97c.44.14.9.64,1.32.24,1.34-1.25,2.75-.93,4.21-.36.22.09.47.09.7.13-.82,2.09-1.6,4.2-2.49,6.26-.3.7-.89,1.27-1.35,1.9-.46.18-.78.5-.96.96.11.11.14.21.1.32-.04.11-.07.16-.11.16-.08,0-.16.02-.24.03-.76.02-1.15.94-1.91.85-.93-.11-1.86-.32-2.78-.53-.41-.09-.64-.44-.79-.83.73-.93,1.92.49,2.78-.66.87-1.17,1.77-2.01,1.05-3.7-.41-.96-.4-2.18-.36-3.3-.03-.25.1-.41.31-.52.31-.25.23-.69.48-.96h0Z"/>
      <path class="cls-19" d="M17.59,35.66c.88-.68.99-1.69,1.12-2.69.06-.47.05-.93.49-1.24.81-.67,1.29-1.6,1.95-2.38,1.14-1.33,2.31-1.05,3.19.46,1.12,1.93-.42,8.32-1.79,9.68-1.49,1.48-2.33-.43-3.45-.85-.71-.89-1.16-1.91-1.5-2.98Z"/>
      <path class="cls-5" d="M44.09,58.14c-1.89,1.25-3.96,2.21-5.78,3.58-.89.67-2.01.88-3.07,1.19-.68.2-1.36.36-2.05.55-.59.16-.91.58-1.14,1.11-.34-.22-.45-.56-.46-.94-.11-.4-.25-.8.08-1.17.16,0,.32,0,.48,0,1.31.11,2.5-.18,3.63-.85,1.58-.94,1.96-1.53,1.43-3.3-.34-1.16-.23-2.17.2-3.23.16-.4.38-.72.82-.74.77-.03,1.46-.64,2.31-.22.46.23.89-.22,1.33-.36.94,1.36,1.65,2.84,2.21,4.39Z"/>
      <path class="cls-3" d="M33.1,184.36c.06.32.15.74.52.66,1.47-.36,2.98-.15,4.48-.51,1.51-.36,3.17-.11,4.76-.1.62,0,1.02.39,1.28.93-1.38.88-2.31,2.24-3.78,3.12-2.46,1.48-4.97,1.44-7.58,1.3-.86-.05-2.08,0-1.6-1.56.43-1.39,1.06-2.67,1.92-3.84Z"/>
      <path class="cls-38" d="M31.18,188.2c.09.51.3.93.88.94,1.75.02,3.5.02,5.25.03.5,0,.94-.15,1.3-.5.82-.8,1.75-1.36,2.92-1.47.36-.04.53-.3.61-.63q.3-1.19,1.28-1.23c.24,0,.48,0,.72,0,1.35.27,2.58-.53,3.91-.45-.02.57-.31,1.02-.66,1.43-.12.17-.23.35-.33.53l.03-.05c-.38.23-.31.68-.5,1,0,0,.02-.01.02-.01-.67.21-1.35.47-1.82,1.01-1.02,1.19-2.3,1.82-3.84,2-.38.05-.75.19-1.12.3-2.71.83-5.32-.32-7.99-.4-.72-.02-1.7-.33-1.14-1.53,0-.4.13-.73.48-.96Z"/>
      <path class="cls-4" d="M19.09,38.64c.11-.21.31-.46.52-.32.45.31.83.72,1.26,1.06.5.39,1.49.16,1.53-.45.08-1.09.63-1.89,1.22-2.71.24-.33.29-.72.11-1.12-.34-.79-.2-1.48.26-2.23.67-1.1.21-3-.82-3.81-.25-.2-.6-.18-.9-.02-.58.32-.93.83-1.25,1.39-.41.7-.93,1.29-1.84,1.31.15-1.11,1.1-1.92,1.16-3.08.01-.22.4-.52.67-.61.77-.26,1.58-.17,2.37-.09.73.08.94.8,1.37,1.24.06.06.13.1.19.15.01.4-.08.83.05,1.18.63,1.69.32,3.45.44,5.17.1,1.43-.57,2.43-1.57,3.26-.74.61-1.45,1.22-2.01,2-.14.19-.17.47.09.61.11.07.35.09.43.02,1.65-1.46,3.69-2.37,5.32-3.85.57-.52.99-1.23,1.41-1.88.28-.43.59-.73,1.12-.75-.35,1.56-1.48,2.63-2.4,3.84-.05.09-.1.18-.14.27-.41.44-.9.79-1.34,1.2-.15.13-.32.25-.49.36-.74.4-1.29,1.02-1.92,1.56-.86.56-1.7,1.21-2.78.47-.86-1.3-1.56-2.67-2.06-4.15Z"/>
      <path class="cls-27" d="M55.66,83.57c-.25-.59-.69-1.08-1.2-1.39-1.09-.66-1.31-1.6-1.21-2.76.06-.69.01-1.39.01-2.09.14-.15.28-.15.42,0,1.66,2.91,3.2,5.88,4.46,8.98-.23.35-.55.58-.98.59-1.27.04-2.51.18-3.77.43-1.63.31-3.33.18-4.93-.4-.15-.17-.31-.33-.48-.48,0,0,0,0,0,0-.77-1.09-1.7-2.08-2.14-3.38-.19-.55.05-.9.67-.92.24,0,.48-.02.71.01.73.1,1.03.33,1.04,1.25.01.74.33,1.01.94,1.08.53.07.94-.04.84-.74-.04-.25.11-.47.39-.48.36,0,.67.23.65.54-.04.77.33,1.37.69,1.98.37.63,1.61.97,2.05.45.69-.81,1.68-1.41,1.99-2.51.01-.04-.1-.11-.16-.17Z"/>
      <path class="cls-45" d="M30.7,189.16c.07.4.16.87.63.88.93.03,1.83.46,2.8.16.52-.16,1.18-.23,1.61.13,1.24,1.05,2.69.69,4.08.76-.5.73-1.33.33-1.97.57-.39.15-.71.38-.6.87.08.39.21.77.02,1.16-.19.38-.52.71-.93.54-1.39-.58-2.72-.31-4.08.12-1.13.35-2.27.65-3.41.97-.43.12-.77-.04-1.03-.4.73-2.03,1.7-3.95,2.88-5.76Z"/>
      <path class="cls-11" d="M21.15,42.78c1.09.1,1.92-.57,2.84-.97.68-.43,1.26-.99,1.92-1.44.68-.42,1.26-.99,1.92-1.44,0,0,0,0,0,0,1.11.01,1.54.84,1.73,1.68.27,1.18.6,2.29,1.37,3.25.07.09.06.33-.02.43-.18.23-.42.16-.6-.02-.33-.34-.66-.68-.93-1.07-.25-.35,0-1.1-.66-1.09-.5,0-.65.63-.96.96-.86.9-1.94,1.64-1.99,3.12-.01.38-.51.77-.86,1.09-.34.32-.84.47-1.03.96-1.14-1.71-1.98-3.56-2.75-5.46Z"/>
      <path class="cls-46" d="M38.38,69.17c.53-.65,1.35-.66,2.06-.9.96-.32,1.52.54,2.26.9.64.48,1.28.96,1.92,1.44,2.21,1.03,4.8.9,6.87,2.35.48.56.82,1.19.95,1.92-1.35.07-2.61.63-4,.56-1.1-.05-2.02-.24-2.75-1.11-.62-.74-1.39-1.3-2.28-1.7-.97-.44-1.81-1.1-2.1-2.16-.3-1.08-.99-1.34-1.97-1.3-.32.01-.64,0-.96,0Z"/>
      <path class="cls-28" d="M49.41,151.73c.83-.47,1.58-.63,2.37.17.61.61,1.38,1.07,2.11,1.55.32.21.76.47,1.09.41,1.87-.33,2.75.84,3.55,2.19h0c-1.42.93-9.65.72-10.94-.27-.06-.04-.07-.14-.1-.21.42-1.39,1.06-2.67,1.92-3.84Z"/>
      <path class="cls-2" d="M45.09,160.37c.26-1.07.76-2.02,1.44-2.88,2.62-.92,5.32-.44,7.99-.45.72,0,1.47.33,1.89.91.88,1.25,1.76,1.79,3.32.98.82-.43,1.08.3.76,1.08-.09.73-.43,1.33-.93,1.86-2.81,1.49-3.64,1.5-5.31-.94-1.35-1.96-2.72-2.08-4.54-.98-1.49.66-3.07.42-4.62.43Z"/>
      <path class="cls-30" d="M60.5,160.01c-.08-.37-.06-.84-.66-.71-.15.03-.29.13-.44.18-.67.21-.95,1.25-1.75,1.01-.64-.19-.71-1-1.03-1.54-.59-1-1.53-1.54-2.58-1.4-1.89.25-3.8-.41-5.65.23-.68.23-1.21-.33-1.85-.28,0-.4.14-.73.48-.96.3-.25.23-.69.49-.96h0c1.18.66,2.44.66,3.67.29,1.1-.33,2.13-.28,3.24,0,1.34.33,2.73.72,4.13.21.59,1.18,1.9,1.76,2.46,2.96-.02.4-.13.75-.49.98Z"/>
      <path class="cls-47" d="M76.33,128.32c-.46-1.38-1.66-2.27-2.35-3.5-.28-.49-1.02-.51-1.49-.16-.52.39-.96.84-.99,1.55-.04.99-.64,1.58-1.45,2.01-.83-.42-.55-1.01-.25-1.6.4-.79.58-1.65.79-2.5.48-1.23,1.03-2.44,1.96-3.39.64-.66,1.39-1.3,2.45-.73,1.01,1.41,1.58,3.05,2.42,4.55.39.69.39,1.3-.02,1.98-.36.6-.53,1.31-1.07,1.8Z"/>
      <path class="cls-25" d="M63.81,131.58c1.29-.15,2.51.3,3.66.7,1.75.62,3.5.81,5.32.74.39-.01.79.02,1.18.03-.72,2.04-1.72,3.94-2.88,5.76-.56.43-1.13.27-1.46-.2-1.67-2.45-3.49-4.76-5.87-6.58-.1-.07-.03-.29.04-.44Z"/>
      <path class="cls-41" d="M21.11,15.89c-1.15-.14-2.18.32-3.23.68-.46.15-.9.32-1.39.22-.36-.08-.53-.31-.46-.68.03-.15.07-.33.17-.44,1.64-1.73,1.72-3.97,2.03-6.14.09-.61.38-1.03.9-1.31,1.36,2.29,2.56,4.66,3.55,7.13-.53.18-1.05.36-1.58.54Z"/>
      <path class="cls-51" d="M45.09,160.37c1.05-.53,2.06-1.17,3.32-.52.34.18.76-.08,1.01-.44,1.43-.59,2.55-.38,3.16,1.21.37.98,1.85,1.28,1.64,2.63-.2.27-.45.43-.78.31-1-.38-2.05-.63-2.92-1.33-.65-.53-1.39-.68-2.05.06h0c-.26.28-.71.18-.96.48-.3-.07-.63-.09-.91-.22-.51-.24-.9-.09-1.28.26-.69.64-1.39,1.26-2.09,1.89-.16-.1-.22-.21-.18-.33.04-.13.08-.19.13-.19.44-1.37,1.06-2.65,1.92-3.81Z"/>
      <path class="cls-23" d="M63.81,131.58c.38.89,1.16.97,1.99.98.33,0,.76.15.7.48-.18.99.5,1.36,1.08,1.92.84.81,1.75,1.61,2.06,2.84.19.73.77.96,1.45,1.01-.25,1.08-.78,2.01-1.44,2.88-.47-.21-.71-.67-.89-1.08-.66-1.51-1.77-2.75-2.4-4.29-.56-1.37-1.35-2.69-2.9-3.27-.43-.16-.79-.51-1.15-.82-.67-.59-1.41-1.02-2.3-1.13-.02-.16-.04-.31-.05-.47,0-.39.1-.73.45-.95.84.42,1.75.74,2.43,1.43.22.38.58.46.97.48Z"/>
      <path class="cls-57" d="M62.84,131.1c-1.05-.06-2.1-.13-2.43-1.43.29-1.07.79-2.03,1.47-2.9,2.28-2.27,3.16-2.2,4.96.43.09.2.13.4.14.62-.02.31-.12.6-.25.88-.08.18-.18.35-.29.51-.12.15-.27.28-.43.38-.09.02-.19.04-.28.06q-1.2,1.38-2.89,1.44Z"/>
      <path class="cls-33" d="M39.5,171.44c.65.77.87,1.67.81,2.66-.06.9.18,1.7.75,2.43.49.62.24,1.36-.49,1.29-.97-.1-1.37.27-1.47,1.07-.08.71-.53.72-1,.66-.7-.1-1.38-.3-2.07-.46-.02-.17-.04-.33-.06-.5.96-2.49,2.21-4.84,3.53-7.15Z"/>
      <path class="cls-1" d="M51.49,72.96c-1.08-.07-2.12-.37-3.19-.51-1.36-.19-2.62-.89-3.68-1.84.47-.02,1.02.06,1.32-.38.48-.71,1.18-1.31,1.09-2.31-.08-.96,0-1.91.55-2.75,1.52,2.49,2.78,5.11,3.91,7.79Z"/>
      <path class="cls-52" d="M49.03,182.96c-.84.02-1.67.55-2.54.07-.17-.09-.49-.03-.69.07-1.39.72-2.61-.15-3.89-.4-.33-.06-.46-.43-.26-.76.24-.42.61-.72,1.06-.92.88,0,1.75,0,2.63,0,.49,0,.92-.12,1.34-.4,1.11-.72,1.12-.7,2.58-.63.32.67.09,1.4.21,2.09,0,.37-.09.69-.44.89Z"/>
      <path class="cls-37" d="M74.99,119.99c-1.28.26-2.2.92-2.72,2.19-.31.78-.84,1.46-1.27,2.19-.39.84-.71,1.72-1.42,2.37-.46.42-.98.98-1.62.65-.87-.46-.39-1.19-.11-1.82.09-.08.18-.16.27-.23.79-1.03,1.56-2.08,1.92-3.36.96-1.23,2.13-2.3,2.94-3.67.25-.42.42-.84.5-1.31.71.89,1.16,1.91,1.5,2.99Z"/>
      <path class="cls-16" d="M54.22,163.25c-.19-.24-.33-.61-.58-.71-1.03-.44-1.59-1.34-1.95-2.25-.29-.75-.63-.95-1.33-.88-.31.03-.63,0-.94,0,.64-.73,1.61-.56,2.4-.85,1.01-.36,1.34-.08,2.02.96.43.66.9,1.31,1.43,1.89.53.57,1.42.61,1.85,1.37.65-.5,1.12-.93,1.66-1.26.3-.18.59.07.78.35,0,0,0-.03,0-.03-.43.22-.29.72-.51,1.05.04.15,0,.28-.14.37-.13.17-.26.18-.39,0-1.44,0-2.88,0-4.32,0Z"/>
      <path class="cls-49" d="M66.69,127.73c-.35-.5-.86-.83-1.11-1.48-.25-.66-.93-.79-1.58-.51-.72.31-1.41.68-2.12,1.02q.34-1.3.02-2.45c.04-.39.12-.76.45-1.03.35-.28.71-.24,1.09-.07.67.29,1.38.14,2.08.21,1.24.12,2.19.66,2.61,1.91,0,0,0,0,0,0-.96.51-.02,2.17-1.44,2.4Z"/>
      <path class="cls-43" d="M45.95,92.39c.17-.16.32-.44.51-.48,1.84-.36,3.64-.35,5.28.77.41.28.5.63.2,1-.4.51-.79.89-1.6.71-.83-.18-1.68-.12-2.41-.74-.42-.35-.99-.52-1.58-.43-.3-.2-.39-.5-.4-.84Z"/>
      <path class="cls-55" d="M37.85,45.65c-1.38.18-2.65-.34-3.95-.65-.6-.14-.74-.76-.44-1.33.52-1,1.38-1.7,2.13-2.5.96,1.39,1.69,2.89,2.26,4.47Z"/>
      <path class="cls-9" d="M58.09,116.69c.41-.05.74-.21.96-.59.43-.76.94-1.47,1.32-2.25.63-1.28,1.64-2.04,2.97-2.43-.18.26-.35.52-.53.77-1.59,2.23-3,4.54-3.31,7.34-.69-.84-1.15-1.79-1.41-2.84Z"/>
      <path class="cls-17" d="M69.99,109.97c-1.47.1-2.83.67-4.26.98-.32,0-.64,0-.96,0,1.03-.79,2.09-1.53,2.88-2.61.26-.35.73-.55,1.1-.82.61.72.98,1.56,1.24,2.46Z"/>
      <path class="cls-50" d="M58.05,134.45c.38.6.75,1.2,1.13,1.79.3.46.2.89-.05,1.33-.17.3-.38.49-.74.37-.59-.19-1.11-.61-1.77-.6.25-1.07.77-2.02,1.44-2.88Z"/>
      <path class="cls-31" d="M29.3,59.08c.43.16.8.4,1.34.32.98-.15,1.15.05.84.96-.24.7-.3,1.38-.23,2.09.12.11.15.21.09.31-.05.09-.1.13-.15.13-.84-1.17-1.49-2.43-1.9-3.81Z"/>
      <path class="cls-44" d="M22.07,206.45c.02.5.22.9.53,1.28.31.38.55.8.22,1.28-.28.39-.69.31-1.07.16-.42-.16-.76.05-1.13.16.26-1.07.76-2.02,1.44-2.88Z"/>
      <path class="cls-10" d="M42.21,166.12c.05,1.23-.33,2.25-1.45,2.89.26-1.07.75-2.04,1.45-2.89Z"/>
      <path class="cls-15" d="M40.3,169.96c.01.41-.08.76-.48.96,0-.41.13-.74.48-.96Z"/>
      <path class="cls-10" d="M43.17,164.18c.02.17.03.35.05.52-.18.15-.36.31-.54.46-.01-.41.13-.75.49-.98Z"/>
      <path class="cls-50" d="M58.53,133.48c0,.4-.08.77-.48.97,0-.41.13-.74.48-.97Z"/>
      <path class="cls-2" d="M59.06,162.88c-.04-.45.01-.85.51-1.05-.02.42-.13.8-.51,1.05Z"/>
      <path class="cls-39" d="M31.19,62.89c0-.15.03-.29.05-.44.14,0,.28,0,.43,0-.03.39-.05.78-.08,1.17-.27-.17-.39-.42-.4-.73Z"/>
      <path class="cls-31" d="M28.82,58.14c.37.2.46.54.47.92-.32-.22-.49-.53-.47-.92Z"/>
      <path class="cls-13" d="M46.59,187.8c-.04-.44.02-.82.5-1-.02.41-.11.78-.5,1Z"/>
      <path class="cls-28" d="M47.49,155.56c0,.4-.09.76-.49.96,0-.4.13-.74.49-.96Z"/>
      <path class="cls-44" d="M23.03,204.52c.01.16.02.33.03.49-.17.16-.34.32-.52.48,0-.41.13-.74.48-.97Z"/>
      <path class="cls-44" d="M22.55,205.48c0,.4-.08.76-.48.97,0-.4.13-.74.48-.97Z"/>
      <path class="cls-50" d="M56.61,137.32c0,.4-.09.76-.48.97,0-.4.13-.74.48-.97Z"/>
      <path class="cls-44" d="M20.63,209.32c0,.4-.08.76-.48.97,0-.4.13-.74.48-.97Z"/>
      <path class="cls-10" d="M42.69,165.15c.03.42-.07.77-.48.97-.01-.41.12-.75.48-.97Z"/>
      <path class="cls-2" d="M58.53,163.26c.13,0,.26,0,.39,0,.03.28-.1.46-.34.58-.02-.19-.03-.38-.05-.57Z"/>
      <path class="cls-43" d="M53.68,77.33c-.14,0-.28,0-.42,0,.02-.21.04-.43.06-.64.25.14.38.35.36.64Z"/>
      <path class="cls-43" d="M53.19,76.36c-.24-.15-.35-.37-.35-.65.25.15.37.36.35.65Z"/>
      <path class="cls-40" d="M35.44,40.84c-.24-.15-.35-.38-.36-.66.25.15.37.36.36.66Z"/>
      <path class="cls-32" d="M6.28,13.02c.26.16.37.41.38.71-.27-.16-.39-.4-.38-.71Z"/>
      <path class="cls-13" d="M47.06,186.84c.11-.18.22-.35.33-.53.03.27-.07.45-.33.53Z"/>
      <path class="cls-32" d="M14.89.53c0-.13,0-.25,0-.38.32-.07.43.08.42.38-.14,0-.27,0-.41,0Z"/>
      <path class="cls-29" d="M48.02,96.54c.25.16.37.4.38.7-.26-.16-.38-.4-.38-.7Z"/>
      <path class="cls-32" d="M6.76,13.98c.26.16.37.41.38.71-.26-.16-.39-.4-.38-.71Z"/>
      <path class="cls-43" d="M47.98,86.45c.16.16.32.32.48.48-.16-.16-.32-.32-.48-.48Z"/>
      <path class="cls-24" d="M66.69,127.73c.52-.34.48-.89.49-1.4.01-.63.33-.95.95-1-.04.54-.08,1.07-.12,1.61.33.31.59.06.79-.15.75-.79,1.48-1.61,2.21-2.42.03,1.04-.28,1.99-.91,2.79-.32.4-.16.7-.05,1.05-.14.08-.31.12-.4.23-.99,1.14-2.27,1.8-3.67,2.3-.35-.3-.21-.71-.25-1.09,0,0,0,0,0,0,.18-.14.31-.33.48-.48,0-.16,0-.32,0-.48.18-.14.3-.33.47-.48,0-.16,0-.32,0-.48Z"/>
      <path class="cls-34" d="M41.74,179.57c0-.16,0-.32,0-.48.33.16.32.32,0,.48Z"/>
      <path class="cls-35" d="M47.5,162.77c.21-.39.56-.47.96-.48-.21.39-.56.47-.96.48Z"/>
      <path class="cls-13" d="M43.53,186.01c.13.06.27.11.4.17-.06.13-.09.34-.18.38-.1.04-.26-.09-.39-.15.06-.13.12-.27.17-.4Z"/>
      <path class="cls-40" d="M27.83,38.93c-.42.77-.94,1.41-1.92,1.44.42-.77.95-1.4,1.92-1.44Z"/>
      <path class="cls-40" d="M25.91,40.37c-.42.77-.94,1.41-1.92,1.44.42-.77.95-1.4,1.92-1.44Z"/>
      <path class="cls-49" d="M66.21,129.17c-.16.16-.32.32-.48.48.16-.16.32-.32.48-.48Z"/>
      <path class="cls-49" d="M66.69,128.21c-.16.16-.32.32-.47.48.16-.16.32-.32.47-.48Z"/>
    </g>
  </g>
</svg>