<?xml version="1.0" encoding="UTF-8"?>
<svg id="Layer_2" data-name="Layer 2" xmlns="http://www.w3.org/2000/svg" viewBox="0 0 304.14 136.44">
  <defs>
    <style>
      .cls-1 {
        fill: #f4f4f4;
        stroke-width: 0px;
      }
    </style>
  </defs>
  <g id="Layer_1-2" data-name="Layer 1">
    <path class="cls-1" d="M304.14,48.66c-1.1,5.6-1.81,11.32-3.39,16.78-4.62,15.96-14.66,28.04-28.07,37.45-16.08,11.29-34.28,17.38-53.34,21.14-25.92,5.11-52.03,5.7-78.28,3.14-22.73-2.21-44.96-6.58-66.29-14.96-2.57-1.01-5.08-2.15-8.4-3.57-.73,4.83-1.36,9.35-2.12,13.84-.58,3.46-1.08,6.96-2.06,10.31-1.11,3.78-6.27,4.92-9.57,2.03-9.52-8.33-18.98-16.74-28.28-25.32-5.01-4.62-9.71-9.6-14.43-14.53-3.43-3.58-6.83-7.22-6.01-12.88.09-.63-.81-1.5-1.41-2.1-3.04-3-3.41-6-.41-9.06,3.17-3.24,6.58-6.32,10.23-8.99,13.66-10.01,27.73-19.36,44.01-24.73,1.49-.49,3.05-.82,4.61-1.07,7.3-1.17,12.27,3.06,12.21,10.51-.05,6.63-.2,13.26-.47,19.88-.08,2,.49,2.67,2.52,2.99,21.88,3.46,43.87,4.85,65.95,2.82,18.44-1.69,36.41-5.41,52.11-16.12,15.7-10.7,23.27-25.89,24.21-44.63.1-2.07-.03-4.17.18-6.23.47-4.71,5.24-6.82,9.25-4.27,1.63,1.04,3.41,1.89,5.2,2.65,7.28,3.06,14.7,5.8,21.85,9.13,12.53,5.84,24.9,12.03,37.36,18.02.66.32,1.75.45,2.32.12,5.32-3.1,9.15-1.38,10.14,4.66.09.57.26,1.14.39,1.7v11.28ZM10.46,76.72c1.92,1.66,3.77,3.1,5.44,4.73,11.89,11.61,23.72,23.27,35.62,34.87,1.7,1.66,3.65,3.08,5.88,4.94,0-5.88-.54-11.17.13-16.3.94-7.14,3.79-8.54,10.71-6.67,45.09,12.24,90.82,18.62,137.61,14.44,17.33-1.55,34.2-5.26,49.87-13.17,16.07-8.11,28.25-19.94,33.78-37.5,1.81-5.75,2.63-11.81,3.68-16.69-6.78-3.15-12.7-5.57-18.31-8.57-9.75-5.23-19.27-10.88-28.97-16.23-5.16-2.84-10.48-5.41-15.99-8.24-.3,2.73-.47,5.1-.84,7.43-3.42,21.63-15.39,37.39-33.93,48.27-25.72,15.09-53.93,18.38-83.06,16.51-14.99-.96-29.46-4.31-43.52-9.71-7.2-2.77-7.5-2.71-6.97-10.52.04-.59.08-1.19.14-1.78.53-4.78,1.07-9.57,1.63-14.57-19.28,7.07-37.53,15.34-52.9,28.74Z"/>
  </g>
</svg>