<svg width="45" height="45" viewBox="0 0 45 45" fill="none" xmlns="http://www.w3.org/2000/svg">
<g clip-path="url(#clip0_21_33878)">
<path d="M44.9889 38.7662C44.6222 39.5658 43.993 39.8276 43.1301 39.815C40.7492 39.7793 38.3676 39.8075 35.9859 39.7964C35.704 39.7949 35.5925 39.8745 35.5158 40.1541C34.7698 42.8861 32.2 44.8423 29.4851 44.9197C26.3425 45.0097 23.705 42.8772 22.9813 40.2025C22.8913 39.8693 22.747 39.7941 22.4175 39.7941C15.5217 39.8053 8.62593 39.8031 1.7294 39.8023C0.903779 39.8023 0.374192 39.4594 0.166671 38.7989C-0.0996098 37.9495 0.493944 37.0681 1.38056 37.0049C1.55535 36.9922 1.73089 36.9975 1.90642 36.9975C8.72932 36.9975 15.5522 36.9937 22.3751 37.0056C22.7411 37.0056 22.8898 36.9097 22.9902 36.546C23.7459 33.8103 26.3961 31.8407 29.2612 31.8556C32.1427 31.8704 34.7624 33.843 35.5047 36.5854C35.5954 36.9208 35.7241 37.0071 36.0581 37.0049C38.4397 36.9893 40.8214 37.022 43.2023 36.9833C44.0711 36.9692 44.6616 37.26 44.9889 38.0648V38.7662Z" fill="#303437"/>
<path d="M44.9887 6.84828C44.6704 7.63225 44.0999 7.94092 43.2453 7.92828C40.8346 7.89332 38.4232 7.92307 36.0125 7.90745C35.7039 7.90522 35.5938 7.99968 35.5157 8.28753C34.757 11.0753 32.1656 13.0434 29.2596 13.0583C26.3721 13.0724 23.7435 11.0998 22.9782 8.32324C22.8897 8.00117 22.7573 7.90671 22.4166 7.90745C15.5201 7.9201 8.6228 7.9134 1.72627 7.92307C1.02784 7.92382 0.488582 7.70142 0.206681 7.04762C-0.167451 6.1796 0.420152 5.23348 1.38338 5.12117C1.5418 5.10258 1.7047 5.1115 1.86536 5.1115C8.718 5.1115 15.5714 5.1115 22.424 5.11299C22.6732 5.11299 22.8614 5.12712 22.9633 4.79167C23.7554 2.18092 25.5086 0.616708 28.1833 0.0819144C28.2354 0.0715012 28.2822 0.0343111 28.3313 0.00976562C28.9159 0.00976562 29.5006 0.00976562 30.0844 0.00976562C31.6204 0.09084 32.8767 0.782576 33.9522 1.82762C34.7072 2.56175 35.2516 3.44836 35.5566 4.45919C35.6756 4.8534 35.8757 4.98208 36.2766 4.9791C38.5995 4.96423 40.9231 4.97315 43.246 4.97092C43.5859 4.97092 43.911 5.01481 44.2286 5.15092C44.6756 5.34357 44.8913 5.69687 44.9895 6.14762V6.84902L44.9887 6.84828Z" fill="#303437"/>
<path d="M44.9886 22.8071C44.6457 23.5986 44.0484 23.8745 43.1879 23.8723C36.3523 23.85 29.516 23.8626 22.6805 23.8507C22.3265 23.8507 22.1955 23.9429 22.1003 24.2888C21.3402 27.0424 18.7302 28.9896 15.8427 28.9866C12.9605 28.9837 10.3341 27.0223 9.58737 24.2799C9.48919 23.9206 9.34191 23.85 9.00125 23.8522C6.51844 23.8671 4.03489 23.8663 1.55208 23.8574C0.498113 23.8537 -0.19511 22.8533 0.208031 21.9228C0.46613 21.327 0.948113 21.0518 1.59968 21.0533C4.08249 21.057 6.56605 21.0488 9.04886 21.0622C9.35828 21.0637 9.49142 20.9863 9.57547 20.6732C10.3163 17.9055 12.9389 15.93 15.8435 15.9285C18.7369 15.927 21.3424 17.8705 22.1003 20.6256C22.1948 20.97 22.325 21.0652 22.6798 21.0644C29.5012 21.0518 36.3218 21.0652 43.1432 21.0421C44.0127 21.0391 44.6398 21.289 44.9879 22.1072V22.8086L44.9886 22.8071Z" fill="#303437"/>
<path d="M29.2589 42.1103C27.1903 42.117 25.5213 40.4598 25.5205 38.398C25.5198 36.3421 27.197 34.6589 29.2462 34.6604C31.2701 34.6626 32.9541 36.3362 32.9712 38.363C32.989 40.4145 31.3155 42.1036 29.2589 42.1103Z" fill="#F4F4F4"/>
<path d="M29.2309 2.80202C31.2897 2.79607 32.9692 4.46665 32.9707 6.52177C32.9722 8.56276 31.2674 10.2616 29.2294 10.2519C27.1958 10.2423 25.526 8.57243 25.52 6.54185C25.5133 4.47111 27.1646 2.80797 29.2309 2.80202Z" fill="#F4F4F4"/>
<path d="M15.8459 26.1787C13.7952 26.1802 12.1127 24.4955 12.1172 22.4441C12.1209 20.4106 13.7796 18.7504 15.8236 18.7333C17.8794 18.7162 19.5649 20.386 19.5671 22.4434C19.5693 24.5067 17.9055 26.1773 15.8459 26.1787Z" fill="#F4F4F4"/>
</g>
<defs>
<clipPath id="clip0_21_33878">
<rect width="45" height="45" fill="white"/>
</clipPath>
</defs>
</svg>
