<?xml version="1.0" encoding="UTF-8"?>
<svg id="Layer_2" data-name="Layer 2" xmlns="http://www.w3.org/2000/svg" viewBox="0 0 324.72 116.21">
  <defs>
    <style>
      .cls-1 {
        fill: #3389ca;
      }

      .cls-1, .cls-2 {
        stroke-width: 0px;
      }

      .cls-2 {
        fill: #333334;
      }
    </style>
  </defs>
  <g id="Ebene_1" data-name="Ebene 1">
    <g>
      <path class="cls-2" d="M56.07,73.51h-8.55v-34.59H8.81v34.59H.26V0h8.55v31.27h38.72V0h8.55v73.51Z"/>
      <path class="cls-2" d="M108.87,73.51l-1.66-7.84h-.4c-2.75,3.45-5.49,5.79-8.22,7.01-2.73,1.22-6.14,1.84-10.23,1.84-5.46,0-9.75-1.41-12.85-4.22-3.1-2.82-4.65-6.82-4.65-12.02,0-11.13,8.9-16.96,26.7-17.5l9.35-.3v-3.42c0-4.32-.93-7.52-2.79-9.58-1.86-2.06-4.84-3.09-8.92-3.09-4.59,0-9.79,1.41-15.59,4.22l-2.56-6.39c2.72-1.47,5.69-2.63,8.92-3.47,3.23-.84,6.48-1.26,9.73-1.26,6.57,0,11.44,1.46,14.61,4.37,3.17,2.92,4.75,7.59,4.75,14.03v37.61h-6.18ZM90.01,67.63c5.2,0,9.28-1.42,12.24-4.27,2.97-2.85,4.45-6.84,4.45-11.97v-4.98l-8.35.35c-6.64.23-11.42,1.27-14.35,3.09-2.93,1.83-4.4,4.67-4.4,8.52,0,3.02.91,5.31,2.74,6.89,1.83,1.58,4.38,2.36,7.67,2.36Z"/>
      <path class="cls-2" d="M202.49,73.51v-35.85c0-4.39-.94-7.68-2.82-9.88-1.88-2.19-4.79-3.29-8.75-3.29-5.2,0-9.03,1.49-11.51,4.47-2.48,2.98-3.72,7.58-3.72,13.78v30.77h-8.35v-35.85c0-4.39-.94-7.68-2.82-9.88-1.88-2.19-4.81-3.29-8.8-3.29-5.23,0-9.06,1.57-11.49,4.7-2.43,3.13-3.65,8.27-3.65,15.41v28.91h-8.35V18.4h6.79l1.36,7.54h.4c1.58-2.68,3.8-4.78,6.66-6.29s6.08-2.26,9.63-2.26c8.61,0,14.25,3.12,16.89,9.35h.4c1.64-2.88,4.02-5.16,7.14-6.84,3.12-1.68,6.67-2.51,10.66-2.51,6.23,0,10.9,1.6,14,4.8,3.1,3.2,4.65,8.32,4.65,15.36v35.95h-8.35Z"/>
      <path class="cls-2" d="M263.58,58.48c0,5.13-1.91,9.08-5.73,11.87-3.82,2.78-9.18,4.17-16.09,4.17-7.31,0-13.01-1.16-17.1-3.47v-7.74c2.65,1.34,5.49,2.4,8.52,3.17,3.03.77,5.96,1.16,8.77,1.16,4.36,0,7.71-.7,10.06-2.09,2.35-1.39,3.52-3.51,3.52-6.36,0-2.14-.93-3.98-2.79-5.51-1.86-1.53-5.49-3.33-10.89-5.41-5.13-1.91-8.77-3.58-10.94-5-2.16-1.42-3.77-3.04-4.83-4.85-1.06-1.81-1.58-3.97-1.58-6.49,0-4.49,1.83-8.04,5.48-10.63,3.65-2.6,8.66-3.9,15.03-3.9,5.93,0,11.73,1.21,17.4,3.62l-2.97,6.79c-5.53-2.28-10.54-3.42-15.03-3.42-3.96,0-6.94.62-8.95,1.86-2.01,1.24-3.02,2.95-3.02,5.13,0,1.48.38,2.73,1.13,3.77.75,1.04,1.97,2.03,3.65,2.97,1.68.94,4.89,2.3,9.65,4.07,6.54,2.38,10.95,4.78,13.25,7.19,2.3,2.41,3.44,5.45,3.44,9.1Z"/>
      <path class="cls-2" d="M324.72,45.91c0,8.98-2.26,16-6.79,21.04-4.53,5.05-10.78,7.57-18.75,7.57-4.93,0-9.3-1.16-13.12-3.47-3.82-2.31-6.77-5.63-8.85-9.96-2.08-4.32-3.12-9.38-3.12-15.18,0-8.98,2.25-15.98,6.74-20.99,4.49-5.01,10.73-7.52,18.7-7.52s13.83,2.56,18.38,7.69c4.54,5.13,6.81,12.07,6.81,20.82ZM282.74,45.91c0,7.04,1.41,12.4,4.22,16.09,2.82,3.69,6.96,5.53,12.42,5.53s9.61-1.84,12.44-5.51c2.83-3.67,4.25-9.04,4.25-16.11s-1.42-12.33-4.25-15.96c-2.83-3.64-7.01-5.46-12.54-5.46s-9.59,1.79-12.37,5.38c-2.78,3.59-4.17,8.93-4.17,16.04Z"/>
    </g>
    <g>
      <path class="cls-2" d="M13.54,115.88H.26v-24.3h13.28v1.56H1.96v9.19h10.94v1.56H1.96v10.42h11.59v1.56Z"/>
      <path class="cls-2" d="M46.3,115.88h-1.71l-14.4-21.58h-.13c.13,2.57.2,4.51.2,5.82v15.76h-1.63v-24.3h1.7l14.38,21.54h.1c-.1-1.99-.15-3.89-.15-5.68v-15.86h1.65v24.3Z"/>
      <path class="cls-2" d="M73,103.63h8.96v11.09c-2.35,1-4.99,1.5-7.93,1.5-3.83,0-6.77-1.08-8.82-3.25-2.04-2.17-3.07-5.23-3.07-9.2,0-2.47.51-4.66,1.52-6.57,1.01-1.91,2.47-3.39,4.36-4.43s4.06-1.56,6.51-1.56c2.65,0,5.03.49,7.13,1.46l-.68,1.53c-2.11-.98-4.29-1.46-6.55-1.46-3.2,0-5.74.99-7.62,2.97-1.88,1.98-2.82,4.65-2.82,8,0,3.66.89,6.41,2.68,8.25,1.78,1.85,4.4,2.77,7.86,2.77,2.24,0,4.14-.32,5.7-.95v-8.54h-7.23v-1.6Z"/>
      <path class="cls-2" d="M98.32,115.88v-24.3h1.7v24.3h-1.7Z"/>
      <path class="cls-2" d="M136.16,115.88h-1.71l-14.4-21.58h-.13c.13,2.57.2,4.51.2,5.82v15.76h-1.63v-24.3h1.7l14.38,21.54h.1c-.1-1.99-.15-3.89-.15-5.68v-15.86h1.65v24.3Z"/>
      <path class="cls-2" d="M167.26,115.88h-13.28v-24.3h13.28v1.56h-11.59v9.19h10.94v1.56h-10.94v10.42h11.59v1.56Z"/>
      <path class="cls-2" d="M199.66,115.88h-13.28v-24.3h13.28v1.56h-11.59v9.19h10.94v1.56h-10.94v10.42h11.59v1.56Z"/>
      <path class="cls-2" d="M217.11,105.29v10.59h-1.7v-24.3h5.78c3.01,0,5.24.56,6.68,1.67,1.44,1.11,2.16,2.79,2.16,5.03,0,1.63-.43,3-1.29,4.12s-2.16,1.92-3.91,2.41l6.6,11.07h-2.03l-6.27-10.59h-6.03ZM217.11,103.83h4.64c2.05,0,3.64-.46,4.77-1.37,1.13-.91,1.7-2.26,1.7-4.05s-.55-3.2-1.66-4.04c-1.11-.84-2.91-1.26-5.42-1.26h-4.02v10.72Z"/>
      <path class="cls-2" d="M249.26,115.88v-24.3h1.7v24.3h-1.7Z"/>
      <path class="cls-2" d="M289.13,115.88h-1.71l-14.4-21.58h-.13c.13,2.57.2,4.51.2,5.82v15.76h-1.63v-24.3h1.7l14.38,21.54h.1c-.1-1.99-.15-3.89-.15-5.68v-15.86h1.65v24.3Z"/>
      <path class="cls-2" d="M313.14,103.63h8.96v11.09c-2.35,1-4.99,1.5-7.93,1.5-3.83,0-6.77-1.08-8.82-3.25-2.04-2.17-3.07-5.23-3.07-9.2,0-2.47.51-4.66,1.52-6.57,1.01-1.91,2.47-3.39,4.36-4.43,1.89-1.04,4.06-1.56,6.51-1.56,2.65,0,5.03.49,7.13,1.46l-.68,1.53c-2.11-.98-4.29-1.46-6.55-1.46-3.2,0-5.74.99-7.62,2.97-1.88,1.98-2.82,4.65-2.82,8,0,3.66.89,6.41,2.68,8.25s4.4,2.77,7.86,2.77c2.24,0,4.14-.32,5.7-.95v-8.54h-7.23v-1.6Z"/>
    </g>
    <g>
      <rect class="cls-1" x="297.9" y="44.51" width="2.56" height="6.65" transform="translate(101.72 277.63) rotate(-58.41)"/>
      <rect class="cls-1" x="295.3" y="48.73" width="2.56" height="6.65" transform="translate(96.89 277.43) rotate(-58.41)"/>
      <polygon class="cls-1" points="291.82 53.45 290.4 55.76 292.33 56.94 276.9 82.04 0 82.04 0 84.18 278.16 84.18 279.98 81.08 294.14 58.05 296.07 59.24 297.48 56.93 291.82 53.45"/>
      <rect class="cls-1" x="299.51" y="38.52" width="6.69" height="6.65" transform="translate(108.58 277.92) rotate(-58.41)"/>
      <polygon class="cls-1" points="317.14 15.05 312.86 17 316.54 17.58 306.46 33.96 304.53 32.77 303.04 35.21 308.7 38.69 310.2 36.26 308.27 35.07 318.4 18.6 320.34 22.46 320.89 17.79 321.43 13.11 317.14 15.05"/>
    </g>
  </g>
</svg>