<svg width="36" height="36" viewBox="0 0 36 36" fill="none" xmlns="http://www.w3.org/2000/svg">
<g clip-path="url(#clip0_21_33485)">
<path d="M12.7236 35.9928C12.7247 28.1341 12.7264 20.2754 12.7275 12.4167C12.7275 12.1093 12.8807 11.9556 13.187 11.9556C15.2949 11.9556 17.4034 11.9611 19.5114 11.9489C19.8032 11.9473 19.912 11.9928 19.9009 12.3207C19.8726 13.1747 19.8915 14.0304 19.8915 14.8855V15.2152C20.0263 15.2451 20.0379 15.1547 20.0696 15.102C21.3286 13.0022 23.2334 11.8468 25.6 11.4817C27.5581 11.1798 29.5062 11.3469 31.3567 12.1154C33.4419 12.9816 34.6377 14.6314 35.2858 16.7334C35.6564 17.9364 35.8207 19.1756 35.9222 20.4252C35.9289 20.5068 35.8678 20.6178 35.9932 20.6677V20.8786C35.9361 20.9358 35.9644 21.009 35.9572 21.075C35.9605 21.1289 35.9461 21.1866 35.9932 21.2299V21.4407C35.9161 21.6 35.9749 21.7687 35.9572 21.9324C35.9755 22.0961 35.9167 22.2653 35.9932 22.4251C35.9932 26.8539 35.9905 31.2832 35.9999 35.712C35.9999 35.9528 35.9527 36.0011 35.7119 36C33.3215 35.9883 30.9317 35.9928 28.5413 35.9928C28.3921 35.8097 28.4365 35.591 28.4365 35.3846C28.4342 31.3554 28.4459 27.3261 28.427 23.2969C28.422 22.2553 28.3205 21.216 27.9659 20.2188C27.461 18.7982 26.4084 18.1384 24.9535 18.0391C24.341 17.9975 23.7345 18.0702 23.1452 18.2372C21.8119 18.6151 21.06 19.5579 20.6716 20.8381C20.3869 21.777 20.2915 22.7464 20.2882 23.7186C20.2749 27.6075 20.2832 31.4963 20.281 35.3851C20.281 35.5916 20.3254 35.8108 20.1761 35.9939H12.7242L12.7236 35.9928Z" fill="#303437"/>
<path d="M0.561523 35.9927C0.570956 35.854 0.588712 35.7147 0.588712 35.576C0.589822 27.8449 0.592596 20.1144 0.580944 12.3834C0.580389 12.0232 0.671388 11.9455 1.02151 11.9483C3.23544 11.9655 5.44938 11.9633 7.66276 11.95C7.9757 11.9483 8.06948 12.0166 8.06892 12.3467C8.05838 20.0894 8.0606 27.8316 8.06171 35.5743C8.06171 35.7136 8.07614 35.8534 8.0839 35.9927H0.561523Z" fill="#303437"/>
<path d="M28.5853 20.3149C28.5992 20.2189 28.5381 20.1134 28.623 20.0269V20.3171C28.6092 20.3371 28.597 20.3348 28.5853 20.3149Z" fill="#303437"/>
<path d="M28.5852 20.3148C28.5979 20.3159 28.6101 20.317 28.6229 20.317V20.6072C28.5463 20.5179 28.5929 20.4124 28.5852 20.3142V20.3148Z" fill="#303437"/>
<path d="M28.5892 19.8177C28.5914 19.7744 28.5515 19.7189 28.6231 19.6951V19.8194C28.6109 19.8388 28.5998 19.8382 28.5892 19.8177Z" fill="#303437"/>
<path d="M28.5891 19.8176C28.6001 19.8176 28.6118 19.8176 28.6229 19.8193V19.9025C28.5752 19.8887 28.5807 19.8543 28.5891 19.8176Z" fill="#303437"/>
<path d="M4.28192 8.68501C1.85769 8.64118 -0.0444083 6.64404 0.000536172 4.18966C0.0438161 1.8507 2.04302 -0.0393318 4.43118 0.000621981C6.79215 0.0400208 8.69036 2.04326 8.6432 4.44492C8.59715 6.77667 6.59073 8.72719 4.28192 8.68557V8.68501Z" fill="#303437"/>
</g>
<defs>
<clipPath id="clip0_21_33485">
<rect width="36" height="36" fill="white"/>
</clipPath>
</defs>
</svg>
