<svg width="5656" height="5654" viewBox="0 0 5656 5654" fill="none" xmlns="http://www.w3.org/2000/svg">
<path d="M1999.78 5652.83C1999.95 4418.58 2000.21 3184.33 2000.39 1950.08C2000.39 1901.8 2024.44 1877.65 2072.54 1877.65C2403.61 1877.65 2734.76 1878.53 3065.83 1876.61C3111.67 1876.35 3128.75 1883.49 3127 1935C3122.56 2069.13 3125.52 2203.52 3125.52 2337.82V2389.59C3146.7 2394.29 3148.53 2380.09 3153.5 2371.81C3351.23 2042.02 3650.4 1860.57 4022.08 1803.23C4329.61 1755.82 4635.58 1782.05 4926.21 1902.75C5253.7 2038.8 5441.5 2297.9 5543.29 2628.03C5601.5 2816.98 5627.3 3011.59 5643.24 3207.86C5644.29 3220.67 5634.7 3238.1 5654.4 3245.94V3279.06C5645.42 3288.04 5649.87 3299.54 5648.73 3309.91C5649.26 3318.37 5646.99 3327.43 5654.4 3334.23V3367.35C5642.28 3392.36 5651.52 3418.85 5648.73 3444.56C5651.61 3470.27 5642.37 3496.86 5654.4 3521.95C5654.4 4217.52 5653.96 4913.17 5655.44 5608.73C5655.44 5646.55 5648.04 5654.13 5610.21 5653.96C5234.79 5652.13 4859.46 5652.83 4484.03 5652.83C4460.59 5624.07 4467.56 5589.73 4467.56 5557.31C4467.21 4924.5 4469.04 4291.68 4466.08 3658.87C4465.3 3495.29 4449.35 3332.05 4393.66 3175.44C4314.36 2952.33 4149.05 2848.7 3920.55 2833.1C3824.34 2826.57 3729.09 2837.98 3636.54 2864.22C3427.13 2923.57 3309.05 3071.64 3248.05 3272.7C3203.34 3420.16 3188.35 3572.42 3187.83 3725.11C3185.74 4335.87 3187.05 4946.63 3186.7 5557.39C3186.7 5589.82 3193.67 5624.24 3170.23 5653H1999.86L1999.78 5652.83Z" fill="#FAFAFA"/>
<path d="M89.3438 5652.89C90.8252 5631.1 93.6139 5609.22 93.6139 5587.43C93.7882 4373.23 94.2239 3159.11 92.3938 1944.91C92.3067 1888.34 106.599 1876.14 161.587 1876.58C509.298 1879.28 857.009 1878.93 1204.63 1876.84C1253.78 1876.58 1268.51 1887.3 1268.42 1939.15C1266.77 3155.19 1267.12 4371.14 1267.29 5587.17C1267.29 5609.05 1269.56 5631.01 1270.78 5652.89H89.3438Z" fill="#FAFAFA"/>
<path d="M4490.67 3190.48C4492.85 3175.41 4483.26 3158.85 4496.6 3145.25V3190.83C4494.42 3193.97 4492.5 3193.62 4490.67 3190.48Z" fill="#FAFAFA"/>
<path d="M4490.46 3190.58C4492.46 3190.76 4494.38 3190.93 4496.38 3190.93V3236.51C4484.36 3222.48 4491.68 3205.92 4490.46 3190.5V3190.58Z" fill="#FAFAFA"/>
<path d="M4490.79 3112.52C4491.14 3105.72 4484.86 3097.01 4496.1 3093.26V3112.78C4494.19 3115.83 4492.44 3115.74 4490.79 3112.52Z" fill="#FAFAFA"/>
<path d="M4490.23 3112.58C4491.97 3112.58 4493.8 3112.58 4495.54 3112.84V3125.92C4488.05 3123.74 4488.92 3118.34 4490.23 3112.58Z" fill="#FAFAFA"/>
<path d="M673.51 1364.02C292.771 1357.14 -5.96358 1043.48 1.09521 658.002C7.89256 290.655 321.878 -6.18545 696.952 0.0895069C1067.76 6.27731 1365.88 320.897 1358.47 698.092C1351.24 1064.31 1036.12 1370.65 673.51 1364.11V1364.02Z" fill="#FAFAFA"/>
</svg>
