<svg width="30" height="42" viewBox="0 0 30 42" fill="none" xmlns="http://www.w3.org/2000/svg">
<path d="M26.4391 5.41847C22.6671 1.01394 17.8223 -0.73417 12.0956 0.279857C8.29532 0.952518 5.22237 2.94231 2.93534 6.04984C0.339188 9.57829 -0.539663 13.5186 0.317975 17.8204C0.858418 20.5312 1.95345 23.0406 3.22728 25.4734C6.06081 30.889 9.69441 35.7507 13.6553 40.3848C13.9281 40.703 14.2341 40.9628 14.6119 41.14H15.2564C15.6959 40.9507 16.0131 40.6184 16.3191 40.2629C18.0233 38.2802 19.6507 36.235 21.1912 34.1244C23.855 30.4741 26.2633 26.6707 28.0493 22.5059C28.9544 20.3963 29.6757 18.2202 29.8302 15.9172C30.0949 11.9819 29.0049 8.41422 26.4391 5.41847ZM14.9443 22.3911C10.8278 22.4082 7.45182 19.0529 7.42354 14.9173C7.39526 10.7907 10.7753 7.39516 14.9241 7.38308C19.0456 7.371 22.4176 10.7212 22.4448 14.8559C22.4721 18.9825 19.0971 22.373 14.9443 22.3901V22.3911Z" fill="#303437"/>
</svg>
