<svg width="1078" height="1445" viewBox="0 0 1078 1445" fill="none" xmlns="http://www.w3.org/2000/svg">
<path d="M954.214 190.318C818.079 35.6137 643.225 -25.787 436.543 9.82968C299.387 33.4562 188.481 103.345 105.939 212.494C12.2417 336.428 -19.477 474.827 11.4761 625.923C30.9812 721.137 70.502 809.277 116.476 894.728C218.741 1084.94 349.882 1255.7 492.835 1418.47C502.678 1429.65 513.725 1438.78 527.361 1445H550.621C566.48 1438.35 577.928 1426.68 588.975 1414.19C650.48 1344.55 709.214 1272.72 764.813 1198.58C860.954 1070.37 947.87 936.782 1012.33 790.496C1045 716.397 1071.03 639.965 1076.6 559.076C1086.16 420.854 1046.82 295.541 954.214 190.318ZM539.355 786.464C390.788 787.065 268.944 669.215 267.924 523.954C266.903 379.012 388.892 259.747 538.626 259.323C687.376 258.899 809.074 376.571 810.058 521.797C811.042 666.739 689.235 785.827 539.355 786.428V786.464Z" fill="#FAFAFA"/>
</svg>
