<svg width="36" height="26" viewBox="0 0 36 26" fill="none" xmlns="http://www.w3.org/2000/svg">
<path d="M0 24.3639V2.23187C0.215427 2.17116 0.354355 2.32702 0.501197 2.43395C2.07689 3.58114 3.65874 4.71928 5.23795 5.86195C7.81252 7.72411 10.3836 9.5908 12.9617 11.4484C14.1592 12.312 15.356 13.1774 16.5483 14.0473C17.5269 14.7613 18.2277 14.7623 19.2125 14.0518C22.2021 11.8961 25.2032 9.75934 28.1989 7.61356C30.551 5.929 32.904 4.24445 35.2561 2.559C35.4531 2.41854 35.6685 2.13763 35.8875 2.25362C36.0827 2.35692 35.9631 2.6922 35.9639 2.92146C35.9692 9.92336 35.9683 16.9262 35.9683 23.9281C35.9683 25.1487 35.1576 25.9841 33.9688 25.985C23.303 25.985 12.6381 25.9832 1.97225 25.9914C1.22134 25.9914 0.684969 25.6543 0.242685 25.068C0.0808949 24.8533 0.078257 24.5995 0 24.3648L0 24.3639Z" fill="#303437"/>
<path d="M3.10293 0H32.816C32.6841 0.103302 32.5935 0.180326 32.4968 0.2501C27.7407 3.67629 22.9837 7.10158 18.2303 10.5323C18.0447 10.6664 17.9234 10.6945 17.7185 10.5468C12.9387 7.09161 8.15183 3.64729 3.36672 0.200261C3.2955 0.149516 3.22691 0.0942406 3.10205 0H3.10293Z" fill="#303437"/>
</svg>
