<svg width="1466" height="1076" viewBox="0 0 1466 1076" fill="none" xmlns="http://www.w3.org/2000/svg">
<path d="M0 1007.78V92.3328C8.7728 89.8215 14.4304 96.2683 20.4102 100.691C84.5769 148.143 148.994 195.22 213.304 242.484C318.148 319.509 422.849 396.721 527.836 473.558C576.606 509.278 625.339 545.073 673.894 581.055C713.748 610.591 742.286 610.628 782.39 581.243C904.135 492.074 1026.35 403.692 1148.34 314.936C1244.13 245.258 1339.95 175.579 1435.73 105.864C1443.75 100.054 1452.52 88.4347 1461.44 93.2323C1469.39 97.5052 1464.52 111.373 1464.56 120.856C1464.77 410.477 1464.74 700.134 1464.74 989.754C1464.74 1040.24 1431.72 1074.8 1383.31 1074.84C948.966 1074.84 514.659 1074.76 80.3159 1075.1C49.7364 1075.1 27.8939 1061.16 9.88283 1036.91C3.29428 1028.02 3.18685 1017.53 0 1007.82L0 1007.78Z" fill="#FAFAFA"/>
<path d="M126.404 0H1336.41C1331.03 4.2729 1327.35 7.45884 1323.41 10.3449C1129.73 152.063 936.008 293.743 742.434 435.649C734.878 441.196 729.937 442.358 721.594 436.248C526.945 293.331 332.01 150.863 137.146 8.28343C134.246 6.18446 131.453 3.89809 126.368 0H126.404Z" fill="#FAFAFA"/>
</svg>
