<svg width="1466" height="1445" viewBox="0 0 1466 1445" fill="none" xmlns="http://www.w3.org/2000/svg">
<path d="M0 296.061C6.93274 281.171 6.28616 264.618 10.884 249.091C20.0079 218.178 35.2025 191.191 58.4433 168.448C100.83 126.996 143.648 85.9671 185.065 43.6299C245.519 -18.1957 339.165 -10.8389 395.417 43.8421C460.722 107.295 525.451 171.313 590.073 235.438C648.947 293.868 649.702 380.276 592.264 434.143C579.692 445.957 565 454.481 548.584 460.21C508.137 474.394 477.137 499.117 459.86 538.695C448.544 564.621 446.748 591.219 454.112 618.559C473.366 690.147 512.843 750.522 561.264 805.84C621.037 874.138 689.574 931.932 772.264 972.041C801.863 986.401 832.467 999.629 866.197 998.214C928.843 995.597 976.151 966.983 996.266 907.598C1026.22 819.21 1148.28 783.487 1226.63 861.83C1290.32 925.53 1354.94 988.311 1419.09 1051.59C1424.8 1057.25 1430.23 1063.22 1435.36 1069.38C1473.69 1115.64 1476.35 1186.91 1441.69 1236.39C1434.07 1247.25 1425.7 1257.37 1416.11 1266.7C1376.06 1305.79 1335.86 1344.73 1296.57 1384.52C1262.05 1419.46 1220.45 1438.49 1171.42 1442.49C1169.44 1442.67 1167.68 1442.81 1166.96 1445H1115.34C1110.82 1442.06 1105.79 1444.22 1101.05 1443.55C1047.99 1443.48 998.529 1427.21 949.749 1409.35C843.746 1370.55 747.694 1313.71 656.06 1249.2C590.755 1203.21 529.187 1152.74 470.241 1098.98C412.013 1045.89 357.269 989.69 305.04 930.871C241.999 859.849 185.567 784.123 135.422 703.905C91.2391 633.237 53.7736 559.28 27.4795 480.159C13.0034 436.761 3.34064 392.478 0 346.852V332.739C2.11933 330.829 1.29315 328.283 1.47276 325.984C1.47276 322.977 1.47276 319.935 1.47276 316.929C1.29315 314.595 2.11933 312.083 0 310.174V296.061Z" fill="#FAFAFA"/>
</svg>
