<svg width="34" height="34" viewBox="0 0 34 34" fill="none" xmlns="http://www.w3.org/2000/svg">
<path d="M0 6.81043C0.159351 6.4679 0.144489 6.08712 0.250173 5.72995C0.459888 5.01884 0.809139 4.39805 1.34334 3.8749C2.31761 2.92134 3.30178 1.97754 4.25376 1.00364C5.64333 -0.418565 7.79581 -0.249333 9.08878 1.00852C10.5898 2.46815 12.0776 3.9408 13.563 5.41589C14.9162 6.75999 14.9336 8.74766 13.6134 9.9868C13.3244 10.2585 12.9867 10.4546 12.6094 10.5864C11.6797 10.9127 10.9671 11.4814 10.57 12.3919C10.3099 12.9882 10.2686 13.6001 10.4379 14.229C10.8804 15.8758 11.7878 17.2646 12.9008 18.5371C14.2747 20.1082 15.85 21.4377 17.7507 22.3603C18.431 22.6906 19.1345 22.9949 19.9098 22.9624C21.3497 22.9022 22.4371 22.244 22.8995 20.8779C23.5881 18.8447 26.3936 18.0229 28.1944 19.8251C29.6583 21.2904 31.1436 22.7346 32.6182 24.1901C32.7495 24.3203 32.8742 24.4578 32.9922 24.5994C33.8732 25.6636 33.9343 27.303 33.1376 28.4413C32.9625 28.6911 32.7701 28.9238 32.5497 29.1386C31.6291 30.0376 30.7052 30.9334 29.8019 31.8487C29.0085 32.6526 28.0524 33.0903 26.9253 33.1822C26.8799 33.1863 26.8395 33.1896 26.823 33.24H25.6365C25.5325 33.1725 25.4169 33.2221 25.3079 33.2066C24.0884 33.205 22.9515 32.8308 21.8302 32.4199C19.3937 31.5273 17.186 30.2199 15.0797 28.7358C13.5787 27.6781 12.1635 26.5171 10.8086 25.2804C9.47023 24.0591 8.21194 22.7663 7.01144 21.4132C5.56242 19.7795 4.26532 18.0375 3.11271 16.1923C2.09716 14.5667 1.236 12.8654 0.631624 11.0453C0.298886 10.047 0.0767857 9.02835 0 7.97879V7.65415C0.0487135 7.61022 0.0297235 7.55164 0.0338517 7.49875C0.0338517 7.42959 0.0338517 7.35962 0.0338517 7.29047C0.0297235 7.23677 0.0487135 7.179 0 7.13506V6.81043Z" fill="#303437"/>
<path d="M25.2925 33.2354C25.2958 33.2159 25.2925 33.1972 25.2834 33.1793C25.4032 33.1573 25.5229 33.1362 25.622 33.2354H25.2925Z" fill="#303437"/>
<path d="M0.054493 7.26585C0.054493 7.35372 0.054493 7.44078 0.054493 7.52865C0.035503 7.5555 0.0173387 7.55632 0 7.52703V7.26748C0.0181643 7.239 0.0363287 7.23819 0.0553187 7.26585H0.054493Z" fill="#303437"/>
<path d="M0.0553187 7.2599C0.0371543 7.2599 0.0181643 7.2599 0 7.26153V7.13135C0.0842165 7.14681 0.0644009 7.20539 0.0553187 7.2599Z" fill="#303437"/>
<path d="M0 7.52197C0.0181643 7.52197 0.0363287 7.52279 0.054493 7.5236C0.0644009 7.57811 0.0833908 7.63669 0 7.65215V7.52197Z" fill="#303437"/>
</svg>
