<?xml version="1.0" encoding="UTF-8"?>
<svg id="Layer_2" data-name="Layer 2" xmlns="http://www.w3.org/2000/svg" viewBox="0 0 93.08 213.11">
  <defs>
    <style>
      .cls-1 {
        fill: #f997c2;
      }

      .cls-1, .cls-2, .cls-3, .cls-4, .cls-5, .cls-6, .cls-7, .cls-8, .cls-9, .cls-10, .cls-11, .cls-12, .cls-13, .cls-14, .cls-15, .cls-16, .cls-17, .cls-18, .cls-19, .cls-20, .cls-21, .cls-22, .cls-23, .cls-24, .cls-25, .cls-26, .cls-27, .cls-28, .cls-29, .cls-30, .cls-31, .cls-32, .cls-33, .cls-34, .cls-35, .cls-36, .cls-37, .cls-38, .cls-39, .cls-40, .cls-41, .cls-42, .cls-43, .cls-44, .cls-45, .cls-46, .cls-47, .cls-48, .cls-49, .cls-50, .cls-51, .cls-52, .cls-53, .cls-54, .cls-55, .cls-56, .cls-57, .cls-58, .cls-59, .cls-60, .cls-61, .cls-62, .cls-63, .cls-64, .cls-65, .cls-66, .cls-67, .cls-68, .cls-69, .cls-70, .cls-71, .cls-72, .cls-73, .cls-74, .cls-75, .cls-76, .cls-77, .cls-78, .cls-79, .cls-80, .cls-81, .cls-82, .cls-83, .cls-84, .cls-85, .cls-86, .cls-87, .cls-88, .cls-89, .cls-90, .cls-91, .cls-92, .cls-93, .cls-94, .cls-95, .cls-96, .cls-97, .cls-98, .cls-99, .cls-100, .cls-101, .cls-102, .cls-103, .cls-104, .cls-105, .cls-106, .cls-107, .cls-108, .cls-109, .cls-110, .cls-111, .cls-112, .cls-113, .cls-114 {
        stroke-width: 0px;
      }

      .cls-2 {
        fill: #faa0c8;
      }

      .cls-3 {
        fill: #e688be;
      }

      .cls-4 {
        fill: #f98ab9;
      }

      .cls-5 {
        fill: #fb99c8;
      }

      .cls-6 {
        fill: #f1a6c8;
      }

      .cls-7 {
        fill: #f09bc1;
      }

      .cls-8 {
        fill: #fca1cd;
      }

      .cls-9 {
        fill: #fbbbdd;
      }

      .cls-10 {
        fill: #fea6ce;
      }

      .cls-11 {
        fill: #fc96c4;
      }

      .cls-12 {
        fill: #ea6ea4;
      }

      .cls-13 {
        fill: #fbb1d4;
      }

      .cls-14 {
        fill: #f6a4cc;
      }

      .cls-15 {
        fill: #fa90c5;
      }

      .cls-16 {
        fill: #e98ec0;
      }

      .cls-17 {
        fill: #ea69a1;
      }

      .cls-18 {
        fill: #fca2cb;
      }

      .cls-19 {
        fill: #fb85b6;
      }

      .cls-20 {
        fill: #fcbee0;
      }

      .cls-21 {
        fill: #f983bc;
      }

      .cls-22 {
        fill: #fb92c2;
      }

      .cls-23 {
        fill: #febfdf;
      }

      .cls-24 {
        fill: #fba4cc;
      }

      .cls-25 {
        fill: #fb9ac4;
      }

      .cls-26 {
        fill: #fca0c9;
      }

      .cls-27 {
        fill: #fa85b9;
      }

      .cls-28 {
        fill: #f180b3;
      }

      .cls-29 {
        fill: #fcaad3;
      }

      .cls-30 {
        fill: #fa7fb8;
      }

      .cls-31 {
        fill: #ea7ab2;
      }

      .cls-32 {
        fill: #f59cc7;
      }

      .cls-33 {
        fill: #fd93c5;
      }

      .cls-34 {
        fill: #fc9dc6;
      }

      .cls-35 {
        fill: #fcb6da;
      }

      .cls-36 {
        fill: #fdb1d1;
      }

      .cls-37 {
        fill: #fcb3d9;
      }

      .cls-38 {
        fill: #f9afd6;
      }

      .cls-39 {
        fill: #fa7cb2;
      }

      .cls-40 {
        fill: #fcadd6;
      }

      .cls-41 {
        fill: #fb75ad;
      }

      .cls-42 {
        fill: #ee8bb8;
      }

      .cls-43 {
        fill: #fdb4d7;
      }

      .cls-44 {
        fill: #f388b4;
      }

      .cls-45 {
        fill: #fc8cbf;
      }

      .cls-46 {
        fill: #fc9ac8;
      }

      .cls-47 {
        fill: #fdc1e0;
      }

      .cls-48 {
        fill: #ec80b1;
      }

      .cls-49 {
        fill: #e992c4;
      }

      .cls-50 {
        fill: #fcaad2;
      }

      .cls-51 {
        fill: #fc9fce;
      }

      .cls-52 {
        fill: #f7a0c5;
      }

      .cls-53 {
        fill: #f5b4d6;
      }

      .cls-54 {
        fill: #fca5cd;
      }

      .cls-55 {
        fill: #fccde8;
      }

      .cls-56 {
        fill: #f48eb7;
      }

      .cls-57 {
        fill: #fda7cc;
      }

      .cls-58 {
        fill: #fc95c2;
      }

      .cls-59 {
        fill: #fa67a3;
      }

      .cls-60 {
        fill: #fda0c8;
      }

      .cls-61 {
        fill: #fca2cf;
      }

      .cls-62 {
        fill: #fb98c7;
      }

      .cls-63 {
        fill: #fa90bc;
      }

      .cls-64 {
        fill: #ec99c4;
      }

      .cls-65 {
        fill: #f3aed2;
      }

      .cls-66 {
        fill: #f9a4ca;
      }

      .cls-67 {
        fill: #fc97c1;
      }

      .cls-68 {
        fill: #fb9ac7;
      }

      .cls-69 {
        fill: #fcaed3;
      }

      .cls-70 {
        fill: #f3a8cf;
      }

      .cls-71 {
        fill: #f39abf;
      }

      .cls-72 {
        fill: #ef7fb1;
      }

      .cls-73 {
        fill: #fda9d0;
      }

      .cls-74 {
        fill: #f971b0;
      }

      .cls-75 {
        fill: #f79fcc;
      }

      .cls-76 {
        fill: #fc9bc4;
      }

      .cls-77 {
        fill: #f5a5c8;
      }

      .cls-78 {
        fill: #f7b9da;
      }

      .cls-79 {
        fill: #fdb7dc;
      }

      .cls-80 {
        fill: #fa8abb;
      }

      .cls-81 {
        fill: #f5a6cc;
      }

      .cls-82 {
        fill: #fbc4e3;
      }

      .cls-83 {
        fill: #fcaad1;
      }

      .cls-84 {
        fill: #fc5b9a;
      }

      .cls-85 {
        fill: #faa8cd;
      }

      .cls-86 {
        fill: #ec7aad;
      }

      .cls-87 {
        fill: #fcb6db;
      }

      .cls-88 {
        fill: #fdacd3;
      }

      .cls-89 {
        fill: #e995c0;
      }

      .cls-90 {
        fill: #fb8bbd;
      }

      .cls-91 {
        fill: #eb75a9;
      }

      .cls-92 {
        fill: #f9b0d2;
      }

      .cls-93 {
        fill: #f99cc9;
      }

      .cls-94 {
        fill: #fdb4d9;
      }

      .cls-95 {
        fill: #f0a0c7;
      }

      .cls-96 {
        fill: #fdabce;
      }

      .cls-97 {
        fill: #f490ba;
      }

      .cls-98 {
        fill: #fc8cbb;
      }

      .cls-99 {
        fill: #f08fb9;
      }

      .cls-100 {
        fill: #ec79ac;
      }

      .cls-101 {
        fill: #fc93c2;
      }

      .cls-102 {
        fill: #fcafd3;
      }

      .cls-103 {
        fill: #fff;
      }

      .cls-104 {
        fill: #fcafd5;
      }

      .cls-105 {
        fill: #ec85b5;
      }

      .cls-106 {
        fill: #fdafd5;
      }

      .cls-107 {
        fill: #f98cbf;
      }

      .cls-108 {
        fill: #ef93bd;
      }

      .cls-109 {
        fill: #fca1d1;
      }

      .cls-110 {
        fill: #fcbfe1;
      }

      .cls-111 {
        fill: #fd99c8;
      }

      .cls-112 {
        fill: #fdb9da;
      }

      .cls-113 {
        fill: #fda5d0;
      }

      .cls-114 {
        fill: #f895c8;
      }
    </style>
  </defs>
  <g id="Layer_1-2" data-name="Layer 1">
    <g>
      <path class="cls-103" d="M93.08,2.71c-.01,12.53,0,25.06,0,37.59,0,.64-.04,1.28-.06,1.92.02.48.05.95.05,1.43-.01,19.21-.02,38.42-.02,57.62,0,.64-.04,1.28-.05,1.92.02,2.31.07,4.63.07,6.94,0,3.28-.04,6.56-.06,9.83.01,1.13.01,2.25.02,3.38.01,6.47.03,12.94.03,19.42v67.38c0,.72,0,1.44-.02,2.16-.01.33-.18.6-.45.8h-8.15c-5.28,0-10.56-.01-15.83-.01-.16,0-.33,0-.49-.01-.31.01-.63.02-.95.03-.16-.01-.32-.01-.48-.01h-14.87c-.48,0-.96,0-1.45.01-.13-.19-.35-.37-.39-.57-.07-.47-.08-.95-.08-1.43v-35.45c0-.32.02-.64.03-.96,0-8.29-.03-16.58-.03-24.87-.01-12.04-.01-24.08-.01-36.13,0-.47.04-.95.06-1.43-.01-9.99-.02-19.98-.03-29.97,0-4.48,0-8.96,0-13.43,0-.88-.08-1.76-.12-2.63-.28-.01-.57-.02-.86-.03-4.16.01-8.32.01-12.48.01-.8,0-1.59,0-2.39-.01-2.88.01-5.76.01-8.64.01-3.36,0-6.71-.01-10.07-.01-1.44.01-2.88.01-4.32.01h-6.24c-1.11,0-2.22.03-3.33,0-1.22-.03-1.4-.21-1.47-1.35-.01-.32,0-.64,0-.95C0,56.68.01,49.45.02,42.22c-.01-1.03-.04-2.06,0-3.09.03-.92.26-1.13,1.09-1.22,3.14-.33,6.28-.66,9.45-.5,1.22-.4,2.47-.51,3.76-.48.95.03,1.9.05,2.82-.33.21-.09.46-.11.7-.11,1.43.01,2.85-.09,4.24-.46.45-.12.95-.03,1.43-.04.32-.01.64-.01.96-.02,1.39-.54,2.86-.74,4.32-.94,1.06-.52,2.23-.66,3.36-.97,3.5-1.29,6.9-2.81,10.07-4.8h.01c.19-.38.55-.49.93-.56.88-1.23,2.27-1.84,3.38-2.8l.48-.48c.78-1.14,1.79-2.08,2.84-2.96.36-1.14,1.23-1.92,1.96-2.8,1.61-3.21,3.34-6.36,4.35-9.85.26-.9.24-1.92.9-2.69.34-1.9.67-3.8,1.01-5.7.18-1.33.18-1.35,1.11-1.4.48-.03.96-.02,1.44-.02h29.67c2.87-.01,2.78-.12,2.78,2.71Z"/>
      <path class="cls-82" d="M26.3,46.51c-2.29,1.17-3.28,3.01-4.24,5.08-.2.43-.43.85-.81,1.16-.17.11-.36.16-.56.15-.02-.01-.04-.02-.06-.03-.02-.01-.04-.02-.05-.03-.18-.11-.35-.23-.57-.21-.13.12-.23.24-.31.39-.18.38-.36.74-.71.99-.7.39-1.46.69-2.25.77-3.02.32-4.38-.94-4.44-4.02-.02-1.03.11-2.08-.25-3.07-.22-.1-.43-.17-.64-.22-.17-.05-.33-.08-.49-.1-1.12-.14-2.17.24-2.92,1.07-1.25,1.36-2.25,1.18-3.45.16-1.32-1.12-2.04-.72-2.53.87-.56,1.84-.74,3.34.2,5.35,1,2.14,1.77,4.23,3.4,6.08,1.58,1.78.68,3.72-.82,5.32-1.11,0-2.22.03-3.33,0-1.22-.03-1.4-.21-1.47-1.35-.01-.32,0-.64,0-.95C0,56.68.01,49.45.02,42.22c.17-.18.56-.3.61-.19.7,1.95,3.01,1.79,4.22,3.21.45.53,2.24-.02,3.08-.77,1.53-1.38,3.06-2.85,2.26-5.29-.2-.61-.15-1.26.37-1.77,1.22-.4,2.47-.51,3.76-.48.95.03,1.9.05,2.82-.33.21-.09.46-.11.7-.11,1.43.01,2.85-.09,4.24-.46.45-.12.95-.03,1.43-.04.77,1.9,1.44,3.73,3.24,5.12,1.94,1.49,1.76,4.27-.45,5.4Z"/>
      <path class="cls-79" d="M93.06,142.76v67.38c0,.72,0,1.44-.02,2.16-.01.33-.18.6-.45.8-.56-.63-.7-1.41-.7-2.22-.04-5-.01-10-.12-14.99.03-.14.06-.27.08-.41.01-.11.02-.23.03-.34v-.1c.01-.11.01-.23.02-.34v-.13c-.08-3.13-.03-6.26-.03-9.39.01-.07.01-.13.01-.2v-.66c-.03-2.75-.05-5.5.03-8.25v-.21c-.01-.09-.01-.17-.02-.26-.05-.66-.01-1.31.01-1.96,0-.12.01-.23.01-.35v-.04c-.05-2.2-.03-4.41-.01-6.6,0-.04,0-.08.01-.12,0-.17.01-.33.02-.5.13-3.21.04-6.43.04-9.65.01-.69.07-1.68-.86-1.68-.98,0-.89,1.07-.8,1.68.38,2.75-.76,5.24-1.25,7.84-.19,1.01-.86,1.73-1.84,2-1,.28-1.35-.58-1.78-1.24-.22-.32-.24-.78-.7-.96-.34.49-.62,1.05-1.34,1.14-.57.08-.8.42-.58,1.02,1.22,3.33-.95,5.44-2.92,7.47-.75.77-1.48,1.25-1.36,2.47.09.96-.51,1.46-1.54,1.27-.11-.05-.21-.11-.29-.19-.02,0-.04-.03-.04-.05-.08-.06-.14-.13-.19-.21-.05-3.05.06-6.07,2.08-8.6,1.14-1.44.89-3.19,1.19-4.81.8-4.34,3.31-7.63,6.51-10.62-.7-.08-1,.33-1.4.53-.74.38-1.48,1.33-2.32.52-.71-.68.03-1.5.36-2.18.13-.26.26-.53.39-.79.09-.19.18-.37.28-.55,0-.01,0-.02.01-.03.63-1.25,1.34-2.45,2.43-3.4.61-.54.96-1.27,1.15-2.07.2-.86.37-1.86,1.6-1.63,1.25.22,2.27.81,2.35,2.29.05.84-.32,1.74.78,3.03.14-3.96.08-7.44.05-10.9-.01-.14-.01-.28-.01-.42v-.04c-.09-2.02.04-4.03-.04-6.05.02-.29.03-.57.04-.86.01-.2,0-.4,0-.59,0-.59-.02-1.17.01-1.75,0-.11,0-.22.01-.33,0-.27,0-.54.01-.81,0-.06,0-.12.01-.18,0-.18,0-.35.01-.53,0-.37.02-.74.03-1.1,0-.09,0-.17.01-.26,0-.06,0-.12.01-.18.02-.2.05-.41.09-.61.04-.14.09-.28.16-.4.02-.05.05-.1.08-.14,0-.03.03-.06.05-.09.05-.04.1-.08.15-.09.02-.02.03-.02.05-.02.13-.05.27-.03.42.06.01,6.47.03,12.94.03,19.42Z"/>
      <path class="cls-108" d="M86.72,50.41c-.71-.14-1.38-.26-2.07.02-.07.03-.14.07-.21.1-.1.05-.21.1-.31.15-1.83.91-3.54,1.97-5.91,1.59-.58-.09-1.13-.19-1.65-.33h-.01c-.56-.14-1.1-.33-1.61-.6-.16-.09-.32-.18-.48-.29-.12-.07-.23-.15-.34-.24-.42-.31-.74-.7-.96-1.16-.03-.04-.05-.09-.06-.13-.04-.07-.06-.13-.09-.2-.49-1.93-.68-3.85-.36-5.87.47-3.1-.35-4.07-3.07-5.7-2.41-1.44-4.98-2.41-7.59-3.31-.1-.09-.2-.18-.3-.26-.04-.04-.09-.08-.13-.12-.03-.02-.06-.04-.08-.07-.04-.03-.08-.06-.12-.09-2.46-1.98-5.56-3.17-7.24-6.08-.45-.78-1.43-.94-2.19-1.36-1.54-.88-2.64-2.02-2.08-4,.36-1.14,1.23-1.92,1.96-2.8,1.14.56,1.95,1.65,3.19,2.05.01.01.03.02.04.02.07.05.14.09.21.15.11.08.21.16.31.26.24.22.48.44.72.66.63.61,1.52,1.17,1.52,2.07.01,2.36,1.8,2.82,3.42,3.37,1.86.64,3.46,1.35,4.36,3.35.67,1.48,2.25,2.43,3.73,2.81,4.55,1.18,8.15,4.24,12.42,5.93,1.17.46,2.25,1.29,2.94,2.39.63.99,1.5,1.62,2.46,2.19.02.01.03.03.05.04.07.06.13.12.19.18.75.67,1.32,1.49,1.67,2.43.74,2-.28,3.24-2.33,2.85Z"/>
      <path class="cls-110" d="M31.58,64.84c-.53,1.09-2.82,1.14-3.24.05-.48-1.22-1.39-1.31-2.24-1.57-.06-.02-.13-.04-.19-.07-.1-.03-.2-.07-.29-.11-.52-1.12-.39-2.3-.37-3.46.01-.21.01-.41,0-.62.01-.06,0-.11,0-.17.03-1.5.34-3.08-2.12-2.95-1.05.06-1.04-1.17-1.26-1.99-.19.67-.24,1.4-1.1,1.73-.04-.04-.07-.09-.11-.13-.01-.01-.02-.03-.03-.04-.67-.86-.78-1.73-.05-2.67.02-.02.03-.04.05-.06,1-1.32,1.73-2.78,2.18-4.37.24-.81.55-1.38,1.58-1.42,1.53-.07,2.19-1.43,3.09-2.4.11-.12.04-.45-.01-.68-.08-.38-.23-.76-.32-1.14-.23-.89-.7-1.49-1.56-1.96-1.45-.79-2.27-2.73-2.16-4.59,0-.08.05-.15.08-.23.32-.01.64-.01.96-.02,2.5,2.24,3.39,5.76,6.18,7.79.31.23.51.66.51,1.05.01,4.14,2.09,7.78,2.78,11.76.56,3.22-1.1,5.68-2.36,8.27Z"/>
      <path class="cls-9" d="M25.91,57.35c.01.4,0,.79,0,1.19-.17.51-.39.89-.66,1.14-.57.57-1.38.64-2.46.42-.78-.16-2.22-.7-2.51,1.05-.08.51-.57,1.03-1.24.89-.54-.11-.66-.62-.75-1.11-.06-.27.07-.9-.24-.76-2.39,1.03-1.33-1.15-1.81-1.88-2.3,1.84-2.71,3.68-1.41,6.18.28.55.83,1.02.53,1.74-1.44.01-2.88.01-4.32.01-.37-.3-1.01-.41-1.14-.84-1.09-3.67-4.29-6.29-5-10.17-.33-1.8.05-3.19,1.87-3.87,1.84-.68,3.51-1.43,4.03-3.64.02-.11.07-.22.12-.33.26-.47.83-.83,1.56-.35.43.33.48.79.48,1.28,0,1.36-.02,2.71.01,4.06.03,1.1.17,1.25,1.21,1.36.64.06,1.28,0,1.83.43.11.09.38.21.41.18.73-.89,2.04-.23,2.78-1.07.3-.25.2-.7.47-.96.12-.06.22-.09.3-.09.32,0,.45.37.66.57v2.83s.02-.04.03-.06c.7-1.15.56-2.15,1.19-2.83.73.55.64,1.37.75,2.14.08.59.41.78,1.03.68q2.25-.36,2.28,1.81Z"/>
      <path class="cls-66" d="M92.58,200.94c.03,4.05.01,8.11.01,12.16h-8.15c-2.08-3.15-1.26-5.96.86-8.64.01-.02.02-.03.04-.05.02-.03.05-.06.07-.09,2.79-.49,2.93,2.13,4.22,3.67.16-.58-.15-.92-.31-1.28-.19-.44-.42-.86-.69-1.25-.57-.81-1.04-1.68-.84-2.67.3-1.55-.28-1.85-1.64-1.41-.37.12-.83.09-1.1-.26-.38-.49-.03-.91.25-1.27.63-.81,1.28-1.62,1.96-2.48-2.84-1.26-3.3,2.77-5.8,2.27.41.53.82.64,1.14.86.74.53,1.44,1.14,1.11,2.15-.33.98-1.22,1.27-2.14,1.12-2-.32-2.98.59-3.38,2.29-.02.09-.04.18-.06.28-.01.03-.01.06-.02.09-.55,1.14-1.65,1.64-2.65,2.25-.55.33-1.22.61-1.68-.07-.41-.62-.15-1.23.43-1.64,1.83-1.28,2.51-3.07,2.43-5.22v-.07c.02-.1.04-.19.06-.29.02-.05.03-.1.04-.15.02-.05.03-.1.05-.15,0-.02,0-.05.02-.07.77-1.74,2.33-2.65,3.82-3.63.13-.1.28-.19.42-.28.04-.03.08-.05.12-.08.09-.06.18-.11.27-.17.46-.3.97-.49,1.46-.73.18-.09.36-.19.53-.31.01,0,.01-.01.02-.01.43-.27.86-.54,1.32-.77.17-.09.35-.17.54-.24.13-.03.27-.07.4-.1,1-.25,2.01-.49,2.98-.52,1.07-.05,2.1.15,3.06.87.05.02.09.06.13.09.24.19.48.41.71.67-.11.38-.4.82-.3,1.12.47,1.32.28,2.67.29,4.01Z"/>
      <path class="cls-58" d="M54.39,55.23c-.14,2.67.06,5.28-1.39,7.86-1,1.78-.47,4.23-.81,6.36-.05.12-.08.26-.12.4-.1.5-.12,1.1-.24,1.58-.14.55-.41.96-1.1.9-1.28-.11-.33-1.87-.57-2.87-.24-1.06.35-2.21-.36-3.22-.28-.01-.57-.02-.86-.03-.19-1.04.51-1.99.32-3.05-.21-1.18-.6-2.21-1.91-2.45-1.32-.23-1.54.79-1.84,1.74-.25.75-.54,1.61-1.61,1.39-.93-.2-1.22-.97-1.28-1.81-.09-1.3-.54-2.49-.98-3.69-.33-.88-.51-1.62-1.75-1.42-1.07.17-1.45-.57-1.57-1.47-.01-.06-.01-.12-.02-.18v-.11c0-.43.06-.85.23-1.25.08-.09.15-.18.22-.27.09-.11.17-.23.25-.34.88-1.25,1.3-2.63,1.01-4.23,0-.09,0-.17.02-.26,0-.11.02-.21.06-.31.01-.04.02-.07.03-.11.12-.2.27-.38.46-.53.03-.02.06-.04.09-.05.03-.02.06-.04.1-.06.15-.07.31-.12.48-.14.62-.05,1.11.16,1.5.55.04.04.08.08.12.13.07.08.14.17.21.26.54.64.31,1.95,1.86,1.68,1.06-.19,1.06.94,1.27,1.68.6,2.18.61,2.18,2.6.98.41-.25.81-.52,1.26-.7,2.61-1.05,4.46.27,4.32,3.04Z"/>
      <path class="cls-67" d="M64.67,209.01c.09.27.09.64.5.69,2.41.28,1.97,1.84,1.52,3.4h-6.72c-1.14-1.49-2.04-2.9.17-4.34.87-.57.52-1.6.1-2.39-.82-1.52-.94-2.95.05-4.48.6-.93.74-2-.43-2.69-1.27-.76-1.47-1.79-.89-3.05.48-1.04.13-2.01-.22-2.99-.02-.13-.02-.27.01-.4,0-.07.01-.14.03-.21,0-.02,0-.03,0-.05.25-.31.4-.67.56-1.04.19-.49.37-.98.76-1.33.04-.06.09-.1.14-.14.09-.03.18-.06.27-.1.01,0,.03,0,.04,0,.04,0,.08,0,.12.02.1.01.19.05.27.1t.02,0s.1.07.15.12c.39.71.71.41.95-.1.51-1.07,1.05-2.14,1.33-3.31.03-.11.05-.22.07-.33,0-.05.02-.1.03-.15.06-.41.19-.81.42-1.15,0-.01.01-.01.01-.02.12-.16.26-.29.44-.35.09-.04.2-.06.32-.06.03.04.06.06.09.09,0,0,.02,0,.02,0,.27.18.61.02.92.01h0c.17,0,.33.05.46.22,2.01,1.8,2.63,3.67,1.41,6.4-.79,1.78-.58,4.02-.75,6.06v.03h0c-.04.37-.07.72-.12,1.07-.1.8-.25,1.6-.53,2.37-.07.19-.14.38-.2.58-.07.21-.15.41-.24.61-.13.27-.28.52-.51.72-2.15,1.9-1.27,4.04-.59,6.18Z"/>
      <path class="cls-111" d="M69.75,103.68c-.43.97-1.26,1.4-2.27,1.51-.95.11-1.9.11-2.84-.11-.29-.08-.55-.18-.79-.34-.11-.06-.21-.13-.31-.23-.06-.04-.11-.09-.16-.14.03-.07.07-.15.09-.22.04-.1.08-.19.12-.28.81-2.24-.15-3.79-2.32-4.85-.02-.01-.03-.02-.05-.04-.11-.07-.22-.14-.33-.21t-.02-.02s-.11-.07-.16-.1c-.24-.12-.54-.16-.84-.2-.6-.07-1.2-.13-1.42-.76-.03-.06-.05-.13-.05-.2-.04-.12-.05-.26-.05-.42.36-.87,1.05-1.1,1.92-.99-3.19-.58-7.24-4.4-7.51-7.75-.33-3.95-1.42-7.74-1.72-11.3.04,6.08-.02,12.48.02,18.91v.43c0,.31.01.62.01.93.09,3.97.04,7.94.04,11.92,0,.94.05,1.91-.41,2.8-.09.16-.2.26-.32.3h-.01c-.12.03-.26.02-.42-.05-.01-9.99-.02-19.98-.03-29.97,0-4.48,0-8.96,0-13.43,0-.88-.08-1.76-.12-2.63.61.32.57.9.58,1.46.02,1.35.03,2.71.06,4.07,0,.21.13.31.31.25.14-.05.31-.13.37-.24.11-.21.17-.45.2-.68.04-.48.01-.96.09-1.43.04-.21.27-.38.41-.57.08.25.16.5.25.75.19.5.39,1,.58,1.5h0c.1.25.2.49.29.73.62,1.61,1.15,3.24,1.03,5.11-.13,2.09.39,4.26.76,6.33.4,2.3,1.33,4.65,3.98,5.57.52.18.99.58,1.3,1.04,1.3,1.95,2.92,3.49,5.08,4.39.1.05.21.1.33.13.08.04.16.07.24.1.96.9,1.64,1.95,1.66,3.32.02,1.36.59,2.45,1.59,3.34.67.6,1.27,1.26.84,2.27Z"/>
      <path class="cls-92" d="M85.09,205.98c-.91.45-1.83,3.45-1.3,4.18.7.94.63,1.92.65,2.94-5.28,0-10.56-.01-15.83-.01-.16-.18-.23-.4-.22-.64.03-.21.08-.42.12-.62.05-.21.11-.41.17-.61.39-1.23,1.06-2.3,2.05-3.3,1.42-1.43,2.31-3.33,3.77-4.75.09-.09.18-.17.27-.25.16-.15.34-.29.52-.43.46-.39.74-1.17,1.41-1.1.16.01.33.07.54.19-.05.39-.3.95-.13,1.14.66.72.44,1.23-.15,1.81-.27.27-.53.62-.62.98-.27,1.04-.91,1.63-1.91,1.91-.14.04-.32.16-.36.27-.06.21-.08.47-.01.67.08.28.38.31.59.19.55-.31,1.09-.64,1.6-1,.51-.37.98-.78,1.47-1.17.15-.12.31-.22.47-.32,1.6-1.03,3.51-1.32,5.22-2.07.63-.27,1.38-.14,1.93.42.02.01.04.03.06.05.23.57.64,1.05-.31,1.52Z"/>
      <path class="cls-34" d="M61.16,206.85c.29.61.3,1.22.04,1.84-.27.65-.71.96-1.41,1.11-.68.15-.73.37-.44,1.04.31.73.73,1.42.62,2.26h-8.15c-1.46-1.91-1.32-4.16.35-5.41,3.63-2.71,3.17-6.65,3.84-10.3.37-1.95.65-3.97,2.78-4.84.07-.03.14-.06.22-.09.04.16.03.35.12.46,1.04,1.24,1.17,2.47.22,3.87-.58.83-.26,1.45.69,1.84.07.03.16.03.23.05,1.11.42,1.09.42,1.14,1.46.05.99-.08,1.87-.88,2.59-.67.61-.68,1.4-.31,2.19.3.65.62,1.29.94,1.93Z"/>
      <path class="cls-57" d="M63.28,186.47v.02c.01.1.01.2,0,.29-.01.48-.16.92-.45,1.32-.17.22-.35.43-.55.63-.18.17-.37.35-.55.52-.05.06-.11.11-.17.16h0s-.1.07-.15.11c-.08.05-.17.1-.26.13h0c-.15.09-.31.16-.46.25-.09.04-.17.1-.24.16-1.14.4-.33,1.97-1.44,2.4-.09.1-.18.2-.25.3-.54.62-.99,1.29-1.39,2.02-.5.92-.87,1.87-.76,2.95.12,1.13-.11,2.22-.51,3.27-.28.75-.57,1.47-.12,2.29.12.23.12.7-.03.9-.69.92-.85,2.2-2.17,2.69-1.41.52-1.76,1.97-2.3,3.19-.12.26-.08.66.04.92.3.69.3,1.4.3,2.11-.48,0-.96,0-1.45.01-.5-3.11-.09-6.23-.23-9.34.09-.21.17-.42.25-.64.02-.03.03-.07.04-.11.02-.03.03-.06.03-.09.21-.5.39-1.02.58-1.53h0c1.61-4.5,2.95-9.13,6.33-12.95-.85-.02-1.42.72-2.12.31-.05-.04-.09-.09-.12-.14-.01-.02-.02-.04-.03-.06-.04-.06-.06-.12-.08-.19v-.07s-.01-.1-.01-.16c1.16-1.82,2.9-3.1,4.47-4.5,1.63-1.46,2.25-1.21,3.02.86.25.66.72,1.24.78,1.97Z"/>
      <path class="cls-35" d="M35.49,63.57c-.04,1.04-.57,1.96-1.42,2.64-2.88.01-5.76.01-8.64.01-.73-1.11-.78-2.11.48-2.88.07,0,.13-.01.19-.02.55-.11.74-.52.81-1.09.03-.19.21-.44.38-.51.27-.13.41.14.5.36.12.3.19.61.33.9.28.57-.04,1.46.56,1.75.65.31,1.48.27,2.18.37.71-1.27,1.34-2.44,1.59-3.78.07-.38.19-.84.45-1.09.9-.85.79-1.87.52-2.87-.17-.62-.33-1.23-.32-1.87.02-.58-.14-1.09-.49-1.56-.19-.25-.41-.58-.39-.85.15-1.42-.45-2.59-1.11-3.76-.54-.95-.45-2.01-.39-3.04.08-1.28-.2-2.23-1.43-2.97-1.15-.69-2.07-1.77-2.39-3.17-.21-.94-.94-1.46-1.55-2.06-.61-.6-.97-1.25-.88-2.11,1.39-.54,2.86-.74,4.32-.94,1.2,3.96,4.03,7.32,4.28,11.61.05.94.03.85.8.4.27-.16.55-.14.81-.01.12.06.23.14.34.24.2.2.37.45.48.74,1.5,5.19.18,10.38-.01,15.56Z"/>
      <path class="cls-47" d="M12.48,47.02c-.47.03-.83.18-1.07.45-.19.21-.31.49-.34.87-.04.39-.01.8-.07,1.19-.03.22-.14.56-.29.61-1.21.41-2.09,1.41-3.39,1.7-1.86.41-2.36,1.33-1.88,3.11.27.99.73,1.93.86,2.97.1.77.74,1.21,1.26,1.68.9.83,1.54,1.73,1.74,3.01.2,1.33.88,2.54,1.74,3.61h-6.24c-.07-.77.2-1.38.69-1.97.57-.67.54-1.4.14-2.21-.39-.78-.77-1.43-1.51-2.02-1.12-.89-2.17-1.99-1.9-3.77.12-.72-.19-1.58-.92-2.09-1.14-.82-1.08-2.01-.52-2.99.43-.73.69-1.39.68-2.2-.01-.7.38-1.2.91-1.6.65-.48,1.36-.5,1.89.17.63.79,1.5,1.12,2.19,1.63.2-.09.31-.1.34-.15.67-1.38,1.55-2.37,3.3-2.03.59.12,1.01-.4,1.5-.65.67-.33.8.18.89.68Z"/>
      <path class="cls-99" d="M65.39,14.63c-.01.31-.03.61-.07.89-.02.17-.04.34-.08.5-.48,2.67-2.17,3.72-5.38,3.41-2.38-.22-3.63.43-4.6,2.45-.03.06-.06.12-.09.18-1.68-.01-2.7-.95-3.35-2.4,1.61-3.21,3.34-6.36,4.35-9.85.26-.9.24-1.92.9-2.69.98,2.27,3.19,2.79,5.19,3.36,2.24.63,3.12,1.98,3.13,4.15Z"/>
      <path class="cls-63" d="M49.8,65.11c-.06.4-.56.74-.86,1.1-4.16.01-8.32.01-12.48.01-.58-.67-.54-1.45-.37-2.23.58-2.68,1.11-5.37,1.44-8.1.11-.2.23-.37.37-.5.06-.06.12-.11.19-.15.07-.03.14-.06.21-.08.16-.04.35-.04.56.02.02.24-.02.49.05.71.19.6.58.81,1.06.59.29-.13.53-.37.81-.51.7-.34,1.41.04,1.26.77-.14.69-.08,1.17.29,1.77.58.95.91,2.03.86,3.19-.02.39,0,.81.15,1.16.11.25.43.45.71.57.37.15.54-.16.72-.44.42-.65.29-1.39.37-2.09.06-.56.37-.86.93-.89.31-.02.64-.04.95-.02.55.02,1.21-.19,1.6.27.49.6,1.03,1.28,1.19,2,.2.91.12,1.92-.01,2.85Z"/>
      <path class="cls-38" d="M25.91,58.54v4.8c-.59.89-.47,1.89-.48,2.88-3.36,0-6.71-.01-10.07-.01-.92-.99-1.48-2.22-2.11-3.4-.44-.8-.4-1.22.3-1.87.51-.47.83-.93.87-1.62.05-.77.66-1.25,1.07-1.82.32-.44.84-.46,1.3-.25.43.18.48.6.34,1.01-.19.6-.52,1.18-.14,1.83.81-.03.74-.97,1.31-1.25.13-.06.3-.09.44-.07.27.05.41.26.36.52-.07.39-.22.76-.3,1.14-.14.7.05,1.24.38,1.2.55-.08.43-.59.64-.89.46-.65.84-1.33.94-2.15.01-.09.23-.22.36-.22.12,0,.25.13.35.23.06.04.05.15.08.22.13.34,0,.89.56.89.37,0,.38-.43.54-.68.21-.32.5-.37.75-.03.13.18.16.45.3.63.31.38.73.38,1.04.06.19-.19.34-.42.51-.63.18-.22.38-.41.66-.52Z"/>
      <path class="cls-44" d="M70.43,9.41c-.48,1.49-1.66,2.52-2.47,3.79-.21.34-.26.76-.37,1.14-.09.23-.15.47-.2.71-.03.13-.05.27-.08.41-.08.44-.18.87-.45,1.25-.06.02-.12.03-.17.04-.01,0-.03,0-.04,0-.86.2-1.19-.21-1.41-.74-.16-.38-.26-.83-.47-1.16.03-.79-.1-1.54-.37-2.31-.25-.7-.58-1.07-1.33-1.05-.48,0-.94-.09-1.32-.41-.69-.58-1.57-.71-2.39-.97-1.76-.56-2.1-.98-2.29-3,.34-1.9.67-3.8,1.01-5.7.24-1.06.96-1.24,1.94-1.21,1.89.06,3.79.02,5.68.01.25.03.51.09.62.28.02.03.03.06.03.1.02.04.02.08.02.13,0,2.08-1.94,4.34-3.98,4.62-1.2.16-2.46.17-2.93,1.6-.17.52.1.95.55,1.21,1.24.71,2.62,1.21,3.8.18,1.3-1.12,2.79-1.35,4.35-1.66.86-.17,1.55-.28,2.15.46.59.73.37,1.49.12,2.27Z"/>
      <path class="cls-55" d="M9.98,43.23c-.71.65-1.3,1.36-1.87,2.12-.24.32-.68.75-.97.54-1.02-.72-1.51-.31-1.93.65-.1.24-.45.18-.57-.04-.19-.34-.28-.73-.43-1.09-.31-.76-.34-.79-1.5-.51-.35.09-.62.01-.88-.19-.53-.41-.86-.92-.88-1.61-.02-.59-.4-.82-.93-.88-.01-1.03-.04-2.06,0-3.09.03-.92.26-1.13,1.09-1.22,3.14-.33,6.28-.66,9.45-.5,0,.72.04,1.41.29,2.11.52,1.4.19,2.72-.87,3.71Z"/>
      <path class="cls-70" d="M93.07,43.65c-.01,19.21-.02,38.42-.02,57.62,0,.64-.04,1.28-.05,1.92h-.07c-.12,0-.23-.03-.33-.08-.08-.04-.15-.1-.22-.17-.82-2.31-.19-4.72-.43-7.07-.07-.69.62-1.99-.94-1.86-.95.08-2.18.03-2,1.68.12,1.05-.38,1.96-1.12,2.71-.01.01-.03.03-.04.04h-.01c-2.41-1.81-2.74-4.77-.69-6.76,1.49-1.44,1.35-3.31,1.47-5.09.06-.88-.86-1-1.45-1.37-1.75-1.11-3.9-1.73-4.86-3.85.08-.06.15-.12.23-.17.02,0,.04-.03.07-.04.5-.3.97-.32,1.42-.2.57.15,1.11.53,1.64.84,1.48.87,2.95,1.75,4.51,2.44.23.11.46.21.7.3.11.04.22.08.31.11.3.08.53.04.65-.29.03-.07.05-.14.06-.23.06-1.04,0-2.06,0-3.09,0-.05.01-.1.01-.15v-.18c-.1-4.04-.1-8.08-.02-12.11v-.13c-.01-.27-.01-.54-.01-.81-.07-4.67-.08-9.35,0-14.02.01-.29.01-.58.02-.87v-.19c-.05-2.54-.02-5.08.01-7.62,0-.26.02-.52.04-.78v-.04c.01-.08.01-.15.02-.22.01-.11.02-.21.03-.31.01-.13.03-.26.06-.39.01-.05.02-.11.03-.16.04-.14.09-.27.15-.4.03-.06.07-.13.11-.19.01-.02.02-.04.03-.06.08-.08.16-.13.24-.17.03-.01.07-.02.1-.03h.01c.1.01.2.01.29.01.02.48.05.95.05,1.43Z"/>
      <path class="cls-52" d="M64.23,37.36s-.02.03-.02.05c-.02.04-.04.09-.07.14-1.69.45-3.12-.46-4.65-.83h0c-.12-.03-.24-.06-.36-.08-.08-.02-.16-.03-.25-.04-2.48-.47-4.61-2.14-7.25-2.09-.31,0-.71-.13-.85-.39-1.12-2.18-3.47-1.47-5.19-2.21-1.49-.64-1.22,1.03-1.78,1.63-.05.02-.1.04-.15.05h-.02c-.64.21-.83-.37-.86-.81-.08-.99-.86-1.15-1.5-1.49-.01-.03-.02-.07-.03-.1h0c-.25-.91.79-1.23.97-1.93h.01c.25-.27.73-.19.93-.56.88-1.23,2.27-1.84,3.38-2.8,3.83,1.96,7.14,4.92,11.36,6.15,1.31.38,2.11,1.63,3.47,1.85.02.01.03.01.05.01.02.03.04.06.07.08.01.03.02.05.05.07.02.04.06.09.1.13h.01c.44.57.99,1.06,1.57,1.53.5.42,1.31.76,1.01,1.64Z"/>
      <path class="cls-23" d="M53.19,136.39c-1.79-.3-2.11.6-2.14,1.97-.06,2.03,0,4.07,0,6.1v.11c0,.11.02.22,0,.33.02.41,0,.82,0,1.23,0,.14,0,.29.01.43,0,.14.01.27.02.41v5.83c-.01.41-.04.83-.02,1.24-.01.83-.01,1.66,0,2.49-.01.43.03.86.04,1.29.02,4.48.02,8.96.01,13.43-.01,1.03.08,2.09-.42,3.06-.08.14-.19.24-.32.3-.11.06-.23.09-.37.09h-.07c0-8.29-.03-16.58-.03-24.87-.01-12.04-.01-24.08-.01-36.13,0-.47.04-.95.06-1.43.14.02.28.04.42.04h0s.01.01.01.01c.17.14.29.31.37.52.04.13.08.26.09.4v.02c.02.08.03.15.04.23.01.07.02.14.02.21.02.13.03.26.03.39.01.03.01.06.01.09.02.18.02.35.03.52,0,.05.01.09,0,.13.01.09.01.18.01.26,0,.05,0,.09,0,.14.03,1.11.04,2.21.05,3.31-.04.35-.05.7-.03,1.05.01.37.04.75.09,1.12.17,1.49.51,2.97.23,4.48-.05.31.07.66.29.89,2.17,2.27,1.69,5.58,3.19,8.15.76,1.31-.09,2.42-1.62,2.16Z"/>
      <path class="cls-83" d="M38.09,55.24c-.04.15-.1.29-.19.42.3,2.99-.62,5.82-1.23,8.68-.14.63-.19,1.25-.21,1.88-.8,0-1.59,0-2.39-.01.07-.3.1-.62.22-.91.6-1.41.8-2.87.75-4.39-.05-1.5.12-2.97.34-4.47.29-2,.41-4.1-.15-6.11-.26-.95-.16-1.89-.21-2.83-.12-.16-.24-.31-.34-.47-1.87-2.65-2.13-5.57-1.17-8.69h.07c.65.02.88.36,1.02.78.06.22.11.45.17.68h0s.01.03.01.04c.04.13.09.25.15.36.19,1.15.64,2.22,1.01,3.31.17.49.32.98.43,1.49.05.19.09.37.13.56h0c.08.37.16.73.28,1.08.05.13.1.26.16.39.51,1.11.62,2.33.93,3.49.29,1.47.13,2.96.24,4.44,0,.1,0,.19-.02.28Z"/>
      <path class="cls-71" d="M61.89,34.06c-.06.06-.13.11-.19.12-.02.01-.03.01-.05.01h-.01c-.08,0-.15-.05-.23-.13-.48-.01-.96.01-1.43-.03-.23-.02-.6-.1-.64-.24-.42-1.36-1.55-1.14-2.56-1.22-.15-.01-.35-.04-.45-.13-1.13-1.14-2.97-1.13-3.99-2.43-.53-.68-1.52-.57-2.03-1.17-.54-.65-1-1.13-1.98-.85-.54.16-.96-.48-1.41-.78-.46-.3-.35-.84-.38-1.31l.48-.48c.78-1.14,1.79-2.08,2.84-2.96.05.74.46,1.34.75,1.99.34.77.79,1.32,1.68,1.54.68.16,1.3.58,1.94.89.45.22.86.55.87,1.06.04,1.17.94,1.58,1.73,2.09.39.25.96.29,1.27.6,1.2,1.21,2.85,1.94,3.79,3.43Z"/>
      <path class="cls-13" d="M35.02,47.27v.23c-.23-.03-.47-.04-.7-.1-.36-.1-.61-.05-.7.35-.07.31-.1.63-.21.92-.08.22-.26.43-.54.31-.11-.04-.23-.24-.21-.35.2-1.46-.39-2.81-.58-4.22-.14-1-.65-1.95-.89-2.94-.18-.74-1.28-.76-1.2-1.65.09-.95-1.42-1.23-1-2.24.38-.93-.41-1.68-.2-2.55,1.06-.52,2.23-.66,3.36-.97.35,1.47,1.29,2.74,1.43,4.28.01.01.01.03.01.04-.07.46-.12.93-.21,1.38-.06.31-.18.63.09.88.76.69.74,1.54.4,2.37-.4.94-.18,1.75.48,2.35.62.57.67,1.22.67,1.91Z"/>
      <path class="cls-81" d="M93.08,2.71c-.01,12.53,0,25.06,0,37.59,0,.64-.04,1.28-.06,1.92-.09,0-.19,0-.29-.01h-.11l-.05-.05c-.08-.07-.16-.15-.23-.22-.04-.07-.08-.15-.11-.22-.02-.02-.02-.03-.02-.05-.07-.15-.12-.3-.15-.46-.15-1.26-.09-2.54-.13-3.81v-.14c0-.16-.02-.31-.02-.46-.01-.17-.01-.35,0-.52v-.33c0-.13,0-.24-.01-.37-.08-6.01-.11-12.02.01-18.03v-.09c-.01-.13-.01-.26-.01-.39-.02-.42-.03-.83-.01-1.25,0-.16.01-.32.02-.48v-.02c-.04-1.83-.03-3.66.01-5.49v-.12s0-.08-.01-.12c0-.05,0-.11-.01-.17-.01-.18-.02-.37-.04-.56,0-1.66-.06-3.34.02-5,.1-1.92-.65-2.73-2.62-2.69-3.51.06-7.03.07-10.55-.01h-.17c-3.22.12-6.44.05-9.66.04-.89,0-1.79-.02-2.53-.6-.05-.03-.09-.06-.13-.1-2.05-.01-4.09.02-6.13-.05-.9-.03-1.47.37-2.01.97.18-1.33.18-1.35,1.11-1.4.48-.03.96-.02,1.44-.02h29.67c2.87-.01,2.78-.12,2.78,2.71Z"/>
      <path class="cls-2" d="M68.68,211.22c0,.46-.03.93-.07,1.4v.47c-.16,0-.33,0-.49-.01-.32-.38-.64-.26-.95.03-.16-.01-.32-.01-.48-.01.13-.91-.47-1.67-.51-2.54,0-.25-.1-.49-.36-.55-.44-.11-.48.27-.6.55-.09.23-.24.46-.5.4-.27-.05-.22-.35-.27-.57-.25-.97-.54-1.93-.82-2.9-.09-.3-.19-.6-.27-.9-.38-1.42-.21-2.74,1.06-3.58.77-.49.62-1.45,1.31-1.91.1.13.19.26.28.4.09.12.17.24.25.36.05.06.09.13.13.2,1.78,2.8,2.37,5.89,2.29,9.16Z"/>
      <path class="cls-24" d="M41.26,31.18h-.01c-1.89,2.53-4.13,4.8-5.8,7.49-.24.38-.47.77-.67,1.17t-.01.02c-.08.15-.16.29-.23.44-.34-.23-.47-.56-.47-.96-.01-.4-.14-.73-.48-.96-.01-.01-.02-.03-.03-.04-.83-1-1.58-2.03-1.63-3.39,0-.29.14-.59.22-.89,3.5-1.29,6.9-2.81,10.07-4.8.19.9-.46,1.37-.96,1.92Z"/>
      <path class="cls-112" d="M51.09,200.31c-.01.36-.01.73-.05,1.08h0c-.06.55-.2,1.07-.58,1.54-.01.03-.04.07-.07.1v.1c-.01,3.33-.01,6.65-.02,9.98-.13-.19-.35-.37-.39-.57-.07-.47-.08-.95-.08-1.43v-35.45c0-.32.02-.64.03-.96h.44l.02.02c.09.09.19.2.28.29.62,1.46.35,2.99.39,4.49-.01.07,0,.13,0,.2s.01.14.01.21c.07,1.67.03,3.33.01,5-.02.69-.02,1.37-.02,2.06,0,.27,0,.55.01.82v.25s.01.07,0,.1c.04.52.01,1.05,0,1.57,0,.17,0,.33.01.5,0,.17.01.35.03.52.02,3.2.05,6.39-.02,9.58Z"/>
      <path class="cls-75" d="M93.07,110.13c0,3.28-.04,6.56-.06,9.83-.15.09-.29.11-.41.06-.01-.01-.02-.01-.03-.01-.07-.04-.14-.1-.21-.19-.15-.28-.24-.56-.3-.85-.09-.47-.08-.95-.08-1.43,0-.26,0-.51-.02-.76-.01-.19-.01-.38-.01-.57v-.34c0-.49-.02-.97-.03-1.46-.03-.86-.01-1.72,0-2.58,0-.38,0-.76,0-1.14,0-.13,0-.26,0-.39.09-1.44-.07-2.9-.01-4.34,0-.24.02-.47.04-.7.01-.08.01-.16.02-.24.02-.12.03-.24.05-.35.03-.18.06-.35.1-.52.05-.22.1-.44.17-.66.07-.08.15-.15.23-.23.02-.03.05-.06.08-.09.11.01.21.01.33.02h.07c.02,2.31.07,4.63.07,6.94Z"/>
      <path class="cls-37" d="M93.03,123.34h-.42s-.04-.03-.05-.04c-.39-.33-.47-.79-.52-1.27-.01-.14-.02-.27-.02-.41,0-.16.01-.31.04-.47,0-.06.01-.12.03-.18.01-.11.03-.21.06-.32.01-.03.01-.05.02-.08.09-.23.22-.41.4-.56.01,0,.02-.02.03-.03.14,0,.28-.01.41-.02.01,1.13.01,2.25.02,3.38Z"/>
      <path class="cls-67" d="M68.12,213.08c-.31.01-.63.02-.95.03.07-.13.11-.29.21-.39.44-.44.51-.4.74.36Z"/>
      <path class="cls-24" d="M43.16,28.7c-.15.45-.52.55-.93.56.19-.38.55-.49.93-.56Z"/>
      <path class="cls-52" d="M47.02,25.43c-.16.16-.32.32-.48.48l.48-.48Z"/>
      <path class="cls-110" d="M20.64,52.78l-.96-.48c.04-.3.07-.69.39-.73.5-.06.53.39.56.76,0,.15,0,.3.01.45Z"/>
      <path class="cls-110" d="M19.68,52.3c0,.4-.09.75-.48.96,0-.4.09-.75.48-.96Z"/>
      <path class="cls-61" d="M92.58,131.01c0,2.24,0,4.48,0,6.71-1.69-.1-2.67.61-3.43,2.22-.82,1.73-2.7,2.76-3.47,4.67-.67,1.68-1.64,3.23-1.99,5.05-.13.65-.05,1.74-1.32,1.51-.56-.66-.71-1.48-.94-2.28-.05-.69-.44-1.21-.97-1.58-2.1-1.45-1.8-3.98-2.72-5.95-.25-.53.09-1.04.6-1.09,1.77-.18,2.23-1.52,2.81-2.86,1.7-3.98,1.81-4.01,6.06-3.38,1.09.16,2.2.29,3.37-.91-2.54-.77-4.94-.58-7.23-.99-.85-.15-1.68-.11-2.45-.74-1.44-1.17-2.88-1.09-3.44.57-1.19,3.51-4.39,5.3-6.31,8.16-1.41,2.1-2.59,4.12-2.45,6.8.08,1.54.48,3.42-1.52,4.34-.48-.4-.61-.98-.49-1.52.37-1.69-.06-3.02-1.22-4.36-1.01-1.16-1.32-2.57.63-3.43.61-.27.57-.37.03-1.63-.93-2.2-.7-2.57,1.7-2.72,3.5-.22,3.52-.24,3.7-3.72q.09-1.76,2.33-2.54c-2.07-2.53-1.44-5.04-.32-7.34-1.47,1.19-3.41.58-5.34.11-.51-.8-1.16-1.11-2.54-1.35-1.03-.18-1.43-.76-.71-1.65.7-.87,1.59-1.54,2.77-1.69.6-.06,1.19-.02,1.77.15,3.72,1.47,7.62,1.72,11.55,1.68.17.17.27.37.31.6-.28,1.67-2.3,1.53-2.97,2.85-.27.54-1.05.93-.8,1.6.32.86,1.1.27,1.66.26,3.2-.09,6.4-.79,9.59.12,1.56,1.16,3,2.43,3.76,4.3Z"/>
      <path class="cls-113" d="M92.59,123.81c0,.33,0,.65,0,.98-1.94.35-2.59-1.45-3.82-2.29-.02-.33.05-.76-.54-.48-1.26-.51-2.67-.83-3.08-2.42-.49-1.18-1.48-2.05-2-3.23-.46-1.05-1.51-1-2.45-1.15-1.26-.2-2.03-.83-1.83-2.26.46-3.4.35-3.53-3.07-3.91-.48-.05-.95-.1-1.35-.4-.12-.13-.22-.36-.13-.41,2.3-1.26,1.72-3.88,3.09-5.78-1.15-.16-1.75.34-2.13.84-1.22,1.59-2.51.45-3.49-.04-1.2-.6-.28-1.66.16-2.43.74-1.28-.45-2.59.18-3.93.25-.53-.64-.44-1.07-.46-1.62-.08-2.73-.38-2.98-2.5-.24-2.06-2.13-3.22-3.96-4.05-1.17-.53-2.27-1.13-3.17-2.07-.31-.26-.61-.56-1.01-.62-3.84-.58-4.67-3.47-5.27-6.67-.54-2.85.01-5.94-1.79-8.54-.27-.38-.28-.95-.15-1.41.93-3.23.11-6.64,1.26-9.93.62-1.79.61-3.84,1.59-5.63.53-.97.07-1.97-.33-2.98-.98-2.47-.49-4.86.79-7.11.4-.69.93-1.31,1.84-1.39,1.28,1.1.28,2.8,1.08,4.03.5,1.77.18,3.65.79,5.43.32.93-.37,1.65-1.01,2.29-.85.85-1.59,1.77-2.06,2.91-.63,1.53-.84,2.77.83,3.94,1.61,1.13,1.41,2.88.71,4.55-2.25,1.52-2.68,2.95-1.62,5.43.25.59.57,1.17.64,1.8.57,5.09,4.28,7.67,8.11,10.12.84.54,1.46,1.22,2.07,1.96.98,1.19,1.9,2.4,3.78,1.83,1.01-.3,1.19.53,1.31,1.26.14.86,0,1.85.69,2.49,2.19,2,2.22,4.45,1.49,7.31,1.38.02,2.79-.3,3.79.82.92,1.03.87,2.37,1.2,3.59.31,1.14.37,2.5,2.15,2.15.33.18.47.46.49.82-.03.44-.21.84-.42,1.22-.43.6-.61,1.25-.33,1.97.19,1.34.62,2.48,2.11,2.87.78.2,1.28.78,1.26,1.57-.06,2.7,1.93,4.06,3.63,5.56,1.51,1.32,2.95,2.68,4.02,4.39Z"/>
      <path class="cls-37" d="M82.53,151.19c.7-.93.73-2.06.94-3.13.09-.47.16-.91.42-1.35,1-1.72,1.98-3.45,2.9-5.21.25-.49.42-.79,1.03-.7.6.09.94-.37.89-.86-.1-1.14.57-1.71,1.36-2.31.91-.69,1.71-.65,2.53.09,0,3.19,0,6.39,0,9.58,0,.48,0,.96-.02,1.44-.01.32-.06.66-.44.76-.34.09-.59-.14-.83-.35-.85-.72-1.29-1.5-.92-2.72.49-1.63.36-1.74-1.27-2.5-.89-.42-1.31-.27-1.27.6.05,1.24-.36,2.21-1.34,2.89-1.58,1.11-2.03,2.94-2.99,4.45-.25.4-.46.83-.69,1.25-.12.22-.19.46,0,.64.19.18.43.15.64,0,.83-.61,1.65-1.25,2.49-1.84.43-.3.89-.27,1.33.06.42.31.48.97.06,1.22-.47.28-1.21.35-1.44.75-.86,1.46-2.42,2.33-3.13,3.9-.23.5-.44,1.05-.95,1.35-.69.39-.81.92-.52,1.62.13.32.03.6-.16.88-.83,1.23-1.07,2.63-1.01,4.07.04,1-.1,2.02-.82,2.67-1.22,1.09-1.64,2.46-1.87,3.97-.23,1.57-.46,3.13-.68,4.7.24-.01.48,0,.71-.05.45-.09.71-.37.63-.84-.07-.39-.24-.76-.33-1.14-.09-.39-.06-.8.16-1.15.25-.41.63-.37,1.04-.32.57.07.95-.29,1.05-.78.16-.78.59-1.26,1.27-1.62.61-.32.96-.95,1.03-1.55.17-1.44.78-3.02-.78-4.17-.22-.16,0-.66.31-.71.7-.1,1.41-.17,2.13-.26-.11-.14-.19-.26-.29-.37-.15-.16-.41-.3-.45-.48-.05-.26.23-.4.47-.43,1.36-.15,1.64.02,2.18,1.25.16.36.3.74.51,1.08.18.29.48.44.81.23.55-.34.99-.8,1.34-1.34.18-.29.24-.69.02-.9-.71-.68-.63-1.14.19-1.65.83-.52,1.08-1.38.94-2.3-.23-1.43.01-2.85.01-4.27,0-.49.07-.94.36-1.36.34-.49.67-.53,1.25-.07.18.14.37.38.57.4.68.06.7.48.7,1-.01,3.59-.01,7.18-.01,10.77-1.35.95-2.87,1.67-3.17,3.64-.17,1.1-1.37,1.28-2.34,1.24-3.79-.15-5.86,2.01-7.18,5.23-.06.15-.12.29-.18.44-.54,1.36-1.36,2.44-2.97,2.33-1.91-.14-1.22-1.89-1.61-2.95-.21.05-.32.15-.45.26-.63.56-1.32,1.62-2.17.78-.86-.85-.05-1.82.63-2.48.56-.55.86-.78.16-1.56-.57-.64.3-1.46.5-2.21.37-.83.56-1.74,1.17-2.45.55-.78,2.54-.72,1.42-2.46-.02-.23,0-.45.03-.67.03-.11.07-.22.1-.33.08-.22.17-.42.27-.63.1-.21.21-.41.33-.61,1.4-3.48,2.72-7,4.24-10.43.32-.72.36-1.58,1.14-2.03Z"/>
      <path class="cls-50" d="M74.37,170.86c-.05.23-.04.49-.15.7-.69,1.42-.7,1.41.76,1.97-.06.61-.64.65-1,.92-.6.44-.99,1.03-1.27,1.7-.1.24-.16.48.05.65.31.26.61.09.82-.15.32-.35.57-.76.88-1.12.2-.24.41-.49.68-.64.18-.1.47-.09.68-.03.23.07.39.3.29.56-.26.69-.33,1.39-.27,2.12.06.75.58,1.12,1.32.94.82-.2,1.47-.62,1.78-1.44.14-.37.24-.76.37-1.13.76-2.21,2.36-3.74,4.1-5.16.26-.21.56-.21.89-.22,1.19-.02,2.38-.08,3.56-.17.92-.07,1.28-.43,1.11-1.38-.12-.67.06-1.11.52-1.46.93-.69,1.7-1.75,3.09-1.46,0,2.4,0,4.8,0,7.2-2.76,1.49-5.37,3.5-8.83,2.57-.52-.14-.99-.16-1.16.43-.36,1.21-1.56,1.53-2.35,2.28-.16.15-.33.29-.5.42-.17.14-.35.26-.54.37-.28.16-.57.31-.85.46-.18.11-.37.22-.56.33-.22.12-.39.28-.49.5-.41.91-1.04,1.46-2.07,1.08-.92-.34-.92-1.21-.9-2.02,0-.45.09-.9.05-.85-.38.48-.35,1.66-.75,2.67-.25.64-.3,1.56-1.26,1.49-.97-.08-.71-1.05-.91-1.69-.55.89-.95,1.82-1.45,2.71-.47.82-.86,1.97-1.99,1.77-1.23-.22-.8-1.53-1.07-2.38-.04-.21-.06-.42-.06-.63.02-.31.12-.59.24-.87.07-.18.16-.34.26-.51.1-.15.21-.3.32-.44.05-.07.11-.14.17-.21.15-.22.29-.44.4-.68.07-.17.14-.34.22-.51.14-.37.24-.76.4-1.12,1.18-1.89,2.48-3.69,3.29-5.8.35-.9.82-1.97,2.18-1.77Z"/>
      <path class="cls-101" d="M83.48,196.3c-.47.66-1.34.51-1.92.95-.81-.16-1.59-.51-1.88-1.28-.8-2.07-3.4-2.5-4-4.8-.62,1.23.02,2.44-.54,3.48-.13.2-.31.32-.55.35-.23-.06-.4-.2-.52-.4-2.2-1.55-1.26-3.49-.62-5.36.51-1.47,1.48-1.65,2.52-.58.76.78,1.45,1.46,2.64,1.31.61-.07.81.41.92.9.2.91.81,1.53,1.44,2.24.38-.85-.1-1.49-.26-2.15-.39-1.59.06-2.94,1.35-3.81,1.71-1.14,3.41-2.47,5.36-3.05,1.39-.41,1.65-1.07,1.89-2.26.33-1.57.08-3.2.59-4.74.65-.93,1.34-1.79,2.68-1.44,0,2.88,0,5.75,0,8.63-1.66,2.18-3.95,3.84-5.45,6.09-1.27,1.91-4.11,2.92-3.67,5.9Z"/>
      <path class="cls-27" d="M83.48,196.3c-.68-.06-1-.39-.85-1.11.3-1.41,1.37-2.24,2.36-3.13.7-.63.74-.59.31-1.62.08-.11.17-.32.25-.32.94.04,1.68-.23,2.17-1.13.3-.55.73-1.03,1.14-1.51.76-.9,1.42-1.9,2.66-2.29.41-.13.72-.58,1.07-.88,0,3.52-.02,7.04-.02,10.56-1.29.56-2.46-.28-3.55-.6-1.76-.52-2.93-.05-4.09,1.09-.35.52-.95.66-1.45.95Z"/>
      <path class="cls-18" d="M92.58,175.68c-.79.48-1.59.95-2.38,1.43-1.53.8-3.23,1.29-4.6,2.41-.24.19-.59.35-.89.31-2.12-.33-4.06-.32-5.39,1.83-.26.42-1.03.26-1.54-.08.08-.7.45-1.34.42-2.06.26-.27.71-.19.96-.48.17-.15.31-.33.48-.48.18-.26.37-.52.55-.77.4-.56,1.17-.53,1.6-.98.47-.49.13-1.24.4-1.83.17-.36.67-.58.96-.28,1.35,1.38,2.81,1.14,4.37.42,1.43-.66,2.9-1.22,4.36-1.8.21-.08.47-.03.71-.04,0,.8,0,1.61,0,2.41Z"/>
      <path class="cls-109" d="M81.08,121.9c0-.16,0-.32,0-.48-1.53-1.85-1.46-2.06.98-3,2.57,2.52,5.73,4.21,8.72,6.14.85.55.91,1.68,1.81,2.14,0,.32,0,.64,0,.96-1.34,1.04-2.32.05-3.36-.59-2.61-1.88-5.6-3.18-8.14-5.18Z"/>
      <path class="cls-75" d="M92.59,126.7c-.24,0-.48.02-.72,0-.86-.09-.88-.09-.87-1.14,0-.54-.22-.72-.72-.55-.43.15-.79.21-.72-.43.06-.55-.3-.81-.7-.67-.89.3-1.33-.03-1.67-.81-.29-.67-.69-1.16-1.57-1.25-1.12-.11-2.08-.58-2.5-1.84-.18-.54-1.12-.66-1.08-1.46.35-1.32,1.18-.86,1.86-.42.56.36,1.11.8,1.5,1.38.34.65.78,1.24,1.52,1.38.75.14,1.19.75,1.84,1.02,1.05.89,2.1,1.8,3.17,2.67.16.13.43.14.65.21,0,.64,0,1.28,0,1.92Z"/>
      <path class="cls-62" d="M92.59,123.81c-.88-.55-1.74-1.11-2.31-2.02-.17-.27-.4-.52-.66-.69-1.72-1.16-2.98-2.81-4.51-4.17-.38-.34-.63-.71-.64-1.23-.02-.64-.02-1.28-.04-1.92-.02-.55-.28-.91-.86-.96-.64-.06-1.23-.1-1.65-.75-.44-.68-.92-1.3-.83-2.17.03-.32,0-.64,0-.96.1-.04.2-.09.3-.13.22.06.38.19.5.38.53.64.13,2.3,1.83,1.65.14-.14.3-.26.47-.36.17-.1.36-.17.55-.23.1-.01.2-.02.29-.04.57.09.73.57.94,1,.09.16.17.32.26.48.14.23.27.47.3.74-.02.26-.14.5-.25.73-.08.25-.09.5-.08.76,0,.18-.02.36-.06.54-.12.34-.35.66-.28,1.05,1.42,1.84,3.33,3.14,5.04,4.64.2.08.37.19.54.32.5.38.78.95,1.15,1.43,0,.48.01.97.02,1.45,0,.16-.02.31-.03.46Z"/>
      <path class="cls-28" d="M84.93,195.35c-.06-.13-.21-.35-.18-.38.72-.69,1.43-1.39,2.2-2.01.33-.27.73-.24.89.3.09.32.31.59.65.59,1.45-.02,2.69.79,4.07,1.02,0,.32.02.63.03.95-2.25-1.09-4.56-1.31-6.95-.52-.22.07-.47.04-.71.05Z"/>
      <path class="cls-75" d="M89.24,126.7c1.05.53,2.08,1.15,3.35.96,0,1.12,0,2.23,0,3.35-1.27-1.28-2.55-2.55-3.82-3.83.05-.27.22-.43.49-.49Z"/>
      <path class="cls-37" d="M92.03,151.58c-.12.26-.31.4-.55.31-.13-.05-.25-.2-.32-.33-.16-.33-.54-.66-.16-1.06.08-.08.31-.12.42-.06.48.23.71.62.61,1.14Z"/>
      <path class="cls-16" d="M92.58,68.62c0,4.16,0,8.32,0,12.48-2.4.04-4.38-2.12-4.28-4.71.04-.86.28-1.71.19-2.58-2.53-5.12-3.16-10.66-3.49-16.24-.11-1.91-.87-3.69-.86-5.62,0-.72-.2-1.41.29-2.04.63-.73,1.41-.53,2.16-.29.29.09.51.36.79.49.53.26,1.14-.04,1.26-.63.15-.7.19-1.39-.25-2.03-.53-.77-1.05-1.56-1.57-2.34,1.85-.72,3.6-1.96,5.74-.97,0,2.72,0,5.45,0,8.17-1.46,2.43-1.97,5.27-3.7,7.64-1.03,1.4-.2,3.53-.32,5.33-.03.39.39.71.8.76,1.62.19,2.38,1.42,3.21,2.58Z"/>
      <path class="cls-64" d="M73.41,49.42c.32.32.64.64.96.96.48.4.49,1.34,1.2,1.4,3.93.33,3.09,3.47,3.51,5.86.34,1.96,1.57,3.49,2.78,4.87,1.17,1.33,2.18,2.7,2.95,4.28.31,1.47.69,2.93.7,4.46,0,1.33-.23,2.56-1.41,3.36-1.33.9-.88,1.44.17,2.26,2.55,1.99,4.78,4.3,6.51,7.06-.66.63-1.37.31-1.97-.03-3.56-2.01-7.13-4.04-9.61-7.44-.69-.95-2.26-1.02-2.34-2.52-.12-2.51-.04-5,1.47-7.14.5-.71.57-1.08-.19-1.47-.93-.48-1.65-1.23-2.44-1.9-.86-.73-1.47-1.47-.77-2.65.21-.35.38-.86.11-1.13-2.03-2.03-.56-5.13-2.26-7.28-.47-.59-.48-1.51-.18-2.31.16-.34.42-.55.8-.63Z"/>
      <path class="cls-42" d="M92.58,44.14c-.88-.08-1.71.14-2.52.46-1.03.41-2.1.6-3.22.51-1.25-.21-2.29-.67-2.53-2.1-1.19-1.03-2.24-2.33-3.86-2.62-.94-.16-1.51-.91-2.27-1.13-.83-.24-1.43-.56-1.87-1.26-.23-.37-.56-.59-.98-.55-.97.1-1.64-.5-2.36-.97-.79-.52-1.54-1.02-2.6-1.03-1.31-.02-2.3-.95-3.37-1.6-.54-.32-.99-.79-1.52-1.13-.45-.28-.69-.64-.69-1.16,0-.7-.16-1.2-.96-1.42-.43-.12-.77-.53-1.15-.81-.19-.14-.44-.42-.58-.37-1.48.49-2.32-.81-3.47-1.22-1.3-.46-1.41-.83-1.27-2.35.03-.34.07-.64-.21-.86-.56-.44-.74-1.25-1.48-1.51-.15-.17-.31-.33-.48-.48,0-.16,0-.32,0-.48-.43-.62-.07-1.22,0-1.84.07-.66.37-1.02,1.06-1.03.72,0,1.41-.08,2.1-.34.68-.25,1.49-.35,2.1-.03.98.51,1.72.92,2.05-.6.07-.33.47-.26.8-.3,1.25-.14,1.42-.32,1.48-1.38.03-.56,0-1.11.01-1.67.65.63,1,1.55,1.92,1.92.67.83.36,1.6-.42,1.99-.84.42-1.4.89-1.67,1.83-.42,1.49-1.65-.1-2.48.55.53,1.34,2.29,1.5,2.65,2.94.31,1.23.49,2.53,1.14,3.65,1.71,2.95,4.56,4.68,7.36,6.29,4.18,2.4,8.65,4.3,12.58,7.15,1.55,1.12,3.11,2.24,5.23,1.82.54-.11,1.08.24,1.48.67,0,.16,0,.32,0,.48Z"/>
      <path class="cls-49" d="M84.44,66.7c-.67-.69-1.19-1.48-1.65-2.32-.15-.28-.3-.69-.53-.77-1.25-.39-1.49-1.56-2.07-2.48-.42-.67-.97-1.26-1.4-1.93-.49-.76-.86-1.56-.09-2.4.24-.27.26-.64-.07-.83-1.03-.61-.99-1.49-.8-2.5.16-.82-.18-1.11-1.06-1.1-1.99.01-2.13-.11-2.42-1.98.41.04.72.22,1.02.53.71.73,1.52,1.11,2.55.6.56-.28,1.06.06,1.6.19.87.22,1.76.24,2.41-.53.67-.79,1.7-.79,2.5-1.28,0,.79-.08,1.59.54,2.24.4.41.34.85,0,1.28-.27.34-.31.66-.05,1.07.6.95,1.02,1.94.57,3.12-.1.25.02.63.14.91.32.77.24,1.56.24,2.35,0,1.35-.09,2.7.71,3.91.27.41.4.97.18,1.37-.6,1.13.05,1.79.78,2.44.49.44.62.88.13,1.41-.4.44-.2.9.07,1.3.48.71,1.23,1.24,1.5,2.11-2.41.41-2.83-1.46-3.34-3.05-.41-1.26-.34-2.69-1.45-3.67Z"/>
      <path class="cls-7" d="M73.41,49.42c-.16.16-.32.32-.48.48-.37-.08-.64-.3-.82-.63-.65-1.87-1.32-3.71-1.26-5.76.06-2.45-1.82-3.31-3.69-4.1-.21-.08-.4-.18-.59-.29-.68-.49-1.23-1.17-2.04-1.48-.08-.07-.16-.14-.23-.21-.57-.53-.99-1.25-1.81-1.47-.98-.27-1.09-1.04-1.07-1.89.16,0,.32,0,.48,0,.94.03,1.82-.05,2.7.65.62.51,1.63.53,2.47.78.3.09.73.12.86.33.71,1.12,1.89,1.37,3,1.83,1.62.67,2.44,2,2.48,3.74.02,1.19.16,2.39-.33,3.55-.25.59-.23,1.27.04,1.88.37.84.28,1.72.3,2.6Z"/>
      <path class="cls-56" d="M82.74,47.5c-.62,1.87-2.49,2.06-3.88,2.78-1.04.54-1.86-.04-2.64-.96-.87-1.01-.94-2.15-.88-3.36.07-1.28.21-1.46,1.43-1.81.38-.11.8-.16,1.13-.36,1.13-.66,1.97-.18,2.73.64.38.41.76.82,1.07,1.27.39.58.71,1.2,1.04,1.79Z"/>
      <path class="cls-99" d="M55.18,22.54c.16.16.32.32.48.48l-.48-.48Z"/>
      <path class="cls-32" d="M85.4,204.47c-1.26-.02-2.4.08-3.58.85-1.15.75-2.66.95-4.1,1.07.03-.63-.14-1.32.28-1.86,1.02-1.29,1.57-1.79,3.24-1.36.57.15,1.06.24,1.59-.08.64-.39.81-1.16.23-1.56-.63-.44-1.15-1.15-2.04-1.08-.34.03-.67.06-.7-.35-.02-.2.14-.44.28-.62.43-.57.95-.77,1.67-.44.46.21.99.22.87-.58-.07-.46.17-.77.52-1,1.31-.86,2.8-1.03,4.31-.97.31.01.58.34.59.67,0,.18-.2.45-.38.52-.44.18-1.01.28-1.14.78-.22.86-.87,1.29-1.47,1.8-.16.14-.35.46-.29.58.18.36.61.31.82.11.87-.79,1.76-.42,2.82-.09-.21.71-.77,1.34-.67,2.16.07.64.05,1.3.58,1.76.9.76.92,2.01,1.66,2.87.17.2.12.61.11.92-.01.38-.3.59-.64.51-.46-.11-.92-.31-1.13-.8-.22-.51-.42-1.03-.63-1.55-.51-1.28-1.38-2.12-2.82-2.25Z"/>
      <path class="cls-80" d="M74.85,194.86c.06-1.28-.03-2.54-.43-3.77-.06-.19.04-.48.17-.66.23-.31.55-.18.85-.06.6.25,1.27.55,1.47,1.15.35,1.11.74,2.03,2.1,2.15.21.02.42.44.56.71.18.35.29.74.42,1.11.22.65.6,1.08,1.34,1.14.1,0,.16.4.24.61,0,0,0,0,0,0-.16.16-.32.31-.47.47-1.43.95-2.93,1.82-3.84,3.36-1.93.72-2.51-.59-2.56-2-.05-1.4-.28-2.84.17-4.24Z"/>
      <path class="cls-25" d="M74.85,194.86c.7,1.27.59,2.64.34,3.96-.15.78.3,1.18.59,1.71.33.61.9.56,1.46.57,0,.16,0,.32,0,.48-.94.02-1.09.83-1.44,1.44-.42.33-1.11.4-1.33.12-1.31-1.63-2.48-3.37-3.37-5.27-.16-.34.08-.83.45-1.02.38-.2.76.03,1.1.26.47.32.74.82,1.08,1.28.16-1.2-.32-2.49.64-3.52.16,0,.32,0,.48,0Z"/>
      <path class="cls-101" d="M81.08,197.74c.16-.16.32-.32.47-.47-.16.16-.32.32-.47.47Z"/>
      <path class="cls-26" d="M58.06,43.66c-1.51,1.07-2.5,2.42-2.41,4.37.03.63-.37,1.17-.31,1.86.07.89.02,1.75.76,2.37.41.35.61.8.5,1.27-.31,1.27-.16,2.74-1.43,3.64-.36.26-.46.66-.44,1.06.11,1.62-.32,3.16-.78,4.69-.19.63-.33,1.29-.16,1.89.46,1.61.03,3.16-.29,4.68-.29,1.41-.45,2.67.73,3.74.37.34.48.82.46,1.32-.09,2.24.79,4.4.5,6.65-.08.66.08,1.32.71,1.66.66.36.9,1.03.88,1.6-.04,1.2.76,1.51,1.6,1.76.6.17,1.26.11,1.89.16.87.07.89.09,1.14,1.43.65,1.61,1.41,3.07,2.95,4.11.97.66,1.58,1.77.89,3.09-.73-.4-1.3-1.1-2.36-.61-.66.31-1.21-.14-1.4-.9-.54-2.2-2.01-3.48-4.03-4.27-1.02-.4-1.7-1.13-2.13-2.11-.35-.8-.62-1.64-1.02-2.41-.53-1.04-.81-2.07-.32-3.2.21-.47.24-.98-.1-1.36-.72-.8-.65-1.75-.65-2.71,0-.96-.01-1.91,0-2.87.01-.75-.08-1.41-.81-1.85-.52-.32-.63-.88-.63-1.47,0-.72,0-1.43,0-2.15.1-1.58-.25-3.19.36-4.74.1-.26.02-.64-.09-.92-.25-.64-.04-1.08.48-1.43.98-.65,1.19-1.62,1.17-2.71-.02-1.36-.03-2.71,0-4.07.02-.7.43-1.58.13-2.06-.47-.75-1.63-.3-2.41-.74-.35-.2-.8-.08-1.12.2-.9.77-2.18,1.01-2.83,2.14-.22.39-.73.27-.98-.13-.65-1.03-1.07-2.11-1.02-3.37.02-.63-.33-.73-.92-.34-.27.17-.51.38-.78.53-.41.22-.99-.08-.84-.44.4-.94-.24-1.7-.28-2.55.02-.11.04-.22.06-.33.1-.2.22-.39.37-.56.08-.08.16-.16.24-.24,3.16-2.04,3.95-7.26,1.54-10.23-.63.51-1.14.38-1.56-.29-.16-.34-.24-.7-.27-1.07-.03-.78-.03-1.56.59-2.17,0-.16,0-.32,0-.48.04-2.45.44-2.7,2.76-1.69.29.12.52.36.79.52.29.17.6.18.9.01.38-.21.64-.84,1.19-.47.31.21.49.6.73.91.24.32.51.62.71.95.32.54.79.73,1.4.71.55-.02,1.11-.03,1.67.02.38.03.91.04,1.11.28.87,1,2.03,1.14,3.22,1.26.3.03.58.24.87.37.26.48.77.87.57,1.52-.46.67-1.36.85-1.82,1.48-.62.86-.88,1.86-.2,2.85.38.56,1.09,1.02.49,1.84Z"/>
      <path class="cls-63" d="M43.67,35.98c0,.32,0,.64,0,.96.43,1.51-.07,2.98-.19,4.47-.1,1.18-1.27,2.37.43,3.62.92.67-.06,2.04-.72,2.95-.16.16-.34.3-.48.48h0c-.6-.33-1.22-.55-1.92-.48-1.52-2.12.32-3.87.4-5.83-3.04-.46-3.14-.39-3.97,2.9-.17.68-.14,1.45-.76,1.97-.69-.5-.41-1.26-.48-1.92-.21-1.32-.71-2.55-1.05-3.83-.33-1.21-.35-2.6,1.22-2.84,2.66-.42,5.12-1.29,7.51-2.45Z"/>
      <path class="cls-4" d="M36.47,47.02c-.17-1.38.34-2.66.61-3.98.17-.83.87-1.31,1.41-1.88.38-.4.88-.44,1.29-.1.63.52,1.19.7,1.91.15.25-.19.6.18.51.52-.09.3-.16.63-.34.86-.25.31-.56.59-.55,1.02.02.98-.16,1.89-.63,2.75-.3.55.16,1.08.12,1.62h0c-.18.14-.32.32-.48.48h0c-1.37,1.52-.77,3.57-1.44,5.28,0,.48,0,.96,0,1.44-.32.16-.64.32-.96.48,0-.16,0-.32,0-.48-.65-1.55.21-3.26-.48-4.8-.14-.19-.4-.38-.4-.57.03-.98-.42-1.86-.56-2.8Z"/>
      <path class="cls-63" d="M38.87,53.74c-.44-.31-.57-.78-.42-1.23.31-.97.45-1.95.45-2.97,0-.81.1-.84,1.41-1.08.11.28.16.64.36.83.38.38.61.76.2,1.2-.52.58-.54,1.26-.59,1.97-.06.84-.6,1.22-1.41,1.28Z"/>
      <path class="cls-63" d="M40.31,48.46c.16-.16.32-.32.48-.48-.16.16-.32.32-.48.48Z"/>
      <path class="cls-54" d="M74.37,194.86c0,1.35,0,2.69-.03,4.03,0,.12-.13.29-.24.33-.12.04-.34,0-.42-.08-.5-.6-.97-1.23-1.48-1.83-.08-.1-.3-.18-.42-.15-.25.07-.28.33-.28.56-.01.61.25,1.09.78,1.36,1.08.56,1.64,1.36,1.65,2.64,0,1.15.92,1.33,1.87,1.3-.19.28-.46.4-.77.51-.29.1-.75.27-.78.46-.32,1.95-2.59,2.62-2.93,4.53-.02.14-.17.33-.29.36-1.58.38-1.48,1.84-1.94,2.95-.11.28-.32.52-.49.79-.07-1.34-.61-2.6-.55-3.98.03-.78-1.01-1.19-.9-2.12.08-.7,0-1.42-.01-2.14-.01-.51-.23-.95-.66-1.2-.87-.5-.74-1.32-.76-2.1.62-2.13.26-4.39.91-6.52.13-.44.06-.94.05-1.42-.03-1.19-.03-2.33.78-3.37.36-.46.48-1.17.58-1.78.08-.5-.22-.44-.56-.21-.31.22-.75.11-.7-.24.15-1.15-.85-1.81-1.06-2.79,0-.1,0-.19-.02-.29,0-.2.03-.39.08-.59.14-.5.37-.94.85-1.2.21-.06.39,0,.53.16.72.53.39,1.32.5,2,.04.24.09.5.37.5.22,0,.54-.07.64-.23.47-.73,1-1.45,1.26-2.26.31-.94.96-1.64,1.42-2.47.15-.26.42-.62.73-.51.54.18.27.64.14.97-.18.46-.33.91-.17,1.39.04.13.18.28.3.31.12.03.33-.07.38-.17.11-.2.15-.44.19-.68.3-1.72,1.2-3.25,1.65-4.92.03-.11.24-.22.37-.23.1,0,.29.14.31.24.09.56.09,1.12-.15,1.64-.31.68-.3,1.4-.23,2.11.05.54.39.81.99.8.45-.01.75-.2.71-.72-.11-1.29.86-1.08,1.62-1.15.15.72.23,1.42-.48,1.92-3.15,2.36-3.72,6.08-4.97,9.44-.68,1.84.09,3.06,1.61,4Z"/>
      <path class="cls-76" d="M67.17,182.86h-.48c-.35-.19-.66.28-1.01.06-.8.41-1.29,1.23-1.4,2.33-.16.32-.32.64-.48.96-.21.37-.42.75-.95.49-.43-.98-1.12-1.84-1.11-3.01,0-.53-.63-.7-1.07-.29-.85.8-1.84,1.4-2.58,2.39-.73.97-1.93,1.58-2.93,2.35-.2.29-.34.63-.73.73-.23.03-.46,0-.69-.07-1.16-.73-1.31-1.94-1.34-3.13-.04-1.51,1.44-1.35,2.23-1.97,1.18-.92,2-2.14,3.54-2.79,1.03-.44,2.07-.97,3.27-1.25-2.23-2.04-2.23-2.27-.12-3.17,1.77-.35,3.38-.37,3.95,1.98.58-.95.95-2.06,2.26-1.7,1.37.38.98,1.62,1.16,2.57.08.23.05.44-.11.63h0c-.29.26-.2.7-.48.96h0c-.17.15-.31.33-.48.48,0,.16,0,.32,0,.48-.18.14-.31.33-.47.48,0,.16,0,.32,0,.48Z"/>
      <path class="cls-97" d="M62.86,186.71c.32-.16.64-.33.95-.49.05.06.15.12.15.18-.03,1.57-.98,2.82-1.51,4.2-.17.46-.75.76-1.14,1.13-.6-.56-.31-1.14-.38-1.66.09-.3.29-.53.52-.73.39-.33.61-.79.91-1.2l.49-1.43Z"/>
      <path class="cls-54" d="M64.29,185.26c-.84-.35-1-.59-.58-1.03.71-.73,1.2-1.6,1.65-2.51.48.36.32.77.36,1.14.03.82-.09,1.55-.96,1.92-.16.16-.32.32-.48.48Z"/>
      <path class="cls-97" d="M64.77,184.78c.45-.57.31-1.45.96-1.92.11-.08.23-.16.34-.25q.45-.41.63.26c-.2.47-.51.9-.48,1.44-.17.15-.33.31-.48.48,0,0,0,0,0,0-.11.08-.23.16-.33.26q-.45.41-.63-.26Z"/>
      <path class="cls-34" d="M59.02,192.46c.17-.52.38-1.03.48-1.56.11-.57.43-.79.95-.84-.23.5-.48.98-.5,1.55-.02.58-.41.79-.93.85Z"/>
      <path class="cls-34" d="M61.42,189.58c-.16.16-.32.32-.48.48-.16,0-.32,0-.48,0,.18-.46.5-.78.96-.96.15.11.2.21.15.32-.05.11-.1.16-.15.16Z"/>
      <path class="cls-51" d="M65.25,95.02c-.14-.45-.31-.9-.4-1.37-.13-.77-.53-1.3-1.24-1.62-1.82-.83-2.58-2.23-2.2-4.21,1.17.45,2.07,1.51,3.43,1.55.14,0,.32.12.4.24.51.78,1.28,1.14,2.11,1.45.61.23.84.68.66,1.33-.15.56.24.6.65.73.85.27.9.48.42,1.11-.54.7-.5.66.04,1.12.67.56,1.36.78,2.2.46.29-.11.6-.21.91-.23.7-.05,1.22.69.9,1.29-.19.35-.45.66-.66.99-.29.48-.18.79.26,1.21.74.71.71.8.07,1.56-.42.49-.84.97-1.05,1.58-.07.2-.09.48,0,.65.13.23.4.2.62.06.2-.13.38-.3.59-.41.56-.29.75-.11.67.66-.02.23-.21.47.08.61.09.04.33-.05.39-.14.77-1.3,2.23-1.64,3.48-2.74.13,1.43.39,2.55-.42,3.62-.32.43-.38,1.06-.69,1.5-.47.65-.37.95.4,1.12.19.04.33.29.58.52-.49.52-1.07.29-1.57.33-.55.04-1.13-.06-1.52.48-1.46,1.23-3.29.28-4.86.85-1.05.22-2.04.62-3.02,1.05-.97.26-1.47,1.04-2.06,1.76-.42.52-.66,1.55-1.74.98-.67-1.14-.26-2.14.45-3.06.71-.91.8-1.66-.31-2.34-.7-.43-1.93-.82-1.48-1.82.49-1.06,1.64-1.6,2.95-1.25,1.1,0,2.21,0,3.31-.01.79,0,1.31-.46,1.73-1.08.29-.43.24-1-.27-1.19-.99-.36-1.3-1.34-1.98-1.96-.37-.34-.46-.85-.38-1.32.26-1.63-.4-2.9-1.45-4.04Z"/>
      <path class="cls-45" d="M50.38,112.78c0-.16-.01-.31,0-.47,0-5.12.01-10.25.02-15.37.37-.56,1.01-1.95,1.46-.76.97,2.58,3.16,1.81,4.85,2.42.96.18,1.8.59,2.49,1.3,1.28,1.34,1.13,1.94-.74,2.83-.2.06-.47.08-.36.44.12.28.08.52-.14.72-.44.3-.92.46-1.41.59-.06.01-.14.03-.22.04-.08,0-.16,0-.24-.01.43,2.08,1.67,3.75,2.78,5.49,1.37,2.14,1.06,2.81-1.42,2.84-1.19.01-2.13-.12-1.93,1.61.1.87-.74,1.15-1.55.89-1.12-.37-2.31-.65-3.08-1.69-.17-.29-.26-.62-.5-.88Z"/>
      <path class="cls-58" d="M56.62,99.34c-.64-.35-1.31-.51-2.05-.49-.63.02-1.27,0-1.9-.04-.44-.03-.73-.3-.79-.74-.06-.47-.06-.95-.12-1.42-.06-.44-.43-.52-.85-.19-.19.14-.35.32-.52.48,0-6.69,0-13.39,0-20.08,0-.64.02-1.27.11-1.9.02-.16.31-.36.51-.42.35-.1.61.12.72.45.07.22.08.47.09.71.01.64.03,1.28,0,1.91-.07,1.45-.02,2.83.97,4.05.52.64.62,1.46.25,2.26-.32.7-.25,1.37,0,2.08.16.44.23.94.2,1.4-.1,1.91.98,3.31,2,4.73.17.23.49.39.78.49.48.16.84.46,1.16.8,1.07,1.13,2.02,2.43,3.81,2.51-.17.72-.64.49-.94.51-.71.03-1.21.32-1.51.97-.23,1.05-.92,1.64-1.92,1.92Z"/>
      <path class="cls-33" d="M56.62,99.34c.82-.46,1.01-1.55,1.92-1.92.36.53.91.47,1.44.48.53,0,1.08-.05,1.44.48-.22.23-.48.38-.78.45.32-.04.57-.22.78-.45.48.26.68.83,1.29,1,1.85.5,1.79,2.14,1.98,3.6.02.17-.19.44-.37.55-.33.2-.76.24-.99.62-1.03,1.04-2.48.27-3.76.89.3,1.01,1.02,1.73,1.68,2.46,1.16,1.27,1.49,2.72,1.38,4.41-.1,1.51-.75,2.43-2.24,2.61-.92.11-1.73.23-1.97,1.3-2.23,1.5-4.85,1.71-6.47.54-.16-.17-.3-.35-.44-.54-.48-.64-.64-1.45-1.14-2.08,0-.16,0-.32,0-.48.16-.17.32-.17.48,0,1.07.87,2.39,1.23,3.64,1.72.31.12.56-.17.63-.54.14-.72-.29-1.2-.63-1.74-.07-.12-.1-.32-.05-.45.1-.24.33-.33.57-.24,1.16.46,2.36.24,3.55.24.21,0,.47-.12.61-.28.26-.31.01-.59-.17-.85-1.08-1.57-2.11-3.17-3.27-4.68-.63-.82.37-.78.45-1.18-.5-.23-1.01-.46-1.51-.7-.17-.08-.22-.25-.1-.4.09-.11.26-.24.38-.23.55.04,1.1.13,1.64.2.39-.43,1.06-.02,1.44-.48-.16-.16-.32-.32-.48-.48-.28-.32-.28-.64,0-.96.69-.07,1.64.28,1.96-.48.4-.93-.72-1.25-1.18-1.83-.44-.56-1.09-.6-1.75-.58Z"/>
      <path class="cls-5" d="M58.06,115.66c.05-.39.05-.8.17-1.16.13-.4.47-.64.92-.61.39.03.79.19,1.15.13,1.45-.25,2.29-1.26,2.03-2.69-.24-1.29-.42-2.68-1.68-3.55-.37-.25-.58-.74-.84-1.13-.26-.39-.4-.87-.92-1.04-.4-.13-.77-.33-.56-.83.16-.39.54-.59.96-.6,1.35-.03,2.7-.03,4.05-.04.39,0,.75.09.96.48-.97.11-1.49,1.15-2.5,1.21-.15,0-.2.44.04.58.68.4,1.4.74,2.07,1.15.96.57,1.15,1.35.3,2.11-1.12,1-1.56,2.14-1.36,3.58,0,.1,0,.2,0,.3-.07.3-.2.57-.4.81-.16.13-.34.24-.53.32-1.31.25-2.41,1.3-3.86.97Z"/>
      <path class="cls-36" d="M54.22,188.62c.16,0,.32,0,.48,0,.16-.18.32-.18.48,0,1.02.04,1.43-.94,2.21-1.29.19-.08.48-.08.67.01.29.13.17.44.05.62-.47.77-.36,1.94-1.54,2.25-.17.05-.35.34-.4.55-.32,1.53-1.26,2.72-2.15,3.92-.55.74-.85,1.5-.78,2.42.04.55.1,1.17-.33,1.59-.85.84-1.2,1.8-1.15,3,.04.85-.56,1.26-1.39,1.33,0-4.17,0-8.33,0-12.5.84-1.51,2.42-1.55,3.83-1.91Z"/>
      <path class="cls-67" d="M61.42,189.58c0-.16,0-.32,0-.48.18-.46.5-.77.96-.96,0,.69-.32,1.17-.95,1.44Z"/>
      <path class="cls-60" d="M55.18,188.62c-.16,0-.32,0-.48,0,.16-.16.32-.32.48-.48,0,.16,0,.32,0,.48Z"/>
      <path class="cls-72" d="M66.22.5c4.16,0,8.31,0,12.47,0-.07,1.84.84,2.91,2.3,4.05,1.96,1.54,1.88,3.4.51,5.98-.48.77-1.37.98-1.91,1.88-1.02,1.69-2.7.78-3.9-.06-1.53-1.06-3-1.04-4.63-.45-1.35.49-1.17,1.99-2.01,2.79-.32.36-.64.73-1.14.86-.82-.04-1.19-.36-.73-1.19-.09-1.09.14-2,1.1-2.72,1.12-.84,1.57-2.13,1.93-3.42.14-.49-.23-1.04-.78-1.31-.44-.21-.83-.02-1.03.33-.49.87-1.02.84-1.7.24-.25-.22-.57-.2-.86.05-.42.37-.89.67-1.27,1.07-1.17,1.24-2.5,1.2-3.93.56-.36-.16-.72-.33-1.09-.49-.91-.41-1.19-.94-.97-1.83.24-.98,1.36-1.97,2.38-2.06.71-.06,1.44.01,2.14-.07,1.03-.13,1.52-.58,1.64-1.66.09-.8.42-1.31,1.05-1.75.22-.15.28-.54.42-.81Z"/>
      <path class="cls-105" d="M67.17,14.38c.02.62.34.94.96.96.26.16.43.41.6.66.24.34.54.63.71,1.02.68,1.73-.73,3.28-.38,5.05.32,1.58.47,2.81,2.59,2.3,1.19-.29,1.59.49,1.24,1.57-.31.95-1.41,1.77-.87,2.84.79,1.55,1.93,2.93,3.36,3.95,1.94,1.38,3.98,2.59,6.2,3.49,1.1.45,2.16,1,3.14,1.69,1.7.63,3.38,1.29,4.48,2.88.54.78,1.48.82,2.3,1.07.46.15.75.53,1.08.84,0,.32,0,.64,0,.96-1.02-.1-2.03-.21-3.06-.02-.53.1-1.23.19-1.6-.25-1.21-1.42-3.21-1.74-4.35-3.24-.39-.52-.96-.98-1.57-1.03-1.59-.14-2.65-1.42-4.14-1.74-.15-.03-.32-.09-.44-.18-.84-.67-1.31-1.93-2.59-1.86-1.25.06-1.87-1.17-2.99-1.27-.08,0-.16-.03-.23-.08-.72-.46-.8-1.59-1.83-1.73-.86-.11-1.37-.68-1.89-1.32-.55-.67-1.27-1.2-1.83-1.86-.63-.73-1.03-1.6-1.26-2.55-.13-.54-.38-1.07-.4-1.61-.04-1.11-.55-1.78-1.55-2.18-.37-.15-.71-.36-1.03-.59-.75-.54-.72-.82.17-1.45.3-.21.35-.82.83-.68.26.07.42.45.66.65.3.27.69.18.73-.16.08-.62.13-1.25.19-1.86q2.03-.13,2.3-1.9c.11-.81-.31-1.73.48-2.4Z"/>
      <path class="cls-95" d="M72.45,49.42c.16.16.32.32.48.48-.07,1.31.23,2.54.99,3.61.39.55.44,1.19.72,1.75.23.46.26.95-.1,1.34-.59.65-.34,1.13.21,1.6.06.05.12.11.17.17.41.48.99.91,1.18,1.46.23.69-.6,1.03-.92,1.56-.18.29-.25.59.04.85.71.64,1.45,1.24,2.12,1.91.48.49,1.14.54,1.69.83.97.51,1.03,1.16.22,1.82-.12.1-.25.21-.39.27-1.06.49-1.37,1.31-.93,2.35.3.71.03,1.27-.33,1.78-.45.64-.77,1.17-.1,1.87.42.45-.43,1.12.11,1.54.35.27.91.26,1.29.51.31.21.53.58.74.92.54.9,1.21,1.61,2.18,2.1.86.44,1.35,1.32,1.67,2.23.16.45.44.66.89.47.77-.32,1.17.17,1.62.64,1.29,1.33,2.86,2.13,4.67,2.48.75.08,1.37.43,1.9.95-.07.5-.21,1.07-.86.73-2.2-1.17-4.61-1.97-6.56-3.59-.78-.65-1.87-.37-2.64-.97-.9-.12-1.48-.68-1.94-1.41-1.35-2.43-4.01-3.56-5.64-5.8-1.3-1.79-2.54-3.66-4.04-5.32-.65-.72-.78-1.5-.28-2.41.96-1.74,1.21-3.46.46-5.46-.6-1.61-.52-3.45-.27-5.21-.18-1.7-1.67-3.31-.37-5.11.62-.41,1.4-.49,2-.96Z"/>
      <path class="cls-65" d="M81.08,79.66c.35.61,1.24.68,1.44,1.44.07.22.09.6.22.64,1.31.45,2.17,1.55,3.32,2.22.76.44,1.48.85,2.37,1.02,1.1.21,1.14.4.95,1.67-.23,1.48-.45,2.95-.63,4.44-.08.66-.43.89-1.03,1.08-1.25.4-1.32.57-1.35,1.86-.02.79-.12,1.62.52,2.24.61.59.16,1.61.91,2.12.5.06.9.33,1.23.68.61.64,1.3,1.32.76,2.29-.51.91-1.37.99-2.29.65-.76-.47-1.07-1.3-1.55-1.99-1.06-1.45-1.28-3.62-3.68-3.93-.71-.09-.61-1.01-.32-1.63.37-.8.94-1.47,1.4-2.21.92-1.48,1.29-2.89-.51-4.11-1.1-.75-1.79-1.99-1.73-3.25.18-3.56-2.3-5.12-4.73-6.77-.78-.49-1.08-1.39-1.71-2-.31-.34-.58-.7-.79-1.11-.24-.54-.44-1.09-.02-1.64,1.27-.25,1.47.99,2.08,1.59,1.66,1.64,3.73,2.84,5.16,4.73Z"/>
      <path class="cls-89" d="M92.58,84.93c-.82.07-1.54-.08-1.9-.95-.08-.14-.13-.31-.25-.41-1.4-1.17-2.74-2.36-3.85-3.86-.88-1.2-1.98-2.3-3.45-2.89-.28-.12-.54-.33-.77-.54-.35-.32-.34-1.03.04-1.28.46-.31.98-.54,1.44-.84.71-.47,1.12-1.11,1.08-2-.06-1.11.08-2.21-.31-3.32-.23-.65-.13-1.42-.17-2.13.65,0,1.24.02,1.48.84.22.76.39,1.5.47,2.29.17,1.77.99,3.12,2.85,3.59-.05.71.09,1.5-.18,2.12-.56,1.3-.16,2.39.57,3.35.75.99,1.6,1.97,2.95,2.21,0,1.28,0,2.55,0,3.83Z"/>
      <path class="cls-3" d="M92.58,68.62c-.5-.02-1-.17-1.21-.63-.47-1.02-1.25-1.29-2.32-1.32-1.06-.02-1.21-.27-1.24-1.32-.01-.4-.08-.83.03-1.19.28-.87.22-1.68.01-2.56-.25-1.05.05-1.98.86-2.82,1.09-1.13,1.99-2.41,2-4.14,0-1.16.99-1.74,1.86-2.32,0,5.44,0,10.87,0,16.3Z"/>
      <path class="cls-81" d="M87.32,101.74c.61-.03,1.23.1,1.8-.23.42-.25.59-.8.29-1.18-.52-.66-1.07-1.29-1.61-1.94.01-.47-.07-1,.27-1.37.65-.71.62-1.31.03-2.07-.36-.46.02-1.19.61-1.24,1.25-.1,2.47-.34,3.83-.85.1,1.89.04,3.62.05,5.34.01,1.66,0,3.32,0,4.98,0,0-.02.03-.02.03-.43.44-.1,1.04-.34,1.52-.49,1.05-1.01,1.4-1.52.02-.15-.42-.14-.89-.28-1.32-.12-.16-.24-.31-.4-.43-.87-.5-2.13.13-2.8-.96.03-.1.05-.2.08-.31Z"/>
      <path class="cls-31" d="M92.58,42.7c-.39,0-.74-.09-.94-.47.31-.25.62-.29.93,0,0,0,.05-.01.05-.01-.02.16-.03.32-.05.48Z"/>
      <path class="cls-77" d="M71.01,50.38c-.76,1.09-.75,2.26-.02,3.27.47.66.47,1.3.5,2.01-1.46.43-2.95.79-4.39.1-1.08-.52-1.78.26-2.65.51-1.01-.32-1.18-1.2-1.38-2.05-.52-2.2-.53-4.47-1.62-6.61-.71-1.39-.71-3.2-.43-4.91.32-1.94,0-3.81-1.52-5.27-.2-.47-.51-.9-.48-1.44.36.15.71.41,1.07.41,1.03.02,1.95.35,2.86.79.4.19.89.16,1.35.23h0c.9.32,1.62.93,2.4,1.44h0c1.99,1.32,3.45,2.92,2.71,5.54-.31,1.1.33,1.59,1,2.19,1.21,1.08,1.64,2.33.61,3.79Z"/>
      <path class="cls-1" d="M43.67,35.98c-.24.19-.62.34-.71.58-.47,1.24-1.61,1.46-2.65,1.72-1.21.3-2.47.41-3.71.58-1.32.18-1.76.81-1.43,2.11.1.38.21.76.38,1.12.45.96.48,1.98.44,3.01-.69-1.04-.79-2.31-1.34-3.42-.19-.38-.07-.92-.1-1.39-.14-1.46.43-2.62,1.46-3.63,1.19-1.16,2.4-2.28,2.99-3.96.29-.82,1.22-1.44,2.26-1.53.46-.05.93-.09,1.39-.14.28-.03.45.14.48.37.05.38.05.77.06,1.16,0,.41.13.76.47,1.01,0,.8,0,1.6,0,2.4Z"/>
      <path class="cls-106" d="M67.65,119.98c-1.17.05-1.68,1.11-2.53,1.66-.08.05-.1.31-.04.42.06.12.22.22.36.25.4.1.79.03,1.15-.17.41-.23.81-.49,1.25-.66.41-.17.98.07,1,.37.03.43-.33.45-.61.58-.85.4-.22.92-.1,1.4,2.52.23,2.9,2.41,3.61,4.16.43,1.06-.38,1.83-1.44,2.06-1.25.28-2.45.66-3.61,1.16.94,2.91.7,3.48-2.27,4.5-1.24.42-1.56,1.07-.89,2.12.63.98.89,2,.87,3.16-.02,1.4-1.01,2.3-1.54,3.44-.92,1.97-1.96-.91-2.87.13-1.57-1.06-1.98-3.03-1.28-5.41,1.01-3.48,3.51-6.21,4.7-9.59.33-.95,1.41-.93,2.19-1.27.52-.23,1.06-.51.99-1.18-.05-.53-.51-.77-.95-.97-.91-.42-2.13-.39-2.35-1.98-.91,1.53-2.04,2.51-3.07,3.56-1.12,1.14-1.91.82-2.25-.79-.13-.63-.13-1.25.02-1.89.18-.79,1.32-1.65.42-2.35-1.02-.79-2.26-1.55-3.75-1.06-1.02.34-2.03.42-2.95-.3-1.02-.66-.94-1.83-1.31-2.79,0-1.28,0-2.56,0-3.84.88-.28.99.58,1.42.97.6,1.54,1.93,2.04,3.39,2.21,1.49.17,3,.19,4.48.56,1.22.3,1.73-.42,1.36-1.47-.52-1.47.03-2.24,1.33-2.74h0c.09-.06.19-.13.28-.19.22.04.42.13.6.27,1.45.91.65,2.9,1.89,3.91.69.8,2.32.26,2.51,1.76Z"/>
      <path class="cls-10" d="M50.37,174.7c0-5.76.01-11.52.02-17.28.29-.32.29-.64,0-.96,0-.8,0-1.6,0-2.4.29-.32.29-.64,0-.96,0-2.08,0-4.16,0-6.24.3-.5.7-.98,1.31-.81,1.13.31,1.97.19,3-.59,1.11-.83,2.2.02,2.95,1.06-.47,1.75-.2,3.61-.81,5.34.48,3.35.21,6.54-1.12,9.76-.82,1.99-.9,4.32-.82,6.57.1,2.73-2.05,5.73-4.51,6.5h-.02Z"/>
      <path class="cls-112" d="M50.39,118.54c.48.8.95,1.6,1.43,2.4.38.54.59,1.13.65,1.78.11,1.24.8,1.75,2.02,1.92,3.05.43,4.75,3.05,3.2,5.84-1.51,2.72-.63,4.78.42,7.08.2.43.68.85.61,1.28-.55,3.65.84,6.49,3.47,8.89.42.39.48,1.03-.28,1.34-.94.2-1.6-.38-2.31-.84-.19-.14-.35-.3-.5-.48-1.29-2.08-2.79-3.48-5.57-2.55-.97.32-2.21.03-3.14-.73,0-2.39-.01-4.79,0-7.18,0-.38.02-.9.25-1.12.44-.43,1.03-.71,1.57-1.01.09-.05.32.03.42.12.23.21.41.5.65.69.26.21.58.26.88.04.34-.25.54-.6.46-1.03-.04-.23-.12-.49-.28-.64-1.21-1.12-1.39-2.65-1.53-4.14-.15-1.5-.75-2.68-1.92-3.58-.36-.28-.58-.63-.45-1.01.53-1.57.47-3.09,0-4.68-.22-.73-.04-1.59-.05-2.38Z"/>
      <path class="cls-102" d="M50.39,144.47c.79.03,1.58-.09,2.36.21.92.36,1.84-.49,2.77-.05.04.02.14-.06.2-.1.39-.21.5-1.02,1.05-.72.34.18.4.83.69,1.19.39.5.86.93,1.31,1.38.41.4.73.84.72,1.45-.14.12-.3.18-.49.16-.17-.06-.33-.14-.47-.24-.07-.05-.14-.11-.21-.16-.21-.15-.42-.31-.61-.49-.05-.07-.09-.15-.14-.22-.3-.51-.86-.66-1.34-.91-1.08-.55-1.08-.53-1.83.52-.71,1-.77,1.09-1.85.36-.82-.55-1.45-.37-2.17.03,0-.8,0-1.6,0-2.4Z"/>
      <path class="cls-8" d="M51.82,115.66c-.47-.32-.95-.64-1.42-.97,0-.32,0-.64-.01-.95.77.42,1.4.95,1.44,1.92Z"/>
      <path class="cls-36" d="M50.39,156.46c.48.32.48.64,0,.96,0-.32,0-.64,0-.96Z"/>
      <path class="cls-36" d="M50.39,153.1c.48.32.48.64,0,.96,0-.32,0-.64,0-.96Z"/>
      <path class="cls-58" d="M50.86,113.26h-.48c0-.16,0-.32,0-.48.16.16.32.32.48.48Z"/>
      <path class="cls-63" d="M37.43,50.38c.43.32.48.78.48,1.26,0,1.18,0,2.36,0,3.54-.42-.32-.47-.78-.47-1.27,0-1.18,0-2.36,0-3.54Z"/>
      <path class="cls-91" d="M92.58,9.59c0,1.92,0,3.84,0,5.76-.85.74-1.89,1.03-2.9.7-3.23-1.04-5.9.14-8.5,1.85-.93.61-1.88,1.26-3.07,1.19-1.94-.11-1.51.96-.91,1.92,1.74,2.78,3.65,5.42,6.87,6.66,2.43.94,4.02,2.51,4.22,5.23.13,1.75.93,2.97,2.73,3.45.6.16,1.12.6,1.56,1.07,0,1.44,0,2.88,0,4.32-2.37.05-4.04-1.71-4.64-3.31-.59-1.59-2.11-2.02-2.64-3.5-.71-1.99-2.64-1.62-4.3-1.55-.4.02-.74-.25-1.06-.5-2.04-1.72-3.2-3.92-3.49-6.58-.03-.25-.03-.55-.24-.63-2.52-1.01-2.18-3.93-3.75-5.6-.78-.82-.29-4.98.51-5.78.66-.67,1.35-.65,2.11-.02.46.38.12,1.57,1.05,1.27,1.57-.51,3.56.26,4.75-1.22,1.81-2.26,4.35-2.46,6.86-2.74,1.08-.12,2.06-.21,2.72-1.18.13-.17.29-.32.45-.46.25-.2.54-.35.83-.47.1-.03.2-.06.3-.09.22-.02.4.04.55.2Z"/>
      <path class="cls-17" d="M92.58,17.27c0,6.24,0,12.48,0,18.72-1.3.84-1.86-.05-2.39-1.03-1.18-2.18-2.13-4.46-2.72-6.88-.23-.93-.41-1.88-.99-2.68-.72-.99-1.28-1.93-2.85-.9-1.1.72-2.76,1.15-2.7-1.28,0-.25-.07-.5-.28-.62-3.37-1.96-.41-2.01.79-2.54.3-.13.45-.14.51-.56.3-2.12,1.68-3.34,4.07-3.23,2.2.1,4.42.33,6.56,1Z"/>
      <path class="cls-12" d="M92.58,17.27c-1.49.58-3,.11-4.42-.17-1.63-.31-3.09-.57-4.53.5-.46.34-1.38-.05-1.5.86-.08.63.45.98.8,1.4.1.12.2.25.28.39.13.22.15.46-.07.63-.11.09-.29.17-.42.16-.23-.03-.49-.09-.66-.22-.44-.34-.76-.39-1.23.03-.31.28-.84.32-1.42.52.67.26,1.17.49,1.69.64.46.14,1.02.2,1.1.75.06.42-.44.61-.72.88-.09.09-.16.28-.14.41.03.28.28.35.52.39.85.13,1.56-.07,2.15-.74.24-.28.32-.74.85-.8,1.62,1.19,2.81,2.63,3.15,4.78.25,1.55.85,3.04,1.33,4.54.09.29.31.56.52.79.45.48.78.97.83,1.66.09,1.16.91,1.36,1.88,1.33,0,.48,0,.96,0,1.44-.48,0-.98.03-1.38-.27-.45-.34-.91-.61-1.47-.76-.53-.14-1.09-.3-1.54-.61-.6-.41.12-1.02-.08-1.55-.42-1.11-.79-2.24-.88-3.45-.05-.66-.62-1.1-1.19-1.41-.77-.42-1.58-.77-2.34-1.19-.55-.3-1.12-.62-1.59-1.03-.47-.41-.9-.43-1.5-.37-1.04.11-1.31-.3-1.15-1.46.13-.94.14-.94-.82-1.32-.07-.03-.16-.02-.23-.06-.14-.06-.35-.11-.4-.22-.65-1.44-1.78-2.64-2.15-4.23-.03-.15-.03-.32,0-.48.07-.45.35-.73.8-.72.39.01.78.11,1.15.23.48.16.95.21,1.36-.13.73-.61,1.69-.81,2.39-1.52.66-.67,1.49-1.14,2.56-1.1.51.02,1.05-.32,1.55-.55,1-.47,2.06-.58,3-.09,1,.52,1.93.54,2.96.25.3-.08.63-.02.95-.02,0,.64,0,1.28,0,1.92Z"/>
      <path class="cls-31" d="M81.08,10.54c-.04-.75.15-1.36.79-1.88.81-.65.79-.86.09-1.47-.52-.45-.86-.9-.9-1.59-.05-.73-.5-1.13-1.19-1.3-.62-.16-1.22-.41-1.69-.84-.39-.35-.57-.85-.2-1.27.44-.5.82-.97.72-1.68,3.96-.01,7.92-.02,11.88-.03.39,0,.79,0,1.18.05.43.05.73.3.78.75.05.47.06.95.06,1.42,0,2.14,0,4.28,0,6.42-.14.17-.3.33-.47.47h0c-.26.28-.71.18-.96.48h0c-.16.07-.33.1-.44,0-.93-.9-.7-3.48-3.23-2.03-1.33.76-3.15.47-4.23,1.92-.52.7-1.18,1.39-2.17.6Z"/>
      <path class="cls-86" d="M80.13,32.62c.44.17.84.48,1.36.28.22-.09.44-.18.68-.23,1.62-.34,2.79.32,3.62,1.68.17.27.3.56.44.85.39.81.88,1.49,1.82,1.76.5.14.2.43.03.68-.22.33-.08.64.17.84,1.28,1.06,2.57,2.1,3.87,3.14.11.09.3.08.46.11,0,.16,0,.33,0,.49-.31,0-.62,0-.93,0-.55-.01-1.09,0-1.64-.04-.41-.02-.79-.2-.98-.55-.95-1.79-2.51-2.68-4.42-3.08-.06-.01-.1-.11-.15-.17-.56-.85-.35-2.46-2.3-1.88-.46.14-1.54-.93-2.02-1.78-.15-.12.09-.61-.4-.43-1.15-.61-.47-1.1.1-1.59.1-.03.21-.05.31-.08Z"/>
      <path class="cls-100" d="M92.12,9.58c.16-.16.31-.32.47-.47,0,.16,0,.32,0,.48-.15,0-.31,0-.46,0Z"/>
      <path class="cls-60" d="M50.39,174.7c1.51-1.18,2.56-2.76,3.59-4.34.4-.61.47-1.25.33-2.03-.21-1.15-.13-2.34.22-3.52.24-.81.15-1.72.17-2.59.02-.65.04-1.32.64-1.7.72-.45.81-1.1.8-1.85,0-1.03-.04-2.04.34-3.05.27-.74.26-1.58-.05-2.34-.28-.69-.3-1.39-.29-2.1,1.42-.59,1.6.7,1.94,1.43,1.1,2.34.87,5,1.57,7.45.22.76-.56,1.03-1.07,1.39-3.22,2.3-3.56,4.06-1.38,7.44.78,1.21,1.5,2.43,1.55,4.33.25-3.32,2.12-5.6,2.96-8.28.33-1.05,1.26-1.34,2.35-.94,1,.36,1.72.84,1.43,2.08-.11.46-.06.95-.08,1.43-.03.86.02,1.73-.21,2.57-.1.35-.27.68-.45.99-1.4,1.85-1.51,4.42-3.34,6.03-.08,0-.16,0-.24,0-.38.03-.86-.04-.98.45-.11.46.26.71.64.87.5.21,1.12.05,1.56.49.24.24.39.51.35.84-.04.34-.25.57-.59.64-.15.03-.31.05-.47.05-.4.01-.79.03-1.19.01-.79-.04-1.34.17-1.6,1.05-.22.75-.81.77-1.54.58-.86-.22-.96-.09-1.19.67-.12.38-.18.77-.33,1.13-.3.72-.53.81-1.5.7-1.22-.14-1.65.28-1.41,1.39.12.54.25,1.08.38,1.61.12.5.46.82.91,1.03-.3.49-.82.72-1.31.84-.9.22-1.68.69-2.51,1.06,0-.79,0-1.59,0-2.38.37-.36.79-.52,1.86-.28-1.9-.94-1.7-1.99-1.07-3.17.77-1.43,2.15-2.09,3.41-2.91.4-.26.81-.67.68-1.18-.15-.59-.75-.45-1.21-.5-1.24-.13-2.58.33-3.68-.62,0-1.6,0-3.2,0-4.8Z"/>
      <path class="cls-96" d="M50.39,179.5c1.75,0,3.5,0,5.25.03.75.01.99.44.62,1.11-.57,1.02-1,2.09-2.45,2.34-1.15.2-1.7,1.33-2.28,2.29-.57.95-.59.93.21,1.67.28.26.66.46.66,1.01-.62.38-1.34.12-2.01.21,0-2.88,0-5.77,0-8.65Z"/>
      <path class="cls-30" d="M92.11,104.62c.03-.51-.09-1.08.47-1.41,0,2.39,0,4.79,0,7.18-.88,1.71-1.52,3.45-.79,5.38.18.09.33.21.47.36.09.17.19.34.31.5,0,1.12.02,2.24.03,3.36,0,.16-.02.32-.03.47-.47.78-.95.72-1.42,0h0c-.15-.06-.39-.19-.36-.27.91-2.45-.98-4.14-2.27-5.26-2.15-1.86-2.27-3.59-1.28-5.85.05-.23.11-.45.18-.66.1-.34.22-.67.32-1,.33-1.06.7-2.1.92-3.2.22-1.06.78-1.73,1.98-1.52h0c.71,1.42-.54,2.97.33,4.31.17-.84.88-1.51,1.1-2.4Z"/>
      <path class="cls-74" d="M92.12,116.14c-.15.06-.29.15-.44.18-.68.15-.96-.01-.97-.56,0-.32-.04-.65.04-.95.18-.69.2-1.39.3-2.06.13-.87.3-2.06,1.54-2.36,0,1.44,0,2.88-.01,4.31-.43.39,0,1.05-.46,1.44Z"/>
      <path class="cls-30" d="M92.12,116.14c.02-.52-.08-1.08.46-1.44,0,.48,0,.95,0,1.43-.14.16-.3.16-.45.02h0Z"/>
      <path class="cls-107" d="M92.12,116.15c.15,0,.3,0,.45-.02,0,.17,0,.33,0,.5-.15-.16-.3-.32-.46-.48Z"/>
      <path class="cls-107" d="M91.16,120.46c.47.28.95.3,1.42,0,0,.48,0,.96,0,1.43-.61-.34-1.42-.49-1.43-1.43Z"/>
      <path class="cls-46" d="M67.17,151.18c.73-.91.96-1.97.96-3.11,0-1.2-.01-2.4,0-3.59,0-.39-.05-.93.18-1.15,1.02-1.03,1.24-2.57,2.33-3.56.94-.85,1.9-1.7,1.96-3.14.02-.4.44-.71.87-.67,1.43.15,1.99-.79,2.28-1.9.16-.62.32-1.23.64-1.79.39-.68.67-1.64,1.26-1.95.87-.45,1.97-.48,2.99-.57.41-.04.7.34.63.83-.1.62.21.94.78.89,2.32-.2,4.55.78,6.88.52.75-.08,1.39.33,2.07.52.34.1.53.35.54.7.01.33-.11.66-.4.82-1.22.66-2.5,1.04-3.9.73-.7-.15-1.38-.36-2.08-.52-.95-.22-2.3.27-2.53,1.17-.4,1.54-1.56,2.78-1.61,4.44-.01.44-.36.7-.8.73-.7.06-1.39.09-2.34.15.87,1.3,1.45,2.5,1.32,3.92-.04.41.22.77.51,1.05.57.55,1.13,1.14,1.77,1.6.55.4.55.92.56,1.48-.19.15-.4.21-.63.17-2.36-1.27-3.27-3.85-5.04-5.66-.69-.71-1.07-1.95-2.38-1.67-1.4.29-1.63,1.48-1.99,2.68-.67,2.26-2.16,4.27-2.02,6.78-.04,2.23-1.07,3.78-3.15,4.63-.31.16-.64.24-.99.26-.34,0-.66-.07-.95-.25-.26-.22-.29-.51-.21-.82.05-.17.08-.35.08-.53-.89-.7-1.95-1.34-1.06-2.72,1.23.38,2.42.48,3.47-.48Z"/>
      <path class="cls-73" d="M67.17,151.18c-.14,1.17-1.19,1.37-1.98,1.82-.28.16-.62-.03-.78-.35-.16-.35-.23-.76-.6-.99-.78-.18-1.1-.74-1.22-1.47.02-1.37-.04-2.64-1.47-3.49-.72-.43-1.2-1.27-1.15-2.24.02-.4.03-.79.06-1.19.02-.26.16-.44.42-.49.26-.05.5.05.6.27.23.49.4,1.01.62,1.51.03.06.4.04.4.03.21-1.48,2.13-2.16,1.77-3.96-.18-.93-.09-1.82-1-2.52-.75-.58-.61-2,.1-2.81.13-.15.44-.3.61-.25.57.18,1.06.08,1.61-.1.72-.23,1.39-.43,1.49-1.31.1-.91.07-1.79-1.04-2.12-.08-.02-.18-.02-.22-.08-.09-.1-.23-.24-.22-.34.02-.13.17-.35.27-.35,1.69,0,3.01-1.3,4.75-1.25,1.19.03,1.56-1.02.85-2.02-.27-.39-.83-.76-.83-1.13.03-1.51-1.06-1.98-2.09-2.55,1.19-.03,2.39-.05,3.52.42,1.09-.44,2.18-.89,3.28-1.31.11-.04.35.03.42.13.17.23.02.43-.18.56-.27.17-.55.33-.83.46-.64.3-.97.77-.94,1.51.03.79-.02,1.57-.32,2.34-.32.82-.14,1.57.68,2.07.27.16.54.35.75.58.35.39.38.86.21,1.34-.16.46-.57.5-.97.52-.24.01-.48-.01-.72-.02-1.01-.04-1.25.12-.98.93.43,1.31-.12,2.49-.3,3.71-.12.75-.7,1.18-1.57,1.16-1.19-.04-2.39,0-3.58.03-.63.02-.93.59-.48.95,1.15.93.98,2.27,1.25,3.48.03.12-.08.32-.19.4-.27.21-.41-.03-.56-.22-.1-.12-.19-.26-.3-.36-.31-.28-.63-.18-.8.12-.41.75-.45,1.51.12,2.22.35.43.66.94,1.11,1.24,1.01.66,1.06,1.55.7,2.5-.32.86-.27,1.72-.29,2.59Z"/>
      <path class="cls-40" d="M69.09,108.94c.32-.42.78-.47,1.27-.47,1.34,0,2.67,0,4.01,0,.96,0,1.92-.05,2.87.03,1.67.14,2.73,1.33,2.83,3.01.03.53-.35.86-.57,1.28-.51.98-.12,1.74.94,1.9.93.14,2.06-.35,2.76.36.58.59.82,1.53,1.14,2.34.29.74,1,.99,1.5,1.48.51.51-.06.58-.43.65-.89.02-1.32-.73-1.94-1.16-.51-.35-1.01-.37-1.41.2-.56.36-.77,1.19-1.64,1.04.15.77.76,1.17.68,1.84-.08,0-.16.02-.24.03-.76.02-1.15.95-1.92.85-.78-.1-1.56-.3-2.32-.52-1.37-.41-2.7-.84-4.17-.39-.53.16-1.11.02-1.58-.37-.43-.35-.87-.69-1.3-1.03.16-.61.65-.96,1.18-1.05,2.36-.4,3.83-1.91,5.17-3.74.45-.61.92-1.03.51-1.84-.28-.53-.32-1.04.34-1.39.44-.23,1.3-.15,1.15-.92-.14-.75-.9-1.06-1.57-1.31-.68-.26-1.4-.13-2.12-.12-1.73-.15-3.56.52-5.14-.68Z"/>
      <path class="cls-87" d="M74.85,108.94c1.77-.17,3.06.65,4.07,2.02.39.53.14,1.19-.48,1.28-.55.08-1.1.08-1.59.12-.23.28-.18.48-.03.68.33.44.85.77.83,1.4-.02.78-.77.68-1.21.95-.8.49-1.24,1.26-1.49,2.1-.22.72-.64.94-1.33,1.12-1.38.36-2.71.91-4.06,1.38-.64,0-1.28,0-1.92,0-.25-.37-.62-.45-1.03-.49-.73-.08-1.38-.34-1.85-.95.42-1.29.25-2.98,2.24-3.18.49-.05.54-.51.58-.9.12-1.13.76-1.69,1.89-1.71,1.13-.02,2.01.34,2.43,1.49.18.49.14,1.26.89,1.22.76-.04,1.23-.68,1.62-1.27.53-.79-.17-1.1-.65-1.5-.87-.73-.76-1.56.29-1.7,1.82-.23.52-1.38.78-2.05Z"/>
      <path class="cls-114" d="M89.24,126.7c-.16.16-.32.32-.49.49-.58-.27-1.14-.63-1.81-.3-.69.34-1.36.31-2.08.05-.44-.16-.98-.31-1.4-.19-1.56.46-3.15.44-4.74.45-.42,0-.72.27-1.06.48-.48.3-.8.14-.84-.32-.04-.48-.04-.96-.05-1.44-.01-.51.14-.95.64-1.19.59-.28,1.02-.64,1.16-1.36.07-.41.59-.5,1-.51.71-.02,1.22-.31,1.51-.97,1.34.22,2.46.98,3.61,1.61,1.37.74,2.66,1.62,3.96,2.47.24.16.39.47.58.72Z"/>
      <path class="cls-68" d="M81.56,148.78h.48c.04.83.62,1.54.48,2.4-.4,2.45-1.58,4.58-2.6,6.8-.69,1.5-1.14,3.11-1.64,4.69-.2.63-.39,1.2-1.04,1.48-.41-.37-.44-.84-.37-1.34.49-1.26.74-2.59,1.12-3.89.4-1.35-.45-2.66.05-4.08-1.84.91-2.3.71-2.15-.91.18-1.99.77-3.9,1.37-5.79.45-1.41,1.25-1.25,2.01-.19.6.85,1.25,1.64,2.19,2.24-.23-.53-.37-1,.09-1.41Z"/>
      <path class="cls-29" d="M86.36,99.82c.63.48.88,1.16.96,1.91,0,0,0,0,0,0-.17.16-.38.22-.61.19-1.44-.75-2.32-.15-2.94,1.19-.39.83-.59,1.79-1.41,2.37-.11.03-.21.07-.32.1-.22.07-.46.12-.67.22-.4.21-.19,1.09-.86.94-.52-.11-.38-.81-.69-1.17-.96-1.1-.59-2.6-1.11-3.84-.09-.21-.02-.48-.07-.71-.23-1.03-.94-1.57-2.03-1.69-.91-.1-1.7.19-2.7.85.22-1.52.23-2.84.57-3.97.46-1.53-.57-2.36-.97-3.49-1.62-.76-1.61-2.21-1.55-3.69,0-.23-.05-.47-.08-.66-.36-.33-.6-.06-.86.08-1.09.61-2.01.23-2.79-.58-.61-.63-1.25-1.26-1.7-2-.54-.88-1.12-1.46-2.23-1.54-.65-.04-1.08-.65-1.39-1.22-.44-.81-1.04-1.33-1.95-1.64-.73-.25-1.38-.78-2.03-1.24-.46-.33-.87-.77-.85-1.38.04-1.01-.43-1.84-.8-2.73-.28-.66-.45-1.36-.65-2.05-.11-.38-.18-.77-.28-1.16-.22-.85-1.24-1.37-1.09-2.33.13-.78.36-1.53.41-2.34.07-1.21.32-1.39,1.65-1.57.24-.03.48,0,.72,0,.08.08.15.17.23.25.24.57.13,1.12-.21,1.58-.79,1.07-.61,2.05.1,3.07.66.94,1.01,2,.92,3.15-.16,2.09,1,3.25,2.72,4.03.94.42,1.77,1.09,2.67,1.5,2.67,1.23,4.84,3.25,7.48,4.5.39.27.66.65.93,1.03,1.63,3.45,3.18,6.95,6.08,9.6.48.44.69,1.06.85,1.69,1.45,1.59,2.72,3.53,5.4,2.6.37-.13.77-.03,1.14.13Z"/>
      <path class="cls-69" d="M58.06,66.7c0-.63-.03-1.27,0-1.9.06-1.18-.04-2.22-1.49-2.56-.33-.08-.57-.53-.87-.78-.42-.34-.54-.75-.37-1.26.71-2.09,1.28-4.22,3.26-5.61.88-.62.86-1.05.28-2.22-.18-.36-.41-.73-.31-1.11.33-1.26-.18-2.51-.04-3.76.19-1.34,1.29-1.19,2.16-1.21,1.07-.03.74.94.99,1.56,1.22,3.02,1.16,6.4,2.71,9.31.09.22.17.44.27.65.19.42.48.79.78,1.14.75,1.36,1.78,2.67.8,4.34-2.28-.85-2.24-3.31-3.41-4.94-.3-.42-.33-1.04-.44-1.58-.25-.88.02-1.96-1.07-2.61-1.28,1.24-.96,3.61-3.13,4.28-.48.15.37,1.04.7,1.55,1.45,2.23,1.09,5.1-.83,6.71h0Z"/>
      <path class="cls-85" d="M64.29,58.06c-.62-.67-.75-1.54-.94-2.37-.09-.38-.1-.78-.15-1.17-.17-1.34-1.44-2.28-1.32-3.75.11-1.36-.54-2.6-.64-4.09-.98.31-1.96.1-2.71.83-.64-.6-.75-1.34-.61-2.18.09-.55.09-1.11.13-1.66,0-.84-.56-1.22-1.2-1.59-.53-.31-.8-.76-.37-1.36.09-.13.19-.25.26-.39.25-.52-.41-1.29.06-1.55.87-.47,1.62-1.24,2.68-1.34.32,0,.64.01.95.03.55.03.9.31.93.88.04.8.12,1.57.38,2.34.25.75.24,1.59-.06,2.35-.37.94-.35,1.85.02,2.79.14.36.16.78.16,1.17-.01.75.14,1.43.72,1.95.66.59.82,1.36.72,2.18-.18,1.39.31,2.67.54,3.99.09.5.45.83.9,1.04.32.76.1,1.38-.48,1.92Z"/>
      <path class="cls-51" d="M71.16,94.95c-.13.11-.27.3-.45.37-.22.08-.43-.05-.45-.3-.02-.26.16-.39.41-.41.22-.02.42.02.5.34Z"/>
      <path class="cls-15" d="M81.56,108.94c-.16,0-.32,0-.48,0-.52-.73-.5-.79.48-1.45.08.08.15.16.23.24.17.45.16.86-.23,1.21Z"/>
      <path class="cls-15" d="M81.56,107.5c.01-.39.1-.75.48-.96.06.08.13.17.19.25.02.46,0,.88-.66.71h0Z"/>
      <path class="cls-15" d="M82.04,106.54c0-.32,0-.64,0-.96h0c.21-.2.42-.18.6.04.11.51.18,1-.6.92h0Z"/>
      <path class="cls-40" d="M88.76,121.9c.04-.07.09-.2.11-.19.16.04.12.11-.11.19Z"/>
      <path class="cls-22" d="M77.25,162.7c0,.48,0,.97,0,1.45,0,.16-.01.32-.02.48-.16.16-.31.32-.46.48h0c-.18.19-.26.42-.26.68-.03.17-.07.34-.12.5-.05.28-.11.55-.2.82-.2.51-.58.9-.86,1.36-.32.8-.64,1.6-.96,2.39-1.01.46-1.55,1.37-1.86,2.33-.59,1.83-1.64,3.36-2.75,4.87-.23.32-.45.64-.67.96-.18.14-.19.45-.49.48-.34-.26-.42-.62-.48-1.02-.19-1.14-.34-1.31-.94-1.32-.73-.01-.92.46-.98,1.07-.05.5-.3.89-.68,1.2-.11.09-.28.18-.41.17-.11-.01-.26-.17-.29-.28-.06-.22-.06-.47-.06-.7,0-.7-.36-1.17-.86-1.6-.54-.46-1.03-.07-1.55.03-.31.06-.63.05-.94.07.82-2.15,1.53-4.34,2.88-6.24.15-.17.33-.31.48-.48,0-.96,0-1.92,0-2.87.21-.14.41-.15.61,0,.81,1.41.34,2.97.48,4.46.09.95.46,1.41,1.36.82,1.38-.9,3.14-1.27,4.06-2.83,1.68.43,2.41-.56,2.83-1.95.35-1.15.56-2.32.8-3.5.07-.22.17-.42.29-.61.61-.51.77-1.81,2.04-1.2Z"/>
      <path class="cls-14" d="M76.28,166.06c0-.16,0-.32,0-.48.16-.15.32-.15.48,0,.02.32.06.66.45.73.58.1.51.5.47.9-.04.34-.19.63-.55.68-.63.1-1.24.25-1.8.57.16-.64.32-1.28.48-1.92.18-.14.31-.33.47-.48Z"/>
      <path class="cls-101" d="M76.77,165.58c-.16,0-.32,0-.48,0,.16-.16.32-.32.48-.48v.48Z"/>
      <polygon class="cls-79" points="76.77 177.1 76.66 177.3 76.57 177.21 76.77 177.1"/>
      <path class="cls-101" d="M76.77,165.1c.15-.16.31-.32.46-.48-.15.16-.31.32-.46.48Z"/>
      <path class="cls-54" d="M68.61,179.5c.16-.16.32-.32.49-.48-.01.4-.09.75-.48.96,0-.16,0-.32,0-.48Z"/>
      <path class="cls-54" d="M79.17,179.02c-.21.39-.56.47-.96.48.21-.39.56-.47.96-.48Z"/>
      <path class="cls-54" d="M68.13,180.94c0-.4.09-.75.48-.96,0,.4-.09.75-.48.96Z"/>
      <path class="cls-54" d="M67.18,182.38c.16-.16.32-.32.47-.48-.16.16-.32.32-.47.48Z"/>
      <path class="cls-54" d="M67.65,181.42c.16-.16.32-.32.48-.48-.16.16-.32.32-.48.48Z"/>
      <path class="cls-54" d="M79.65,178.54c-.16.16-.32.32-.48.48.16-.16.32-.32.48-.48Z"/>
      <path class="cls-25" d="M74.37,194.86c-.3.06-.67.26-.89.16-.33-.16-.69-.49-.8-.82-.3-.89-.48-1.82-.68-2.74-.05-.22-.07-.58.06-.69,1.21-1.07.47-2.77,1.27-3.91.46-.66.97-1.24,1.05-2.07.07-.75.91-1.28.58-2.18-.11-.29.22-.55.56-.64.73-.2,1.62.23,2.22-.54.24,0,.48,0,.72,0,.61,0,1.12-.17,1.18-.89.08-.88.7-1.25,1.41-1.4.89-.19,1.83-.58,2.7.19.31.27.77.15,1.13-.05.42-.22.9-.41,1.21-.74,1.14-1.19,2.52-1.59,4.12-1.43.29,2.33-.44,4.58-.53,6.88-.02.54-.43.88-1.01.66-1.09-.42-1.87.04-2.59.7-.76.71-1.54,1.21-2.61,1.51-1.88.52-2.63,2.42-2.04,4.38.27.9.68,1.79.34,2.77-.09.27-.57.45-.76.23-.72-.82-1.44-1.65-2.12-2.51-.1-.13,0-.46.06-.68.13-.47.16-.9-.47-.48-.56.37-.99.4-1.49-.05-.46-.42-1.1-.64-1.25-1.37-.06-.33-.39-.48-.68-.62-.36-.18-.89-.01-.99.36-.08.3-.16.62-.16.93,0,.74-.08,1.42-.7,1.95-.15.13-.16.43-.22.66-.11.48.25.73.85.6.14-.03.28-.04.54-.07v1.91Z"/>
      <path class="cls-107" d="M88.27,107.98c-.16.16-.32.32-.47.49-.12.11-.16.21-.12.32.04.11.08.16.12.16.11.93-.36,1.68-.73,2.46-.32.67-.14,1.22.36,1.71.17.16.34.35.54.45,1.24.59,1.91,1.6,2.25,2.89.13.48.33.91.94.85.42-.04.84-.04.9.48.07.6.32,1.36-.49,1.63-.69.23-.58.59-.4,1.07-.36.11-.82.44-1.07.04-.98-1.58-2.64-2.41-3.91-3.67-.52-.51-.96-1.01-1.26-1.65.82-.46,1.6-.38,2.48.34-.51-.64-1.29-.65-1.52-1.3,0-.16,0-.32,0-.48-.28-.32-.26-.64,0-.96.16-.16.32-.32.48-.48-.16-.16-.31-.33-.48-.48h0c-.5-2.34.41-4.5.94-6.69.15-.6.66-1.24,1.4-.91.58.26.41.93.3,1.49-.14.74-.78,1.44-.26,2.26Z"/>
      <path class="cls-21" d="M82.05,106.55c.38-.21.47-.56.48-.96.38-1.13,1.08-2.09,1.68-3.11.56-.95,1.27-1.39,2.33-.73.55.5,1.05,1.15.79,1.85-.85,2.24-.77,4.82-2.4,6.78h0c-.15.17-.34.31-.48.48-.16,0-.32,0-.48,0-.96-.44-1.77-1.06-2.4-1.91,0,0,0,0,0,0,0-.48,0-.96,0-1.44.38-.21.47-.57.48-.96Z"/>
      <path class="cls-15" d="M84.92,110.38c.06-.55-.07-1.23.2-1.63.84-1.23.86-2.72,1.43-4.02.45-1.03.36-2.02-.19-2.98.16-.18.32-.2.48-.01.16,0,.32,0,.47,0,.43.6,1.08.45,1.68.48.6.03,1.25-.13,1.67.48-.82.37-1.39.8-1.49,1.88-.1,1.15-.59,2.27-.91,3.4-.54-.39-.52-.94-.38-1.48.13-.53.46-1.01.34-1.59-.03-.14-.12-.34-.22-.38-.1-.03-.34.07-.39.18-.44.92-.81,1.86-.79,2.91.02.93.1,1.86-.72,2.62-.41.37-.21,1.05-.24,1.59-.62-.28-.34-1.16-.96-1.44Z"/>
      <path class="cls-15" d="M81.56,108.95c.97.43,2.07.69,2.4,1.91,0,.15.02.31-.02.46-.18.82-.51,1-1.02.61-.99-.75-1.58-1.69-1.36-2.99Z"/>
      <path class="cls-15" d="M85.88,114.22c.77.34,1.47.9,2.41.67.25-.06.39.26.36.49-.03.21-.14.48-.3.57-.43.26-.97.26-1.29-.11-.6-.7-1.36-.66-2.14-.66.32-.32.64-.64.96-.96Z"/>
      <path class="cls-15" d="M85.88,112.78c0,.32,0,.64,0,.96-.49-.32-.49-.64,0-.96Z"/>
      <path class="cls-15" d="M85.88,111.82c.16.16.32.32.48.48-.16-.16-.32-.32-.48-.48Z"/>
      <path class="cls-15" d="M84.44,110.86c.16-.16.32-.32.48-.48-.16.16-.32.32-.48.48Z"/>
      <path class="cls-52" d="M71.01,50.38c0-.4-.02-.8,0-1.19.07-1.03-.16-1.88-1.23-2.33-.36-.15-.65-.45-.96-.7-.74-.58-.75-.65-.24-1.53.73-1.25.7-2.15-.11-3.25-.61-.83-1.19-1.68-1.79-2.51,1.67-.1,2.78,1.03,3.95,1.93.55.42.8,1.17.83,1.91.03.55.03,1.11.01,1.66-.02.96,0,1.91.53,2.76.45.71.46,1.5.44,2.3,0,.15.01.31-.01.46-.14.84-.24.91-1,.68-.15-.04-.28-.12-.42-.18Z"/>
      <path class="cls-52" d="M66.69,38.86c-.99-.16-1.89-.48-2.4-1.44.42-.16.84-.43,1.24.05.39.46.77.93,1.16,1.39Z"/>
      <path class="cls-1" d="M43.19,47.98c.11-.94.7-1.8.43-2.79-.09-.31-.23-.63-.57-.68-.09-.01-.24.34-.33.54-.06.14-.02.34-.11.46-.16.25-.39.2-.56,0-.34-.4-.42-.94-.16-1.34,1.09-1.66,1.11-3.56,1.28-5.42.06-.65.22-1.24.5-1.82.34.08.74.45.96-.17.07-.19.31-.52.39-.25.31,1.02,1.61,1.3,1.69,2.52.04.61.36,1.2.05,1.84-.29.6-.39,1.33-.16,1.87.66,1.51-.36,2.56-.84,3.76-.17.42-.55.82-1.12.75-.66-.08-.91.6-1.46.73Z"/>
      <path class="cls-52" d="M55.53,37.14c.13.06.27.11.4.17-.06.13-.09.34-.18.38-.1.04-.26-.09-.39-.15.06-.13.12-.27.17-.4Z"/>
      <path class="cls-58" d="M42.71,48.46c.16-.16.32-.32.48-.48-.16.16-.32.32-.48.48Z"/>
      <path class="cls-88" d="M68.07,204.66c-.6-.45.1-.88-.07-1.31-.17-.44-.35-.88-.1-1.37.11-.21.12-.5-.13-.62-.24-.11-.44.06-.59.26-.09.13-.17.28-.29.37-.11.09-.29.16-.41.13-.1-.03-.25-.23-.23-.33.21-1.32.51-2.63.54-3.98,0-.5.43-.83.94-.95,1.19-.29,2.18.04,2.93,1.02.43.55.48,1.22-.13,1.68-.81.61-.97,1.36-.98,2.28,0,1.18-.53,2.12-1.48,2.82Z"/>
      <path class="cls-67" d="M65.73,184.78c.16-.16.32-.32.48-.48-.16.16-.32.32-.48.48Z"/>
      <path class="cls-54" d="M67.02,180.09c-.09.29-.23.55-.59.48-.08-.02-.17-.25-.16-.37.02-.32.18-.56.55-.46.09.03.13.23.19.36Z"/>
      <path class="cls-20" d="M74.85,108.94c.24.77,1.09.88,1.54,1.42.15.19.26.41.09.64-.09.12-.23.26-.36.27-.71.07-1.42.09-2.13.16-.11.01-.26.19-.28.32-.03.12.05.34.14.39.49.26,1.01.44,1.49.71.39.22.57.73.3,1.01-.91.96-1.63,2.15-2.98,2.6-.63.21-1.06-.06-1.16-.76-.02-.16,0-.32-.02-.48-.21-1.74-.56-2.05-2.23-1.95-.75.04-1.04.27-1.09.97-.04.63,0,1.26,0,1.79-.47.31-.7.05-.99-.05-.67-.24-1.16-.04-1.31.52-.12.46-.12.94-.21,1.4-.09.47-.49.57-.89.64-.4-.06-.76-.19-.89-.63-.02-.07-.05-.16-.04-.23.26-1.32-.46-2.37-.99-3.46,1.14-1.42,1.68-3.31,3.36-4.32.93-.42,1.77-1.09,2.87-.97,1.92,0,3.84,0,5.76,0Z"/>
      <path class="cls-106" d="M66.21,109.91c-.69,1.01-1.55,1.91-2.04,3.06-.24.57-.74.98-1.32,1.25h0c-.28-.33-.25-.64,0-.96,0,0,0,0,0,0,.5-.69,1.02-1.37,1.51-2.07.46-.66.94-1.27,1.85-1.28Z"/>
      <path class="cls-26" d="M66.23,92.77c.1.09.27.17.29.28.04.19-.12.29-.27.19-.1-.07-.15-.23-.2-.36,0,0,.12-.07.18-.11Z"/>
      <path class="cls-58" d="M57.58,102.22v.96c-.35-.07-.82-.06-.73-.59.06-.31.43-.34.73-.37Z"/>
      <path class="cls-58" d="M58.06,103.66c-.34.57-.91.46-1.44.48.34-.57.91-.46,1.44-.48Z"/>
      <path class="cls-8" d="M62.37,114.22c-.03.07-.05.17-.11.21-.75.65-1.32,1.28-.58,2.36.43.63.19,1.39-.21,2.04-.23.38-.52.58-.98.43-1.76-.56-3.56-.85-5.41-.73-.48.03-.97-.02-1.3-.45-.38-.49-.84-.28-1.31-.19-.26.05-.55-.09-.48-.36.17-.66-.17-1.25-.17-1.88.43.34.86.67,1.29,1.01.26.2.63.4.84.15.81-.93,1.86-.63,2.85-.68.48-.02.94-.05,1.26-.48,1.37-.69,2.74-1.38,4.32-1.44Z"/>
      <path class="cls-58" d="M61.42,98.32c-.07.47-.18.89-.66.94-.55.05-1.1.01-1.65-.03-.1,0-.21-.2-.26-.33-.07-.18.01-.35.2-.37.78-.08,1.57-.14,2.37-.21Z"/>
      <path class="cls-51" d="M62.85,113.26c0,.32,0,.63,0,.95-.16,0-.32,0-.47,0,0-.39.09-.75.48-.96Z"/>
      <path class="cls-100" d="M81.08,10.54c.81.09,1.35-.23,1.75-.97.52-.96,1.29-1.41,2.46-1.56,1.05-.13,2.22-.27,3.12-1.06.21-.18.6-.2.91-.22.71-.04,1.22.39,1.19,1.15-.03.83.01,1.58.65,2.18-.16.37-.36.72-.46,1.1-.15.54-.47.78-1.01.83-.77.07-1.49.58-2.31.11-.22-.12-.61.03-.92.1-.31.07-.6.2-.91.29-1.81.57-3.06,1.28-4.46,2.61-.49.46-1.01.75-1.7.73-1.43-.04-2.86-.12-4.09.85-.11.09-.51-.02-.63-.16-.11-.13-.05-.43,0-.65.03-.14.17-.26.26-.4.27-.43.04-.74-.27-1.03-.33-.31-.67-.35-1.08-.12-.38.21-.66.49-.57.94.12.61.42,1.16,0,1.82-.28.45-1.11.78-.81,1.34.4.74.53,1.73,1.36,2.14.6.3.83.7.79,1.31-.1,1.56.6,2.57,2.05,3.13.36.14.69.39,1.01.61.31.22.3.77-.03,1.04-.18.15-.44.18-.63.31-.11.08-.23.25-.22.37,0,.27.23.39.47.41.15.01.32-.02.47-.06.55-.14.78.14.64.62-.46,1.52.31,2.53,1.41,3.35.36.27.55.53.6.94h0c-2.56.14-4.96-1.84-5.51-4.82-.23-1.23-.73-2.19-1.38-3.22-1.99-3.19-3.57-6.58-4.62-10.2.68-.45.61-1.27.87-1.91.3-.76.69-1.3,1.52-1.15.67.11,1.06-.13,1.4-.63.39-.56.74-.43,1.1.04.3.38.66.8,1.18.42.61-.45,1-.48,1.13.36.1.68.49.95,1.13.95.24,0,.48.02.71.06.51.1,1.03.57,1.54.04.41-.43-.03-.9.01-1.35.07-.73.41-.9,1.28-.54.26.11.44.12.6-.11Z"/>
      <path class="cls-48" d="M68.61,14.38c.46,1.17,1.4,2.09,1.63,3.41.08.46.67.87,1.08,1.23.46.4.79.89.58,1.45-.31.83.02,1.36.59,1.88.48.43.82.94.99,1.59.09.36.35.76.65.96.89.59,1.43,1.21.88,2.34-.1.22.08.62.21.9.6,1.26,1.61,2.26,2.27,3.49.18.34.63.49,1.04.49.58,0,1.07.27,1.57.5-.12.2-.24.41-.37.6-.41.6-.41.6.37.84.36.95,1.51,1.07,2.01,1.92.27.47.8.36,1.12-.13.17-.26.23-.58.38-.85.06-.1.26-.19.38-.17.12.02.31.17.32.28.06,1.09.08,2.19.12,3.28-1.28-.78-2.55-1.56-4.02-1.94-.23-.06-.54-.08-.66-.23-.78-1-2-1.32-3.03-1.83-2.32-1.15-3.62-3.29-5.33-5.03-.37-.37-.42-.86-.21-1.33.28-.65.37-1.38,1.01-1.85.23-.17.36-.53.42-.83.03-.18-.13-.44-.28-.59-.18-.18-.47-.14-.63.06-.14.18-.19.44-.31.64-.19.31-.51.44-.79.19-.71-.64-1.4-1.31-2.06-1.99-.43-.45-.54-1.02-.12-1.52.52-.6.3-.95-.26-1.3-.2-.13-.33-.5-.15-.61,1.35-.84,1.09-2.16,1.09-3.41-.26-.29-.69-.21-.96-.48,0-.32,0-.64,0-.96.01-.4.09-.75.48-.96Z"/>
      <path class="cls-72" d="M68.13,16.3c.4,0,.75.09.96.48-.4,0-.75-.09-.96-.48Z"/>
      <path class="cls-6" d="M64.29,58.06c-.07-.7.15-1.32.48-1.92.23-1.31.61-1.64,1.57-1.33.37.12.73.3,1.08.49.67.36,1.36.5,2.04.14.75-.39,1.37-.12,2.02.21-.48,1.64.04,3.28.03,4.92,0,.51.34.87.58,1.28.49.81.48,1.65,0,2.48-.12.21-.35.38-.39.59-.14.87-.83,1.57-.94,2.35-.11.78,1,1.15,1.37,1.84.6,1.13,1.41,2.15,2.2,3.09,1.4,1.67,2.63,3.54,4.58,4.75.96.6,2.02,1.34,2.15,2.69-.3-.09-.76-.09-.87-.29-1-1.7-3.05-2.26-4.12-3.86-1.11-.3-1.19-1.69-2.2-2.09-2-.63-3.05-2.35-3.91-3.97-1.09-2.04-2.64-3.74-3.69-5.79-.03-.11-.05-.22-.08-.32.02-1.61-.36-3.08-1.44-4.32-.28-.26-.18-.71-.48-.96h0Z"/>
      <path class="cls-94" d="M62.86,56.62c.6,1.09.61,2.39,1.56,3.42.81.89.81,2.39,1.8,3.3,0,0,0,0,0,0,1,1.58,2.3,3,2.95,4.77,1.04,2.82,3.73,4.31,5.21,6.76.16.32.32.64.48.96-1.73,2.37-1.9,5.08-1.76,7.88.04.78.02,1.6-.64,2.2-.39-.21-.47-.56-.48-.96-.46-1.78-1.35-3.16-3.06-4.08-.87-.46-1.67-1.28-2.19-2.17-.81-1.38-1.58-2.27-3.52-2.06-1.67.18-2.62-1.36-3.05-2.89-.27-.94-.54-1.74-1.34-2.43-1.24-1.06-.74-2.54-.42-3.81.9-3.64,2.81-7.07,2.26-11.02-.09-.68.26-1.31.98-1.45,1.38-.27.69,1.15,1.23,1.59Z"/>
      <path class="cls-53" d="M86.36,99.82c-1.33.4-2.66.8-3.9,1.17-.33-.3-.24-.52-.17-.74.14-.44.04-.76-.47-.87-.08-.02-.15-.03-.23-.04-1.24-.1-1.98-.82-2.42-1.93.47-.53,1.04-1.03.66-1.86-1.46-3.17-1.63-6.71-2.84-9.97-.92-2.49-.68-5.21-.7-7.85.76-.06,1.36.2,1.94.72,1.12,1.02,1.92,2.34,3.17,3.24.34.25.43.63.3,1.07-.45,1.57,0,2.96.81,4.31.22.36.42.66.86.73.4.06.83.11.97.56.19.6.71,1.19.47,1.82-.35.92-.2,2.02-1.23,2.75-.65.46-.97,1.4-1.4,2.14-.12.21-.07.5.16.63.19.11.45.18.65.13.21-.05.38-.26.57-.4.31-.23.7-.2.76.14.24,1.64,1.79,2.63,2.04,4.24Z"/>
      <path class="cls-78" d="M76.29,77.74c.29.58.5,1.16.49,1.83,0,.47-.03,1.08.24,1.38.76.86.55,1.54-.07,2.32-.26.33-.19.8.08,1.12.54.65.74,1.38.7,2.22-.04.93.34,1.75.96,2.38,1.04,1.06,1.3,2.15.45,3.42-.2.3-.24.59,0,.87.52.65.51,1.68,1.59,1.95.41.1.37.67.15,1.04-.38.64-.9,1.12-1.71,1.14,0-.64-.04-1.25-.6-1.72-.6-.5-1.15-1.07-1.7-1.62-.28-.27-.5-.61-.79-.87-.91-.82-.67-2.23-1.67-3.06-.93-.78-1.16-2.03-1.51-3.16-.11-.38-.3-.73-.45-1.09,0-1.75.08-3.51-.02-5.26-.13-2.12.59-3.73,2.42-4.82.53.04.86.27.99.83.08.38.3.73.45,1.09Z"/>
      <path class="cls-69" d="M74.37,74.86c-.22-.07-.61-.1-.65-.23-.41-1.36-1.54-2.02-2.67-2.54-.7-.32-.91-.71-1.07-1.39-.16-.68-.47-1.38-.88-1.95-1.21-1.68-2.08-3.53-2.89-5.42.32.05.73.08.8.4.21.92.86,1.5,1.48,2.12.57.57,1.13,1.12,1.11,2.02,0,.41.25.75.53,1.04,1.19,1.24,1.93,2.87,3.37,3.9.18.13.26.39.39.59-.03.54.28.97.48,1.44Z"/>
      <path class="cls-15" d="M92.11,104.62c.08.74-.17,1.4-.52,2.02-.29.51-.37,1.01-.15,1.57.08.21-.05.47-.32.48-.29.01-.44-.27-.4-.48.17-.96-.75-1.56-.79-2.35-.04-.74.71-1.38.72-2.2,0-.31,0-.63.01-.94.7.5.41,1.25.48,1.9.02.2-.08.53.25.51.18,0,.34-.25.52-.38.06-.05.13-.08.19-.13Z"/>
      <path class="cls-43" d="M59.98,144.46c.51.3.61.88.92,1.32.22.31.44.64.73.88.34.29,1.08.2,1.1.72.04.91.61,1.75.3,2.68-.02.06-.11.11-.17.16-.09-.02-.19-.04-.28-.05-.18-.08-.34-.17-.5-.28-.08-.05-.16-.11-.24-.17-.27-.26-.66-.46-.42-.95.4-.05.9-.12.48-.67-.43-.56-1-1.02-1.49-1.55-1.23-1.33-2.01-2.84-1.88-4.73.04-.55,0-1.11,0-1.67,0-.24.05-.52-.05-.71-.68-1.19-1.69-2.24-1.59-3.77,0-.06-.09-.12-.14-.18-.4-.47-1.44-.47-1.33-1.19.13-.9.63-1.75,1.01-2.6.12-.28.42-.48.58-.74,1-1.71.43-3.39-.15-5.05-.13-.39-.53-.59-.95-.62-.71-.04-1.43-.03-2.15-.06-1.18-.05-1.75-.51-1.88-1.69-.1-.87-.04-1.75-.05-2.62.98.62,1.97.62,2.92-.02.71-.48,1.39-.35,1.99.11.79.6,1.62.95,2.63.97.34,0,.54.35.39.7-.21.52-.37,1.09-.72,1.5-.9,1.06-.58,2.21-.41,3.37.02.12.17.25.3.32.25.14.5.02.63-.17.67-1,1.49-1.83,2.41-2.62.48-.41.61-1.25.87-1.91.09-.22.19-.48.44-.39.19.07.37.31.43.51.1.38.09.79.16,1.18.07.45.37.76.8.72,1.07-.1,1.81.52,2.56,1.11.53.42.56,1.29.04,1.68-.62.46-1.18,1.15-2.06,1.09-1.03-.07-1.35.57-1.6,1.39-.52,1.69-1.17,3.3-2.53,4.53-.23.2-.52.53-.5.78.11,1.31-.86,2.19-1.2,3.3-.56,1.83-.89,3.74.6,5.38Z"/>
      <path class="cls-11" d="M65.25,167.5c-.16,0-.32,0-.48,0,0-.4,0-.8.03-1.2.03-.38-.55-1.42-.95-1.64-1.02-.57-1.01-.56-1.53.38-.5.9-1.07,1.76-.93,2.88.06.53-.33.85-.66,1.21-.9.97-1.42,2.09-1.24,3.46.05.38,0,.8-.1,1.18-.05.2-.25.42-.44.5-.24.1-.39-.12-.52-.33-.25-.42-.42-.88-.36-1.37.14-1.04-.36-1.84-.93-2.62-.33-.45-.6-.94-.95-1.38-.84-1.05-1.1-2.22-1.04-3.56.04-.94.2-1.69,1.03-2.25.31-.21.48-.62.68-.97.52-.93,1.58-.94,2.4-1.32-.66-1.38-.59-1.39-.74-2.78-.22-2.03-.37-4.09-1.45-5.92-.23-.4-.52-.56-.93-.61.14-.59.96-.86.75-1.6-.08-.28-.61-.49-.36-.76.51-.56.25-1.3.61-1.86.06-.09.29-.07.44-.1h0c.25.3.7.2.96.48h0c.15.17.33.31.48.48.16,0,.32,0,.48,0h0c.96.64,1.63,1.72,2.87,1.93h0c.16.15.31.33.48.48,0,0,0,0,0,0,.32.48.64.96.96,1.44,0,.31,0,.62.02.93.03.52.23.89.8.96.23.03.46.04.69.06.33.02.66.14.64.5-.02.36-.41.4-.71.45-1.31.16-2.38-.1-2.78-1.56-.08-.31-.2-.62-.46-.81-.89-.66-2.02-1.74-2.92-.99-.98.82.22,1.91.87,2.53,1.58,1.5,2.78,3.85,5.63,3.09,1.5-.42,2.71-.56,1.71,1.65-.37.82.07,1.71-.08,2.57-.58,2.19-.43,4.61-1.98,6.5Z"/>
      <path class="cls-60" d="M53.24,163.19c-.03.2.01.45-.27.48-.05,0-.17-.25-.16-.38.02-.21.11-.42.17-.63.26.09.24.32.26.54Z"/>
      <path class="cls-73" d="M62.37,149.75c-1.59.31-2.21-.84-2.87-1.92.85-.09,1.25.7,1.92.96.32.32.64.64.96.96Z"/>
      <path class="cls-10" d="M58.54,147.34c-.39,0-.75-.09-.96-.48.4,0,.75.09.96.48Z"/>
      <path class="cls-10" d="M59.02,147.82c-.16-.16-.32-.32-.48-.48.16.16.32.32.48.48Z"/>
      <path class="cls-100" d="M91.16,10.06c.21-.39.56-.47.96-.48-.21.39-.56.47-.96.48Z"/>
      <path class="cls-48" d="M80.63,33.7c.04.06.08.12.12.18-.13.06-.26.12-.4.16-.26.08-.31,0-.1-.17.1-.09.26-.12.39-.17Z"/>
      <path class="cls-11" d="M64.77,170.38c-.16.16-.32.32-.48.48.16-.16.32-.32.48-.48Z"/>
      <path class="cls-15" d="M87.8,108.94c-.33-.16-.32-.32,0-.48,0,.16,0,.32,0,.48Z"/>
      <path class="cls-101" d="M77.25,162.7c-.53.03-.88.28-1,.83-.11.47-.5.56-.91.61-.12-.11-.3-.25-.26-.37,1.03-3.8-.58-7.57-.11-11.4.21-1.69-1.75-2.2-2.98-2.88-1.2-.67-.83.75-1.23,1.16-.34.34-.61.74-1.18.54.02-1.35-.16-2.72.46-3.99.17-.35.27-.79.54-1.04.79-.72.89-1.6.95-2.59.1-1.48,1.49-2.74,3.02-2.87.42-.04.81.15,1.01.52.95,1.74,2.56,2.97,3.52,4.72.59,1.08,1.64,1.91,2.49,2.86.05.47.11.95.15,1.42.02.32-.37.57-.65.41-1.13-.65-2.04-1.5-2.5-2.76-.04-.11-.23-.24-.35-.24-.12,0-.33.13-.36.23-.53,2.15-1.04,4.31-1.53,6.47-.05.21.03.47.1.68.02.06.35.11.37.07.27-.47.48-.99.77-1.45.1-.16.39-.26.6-.27.29-.03.4.24.43.47.1.71.14,1.43-.16,2.12-.13.31-.21.68,0,.91.78.8.53,1.58.05,2.38-.35.58-.25,1.24-.36,1.86-.12.63-.36,1.22-.91,1.63Z"/>
      <path class="cls-98" d="M69.57,151.18c.54-.26.89-.65.94-1.27.03-.47.04-.95.09-1.42.04-.33.44-.51.71-.31.75.55,1.34,1.33,2.4,1.37.22,0,.48.39.63.65.28.49.57,1.02,1.11,1.19.57.18.92.27.31.83-.64.58-.53,1.34-.3,1.99.31.87.4,1.66.02,2.52-.27.61-.13,1.24.18,1.83.81,1.51.96,2.97-.16,4.44-.21.27-.12.76-.17,1.15,0,0,0,0,0,0-.88.13-1.05-.57-1.34-1.13-.54-1.74,0-3.45.17-5.16-.1-1.99-1.88-2.61-3.07-3.67-.56-.5-.93.3-1.31.65-.9.84-1.79,1.66-3.08.66.36-.68.59-1.48,1.69-1.27.42.08.6-.43.68-.82.16-.74-.25-1.62.52-2.21Z"/>
      <path class="cls-90" d="M65.73,157.42c-.19.14-.36.34-.56.39-.21.05-.48,0-.69-.08-3.03-1.15-5.25-3.15-6.46-6.21-.18-.46-.05-.73.36-.96.68-.38,1.37-.46,2.05-.1.63.33,1.19.84,1.85,1.07.76.26,1.05.54.76,1.37-.19.54.25.89.72,1.06.5.18,1.14,0,1.5.58h0c-.75.67-1.68.74-2.24.75-.68.11-.27.55-.4.26-.05-.12-.01-.19.13-.2.69-.06,1.39-.29,2.04.15.32,0,.64,0,.96,0-.2,1.5-1.4.66-2.13.91-.32-.04,0,.39-.06.07-.02-.1.05-.11.21-.1.81.05,1.5.34,1.98,1.03Z"/>
      <path class="cls-19" d="M65.73,157.42c-.95-.09-1.69-.6-2.58-1.12.86-.65,1.98.1,2.58-.79.32,0,.63-.01.95-.02,1.66.19,2.7-.6,3.37-2.07.33-.74.8-.82,1.17-.23.44.7,1.04,1.15,1.66,1.65.84.68,1.87,1.3,1.96,2.57-1.5.97-2.51-.42-3.7-.82-1.11-.38-1.99-.63-2.51.73-.15.39-.35.76-.56,1.12-.14.28-.25.56-.32.86-.1.53-.13,1.08-.49,1.51-.21.13-.4.11-.58-.05-.04-.55,0-1.12-.14-1.65-.15-.56.09-.9.41-1.27.19-.22.55-.49.22-.76-.19-.16-.6-.14-.89-.09-.2.04-.37.26-.55.4Z"/>
      <path class="cls-11" d="M64.78,155.5h-2.34c.28-.76.86-.38,1.27-.52.51-.18,1.03-.29,1.55-.44-.16.32-.32.64-.48.96Z"/>
      <path class="cls-104" d="M62.86,56.62c-.38-.22-.43-.64-.61-.99-.12-.23-.37-.34-.59-.23-.2.1-.4.29-.48.49-.08.2-.08.49,0,.69.36.85.21,1.73.24,2.6.03.96.04,1.88-.81,2.62-.47.41-.55,1.1-.65,1.76-.19,1.24-.31,2.53-1.1,3.6-.25.34-.31.72-.21,1.13.07.31.3.69.2.91-.66,1.4.23,1.8,1.28,2.17.51.18.65.53.57,1.12-.22,1.52.69,3.13,2.01,3.67.64.26,1.21.06,1.8-.29.94-.55,1.37-.45,1.62.44.41,1.47,1.24,2.56,2.48,3.39.19.13.33.33.49.51q1.12,1.22,2.87,1.41v3.31c-.58.3-1.15.6-1.72-.04-.32-.36-.69-.66-1.01-1.02-.82-.9-1.78-1.54-2.97-1.9-1.06-.32-2.09-.76-2.74-1.78-.15-.24-.52-.47-.78-.47-1.05,0-1.76-.71-2.54-1.21-1.14-.72-1.87-1.69-1.67-3.17.21-1.5-.21-2.83-1.21-3.98-.15-.17-.22-.42-.34-.63-.42-.7-.43-1.36.2-1.95.62-.58.99-1.24.89-2.11.26-.21.42-.45.46-.8.05-.47-.02-1.07.24-1.38.67-.8.45-1.55.33-2.44-.14-1.03-.32-1.84-1.35-2.32-.46-.21-.61-.7-.62-1.22-.02-.83.42-1.35,1.31-1.2.78.13.92-.16,1.1-.81.3-1.07.74-2.09,1.16-3.12.08-.19.34-.37.54-.42.35-.08.56.18.74.47.59.97,1.03,1.98.89,3.16Z"/>
      <path class="cls-93" d="M86.85,101.74c-.16,0-.32,0-.48.01-.68-.05-1.27.06-1.58.78-.52,1.19-1.47,2.07-2.25,3.06-.16,0-.32,0-.48,0,.72-1.14,1.02-2.47,1.75-3.63.82-1.3,1.56-1.37,2.72-.56.13.09.22.23.32.35Z"/>
      <path class="cls-85" d="M64.29,58.06c.39.2.47.56.48.96-.39-.2-.47-.56-.48-.96Z"/>
      <path class="cls-41" d="M66.69,160.78c.16,0,.32,0,.48,0,1.63.05,2.96,1.33,3.21,3.16.08.62.06,1.25.04,1.88-.02.62-.58,1.14-.29,1.82.59.23.94-.51,1.5-.38.37.07.55.31.63.66.02.21,0,.43-.05.63-.16.49-.29,1-.73,1.35.04.85-.13,1.6-1.03,1.94-1.42.52-2.69,1.29-3.92,2.15-.61.43-1.26.03-1.27-.78-.03-1.9-.02-3.8-.02-5.7l1.44-6.72Z"/>
      <path class="cls-39" d="M71.49,169.9c.01-.53-.09-1.09.48-1.43h0c0-.32,0-.64,0-.96.26-1.41.78-2.1,2.04-.84.18-1.02-.2-2.15.12-3.25.08-.08.15-.16.23-.24.32.32.63.64.95.97.04,1.93-.35,3.75-1.29,5.44-.23.41-.49.81-.79,1.17-.51.61-.84.51-1.32-.31-.12-.2-.29-.36-.43-.54Z"/>
      <path class="cls-101" d="M76.28,166.06c-.16.16-.32.32-.47.48.16-.16.32-.32.47-.48Z"/>
      <path class="cls-63" d="M44.11,42.96c-.07.12-.14.23-.22.35-.06-.12-.18-.25-.17-.37,0-.12.13-.23.2-.35.06.12.12.25.19.37Z"/>
      <path class="cls-95" d="M70.53,64.55c-.03.19-.03.43-.1.64-.04.12-.19.23-.32.3-.25.13-.45-.04-.62-.2-.31-.29-.38-.67-.35-1.07.03-.45.24-.76.7-.76.32,0,.57.22.63.58.02.15.04.31.06.51Z"/>
      <path class="cls-65" d="M81.68,93.13c-.13.03-.26.06-.39.1.02-.13.03-.27.08-.39.02-.04.14-.07.21-.06.21.05.24.18.1.35Z"/>
      <path class="cls-73" d="M62.85,150.22c-.16-.16-.32-.32-.48-.48.16.16.32.32.48.48Z"/>
      <path class="cls-39" d="M68.13,157.43c-.18-1.22.72-1.65,1.56-2.08.14-.07.43.1.63.2,1.2.59,2.38,1.22,3.58,1.79.27.13.62.06.94.09-.01.39.08.81-.05,1.16-.56,1.5-.42,3.05-.43,4.6,0,0-.01,0-.01,0-.08.01-.22.05-.22.04-.98-3-3.87-4-6-5.79Z"/>
      <path class="cls-59" d="M68.13,157.43c1.46.71,3.1,1.04,4.34,2.18.82.76,1.58,1.53,1.45,2.79-.04.34.19.58.44.78,0,.08-.01.16,0,.24.34,1.39.51,2.76-.19,4.1-.64-.11-.5-.95-1.07-1.15-.65.1-.6.92-1.14,1.13-.4.05-.78.15-.92.59-.19.63-.57.96-1.22.65-.6-.29-.85-.98-.65-1.6.05-.15.1-.33.21-.41.7-.53.66-1.15.36-1.89-.1-.24.11-.6.12-.91.01-.22.02-.51-.09-.67-.55-.76-1.11-1.51-1.74-2.21-.18-.2-.57-.19-.87-.28,0-.64,0-1.28,0-1.92.17-.15.3-.34.47-.49.16-.32.32-.64.48-.95Z"/>
      <path class="cls-41" d="M67.65,158.38c-.16.16-.31.32-.47.49.16-.16.31-.32.47-.49Z"/>
      <path class="cls-22" d="M71.97,168.47c.11.09.25.17.33.29.11.16.04.3-.15.32-.03,0-.11-.11-.12-.17-.03-.14-.04-.29-.05-.44,0,0,0,0,0,0Z"/>
      <path class="cls-84" d="M69.73,159.84c.64-.07,1.21.14,1.68.63.39.4.8.77,1.18,1.18.98,1.06,1.08,1.9.41,3.25-.31.62-.97.68-1.28.06-.61-1.22-1.38-2.31-2.36-3.27-.16-.16-.23-.41-.35-.62-.42-.8-.18-1.25.71-1.24Z"/>
    </g>
  </g>
</svg>