<?xml version="1.0" encoding="UTF-8"?>
<svg id="Layer_2" data-name="Layer 2" xmlns="http://www.w3.org/2000/svg" viewBox="0 0 77.57 251.13">
  <defs>
    <style>
      .cls-1 {
        fill: #c32470;
      }

      .cls-1, .cls-2, .cls-3, .cls-4, .cls-5, .cls-6, .cls-7, .cls-8, .cls-9, .cls-10, .cls-11, .cls-12, .cls-13, .cls-14, .cls-15, .cls-16, .cls-17, .cls-18, .cls-19, .cls-20, .cls-21, .cls-22, .cls-23, .cls-24, .cls-25, .cls-26, .cls-27, .cls-28, .cls-29, .cls-30, .cls-31, .cls-32, .cls-33, .cls-34, .cls-35, .cls-36, .cls-37, .cls-38, .cls-39, .cls-40, .cls-41, .cls-42, .cls-43, .cls-44, .cls-45, .cls-46, .cls-47, .cls-48, .cls-49, .cls-50, .cls-51, .cls-52, .cls-53, .cls-54, .cls-55, .cls-56, .cls-57, .cls-58, .cls-59, .cls-60, .cls-61, .cls-62, .cls-63, .cls-64, .cls-65, .cls-66, .cls-67, .cls-68, .cls-69, .cls-70, .cls-71, .cls-72, .cls-73, .cls-74, .cls-75 {
        stroke-width: 0px;
      }

      .cls-2 {
        fill: #ce638c;
      }

      .cls-3 {
        fill: #bc015f;
      }

      .cls-4 {
        fill: #cf5e8e;
      }

      .cls-5 {
        fill: #d7538d;
      }

      .cls-6 {
        fill: #c31868;
      }

      .cls-7 {
        fill: #d14c86;
      }

      .cls-8 {
        fill: #aa266b;
      }

      .cls-9 {
        fill: #ca5d98;
      }

      .cls-10 {
        fill: #d23f7e;
      }

      .cls-11 {
        fill: #ba3978;
      }

      .cls-12 {
        fill: #d56199;
      }

      .cls-13 {
        fill: #bf2571;
      }

      .cls-14 {
        fill: #a71c65;
      }

      .cls-15 {
        fill: #bb4e80;
      }

      .cls-16 {
        fill: #be156b;
      }

      .cls-17 {
        fill: #d35b93;
      }

      .cls-18 {
        fill: #ce668f;
      }

      .cls-19 {
        fill: #bb0863;
      }

      .cls-20 {
        fill: #cd5388;
      }

      .cls-21 {
        fill: #d96aa2;
      }

      .cls-22 {
        fill: #c25d91;
      }

      .cls-23 {
        fill: #c65c8c;
      }

      .cls-24 {
        fill: #ce649e;
      }

      .cls-25 {
        fill: #c96993;
      }

      .cls-26 {
        fill: #ce6eac;
      }

      .cls-27 {
        fill: #bf4b81;
      }

      .cls-28 {
        fill: #d83173;
      }

      .cls-29 {
        fill: #cc5e89;
      }

      .cls-30 {
        fill: #c00354;
      }

      .cls-31 {
        fill: #ca6494;
      }

      .cls-32 {
        fill: #c45a8d;
      }

      .cls-33 {
        fill: #ce6293;
      }

      .cls-34 {
        fill: #c20b69;
      }

      .cls-35 {
        fill: #c75885;
      }

      .cls-36 {
        fill: #be1164;
      }

      .cls-37 {
        fill: #c50160;
      }

      .cls-38 {
        fill: #bb487b;
      }

      .cls-39 {
        fill: #ab2b6e;
      }

      .cls-40 {
        fill: #c65286;
      }

      .cls-41 {
        fill: #c3146d;
      }

      .cls-42 {
        fill: #c85e92;
      }

      .cls-43 {
        fill: #c6568b;
      }

      .cls-44 {
        fill: #ca6297;
      }

      .cls-45 {
        fill: #d7397a;
      }

      .cls-46 {
        fill: #b7015b;
      }

      .cls-47 {
        fill: #ba568b;
      }

      .cls-48 {
        fill: #b43676;
      }

      .cls-49 {
        fill: #d0658f;
      }

      .cls-50 {
        fill: #ad3072;
      }

      .cls-51 {
        fill: #ae236d;
      }

      .cls-52 {
        fill: #d4236d;
      }

      .cls-53 {
        fill: #c95990;
      }

      .cls-54 {
        fill: #d36994;
      }

      .cls-55 {
        fill: #bb2e6f;
      }

      .cls-56 {
        fill: #c25589;
      }

      .cls-57 {
        fill: #d15f8d;
      }

      .cls-58 {
        fill: #cd3980;
      }

      .cls-59 {
        fill: #b53c7b;
      }

      .cls-60 {
        fill: #d05485;
      }

      .cls-61 {
        fill: #d35f9c;
      }

      .cls-62 {
        fill: #d0538c;
      }

      .cls-63 {
        fill: #c86396;
      }

      .cls-64 {
        fill: #c94881;
      }

      .cls-65 {
        fill: #c72f78;
      }

      .cls-66 {
        fill: #c04f80;
      }

      .cls-67 {
        fill: #d64884;
      }

      .cls-68 {
        fill: #d576b2;
      }

      .cls-69 {
        fill: #c8015c;
      }

      .cls-70 {
        fill: #c8598a;
      }

      .cls-71 {
        fill: #c94181;
      }

      .cls-72 {
        fill: #d86ba6;
      }

      .cls-73 {
        fill: #d84683;
      }

      .cls-74 {
        fill: #d25291;
      }

      .cls-75 {
        fill: #ce0562;
      }
    </style>
  </defs>
  <g id="Layer_1-2" data-name="Layer 1">
    <g>
      <path class="cls-24" d="M21.62,237.75c-.16.44-.29.91-.5,1.33-1.74,3.5-3.55,6.96-5.2,10.5-.57,1.22-1.31,1.57-2.59,1.54-3.83-.08-7.65-.04-11.48-.03-1.89,0-2.33-.03-1.22-2.15.41-.78.79-1.57,1.18-2.35,1.17-2.36,2.33-4.72,3.52-7.07.25-.49.58-.94.87-1.41,2.75.97,5.07-.27,7.41-1.44,1.41-.71,2.84-2.06,4.01.45.37.8,1.26,0,1.88-.18.95-.28,1.88-.75,2.12.79Z"/>
      <path class="cls-53" d="M26.94,227.14c-.04.38-.14.74-.49.97-.89,1.23-2.06,1.93-3.61,1.85-1.32-.07-2.48.44-3.58,1.08-2.89,1.68-5.88,1.65-8.93.57-.53-.19-.63-.66-.29-1.16.13-.37.23-.75.4-1.1,1.65-3.33,3.3-6.65,4.97-9.96.24-.49.58-.92.88-1.38.56-.49,1.27-.97,1.88-.37.67.67-.11,1.27-.45,1.86-.78,1.34-.39,2.13,1.16,2,2.05-.18,3.73-1.02,4.8-3.01,1.31-2.44,3.24-4.39,5.45-6.07,3.11-.78,3.64-.63,4.51,1.32h0c-2.55,1.69-3.79,4.55-5.9,6.65-.38.38-.83.93-.6,1.49.79,1.86-.42,2.52-1.79,2.88-1.46.38-1.83,1.35-1.94,2.73,1.16-.56,2.32-1.05,3.55-.33Z"/>
      <path class="cls-32" d="M43.22,194.57c-.13.37-.22.75-.39,1.1-1.72,3.45-3.45,6.9-5.18,10.35-.17.34-.43.65-.64.97-.39.22-.32.68-.52.99l.02-.02c-2.15,1.25-1.17-.45-1.31-1.13-1.51,1.05.83,1.98.33,3.07l.02-.03c-.37.23-.29.68-.5.99l.02-.03c-.37.23-.29.68-.5.99h.02c-1.08.55-1.41-.3-1.77-.99-.36-.69-.32-1.58-1.08-2.06-.16-.17-.28-.36-.35-.58.52-1.83,1.63-3.49,1.09-5.62-.21-.83.77-1.68,1.37-2.42.67-.81,1.15-1.7,1.39-2.91-.59.41-.92.93-1.4,1.26-.89.6-1.49.44-1.72-.64-.22-1.01-.55-1.99-.83-2.98-.68-3.13.61-5.3,3.31-6.78.21-.24-.06.06.16-.18,2.58-2.94,2.72-2.91,4.38.88.53,1.67-1.46,2.17-1.54,3.6.26-1.68,1.83-1.95,2.88-2.75.69-.52,1.31.3,1.29.9-.07,1.59.86,2.73,1.49,4.02Z"/>
      <path class="cls-54" d="M38.83,172.88c.19-.52.34-1.05.58-1.54,3.57-7.17,7.16-14.34,10.75-21.51.17-.35.43-.65.65-.98.16.03.3.1.44.17.24.07.49.06.74.02.2-.03.39-.04.59-.04,2.88.62,3.92,2.99,2.53,5.57-.95,1.77.63,2.87,1.33,4.14.32.58,1.11.89.81,1.76-1.44,1.57-2.63,3.62-5.39,2.54-.14-.06-.75,1.32-1.72,1.25-3.1-.22-5.07,1.74-7.14,3.69.82.18,1.82-.02,2.2.86.39.91-.39,1.49-.99,1.98-.78.64-.68,1.82-1.56,2.37-1.31.45-2.59.43-3.81-.28Z"/>
      <path class="cls-2" d="M69.64,141.72c-1.24,2.98-2.66,5.86-4.32,8.63-.4.21-.33.68-.54.99l.02-.03c-.37.23-.29.69-.5.99l.02-.03c-.37.23-.29.69-.5.99l.02-.03c-.37.23-.29.69-.5.99l.02-.03c-.29.21-.52.71-.96.4-.63-.45-.48-1.14-.23-1.7.73-1.62.82-3.14-.45-4.55-1.71-2.29-1.47-5.15-2.23-7.72-.22-.74-.32-1.78.47-2.17.98-.48,1.07.88,1.76,1.25,1.99-1.89-1.05-3.46-.36-5.24.05-.88.51-1.55,1.13-2.13,2.14-.9,2.62-.62,2.29,1.57-.17,1.12.09,2.12.18,3.68.67-1.6-.2-2.72.16-3.74.97-2.78.49-5.95,2.31-8.52.8-1.13,2.03-1.68,3-2.57.64.08.84.62.64,1.03-.86,1.77.04,3.17.85,4.59.59,1.05.44,2.05-.38,2.83-.62.6-.85,1.14-.88,2.03-.04,1.3-.78.83-1.37.29-.05-.01.02-.16-.12-.13.1.3-.08-.09.01.23-.67,2.74-.52,5.43.43,8.07Z"/>
      <path class="cls-42" d="M31.64,194.96c.83,1,.98,2.24,1,3.76,1.36-.9,2.14-1.86,2.75-2.89.57-.02.59.36.54.64-.2,1.41-.43,2.81-1.53,3.89-.5.49-.89,1.12-1.27,1.72-.33.54-.65,1.12.07,1.67.34.26.34.7.18,1.09-.32.8-.44,1.7-1.19,2.29-.39.31-.55.77-.62,1.36-.17.33-.19.79-.18,1.33.13-.52-.05-1.01.18-1.33.81-.11,1.49-.01,1.48.99,0,.56.13,1.07.4,1.57.25.46.62.67,1.11.75-.1.75-.41,1.39-.95,1.92-.81-1.13-1.92-1.4-3.23-1.12-.38.08-.77.08-1.15.12-.5-.29-.79-.79-1.09-1.25-.72-1.09-1.38-1.41-2.37-.2-.98,1.2-2.4,1.4-3.68.64-1.32-.78-1.62-2.09-1.02-3.54.11-.74.42-1.37.94-1.9,1.72-3.47,4.55-5.92,7.57-8.17,1.17-.87.74-2.62,2.05-3.34Z"/>
      <path class="cls-18" d="M70.5,122.96c-.48.29-.42.81-.55,1.26-.06.2-.23.43-.41.52-1.57.84-2.16,1.49-2.73,2.65-.41.83-.35,1.4.31,2.09.64.67.51.97-.3,1.41-.99.54-1.61,1.61-1.31,2.65.24.84.05,1.75.49,2.56.13.25.14.65.04.91-.23.56-.31,1.28-1.06,1.46-.38.09-.67-.58-.71-1.56-.04-.86.12-1.74-.3-2.58-.19-.38.18-.42.42-.62.53-.43.02-.99-.04-1.49,0-.06-.3-.15-.42-.11-.38.11-.73.28-1.1.43-.81-.28-1.08-1-.96-1.69.23-1.38-.08-2.73,0-4.09h0c.33-.24.23-.7.48-.99-.44-1.44-1.24-2.71-1.91-4.04-.35-.7-.84-1.34-.92-2.15.17-.16.37-.24.6-.26.91-.07,1.71.27,2.51.64.43.2.92.37,1.34-.01.44-.4.16-.85.02-1.31-.51-1.63.58-4.91,1.89-5.99.58-.47,1.01-.35,1.41.16.46.58.5,1.33.76,1.99.3.72.44,1.72,1.61,1.05,1.17-.67,1.56-.08,1.79.98.47,2.16.43,4.23-.91,6.11Z"/>
      <path class="cls-9" d="M10.04,230.45q.4.95,1.07.63c1.15-.56,1.19-.58,1.77.48.23.42.4.6.89.47,1.9-.49,3.95-.46,5.61-1.8.59-.48,1.45-.63,2.19-.92.15-.06.33-.15.45-.1,1.74.67,3.04-.35,4.43-1.09-.82,2.17-1.89,4.22-3.05,6.23-.13.17-.25.34-.36.52l.03-.04c-.37.22-.29.68-.51.99l.02-.03c-.37.23-.29.68-.5.99l.02-.03c-.37.23-.29.68-.5.99,0,0,.02.02.02.02-.48-.23-.65-1.1-1.56-.4-.71.55-1.76.65-2.66.96-.34.12-.63.03-.83-.25-.22-.32,0-.57.15-.85.33-.63.2-.9-.36-.94-.65-.05-1.27,0-1.78.48-1.32,1.24-3.12,1.47-4.7,2.17-.96.43-2.04.26-3.06.12-.45-.06-.56-.51-.63-.91,1.06-2.67,2.35-5.23,3.84-7.68Z"/>
      <path class="cls-57" d="M42.68,172.88c.03-.07.08-.15.08-.22-.03-1.18.3-2.12,1.5-2.62.26-.11.44-.45.6-.72.06-.1.02-.4-.05-.43-.49-.18-.99-.32-1.5-.44-.06-.01-.18.24-.28.36-.24.28-.48.75-.91.41-.27-.22.05-.59.18-.86.46-1,1.29-1.77,1.77-2.79.37-.8.85-.76,1.93-.11.41-.23.23-.71.44-1.03.48-.74,1.07-1.16,1.99-.92.31.08.61.21.92.22.55.01,1.14.16,1.62-.22.43-.34.28-.88.37-1.33.03-.15.09-.3.16-.44.03-.06.14-.13.2-.12.13.04.31.1.36.2.15.33-.07.77.38,1.04.49.3.95.34,1.21-.13.24-.44.41-.92.99-.86.97.08,1.4-.49,1.79-1.24.08-.15.43-.16.65-.23.53-3.19,1.56-4.42,3.77-4.46.77-.01,1.54,0,1.07,1.15l.02-.03c-.38.23-.29.68-.5.99l.02-.04c-.4.25-.3.73-.5,1.07-.51,1.69-1.44,3.18-2.23,4.74-.83,1.62-1.47,3.35-2.55,4.84-1.06-.31-1.96-1.02-3.12-1.12-1.02-.09-1.89-.03-2.57.84-.66.84-1.45,1.46-2.56,1.6-.61.08-.97.45-1,1.13-.12,2.67-2.06,4.13-4.67,3.53-.15-.04-.29-.12-.42-.21-.56-.97.41-1.12.84-1.55Z"/>
      <path class="cls-44" d="M21.08,208.38c0,.56.11,1.09.3,1.63.3.84.48,1.69,1.63,1.75,1.2.06,2.33-.08,2.74-1.36.23-.71.66-.79,1.2-.84.22-.02.59,0,.64.12.48,1.06,1.77,1.67,1.64,3.05-.88.77-1.88,1.42-2.16,2.72-.11.52-.65.93-1.22,1.06-.73.16-1.1.67-1.26,1.29-.19.72-.6,1.28-.96,1.9-.55.95-1.17,1.7-2.37,1.73-.15,0-.35.05-.44.15-1.11,1.13-2.34.64-3.56.28-.99-.29-1.34-1.46-.63-2.21.32-.35.75-.6,1.08-.93.16-.15.34-.45.29-.6-.14-.42-.49-.16-.77-.13-.32.03-.64.03-.95.05.05-.73.47-1.32.8-1.94,1.34-2.56,2.41-5.26,4-7.69Z"/>
      <path class="cls-30" d="M15.77,1.55c1.63,2.78,3.06,5.66,4.31,8.63-.82,2.47-2.39,3.41-5.58,3.36-1.94-.27-2.31-2.56-4.01-3.14-.81-1.33-3.25-1.66-2.45-3.99.2-.18.41-.13.63-.04,0-.15-.19-.18-.21-.33,0-.48.18-.9.39-1.32.25-.49.55-.95.82-1.43C11.35.3,12.41,0,15.77,1.55Z"/>
      <path class="cls-49" d="M61.91,157.09c-.07-.31-.11-.66-.49-.7-.22-.03-.46.1-.69.14-2.29.41-2.67.76-3.01,3.16-.07.51-.22.67-.66.71-.04-.41-.17-.76-.57-.98-.55-.31-1.1-.64-1.62-1-.5-.35-.43-.58.33-1.14-.08-.36-.44-.38-.68-.55-.99-.74-1.07-1.54-.22-2.33.17-.16.41-.25.61-.38.37-.25.52-.56.34-1.02-.23-.58-.49-1.1-.43-1.81.08-.96-.43-1.39-1.41-1.59-.54-.11-1.09-.16-1.64-.24-.12-.43.13-.66.45-.86,3.32-1.04,6.67-1.64,10.11-.58.05.23.02.57.15.67,1.54,1.04.96,2.38.53,3.68-.15.44-.4.85-.58,1.28-.23.59,0,.75.92.63-.25,1.09-.73,2.06-1.45,2.91Z"/>
      <path class="cls-70" d="M67.62,114.8c-.58-.35-.4-.99-.57-1.49-.07-.2-.25-.42-.43-.52-.26-.14-.43.08-.52.31-.56,1.39-1.66,2.51-2.04,4-.1.42-.2.82.25,1.02,1.06.48.39,1.4.56,2.11.03.11-.27.34-.45.46-.41.27-.88.43-1.35.19-.56-.28-1.11-.61-1.64-.94-.46-.28-1.13.39-1.48-.35-1.29-2.69-2.14-5.32-.42-8.27.66-1.13.94-2.68.48-4.12-.11-.75-.18-1.49.47-2.06,3.13.87,3.42,1.62,2.47,6.22,1.51-.42,2.97-.93,3.83-2.4.19-.13.4-.23.63-.29,2.06-.28,1.79,2.26,3.25,2.71.31.19.39.49.39.83.37,1.21-.07,2.15-1.3,2.09-.84-.04-1.31.87-2.12.5Z"/>
      <path class="cls-60" d="M41.72,174.32c.16-.02.35.02.47-.06.68-.46,1.21.3,1.77.23.67-.08.66-1.03,1.23-1.36.39-.23.78.03,1.15-.05.45-.1.74-.69.57-1.14-.4-1.05-.51-1.53-.39-1.87.03-.07.01-.16.03-.24.1-.44.35-.76.82-.55,1.28.58,2.09-.24,2.55-1.11.76-1.44,1.77-1.45,3.13-1.2,1.27.24,2.55.25,3.13,1.69-1.1,2.65-2.33,5.23-3.84,7.67-1.24.58-2.45.73-3.49-.39-.79-.86-1.64-.15-2.46-.11-.57.06-1.14.06-1.71.06-.95-.03-1.89-.09-2.7-.65-.19-.15-.32-.34-.39-.57.04-.11.09-.22.13-.33Z"/>
      <path class="cls-63" d="M31.64,194.96c.05.96-.97,1.66-.64,2.72.1.33-.21.59-.51.72-1.63.7-2.67,2.1-3.89,3.28-.46.44-.87,1.04-1.43,1.23-.88.3-1.19.9-1.48,1.66-.32.83-.82,1.54-1.68,1.91.2-.52.36-1.05.6-1.55,3.38-6.78,6.76-13.55,10.15-20.32.21-.42.5-.8.76-1.19,1.58.02,2.41,1.09,2.19,2.85-.09.71-.51,1.31-.73,1.98-.34.71-.71,1.25-1.56,1.58-1.59.61-1.64.96-1.55,2.87.04.75-.16,1.52-.25,2.27Z"/>
      <path class="cls-45" d="M30.7,62c-1.05-1.47-1.75-3.12-2.39-4.79,2.83-1.71,3.99-4.55,5.02-7.47.16-.45.28-.92.61-1.29.85-.55.92-1.41.99-2.31.09-1.23.46-2.35,1.61-3.02.34.21.44.54.45.91.59,2.17,1.08,4.33-.66,6.25-.48,3.05.66,6.06.21,9.12-.08.53.01,1.09-.16,1.63-.15.41-.43.72-.8.95-1.62.69-3.24,1.16-4.87.02Z"/>
      <path class="cls-46" d="M14.37,13.04c2.47.18,4.33-.87,5.71-2.87.13.05.17.13.11.26.02.28.2.48.37.68,1.31,2.54,2.65,5.07,3.93,7.63.53,1.06,1.21,2.06,1.48,3.24-.12,2.95-.23,3.03-2.61,2.02-1.34-.84-2.57-1.76-3.24-3.31-.46-1.08-1.45-1.61-2.62-1.79-.84-.13-1.7-.49-1.63-1.41.12-1.74-.73-3.06-1.5-4.45Z"/>
      <path class="cls-56" d="M41.72,174.8c.96.15,1.87.64,2.88.49.48,1.07.09,1.95-.59,2.77-.52.79-1.45,1.29-1.24,2.57.13.82-.97,1.08-1.55,1.54-.12.06-.24.12-.37.19.11.11.29.04.41.13.31.3.37.68.34,1.09-.03.22-.1.42-.18.62-.71,2.68-.52,2.91,2.15,3.03,1.07.05,1.76.9,2.55,1.51-.57,1.71-1.41,3.29-2.39,4.79-.39.22-.33.68-.53,1,0,0,.02.03.02.03-.28-.28-.57-.8-.85-.79-1.22.04-1.31-.7-1.08-1.53.21-.75.1-1.41-.17-2.08-.05-.12-.23-.25-.36-.25-.11,0-.3.17-.3.28-.02.51.03.9-.76.74-.69-.14-1.18.29-1.38,1.03-.17.59-.43,1.15-.66,1.75-1.34-1.06-1.35-1.07-.58-2.02.45-.55.91-1.1,1.4-1.63.37-.4.34-.87.36-1.34-.6-1.52-.56-3-.19-4.62.39-1.73-.04-3.58.01-5.39.03-1.25.35-2.13,1.09-2.99.38-.45.72-.96,1.33-1.14.25-.02.46.06.65.22Z"/>
      <path class="cls-29" d="M67.62,114.8c.68-.23.86-.9,1.24-1.39.15-.19.33-.28.59-.07.73.58.89.58,1.22,0,.19-.34.25-.74.37-1.12,1.13,1.72,1.99,3.58,2.77,5.48-.12,1.26-.43,2.49-.7,3.73-.13.62-.44,1.35-.1,1.87,2.03,3.1-.15,6.27.22,9.38.05.39-.11.87-.47,1.04-3.14,1.52-2.13,4.6-2.69,7.08,0,.37-.11.7-.43.91-1.32-.61-1.52-.93-1.25-2.06.07-.31.13-.62.26-.91.26-.63.09-1.05-.5-1.37-.27-.15-.54-.35-.71-.6-.2-.29-.14-.65.28-.69.4-.03.78.07.7-.57-.12-.9.29-1.69.65-2.48.46.1.68.67,1.26.6.12-.69-.47-1.14-.59-1.74-.07-.36.07-.71.44-.62,1,.23,1.2-.5,1.51-1.13.28-.56.21-1.02-.26-1.49-.81-.8-.64-2.1-1.43-2.94-.18-.19.15-.38.23-.57.28-.7.67-1.41.28-2.21.03-.84.7-1.59.29-2.51-.1-.22.06-.63.22-.87.45-.7.31-1.33-.06-1.98-.08-.13-.11-.29-.18-.44-.17-.37.42-1.01-.33-1.13-.43-.07-.51.53-.81.77-.71.57-1.24.42-1.69-.4-.27-.51-.33-1.04-.33-1.59Z"/>
      <path class="cls-1" d="M13.91,28.4c-.67-.86-1.15-1.81-1.43-2.87.94-.34,1.32.77,2.22.86.8-.98.06-2.97,1.77-3.29,1.14-.21,1.71,1,2.5,1.64.82.8,1.52,1.7,2.08,2.7,1.01,1.79,2.12,3.34,4.5,3.39,1.27.03,1.83,1.14,2.32,2.17.94,3.35.38,6.61-.59,9.85-.19.32-.45.56-.83.65-.24,0-.46-.05-.66-.19.18-3.08-1.89-5.78-1.45-8.95.18-1.26-3.48-3.51-4.9-3.2-1.66.36-3.26.55-4.57-.86v-.02c-.32-.24-.22-.68-.49-.93v-.02c-.31-.24-.22-.68-.48-.94Z"/>
      <path class="cls-62" d="M40.75,82.17c-.31-.25-.46-.57-.47-.97-.4-1.18-1.6-2.55.85-2.94.63-.1.76-.76.81-1.34.09-1.02.62-1.77,1.35-2.45,1.4-1.31.98-2.54-.27-3.67-1.11-1.02-2.38-1.86-3.33-3.05.34-.59-.32-.7-.51-1.04-.03-.5.23-.84.63-1.08.33-.12.67-.12,1,0q2.64,1.66,4.26-1.08c.2-.34.32-.74.83-.68.14.09.33.18.34.32.51,4.27,1.94,8.28,3.39,12.29-3.2,1.35-5.17,4.6-8.58,5.64-.11.02-.21.05-.32.07Z"/>
      <path class="cls-65" d="M14.88,30.31c.85.73,1.94.32,2.91.58.62.17,1.58,0,2.21-.65.41-.41.92-.37,1.26.06.69.87,1.87,1.24,2.31,2.35.3.77,1.15.38,1.65.74.19.14.39.25.27.56-.33.85-.61,2.77-.56,3.51.03.41.11.8.38,1.11,1.26,1.44,1.24,3.03.57,4.7-.24.47-.57.72-1.09.38-.66-.96-1.1-2.01-2.19-2.74-1.24-.83-1.4-2.45-1.57-3.87-.14-1.19-.56-2.14-1.66-2.9-.7.48.33,2.6-1.62,1.92v-.02c-.31-.24-.22-.68-.49-.93h0c-.29-.26-.2-.7-.47-.96h0c-.29-.26-.2-.7-.47-.96v-.02c-.31-.24-.2-.69-.48-.93-.46-.57-.87-1.17-.95-1.93Z"/>
      <path class="cls-64" d="M62.98,96.04c.44.53.81,1.09.87,1.8.6,1.79.31,3.27-1.43,4.31-.55.33-.84.94-1.24,1.43-.14.19-.28.37-.43.55-.3.36-.58.75-1.05.91-2.15-.54-2.65-1.36-2.19-3.86-.67,1.35-.34,2.72-.91,3.9-.98,2.05-2.43,2.5-3.82,1.09h0c0-.81-.55-1.33-.95-1.92v-.02c-.31-.24-.22-.68-.5-.93-.3-.25-.49-.55-.46-.96,1.36-.66,3-.61,4.23-1.61.24-.2.45-.42.64-.67.12-.17.26-.33.4-.48.76-.9,1.76-1.54,2.47-2.49.14-.17.31-.31.49-.44.58-.44,1.38.65,2-.4.27-.46,1.19-.72,1.88-.19Z"/>
      <path class="cls-66" d="M46.12,188.75c-.83-.07-1.79.2-2.14-.98-.08-.25-.41-.14-.59.02-.44.39-1,.46-1.53.59-.54.14-.89-.09-1.04-.66-.16-.61-.31-1.22-.45-1.83-.2-.87,0-1.57.87-1.97.69-.12,1.45,1.44,2.1-.11.06-.14.47-.14.65.04,2.04,2.03,2.04-.18,2.38-1.23.51-1.57.42-3.31,1.03-4.85.47-1.19-.98-1.52-.88-2.48.68.04,1.13-.47,1.62-.72.79.28.96,1.07,1.61,1.45.63.37,1.04.56,1.64.02.36-.33.72-.08.95.3.01.16-.04.3-.16.41-.12.18-.24.37-.34.56-.25,1.18-.93,2.18-1.46,3.23-1.4,2.74-2.58,5.61-4.25,8.21Z"/>
      <path class="cls-36" d="M27.33,33.2c-.15-.28-.31-.55-.43-.84-.32-.73-.87-1.1-1.67-1.07-.32.01-.63-.02-.95,0-.68.04-1.25-.18-1.7-.68-.84-.94-1.7-1.86-1.97-3.16,1.17-2.01,2.46-2.56,4.58-1.95,1.41.41.56-1.72,1.75-1.57,1.5,2.45,2.75,5.03,3.85,7.68-.04,1.77-.67,3.38-1.43,4.94-1.15.16-1.01-.72-1.04-1.37-.04-.83-.15-1.57-.98-1.98Z"/>
      <path class="cls-52" d="M24.93,43.76c.32-.16.64-.32.96-.48.16,0,.32,0,.48,0,1.12.64,2.05,1.36,2.19,2.82.11,1.14.73,1.14,1.85.87,2.17-.53,3.72-1.31,3.95-3.82.06-.68.46-1.52,1.22-1.95.26.14.36.37.38.65.3.24.18.69.45.95.11.08.15.18.13.31-.04.15-.03.34-.12.45-.97,1.25-1.02,2.7-.95,4.19,0,.15,0,.31-.02.46-.06.56-.25.67-.98.52-.15-.03-.29-.11-.43-.17-.61.66-.79,1.52-1.15,2.31-.44.97-1.23,1.62-2.24,2-1.46.53-1.56-.56-2.1-1.47-.38-.63-1.43-.84-1.65-1.81-.17-.75.03-1.6-.62-2.33-.72.5-.72,2.42-2.29,1.28v-.02c-.31-.23-.22-.68-.49-.93-.31-.24-.49-.56-.5-.95-.14-.12-.23-.26-.26-.44-.12-.32-.25-.65-.37-.97.38-.66,1.06-.92,1.67-1.29.19-.09.38-.15.58-.19.1,0,.2,0,.31,0Z"/>
      <path class="cls-10" d="M35.48,50c.25-.29.45-.65.76-.86.51-.35.68-.8.68-1.38,0-1.25.04-2.49.07-3.74.14.19.32.36.42.56,2.39,4.76,4.77,9.52,7.14,14.28.24.49.39,1.03.58,1.55.05.15.12.29.15.44.25,1.12.83,2.46-.4,3.19-1.28.76-2.33-.2-3.22-1.12-.16-.21-.28-.44-.37-.69.87-5.41-2.79-8.68-5.81-12.24Z"/>
      <path class="cls-22" d="M40.28,175.76c-.29.46-.54.97-.89,1.38-.31.36-.41.67-.06,1.01.48.46.5.97.19,1.49-.6,1.02-.89,1.97.04,3.01.38.42.37,1.11-.07,1.53-.67.63-.66,1.38-.65,2.17,0,.79,0,1.58,0,2.36-.31-.03-.8-.11-.75-.39.19-1.16-.52-1.68-1.43-2.32-.3,1.01-.73,1.83-1.65,2.23-.28-.51-.27-1.02.04-1.52.36-.57.46-1.12-.07-1.68-.13-.14-.21-.44-.15-.63.25-.85-.31-.6-.74-.63-.18,0-.35-.24-.53-.37,0,0,0,.01,0,.01.35-.24.22-.71.49-.99.58-1.7,1.36-3.3,2.39-4.77,1.13-.94,1.76-2.92,3.86-1.91Z"/>
      <path class="cls-35" d="M70.08,140.8c-.53-.38-.59-.92-.46-1.5.12-.54.54-1.05.28-1.61-.72-1.58.3-2.51,1.17-3.57.47-.57,1.65-.35,1.6-1.19-.05-.74.09-1.4.19-2.09.08-.55.06-1.12.04-1.68-.05-1.36-.05-2.7.91-3.83-.47-.4-.84-.7-1.19-1.01-.45-.41-.59-.84-.41-1.49.32-1.14.48-2.33.72-3.49.13-.63.36-1.22.89-1.65.95,1.52,1.76,3.11,2.4,4.79-1.52,2.56-.99,5.38-1,8.13-1.44,3.3-3.07,6.49-4.8,9.64-.13.16-.25.34-.36.52l.02.02Z"/>
      <path class="cls-12" d="M39.32,79.26c-1.14-1.83-2.15-3.73-2.87-5.77-.18-.17-.3-.41-.19-.62q1.19-2.24-1.18-3.24c-.45-.19-.78-.49-1.01-.91-.43-.59-.91-1.15-.96-1.92,1.45.25,2.94-.13,4.37.33.97,1.53,2.73,1.87,4.15,2.72,2.01,1.2,2.55,3.25,1.2,5.19-1.05,1.51-2.48,2.7-3.5,4.22Z"/>
      <path class="cls-28" d="M23.99,48.55c1.3-.22,1.29-.22,1.41-1.12.06-.45-.16-.94.22-1.34.52-.1.56.52.88.63.73.25.89.73.83,1.43-.07.87-.03,1.74.67,2.48.4-.15.83-.31,1.27-.48.23.8-.32,1.59.2,2.37,1.59.01,2.57-.85,3.12-2.3.28-.73.41-1.58,1.44-1.65.18.93-.65,1.78-.19,2.76.15.32-.25.52-.51.7-.97.66-1.54,1.58-1.68,2.72-.14,1.08-.72,1.72-1.73,1.98-.55.14-.86,1.08-1.62.48-1.59-2.81-3.1-5.66-4.32-8.66Z"/>
      <path class="cls-43" d="M26.94,227.14c-.45.09-.86.51-1.35.28-.73-.34-1.2-.1-1.57.55-.3.52-.84.29-1.28.35-.3.04-.54-.44-.36-.71s.4-.49.6-.73c.16-.19.25-.41.09-.63-.17-.25-.49-.45-.33-.82.17-.39.51-.57.9-.69.83-.27,1.66-.53,2.46-.87,1.12-.47,1.13-.63.27-1.59-.05-.06-.12-.1-.18-.16-.19-.2-.21-.47-.05-.65,1.02-1.2,1.74-2.67,3.05-3.6.66-.46,1.08-.87.68-1.73-.14-.3.16-.7.43-.76,1.07-.22,1.75-1.04,2.61-1.57.18-.11.46-.07.7-.1-.05.15-.1.31-.14.46-.14.19-.3.36-.35.61-1.31,2.72-2.57,5.47-3.95,8.16-.72,1.41-1.23,2.94-2.24,4.19Z"/>
      <path class="cls-69" d="M29.24,36.56c0-1.09-.06-2.16.74-3.09.44-.5.08-1.43.8-1.86,0,0,0,.03,0,.03-.03.29.21.42.35.6,1.49,2.57,2.84,5.21,3.95,7.97.26,1.7-.17,3.02-2.03,3.45-1.83.42-3.07-.42-3.94-1.96-.32-.57-.45-1.19-.51-1.83.02-1.14-.24-2.34.66-3.31Z"/>
      <path class="cls-48" d="M56.1,82.16c1.13,2.01,2.21,4.03,3.05,6.18-.63,1.12-.4,2.31-.34,3.5.03.6-.15,1.17-.77,1.33-.77.19-.85-.52-1.06-1.01-.52-1.24-.79-2.58-1.57-3.71-.81-.86-1.57-1.56-1-3.07.48-1.28-.55-2.24-2.14-2.88,2.34,1.62,1.1,3.65,1.24,5.43.01.15-.14.27-.22.41-.59,1.05-1.26-.96-1.69,0-.44.99-1.08,1.29-2.05,1.09-.32-.07-.57-.26-.8-.49-.66-1.39.38-2.17,1.11-3.05.21-.25.42-.51.58-.8.45-2.23.76-4.46-.21-6.64.12-.2.3-.33.53-.38,2.16.87,3.73,2.5,5.34,4.09Z"/>
      <path class="cls-4" d="M60.43,107.12c.11.11.25.21.31.35.43.96-.08,1.84-.26,2.75-.16.82.05,1.68-.71,2.4-.87.82-.9,1.92-.59,3.08.34,1.28.87,2.54.77,3.91-.15,0-.3,0-.46,0-2.01-3.8-4.12-7.55-5.77-11.52,1.27-1.39,3.39-.73,4.78-2.12.77-.77,1.12.97,1.92,1.16Z"/>
      <path class="cls-40" d="M60.43,103.76c.32-.54.67-1.07.96-1.64.15-.29.25-.66.59-.67,1.31-.03,1.43-1.09,1.7-1.96.16-.52.12-1.1.17-1.66,1.16,1.7,2,3.56,2.77,5.45-.25.41-.42.86-.74,1.22-1.11,1.28-.99,2.42.39,3.43.38.28.72.63.87,1.1-.28.65-.83,1.12-1.05,1.83-.22.7-.79.93-1.49.59-.71-.35-1.01-.16-1.25.47-.11.29-.19.6-.34.87-.06.1-.28.18-.4.15-.1-.02-.22-.21-.23-.33-.02-.39-.08-.82.05-1.17.37-1.06.26-2.16.38-3.24.12-1.13.05-1.12-1.18-2.08-.3-.23-.48-.61-.72-.92-.35-.42.52-1.24-.48-1.44Z"/>
      <path class="cls-5" d="M37.4,67.28c-.31.02-.66-.05-.91.08-1.28.65-2.37.36-3.37-.56-.67-1.04-1.23-2.13-1.64-3.3.19-.27.49-.46.78-.37,1.61.49,2.54-.3,3.23-1.62.16-.16.32-.32.48-.48.97-1.13.16-2.45.36-3.66.08-.51-.3-1.18.54-1.29.69-.09.92.49,1.13,1.02.06.15.12.31.11.46-.07,1.83.79,2.98,2.53,3.53.46.14.75.58,1.08.92,0,.16,0,.32,0,.47-.15,1.33-1,.6-1.55.47-.85-.2-1.66-.46-2.46.24,1.17.92,2.64.76,3.8,1.42.43.24.88.65.65,1.11-.3.61-.89.5-1.4.12-.32,0-.64,0-.96,0-.27.26-.86.37-.48.96.2.12.88-.24.48.48-.8.73-1.6.59-2.4,0Z"/>
      <path class="cls-75" d="M29.24,39.92c-.15,1.15.57,1.93,1.25,2.66.55.59,1.34.87,2.15.6.86-.28,1.89-.39,2.04-1.62.06-.46.25-.9.38-1.35.37.23.46.59.51.98-.01.08-.02.16-.04.23-.48,1.65-1.15,3.23-1.5,4.92-.11.56-.53.74-1.05.76-1.24.05-2.13.31-3.17.91-.76.44-1.23.32-1.48-.45-.22-.67-.38-1.37-.53-2.06-.08-.37.07-.86-.39-1.02-.26-.09-.6.07-.91.07-.41,0-.55-.24-.43-.62.07-.22.18-.44.28-.66.16-.16.32-.32.48-.48,1-.79.62-2.73,2.4-2.88Z"/>
      <path class="cls-14" d="M50.83,85.52l-.48.48c-1.03.45-1.71.94-1.78,2.35-.11,2.13-1.86,3.17-3.5,2.45-.51-.55-.82-1.2-.96-1.93-.77-1.82.51-3.29.85-4.92.78-1.44,1.52-2.91,3.25-3.46,2.15.63,2.85,1.98,2.61,5.03Z"/>
      <path class="cls-37" d="M8.62,6.32c-.58.42-.54.93-.17,1.44.33.46.77.78,1.28,1.04.54.28.8.75.81,1.36-.16,1.83.44,3.84-1.29,5.29-1.32.36-1.85-.64-2.51-1.44-1.32-2.15-2.38-4.42-3.41-6.71,1.53-1.8,3.65-1.89,5.77-1.96-.16.33-.31.65-.47.98,0,0,0,0,0,0Z"/>
      <path class="cls-68" d="M49.41,76.86c-.06-.82-.58-1.46-.89-2.18-.6-1.38-1.37-2.71-1.74-4.14-.41-1.58-.75-3.22-.75-4.88,0-.62.11-1.28-.47-1.76-.4-.94-.35-1.88-.03-2.82.11.11.26.2.33.34,1.98,3.98,3.95,7.96,5.91,11.94.24.49.39,1.03.58,1.54-1.55.24-.91,1.86-1.66,2.61-.21.09-.43.12-.66.09-.22-.08-.4-.22-.53-.41-.03-.11-.06-.22-.09-.33Z"/>
      <path class="cls-58" d="M24.45,44.23c-.7.31-1.18,1.1-2.08,1-1.71-2.97-3.33-5.98-4.61-9.16.54-.06.95-.3.89-.89-.06-.54-.26-1.07-.36-1.61-.03-.13.04-.34.14-.42.09-.08.32-.1.43-.04,1.49.84,2.99,1.79,2.67,3.79-.2,1.24,1.15,1.93.85,3.15-.04.15.39.46.64.63q1.62,1.14,1.91,3.08s0,0,0,0c-.16.15-.32.31-.48.47Z"/>
      <path class="cls-50" d="M55.63,87.92c.24.2.66.37.69.6.16,1.42,1.38,2.48,1.28,3.98-.02.24.23.39.48.26.12-.07.26-.26.24-.38-.18-1-.38-1.99-.28-3.03.07-.7.51-.92,1.11-1.01.42.53.79,1.08.87,1.78.27,2.4.67,4.82-1.04,6.92h0c-1.03.9-2.04,1.87-3.48.68-.88-1.79-2.08-3.51-1.4-5.69.14-.18.3-.33.48-.46,1.09-1-.13-2.66,1.03-3.64Z"/>
      <path class="cls-47" d="M52.27,148.88c-.16.16-.32.32-.48.48h0c-.32.27-.63.28-.94-.02-.02-.16-.03-.33-.05-.49,0,0,0,.02,0,.02.36-.24.23-.71.48-1,.76-2.01,1.72-3.91,2.89-5.71.32-.24.23-.69.5-.96h0c.3-.24.21-.69.49-.95h0c.29-.29.56-.59.79-.92.16-.14.35-.2.56-.2.7-.1.82-.98,1.48-1.11.87-.17,1.66-.1,1.69,1.03.04,1.32.3,2.66-1,3.7-2.31,1.86-3.41,4.99-6.41,6.13Z"/>
      <path class="cls-19" d="M26.93,23.92c-.29.64-.75,1.24-.37,2.01.15.3.21.69-.13.81-.24.09-.59-.1-.88-.2-.55-.19-.88-.64-1.22-1.08-.24-.3-.63-.25-.75.1-.25.74-.66,1.03-1.43.79-.42-.13-.54.21-.63.5-.15.46-.52.55-.92.6-.64-.8-1.28-1.6-1.92-2.4-.89-1.42-2.14-2.41-3.68-3.05-1.35-.57-2.56-1.25-2.26-3.05.72-.66,1.4-.17,1.91.22,1.68,1.31,3.87,1.76,5.37,3.39.88.96,2.15,1.21,3.46,1.04.68-.11,1.08.59,1.69.59.27-.75.53-1.48.8-2.2.53.54.84,1.19.96,1.93Z"/>
      <path class="cls-25" d="M61.85,126.78c.05.39.14.76.53.97.72.39.68.81.28,1.49-.64,1.09-.39,2.23.16,3.32-.26.67-1.05,1.08-.96,1.92-.58.4-1.66.17-1.48,1.51.12.89-.56,1.75-1.52,1.76-1.27.01-1.83,1.05-2.75,1.53h0c-.17.17-.33.16-.49,0,.05-.23.06-.48.16-.69,1.87-3.76,3.74-7.51,5.63-11.26.1-.2.29-.36.44-.54Z"/>
      <path class="cls-74" d="M9.09,5.34c-1.67.76-3.37,1.42-5.24,1.54-.18.01-.35.27-.53.41-.37-.21-.46-.56-.48-.95-.11-.13-.16-.26-.14-.4.02-.14.05-.21.08-.21,1.61-.79,3.34-1.39,3.76-3.53.13-.67,1.24-.64,1.61-1.31.11-.18.26-.33.42-.46.46-.23,1.04.05,1.47-.32,1.35-.04,2.7-.06,4.05-.12,1.09-.05,1.6.5,1.67,1.54-1.1-.09-2.21.05-3.3-.24-.82-.22-1.07-.06-1.48.76-.57,1.13-1.1,2.28-1.89,3.28Z"/>
      <path class="cls-41" d="M15.33,21.68c1.67.57,2.79,1.69,3.36,3.36-.48-.4-.97-.8-1.45-1.21-.78-.67-1.15-.54-1.43.51-.14.53-.28,1.04-.09,1.62.16.48-.06.94-.5,1.23-.35.24-.78.32-1.09,0-.53-.57-.89-1.31-1.66-1.65-1.22-1.98-2.29-4.02-3.1-6.2.89-.53,1.65.07,2.03.61,1,1.41,2.36,1.73,3.91,1.75Z"/>
      <path class="cls-17" d="M37.4,67.28c.8,0,1.6,0,2.4,0,.04.07.08.14.11.21.34.84,1.45.58,1.87,1.35.35.64.92,1.06,1.55,1.43.4.23.78.58,1.02.97.95,1.49.77,2.56-.69,3.68-.83.63-1.27,1.24-1.1,2.38.18,1.21-.56,1.76-1.87,1.72-.71-.02-.77.05-.63.78.09.46.14.93.22,1.4-.54-.54-.83-1.2-.95-1.94-.06-.75.15-1.38.72-1.92.81-.76,1.57-1.56,2.35-2.35.48-.48.88-.94.22-1.59-.25-.25-.17-.57.06-.84.15-.18.31-.37.39-.58.21-.6-.06-1.22-.65-1.27-.83-.07-1.45-.39-2.09-.91-.53-.43-1.27-.59-1.94-.84-.8-.3-1.06-.89-.98-1.68Z"/>
      <path class="cls-7" d="M45.53,61.08c.01.94.02,1.88.03,2.82-.01.96.07,1.94-1.01,2.49-.26.13-.4.48-.59.73-.23.31-.28.81-.73.88-.57.09-.41-.69-.7-.77-.8-.24-1.45-.59-1.78-1.39.24-.01.48,0,.71-.05.13-.03.31-.15.34-.26.03-.1-.09-.34-.19-.37-.99-.27-1.98-.71-2.97-.7-.94,0-1-.63-1.28-1.12-.26-.46.13-1.21.64-1.28.95-.13,1.91-.2,2.7.55.35.33.72.24,1.01-.14.59.37,1.17.78,1.79,1.1,1.02.53,1.5.26,1.56-.82.04-.78.05-1.56.07-2.35.13.22.27.44.4.66Z"/>
      <path class="cls-8" d="M45.08,90.8c.65.03,1.4.46,1.78-.53.1-.27.4-.48.64-.69.81-.69,1.07-1.45.6-2.5-.28-.62.09-.99.84-1.05.47-.04.94-.02,1.42-.02-.24.32-.43.68-.72.94-.58.53-.79,1.17-.72,1.93.82.98.91,2.24.84,3.36-.12,1.98.19,3.91.35,5.86-.26.54-.62.79-1.18.38-1.5-2.45-2.72-5.04-3.84-7.68Z"/>
      <path class="cls-20" d="M60.43,103.76c.55.12.97-.52,1.65-.21-.4.57-.79,1.11-1.17,1.65-.71.5-.41,1.26-.48,1.92-.01.23,0,.47-.05.7-.03.13-.13.31-.24.35-.1.03-.32-.07-.37-.16-.14-.27-.22-.57-.31-.87-.34-1.08-.75-1.16-1.58-.33-.39.39-.79.75-.84,1.36-.03.32-.2.67-.57.58-.33-.08-.32-.49-.39-.79-.04-.15-.12-.28-.22-.49-.72.17-1.33.79-2.15.61-.53-.54-.85-1.17-.95-1.92.26.18.51.36.78.53.13.08.35.21.42.16.79-.6,1.84-.94,2.12-2.05.19-.76.33-1.54.54-2.29.16-.57.41-1.11.76-1.65.02,1.26.39,2.3,1.13,3.29.42.56.88.56,1.42.59.29-.26.21-.7.48-.96Z"/>
      <path class="cls-55" d="M48.92,98.48c.39,0,.75-.09.95-.48.65-.6,1.33-.35,2.02-.1.91.41,1.77.94,2.83.88.79-.04,1.36.24,1.4,1.14,0,.16,0,.32,0,.48-.18.14-.3.33-.47.48-1.39,1.16-2.92,1.85-4.77,1.44-.78-1.22-1.51-2.45-1.94-3.84Z"/>
      <path class="cls-34" d="M15.33,21.68c-.39.05-.8.03-1.16.16-1.37.51-1.44.57-2.05-.41-.67-1.08-1.67-1.61-2.74-2.1-1.06-1.68-2-3.43-2.65-5.32.79.48,1.58.96,2.36,1.43,1.85.47,3.04,1.69,3.84,3.36.07,1.56,1.16,2.28,2.4,2.88Z"/>
      <path class="cls-26" d="M50.34,77.37c.12-.19.36-.39.34-.57-.04-.46-.24-.91-.28-1.37-.06-.64.36-.96,1.06-.83.31.06.6.2.89.3,0,0-.04,0-.04,0,.07.23.26.36.4.53,1.13,2.24,2.26,4.48,3.39,6.73-2.04-.89-3.63-2.42-5.29-3.84-.26-.27-.76-.41-.47-.95Z"/>
      <path class="cls-15" d="M75.22,130.62c-.68-.74-1.1-1.54-.58-2.56.19-.37.1-.75-.01-1.15-.43-1.47.17-2.75.77-4.02.15-.31.51-.34.82-.4q1.75,2.87.26,5.82c-.4.78-.84,1.54-1.27,2.3Z"/>
      <path class="cls-16" d="M45.55,84.08c-.38,1.62-1.3,3.09-1.43,4.78-1-1.49-1.78-3.09-2.41-4.78-.56-1.2.5-1.51,1.13-2.06.19-.11.39-.2.6-.28.31-.11.62-.21.94-.29.21-.06.43-.07.64-.06,1.76.58-.08,1.88.53,2.69Z"/>
      <path class="cls-27" d="M67.14,109.04c-.88,0-1.31-.79-1.98-1.17-.95-.53-1.01-2.24-.22-3.07.51-.54.7-1.48,1.68-1.52.5.66.93,1.36,1.06,2.2.02.27.2.46.36.66.11.08.15.19.12.32.17.36.06.86.52,1.09v-.03c.21,1.25-.98,1.05-1.54,1.51h0Z"/>
      <path class="cls-59" d="M58.99,97.04c.35-1.13.6-2.27.47-3.46-.13-1.21.57-2.28.56-3.46.84,1.19,1.47,2.48,1.91,3.87.03.26.2.45.36.64.11.08.15.19.12.33.03.26.19.45.36.64.07.15.14.3.21.45-.91-.09-1.46.77-2.33.89-.41.05-.02.86-.49,1.13q-.37-1.15-1.17-1.01Z"/>
      <path class="cls-72" d="M2.9,5.87c-.02.16-.04.32-.06.49C1.71,4.7.98,2.83.1,1.05-.16.51.12.08.71.08c2.64,0,5.27.02,7.91.04.15.1.2.2.15.3-.05.1-.1.15-.16.15h0c-.83.74-1.86.87-2.9.93-2.38.12-2.78.59-2.45,3.04.07.5-.04.95-.36,1.34Z"/>
      <path class="cls-33" d="M40.28,175.76c-.63-.02-1.25.02-1.72.54-.59.65-1.35,1.04-2.14,1.38.43-1.39,1.06-2.67,1.92-3.84.31-.25.24-.69.5-.97,0,0,0,0,0,0,.3-.07.63-.27.88-.19.98.29,1.98.16,2.97.2-.32.48-.64.96-.96,1.44-.15.17-.31.33-.48.48-.32.32-.64.64-.96.96Z"/>
      <path class="cls-21" d="M34.07,68.73c.56.29,1.13.54,1.78.48.79-.07,1.28.49,1.84.88.23.16.6,1.91.42,2.12-.13.16-.37.3-.58.32-.62.06-1.05.27-1.09.96-.93-1.52-1.76-3.09-2.38-4.77Z"/>
      <path class="cls-73" d="M35.48,61.52c-.06.23-.2.47-.15.67.25,1.07.14,1.38-.63,1.6-.62.18-1.23.14-1.85-.02-.45-.12-.91-.18-1.37-.27-.43-.42-.73-.89-.77-1.51,1.61,0,3.23.15,4.78-.47Z"/>
      <path class="cls-31" d="M35.53,209.89c-.1-.35-.07-.89-.68-.58-.43.21-.75.32-.79-.31-.03-.55-.07-1.14.33-1.59.51-.58.63-1.25.65-1.98.01-.33.19-.68.56-.56.32.1.38.5.32.81-.11.54-.29,1.06-.41,1.6-.13.62.09.76.99.67-.1.76-.4,1.42-.98,1.94Z"/>
      <path class="cls-40" d="M67.14,109.04c.41-.61,1.26-.77,1.55-1.51.66.82,1.15,1.72,1.39,2.74.02.28.19.48.38.68.07.15.13.29.2.44-.94.11-1.42-.44-1.74-1.21-.33-.79-.86-1.26-1.77-1.14Z"/>
      <path class="cls-13" d="M43.16,82.18c-.19.44-.52.74-.93.96-.38.21-.46.57-.52.95-.32-.24-.45-.57-.48-.95-.2-.21-.21-.42-.03-.64.59-.5,1.2-.88,1.96-.32Z"/>
      <path class="cls-20" d="M51.82,104.23c.19.1.4.2.58.32q.76.5.37,1.59c-.55-.52-.86-1.16-.95-1.91Z"/>
      <path class="cls-23" d="M55.62,139.28c.16,0,.33,0,.49.01-.02.62-.33.94-.96.95,0-.4.13-.73.46-.97Z"/>
      <path class="cls-61" d="M8.62.56c0-.15,0-.3,0-.44.48,0,.95,0,1.43,0-.36.53-.91.42-1.43.44Z"/>
      <path class="cls-20" d="M51.32,103.28c.38.2.48.54.49.93-.34-.22-.49-.53-.49-.93Z"/>
      <path class="cls-25" d="M62.33,125.79c.01.42-.06.79-.48,1.01,0-.41.14-.76.48-1.01Z"/>
      <path class="cls-40" d="M68.69,107.56c-.54-.18-.57-.62-.52-1.09.37.27.51.65.52,1.09Z"/>
      <path class="cls-24" d="M21.61,237.73c-.03-.43.03-.81.5-.99-.01.41-.11.77-.5.99Z"/>
      <path class="cls-23" d="M55.15,140.25c0,.4-.1.75-.49.95,0-.4.13-.73.49-.95Z"/>
      <path class="cls-24" d="M22.09,236.77c-.03-.43.03-.81.5-.99-.02.41-.11.77-.5.99Z"/>
      <path class="cls-23" d="M54.66,141.19c0,.41-.09.77-.5.96.01-.4.14-.74.5-.96Z"/>
      <path class="cls-24" d="M22.57,235.81c-.03-.43.04-.81.5-.99-.02.41-.11.77-.5.99Z"/>
      <path class="cls-65" d="M13.91,28.4c.38.2.47.55.48.94-.33-.23-.49-.54-.48-.94Z"/>
      <path class="cls-49" d="M51.28,147.87c.03.43-.04.8-.48,1,0-.41.13-.76.48-1Z"/>
      <path class="cls-49" d="M64.78,151.33c-.03-.44.05-.83.54-.99-.06.4-.15.77-.54.99Z"/>
      <path class="cls-49" d="M64.3,152.29c-.03-.43.03-.81.5-.99-.02.41-.11.78-.5.99Z"/>
      <path class="cls-31" d="M34.57,211.82c-.04-.43.02-.82.5-.99-.01.41-.11.77-.5.99Z"/>
      <path class="cls-49" d="M63.83,153.25c-.03-.43.03-.81.5-.99-.01.41-.11.77-.5.99Z"/>
      <path class="cls-49" d="M63.34,154.21c-.03-.43.04-.81.5-.99-.01.41-.11.78-.5.99Z"/>
      <path class="cls-31" d="M35.04,210.85c-.04-.43.03-.81.5-.99-.01.41-.11.77-.5.99Z"/>
      <path class="cls-49" d="M61.43,158.06c-.03-.43.03-.82.5-.99-.01.41-.11.77-.5.99Z"/>
      <path class="cls-49" d="M60.96,159.09c-.04-.45,0-.86.5-1.07,0,.43-.13.8-.5,1.07Z"/>
      <path class="cls-65" d="M14.39,29.36c.37.2.47.55.48.93-.33-.23-.5-.53-.48-.93Z"/>
      <path class="cls-62" d="M41.31,82.69c0,.15-.03.3-.08.44-.34-.23-.48-.56-.48-.96l.1-.06c.37.02.59.17.46.59Z"/>
      <path class="cls-58" d="M15.83,32.25c.38.2.47.55.47.93-.33-.22-.49-.53-.47-.93Z"/>
      <path class="cls-54" d="M38.83,172.87c0,.41-.09.77-.49.97.01-.4.14-.74.49-.97Z"/>
      <path class="cls-58" d="M16.31,33.2c.37.21.47.55.47.95-.33-.23-.49-.54-.47-.95Z"/>
      <path class="cls-58" d="M16.79,34.16c.38.21.47.55.47.95-.33-.23-.49-.54-.47-.95Z"/>
      <path class="cls-28" d="M23.5,47.6c.37.2.48.54.48.93-.33-.22-.5-.53-.48-.93Z"/>
      <path class="cls-31" d="M36.48,207.98c-.04-.44.04-.82.52-.99-.04.4-.13.77-.52.99Z"/>
      <path class="cls-32" d="M43.2,194.54c-.04-.44.04-.83.53-1-.04.4-.14.78-.53,1Z"/>
      <path class="cls-58" d="M17.27,35.12c.37.2.47.54.48.93-.33-.22-.5-.53-.48-.93Z"/>
      <path class="cls-63" d="M34.03,182.45c.01.42-.07.78-.49.99,0-.41.14-.75.49-.99Z"/>
      <path class="cls-45" d="M36.41,42.8c-.37-.21-.47-.55-.45-.95.3.24.49.54.45.95Z"/>
      <path class="cls-60" d="M51.83,177.31c.11-.19.22-.37.34-.56.02.27-.1.45-.34.56Z"/>
      <path class="cls-65" d="M22.74,46.2c.09.15.17.3.26.44-.19-.09-.3-.22-.26-.44Z"/>
      <path class="cls-68" d="M52.71,75.44c-.13-.18-.27-.36-.4-.53.26.08.38.27.4.53Z"/>
      <path class="cls-36" d="M31.12,32.24c-.24-.13-.36-.32-.35-.6.27.11.37.32.35.6Z"/>
      <path class="cls-64" d="M62.29,94.63c-.24-.14-.36-.35-.36-.64.25.14.37.35.36.64Z"/>
      <path class="cls-64" d="M62.77,95.59c-.24-.14-.36-.35-.36-.64.25.14.37.35.36.64Z"/>
      <path class="cls-53" d="M33.13,214.79c.12-.2.23-.41.35-.61,0,.27-.13.47-.35.61Z"/>
      <path class="cls-30" d="M20.55,11.11c-.24-.16-.36-.39-.37-.68.26.15.38.38.37.68Z"/>
      <path class="cls-24" d="M23.04,234.86c.12-.17.24-.35.36-.52,0,.26-.11.44-.36.52Z"/>
      <path class="cls-70" d="M70.46,110.95c-.25-.15-.37-.38-.38-.68.24.16.38.38.38.68Z"/>
      <path class="cls-29" d="M70.06,140.78c.12-.17.24-.35.36-.52.01.27-.1.44-.36.52Z"/>
      <path class="cls-40" d="M68.05,106.15c-.25-.15-.36-.37-.36-.66.24.16.37.37.36.66Z"/>
      <path class="cls-49" d="M52.6,152.61c.07.01.15.01.21.04.73.4.82,1.11.19,1.67-.09.08-.32.11-.41.04-.35-.26-.45-1.28-.19-1.68.03-.05.12-.05.19-.07Z"/>
      <path class="cls-49" d="M50.85,149.34c.31,0,.63.01.94.02-.32.48-.64.51-.94-.02Z"/>
      <path class="cls-23" d="M56.11,139.29c.14-.28.29-.56.42-.84.24-.54.54-.93,1.24-.86.29.03.6-.16.9-.22.82-.15,1.24-.63,1.26-1.45.01-.46,0-.93,0-1.37.73-.34,1.34.07,1.93-.06-.05.65.52,1.18.33,1.86-.07.26.16.38.33.55.95.95,1.03,1.68.3,2.6-.2.25-.43.47-.66.69-.28.26-.57.51-.9.81-.23-1.17-.28-1.26-1.27-2.37-.07.92-.09,1.66.12,2.42.36,1.38.79,2.74.85,4.2.04,1.04.55,1.97,1.38,2.68-.63.02-1.28-.07-1.88.22-.3.15-.6.15-.91,0-.27-.13-.7-.42-.81-.33-.8.62-1.68-.04-2.54.25-1.26.42-2.62.55-3.94.81.23-.56.74-.78,1.19-1.1.84-.59,1.67-1.23,1.72-2.42.02-.32.17-.63.52-.72,1.02-.25,1.57-.99,2.05-1.85.15-.27.37-.56.63-.7,1.36-.73,1.14-1.93,1-3.11-.04-.36-.32-.54-.65-.59-.4-.06-.83-.05-1.01.39-.15.36-.16.77-.31,1.14-.08.18-.3.4-.48.42-.29.03-.27-.32-.39-.51-.12-.2-.28-.36-.43-.54Z"/>
      <path class="cls-23" d="M64.79,145.93c-.05.54-.05,1.1-.18,1.62-.1.39-.4.68-.88.51-.39-.13-.8-.32-.44-.81.34-.46.17-.87.07-1.33-.08-.38-.09-.79.2-1.11.21-.24.49-.39.82-.34.29.04.33.29.34.52.01.31,0,.63,0,.94.02,0,.04,0,.06,0Z"/>
      <path class="cls-29" d="M68.7,132.54c.06-.04.12-.08.18-.12.06.13.12.26.16.4.08.26,0,.31-.17.1-.09-.1-.12-.26-.17-.39Z"/>
      <path class="cls-32" d="M31.64,208.41c.37.71.71,1.43.27,2.23-.07.12-.22.25-.36.27-.11.02-.3-.07-.37-.17-.68-.99-.6-1.34.46-2.33Z"/>
      <path class="cls-53" d="M11.82,232.86c.04.36-.17.58-.44.74-.11.07-.28.03-.42.05,0-.13-.07-.3-.01-.39.13-.19.31-.35.49-.49.16-.13.3-.08.38.09Z"/>
      <path class="cls-3" d="M12.93,18.8c-.35.08-.85.41-.92-.21-.07-.71-.43-1.09-.95-1.52-.66-.54-1.62-.73-1.97-1.63.04-.31-.04-.74.13-.92.96-.99.97-2.05.48-3.26-.27-.68.15-1.03.82-1.1,1.06-.1,1.94.33,2.25,1.31.28.88.87,1.24,1.59,1.57.5.81,1.56.71,2.19,1.35-.09.69-.24,1.38-.25,2.08-.04,1.39-.03,1.84,1.68,1.87,1.56.02,2.46,1.17,2.96,2.39.32.78.6,1.33,1.36,1.72.47.24.79.76,1.18,1.15-.22.23-.43.47-.66.68-.25.23-.64.36-.87.16-1.06-.93-2.71-1.06-3.4-2.5-.1-.2-.33-.49-.49-.49-2.03.06-3.04-1.83-4.7-2.45-.15-.06-.29-.13-.43-.2Z"/>
      <path class="cls-37" d="M8.62,6.32c.07.04.19.09.19.11-.04.16-.11.12-.19-.11,0,0,0,0,0,0Z"/>
      <path class="cls-38" d="M46.52,175.28c.18.14.35.34.56.41,1.4.51,1.47.52,1.03,1.68-.65,1.72-.66,3.56-1.1,5.31-.1.38-.11.78-.23,1.15-.14.44-.27.95-.57,1.28-.46.51-1.15-.07-1.79.23-.42.2-.21-.58-.39-.88-.2-.34-.56-.45-.74-.15-.3.52-.57,1.05-.96,1.79-.06-1.05-.52-1.66-1.1-2.19,0-.16,0-.32,0-.48,1.5-.71,2.27-1.76,1.89-3.52-.16-.76.19-1.52.51-2.24.48-.31.74-.77.71-1.32-.02-.4.12-.73.25-1.08.64,0,1.28,0,1.92,0Z"/>
      <path class="cls-57" d="M41.24,174.8c.16-.16.32-.32.48-.48,0,.16,0,.32,0,.48h-.48Z"/>
      <path class="cls-67" d="M41.71,62.01c-1.45-.22-2.55-1.27-4.1-1.6-.03-.93.41-1.86.03-2.75-.12-.29-.16-.6-.29-.89-.1-.23-.32-.38-.57-.27-.1.04-.18.26-.17.4.08,1.01.21,2.02.29,3.04.05.66-.25,1.06-.94,1.12.02-1.33-.2-2.65-.03-3.99.12-1-.06-2.02-.26-3.04-.26-1.3-.14-2.67-.18-4.01.97.03,1.73.65,2.19,1.3.72,1.01,1.72,1.9,1.97,3.21.17.88.69,1.45,1.53,1.64.93.21,1.06.84,1.02,1.61-.02.32.02.67-.1.94-.48,1.07-.35,2.19-.38,3.3Z"/>
      <path class="cls-66" d="M43.64,177.68c.08,1.39-.19,2.79.33,4.16.23.6-.07.95-.68,1.28-.66.36-1.35.3-2.05.32-.01-.39-.09-.75-.48-.96.03-.82.46-1.25,1.25-1.47.65-.19.79-.49-.03-.76-.23-.07-.15-.42,0-.6.54-.66,1.1-1.31,1.65-1.96Z"/>
      <polygon class="cls-66" points="40.76 182.48 40.65 182.68 40.56 182.59 40.76 182.48"/>
      <path class="cls-6" d="M29.24,39.92c-.51.7-1.03,1.39-1.52,2.1-.23.34-.5.61-.87.78-.02-.79.71-1.46.32-2.31-.14-.31.01-.61.21-.88.1-.13.21-.26.25-.4.07-.3.23-.67.13-.92-.67-1.66.73-3.48-.43-5.08.91.06,1.37.54,1.43,1.45.04.66-.19,1.4.48,1.9,0,1.12,0,2.24,0,3.36Z"/>
      <path class="cls-71" d="M41.31,82.69c-.16-.2-.31-.39-.46-.59,0-.32.04-.73.39-.78,1.76-.26,2.83-1.6,4.12-2.58.37-.28.67-.66,1.01-1q1.27-1.26,3.04-.89s0,0,0,0c.12.2.32.32.48.48.15,0,.3.01.45.02.16.32.32.64.47.95-.16,0-.31,0-.47,0-.27.33-.56.65-.95.86-1.46,1.09-3.02,2.01-4.8,2.48h0c-.26.28-.71.19-.97.47-.16,0-.31,0-.46.02-.62.17-1.23.35-1.85.52Z"/>
      <path class="cls-7" d="M39.32,66.8c-.3-.04-.69-.07-.73-.39-.06-.5.38-.53.76-.56.15,0,.3,0,.45-.01-.16.32-.32.64-.48.96Z"/>
      <path class="cls-11" d="M56.12,99.92c-.3-.22-.68-.7-.88-.63-1.35.47-2.36-.31-3.44-.81.91-1.8,2.43-1.13,3.84-.96.87.19,1.74.56,2.48-.37.13-.16.58-.08.89-.1-.02.15,0,.34-.08.44-.8.97-1.63,1.9-2.8,2.44Z"/>
      <path class="cls-20" d="M54.18,105.08l-.17-.14c.06-.03.13-.1.19-.1.06,0,.11.08.17.13-.06.03-.13.07-.19.1Z"/>
      <path class="cls-40" d="M60.43,103.76c0,.4-.09.75-.48.96,0-.4.09-.75.48-.96Z"/>
      <path class="cls-11" d="M55.63,100.88c.16-.16.31-.32.47-.48-.16.16-.31.32-.47.48Z"/>
      <path class="cls-65" d="M24.45,44.23c.16-.16.32-.31.48-.47-.16.16-.32.31-.48.47Z"/>
      <path class="cls-39" d="M55.63,97.52c-.74.46-1.56.52-2.4.49-.53-.02-1.07-.03-1.43.48-.6-.33-1.22-.56-1.92-.48-.69-1.48-.97-3.42-.66-4.94.08-.4.16-.78,0-1.15-.45-.98-.25-2.02-.29-3.03.39.08.77.22,1.16.22.69,0,1.1-.44.95-1.2-.1-.53.05-.93.27-1.34.06-.11.25-.22.36-.21.12.01.3.16.32.27.08.46,0,.96.38,1.33.1.1.25.22.38.22.29,0,.39-.23.41-.48.04-.69-.72-1.35-.17-2.04.48-.6.54-1.06.01-1.67-.3-.34-.48-.83-.62-1.27-.11-.33-.24-.73.12-1.04.18.24.34.68.54.7,1.97.18,1.79,1.89,2.28,3.11.09.24-.11.43-.36.5-.58.16-.51.55-.26.9.27.38.63.7.95,1.04,0,1.12,0,2.24,0,3.36,0,.83-.49.62-.96.48-.32.63-.64,1.26-.21,1.98.69,1.16.81,2.5,1.16,3.77Z"/>
      <path class="cls-51" d="M49.39,78.79c.21-.38.56-.47.96-.46.18.26.33.55.56.76.7.65,1.06,1.32.6,2.31-.38.81-.15,1.73-.18,2.6-.02.55.04,1.13-.48,1.52-.02-.48.03-.99-.37-1.33-.48-.4-.63-.91-.58-1.49.09-.96-.35-1.48-1.28-1.67-.23-.05-.43-.2-.65-.3-.21-1.15.89-1.34,1.43-1.93Z"/>
      <path class="cls-70" d="M63.7,105c-.07.1-.14.33-.29.44-.22.16-.53-.18-.51-.53.02-.25.15-.43.4-.43.25,0,.39.17.4.53Z"/>
      <path class="cls-13" d="M49.39,78.79c-.48.64-.95,1.29-1.43,1.93-.72,1.18-2,1.96-2.41,3.36-.67-.46-.37-1.02-.2-1.6.19-.64-.3-.73-.76-.81.5-.39.95-1.04,1.49-1.12,1.35-.2,1.96-1.65,3.3-1.77Z"/>
      <path class="cls-62" d="M49.89,77.35c-.16-.16-.32-.32-.48-.48.16.16.32.32.48.48Z"/>
      <path class="cls-23" d="M55.98,142.66c-.01.32-.45.75-.58.59-.13-.17-.22-.42-.22-.63,0-.2.11-.45.26-.59.17-.15.55.29.54.63Z"/>
      <path class="cls-61" d="M2.9,5.87c.02-1.06-.17-2.03-1.04-2.75-.24-.2-.4-.53-.15-.82.13-.15.44-.26.61-.21,1.01.29,1.05-.2.89-.98-.08-.39.23-.53.58-.52.23,0,.49,0,.69.1.84.41,1.64.36,2.5.03.49-.19,1.08-.11,1.63-.16,0,.32,0,.63-.01.95-.02.47-.21.73-.74.61-.66-.16-1.15.07-1.13.79.03,1.55-.83,2.26-2.21,2.63-.54.14-1.05.32-1.61.33Z"/>
      <path class="cls-41" d="M12.93,21.2c.07.04.2.09.19.11-.04.16-.11.12-.19-.11h0Z"/>
      <path class="cls-41" d="M12.93,21.2c-.07-.04-.2-.09-.19-.11.04-.16.11-.12.19.11h0Z"/>
      <path class="cls-13" d="M43.63,82.15c.21-.38.57-.47.97-.47-.21.39-.57.48-.97.47Z"/>
      <polygon class="cls-50" points="54.67 91.76 54.47 91.65 54.56 91.56 54.67 91.76"/>
    </g>
  </g>
</svg>