<svg width="24" height="24" viewBox="0 0 24 24" fill="none" xmlns="http://www.w3.org/2000/svg">
<g clip-path="url(#clip0_21_33865)">
<path d="M10.1531 0.00454311C10.3885 0.0412199 10.5852 0.0832454 10.8007 0.123361C14.6693 0.846581 17.2012 3.08807 18.3748 6.83827C18.7584 8.06389 18.8081 9.33115 18.6396 10.606C18.4489 12.0494 17.9443 13.3721 17.1389 14.5824C17.1137 14.6202 17.0942 14.6615 17.0613 14.7207C17.5912 14.8224 17.9557 15.1528 18.3103 15.5089C19.9649 17.1712 21.6257 18.8274 23.283 20.487C23.8916 21.0968 24.1029 21.8085 23.8217 22.6418C23.4057 23.8743 21.8037 24.3511 20.7863 23.5438C20.6583 23.4425 20.5361 23.3329 20.4207 23.2175C18.7832 21.5823 17.1488 19.9437 15.5091 18.3109C15.153 17.9563 14.8225 17.5922 14.7213 17.0665C14.3962 17.2575 14.0947 17.4486 13.7814 17.617C12.1765 18.4782 10.4568 18.8381 8.64746 18.6979C6.55917 18.5359 4.7196 17.7554 3.14517 16.362C1.77247 15.1475 0.863188 13.646 0.355825 11.8932C0.210646 11.3915 0.12927 10.8765 0.0578264 10.36C0.0520957 10.318 0.0551521 10.3363 0.0200035 10.2442C0.0158009 10.1797 0.00510355 10.1212 0.00510355 10.059C0.00281125 10.0112 0.00128305 9.98751 0.00357535 9.9516C0.00357535 9.92371 0.00357535 9.89735 0.00357535 9.86946C0.00357535 9.84157 0.00357535 9.81941 0.00357535 9.79152C0.0016651 9.75561 0.00357535 9.72733 0.00510355 9.68493V9.1237C0.0039574 9.07823 0.00281125 9.05798 0.00510355 9.02169C0.00510355 8.99303 0.00510355 8.96362 0.00510355 8.93534C0.00510355 8.90669 0.00510355 8.87727 0.00510355 8.849C0.00510355 8.82073 0.00510355 8.79513 0.00510355 8.76686C0.00281125 8.73057 0.00510355 8.69656 0.00510355 8.65645C0.00510355 8.59417 0.0478932 8.42875 0.0478932 8.36647C0.0780751 7.96761 0.0899187 7.70323 0.176262 7.32233C0.533479 5.74752 1.23301 4.34883 2.29702 3.1385C3.18758 2.1253 4.25083 1.33637 5.48752 0.786982C6.27416 0.437406 7.08793 0.181814 7.94296 0.064907C8.11832 0.0408379 8.27267 0.0851557 8.46675 0.0244097C8.53361 0.0148585 8.59512 0.00492516 8.65739 0.00492516C8.71241 0.00874566 8.73456 0.00263286 8.77048 0.00492516C8.79837 0.00492516 8.81747 0.00492516 8.84536 0.00492516C8.87325 0.00492516 8.89885 0.00492516 8.92635 0.00492516C8.96227 0.00301491 8.9764 0.0148585 9.03142 0.00492516H9.68625C9.75387 0.0129482 9.7661 0.00263286 9.80201 0.00492516C9.8299 0.00492516 9.84671 0.00492516 9.8746 0.00492516C9.90249 0.00492516 9.92809 0.00492516 9.9556 0.00492516C9.99151 0.00301491 10.0076 0.0152405 10.0603 0.00492516H10.1539L10.1531 0.00454311Z" fill="white"/>
<path d="M16.3638 9.36912C16.3687 13.2152 13.1935 16.3862 9.36002 16.3637C5.49368 16.3411 2.3857 13.2263 2.38379 9.37256C2.38226 5.51462 5.48909 2.40091 9.35659 2.3841C13.2061 2.36767 16.3584 5.51003 16.3634 9.36874L16.3638 9.36912Z" fill="#0B5CAA"/>
</g>
<defs>
<clipPath id="clip0_21_33865">
<rect width="24" height="24" fill="white"/>
</clipPath>
</defs>
</svg>
