<svg width="21" height="18" viewBox="0 0 21 18" fill="none" xmlns="http://www.w3.org/2000/svg">
<path d="M20.1275 13.5756C20.0461 13.7068 19.972 13.8433 19.8826 13.969C19.5729 14.4071 19.1496 14.6525 18.6358 14.7543C17.4539 14.9885 16.2733 15.2319 15.0921 15.4707C11.1511 16.2678 7.20971 17.0649 3.26842 17.8614C2.32726 18.0517 1.49255 17.6794 1.11433 16.8649C0.780821 16.1464 0.853224 15.4462 1.3288 14.7959C2.01396 13.8591 2.70142 12.9244 3.38823 11.9886C4.00065 11.1545 4.61198 10.3191 5.22802 9.48747C5.30112 9.38876 5.32524 9.29697 5.31173 9.17506C5.07095 7.02326 4.83869 4.86983 4.595 2.71823C4.50623 1.93384 4.72124 1.27532 5.34852 0.790818C6.07964 0.226112 7.03227 0.275572 7.74555 0.900282C8.64774 1.69049 9.54455 2.48658 10.444 3.27995C13.4548 5.93641 16.4637 8.59479 19.4782 11.2464C20.0171 11.7207 20.314 12.2896 20.2481 13.035C20.2463 13.0521 20.2548 13.07 20.2588 13.0872L20.128 13.5752L20.1275 13.5756ZM18.5875 12.2308C18.5943 12.2213 18.6012 12.2115 18.608 12.202C18.5626 12.1601 18.518 12.1168 18.4715 12.0755C16.4394 10.2826 14.4074 8.48914 12.3752 6.69664C10.572 5.1063 8.77039 3.51391 6.96173 1.92992C6.836 1.81997 6.66411 1.72063 6.50396 1.70363C6.06886 1.65743 5.79106 2.02441 5.84679 2.53061C6.07708 4.62387 6.31084 6.71659 6.53519 8.81071C6.55237 8.97222 6.61326 9.02569 6.75716 9.06425C10.645 10.1016 14.532 11.1441 18.4187 12.1855L18.5879 12.2309L18.5875 12.2308ZM18.2537 13.5208C18.2542 13.5082 18.2549 13.4952 18.2549 13.4825L18.1541 13.4555C14.2274 12.4033 10.3005 11.3516 6.37468 10.2963C6.26098 10.2658 6.20054 10.2853 6.12808 10.3851C5.27523 11.5551 4.41677 12.7212 3.55996 13.8882C3.14915 14.4478 2.73603 15.0053 2.32929 15.5675C2.04404 15.9623 2.16694 16.4577 2.59781 16.5907C2.74945 16.6377 2.9349 16.6136 3.09743 16.5809C7.91556 15.612 12.7327 14.6381 17.55 13.6651C17.7845 13.618 18.0189 13.5693 18.2532 13.5211L18.2537 13.5208Z" fill="#FAFAFA"/>
</svg>
