<?xml version="1.0" encoding="UTF-8"?><svg id="Lag_1" xmlns="http://www.w3.org/2000/svg" viewBox="0 0 384.5 384.5"><path d="m32.44.25c-.06,1.24-.18,2.48-.18,3.73,0,109.75.01,219.5-.06,329.25,0,6.11,1.22,11.61,6.52,15.02,2.69,1.73,6.13,2.76,9.34,3.11,4.81.51,9.71.15,14.58.15,105.14,0,210.27,0,315.41,0,1.61,0,3.22,0,5.14,0v32c-1.13,0-2.44,0-3.75,0-109.87,0-219.75,0-329.62,0-25.31,0-44.25-15.73-48.97-40.59-.09-.46-.39-.88-.59-1.32,0-113.78,0-227.56,0-341.33,10.75,0,21.47,0,32.19,0Z"/><path d="m351.43,191.64v-56.53c-37.39,37.39-74.28,74.29-111.32,111.34-21.57-21.57-42.69-42.71-63.99-64.01-28.36,28.36-56.38,56.38-84.15,84.16-7.63-7.63-15.01-15-22.14-22.12,35.16-35.16,70.69-70.68,106.35-106.34,20.75,20.77,41.93,41.97,62.79,62.85,29.95-29.95,59.36-59.36,88.97-88.97h-55.94v-31.59h111.27v111.22h-31.84Z"/></svg>