<?xml version="1.0" encoding="UTF-8"?><svg id="Lag_1" xmlns="http://www.w3.org/2000/svg" viewBox="0 0 384.5 384.5"><path d="m.25,383.5c0-113.78,0-227.56,0-341.33.22-.56.55-1.11.65-1.7C3.52,25.57,11.31,14.08,24.47,6.78c5.43-3.01,11.77-4.4,17.69-6.53,67.87,0,135.73,0,203.6,0,.44.2.86.51,1.32.59,24.88,4.73,40.58,23.64,40.59,48.96.01,35.29,0,70.59,0,105.88,0,1.33,0,2.66,0,4.19-22.78.25-43.75,5.78-63.91,17.14v-16.88H64.32v31.89h138.53c-28.07,26.2-42.82,57.86-42.83,95.62-.01,37.84,14.82,69.56,42.98,95.85H.25ZM223.64,80.43H64.29v31.34h159.35v-31.34Zm-95.87,191.13v-31.58h-63.47v31.58h63.47Z"/><path d="m287.77,383.5c-52.93.04-95.94-42.98-95.89-95.92.05-52.8,42.92-95.65,95.72-95.7,52.96-.05,95.95,42.94,95.9,95.9-.05,52.79-42.93,95.67-95.73,95.71Zm-10.26-81.98c-8.75-8.47-17.33-16.76-24.73-23.91-8.01,7.26-15.82,14.33-23.72,21.48,9.78,9.48,19.09,18.49,28.39,27.52,12.57,12.2,27.81,12.11,40.36-.23,14.13-13.9,28.26-27.78,42.37-41.69,3.69-3.64,7.28-7.38,11.14-11.31-7.68-7.29-15.24-14.46-23.01-21.83-16.54,16.27-33.57,33.02-50.81,49.98Z"/></svg>