<?xml version="1.0" encoding="UTF-8"?><svg xmlns="http://www.w3.org/2000/svg" viewBox="0 0 1280 894.86"><defs><style>.cls-1{stroke:#69d1c0;stroke-width:8px;}.cls-1,.cls-2,.cls-3,.cls-4,.cls-5,.cls-6{fill:none;stroke-miterlimit:10;}.cls-7{fill:#2eaa2e;}.cls-2{stroke:#2720b7;}.cls-2,.cls-3{stroke-width:6px;}.cls-8{fill:#e5e5d6;}.cls-3,.cls-4,.cls-5{stroke:#000;}.cls-4,.cls-6{stroke-width:3px;}.cls-5{stroke-width:2px;}.cls-9{fill:#69d1c0;}.cls-6{stroke:#e5e5d6;}</style></defs><g id="Lag_7"><rect class="cls-4" x="785.43" y="561.05" width="200" height="315"/><path class="cls-4" d="m297.98,561.05v315h199.39v-255h31.81s0,255,0,255h240v-315"/><path class="cls-4" d="m297.38,562.32h200v27.77h31.81v-27.77s240,0,240,0"/></g><g id="Lag_4"><rect class="cls-6" x="219.39" y="71.08" width="830" height="822.28"/></g><g id="Lag_3"><rect class="cls-8" x="830.14" y="562.32" width="13.41" height="214.98"/><rect class="cls-9" x="813.1" y="753.51" width="47.49" height="23.75"/><rect class="cls-9" x="806.13" y="714.64" width="61.42" height="34.68"/><rect class="cls-9" x="812.26" y="677.16" width="49.16" height="21.53"/></g><g id="Lag_5"><circle class="cls-4" cx="1194.33" cy="689.48" r="30.31"/><polygon class="cls-4" points="1194.33 659.17 1178.16 681.57 1210.51 681.57 1194.33 659.17"/><rect class="cls-4" x="915.46" y="820.01" width="61.15" height="47.9"/><line class="cls-5" x1="915.4" y1="843.96" x2="922.9" y2="843.96"/><line class="cls-5" x1="976.61" y1="843.96" x2="971.25" y2="843.96"/><line class="cls-5" x1="930.24" y1="843.96" x2="961.83" y2="843.96"/><circle class="cls-4" cx="361.35" cy="519.38" r="30.31"/><polygon class="cls-4" points="361.35 489.07 345.17 511.47 377.53 511.47 361.35 489.07"/><circle class="cls-4" cx="699.25" cy="392.61" r="30.31"/><polygon class="cls-4" points="699.25 362.3 683.07 384.69 715.42 384.69 699.25 362.3"/></g><g id="Lag_8"><polyline class="cls-3" points="1195.28 720.76 1194.33 756.89 1070.72 756.89 1070.72 542.81 946.03 542.81 946.03 820.01"/><rect class="cls-4" x="667.64" y="820.01" width="61.15" height="47.9"/><line class="cls-5" x1="667.57" y1="843.96" x2="675.07" y2="843.96"/><line class="cls-5" x1="728.79" y1="843.96" x2="723.42" y2="843.96"/><line class="cls-5" x1="682.42" y1="843.96" x2="714" y2="843.96"/><line class="cls-3" x1="698.21" y1="422.91" x2="698.21" y2="820.01"/><rect class="cls-4" x="329.74" y="820.01" width="61.15" height="47.9"/><line class="cls-5" x1="329.67" y1="843.96" x2="337.17" y2="843.96"/><line class="cls-5" x1="390.89" y1="843.96" x2="385.52" y2="843.96"/><line class="cls-5" x1="344.52" y1="843.96" x2="376.11" y2="843.96"/><line class="cls-3" x1="360.31" y1="549.69" x2="360.31" y2="820.01"/></g><g id="Lag_9"><rect class="cls-4" x="668.94" y="191.15" width="116.27" height="116.27"/></g><g id="Lag_10"><polyline class="cls-2" points="698.21 191.15 698.21 142.37 821.54 142.37 821.54 337.94 764.35 337.94 764.35 307.42"/></g><g id="Lag_11"><polyline class="cls-3" points="843.55 166.76 870.81 166.76 870.81 362.3"/><line class="cls-3" x1="870.81" y1="562.32" x2="870.81" y2="410.7"/><polyline class="cls-3" points="764.35 187.63 764.35 166.76 808.77 166.76"/></g><g id="Lag_12"><line class="cls-4" x1="710.54" y1="191.15" x2="710.54" y2="307.42"/><line class="cls-3" x1="699.25" y1="362.3" x2="699.25" y2="307.42"/><polyline class="cls-4" points="360.31 489.07 360.31 337.94 698.21 337.94"/></g><g id="Lag_13"><line class="cls-3" x1="583.59" y1="562.32" x2="583.59" y2="534.62"/></g><g id="Lag_14"><polygon class="cls-4" points="583.59 489.94 551.7 534.1 615.49 534.1 583.59 489.94"/><polygon class="cls-4" points="584.22 489.94 616.12 445.79 552.32 445.79 584.22 489.94"/><polyline class="cls-3" points="583.59 443.52 583.59 384.69 123.74 384.69 123.74 625.03"/></g><g id="Lag_15"><rect class="cls-4" x="41.1" y="625.03" width="165.28" height="165.28"/></g><g id="Lag_16"><line class="cls-3" x1="123.9" y1="790.32" x2="123.9" y2="854.57"/></g><g id="Lag_17"><line class="cls-4" x1="584.22" y1="489.94" x2="517.77" y2="489.94"/><rect class="cls-4" x="443.12" y="468.91" width="74.65" height="39.06"/></g><g id="Lag_18"><line class="cls-4" x1="1194.33" y1="659.17" x2="1194.33" y2="4"/></g><g id="Lag_19"><line class="cls-1" x1="1280" y1="4" y2="4"/></g><g id="Lag_22"><line class="cls-4" x1="180.09" y1="719.72" x2="180.09" y2="770.46"/><path class="cls-4" d="m189.53,753.27s-7.92,13.72-9.69,16.78c-1.52-2.59-9.75-16.59-9.75-16.59"/></g><g id="Lag_20"><rect class="cls-8" x="619.66" y="563.88" width="13.41" height="215.32"/><rect class="cls-9" x="602.62" y="755.41" width="47.49" height="23.75"/><rect class="cls-9" x="595.66" y="716.53" width="61.42" height="34.68"/><rect class="cls-9" x="601.79" y="679.06" width="49.16" height="21.53"/></g><g id="Lag_21"><rect class="cls-8" x="412.72" y="564.72" width="13.41" height="217.66"/><rect class="cls-9" x="395.68" y="758.59" width="47.49" height="23.75"/><rect class="cls-9" x="388.71" y="719.72" width="61.42" height="34.68"/><rect class="cls-9" x="394.84" y="682.24" width="49.16" height="21.53"/></g><g id="Lag_23"><circle class="cls-7" cx="1194.33" cy="700.13" r="8.43"/><line class="cls-4" x1="802.04" y1="276.05" x2="802.04" y2="292.9"/><line class="cls-4" x1="810.47" y1="284.47" x2="793.62" y2="284.47"/></g><g id="Lag_24"><line class="cls-4" x1="480.44" y1="468.91" x2="480.44" y2="452.73"/><line class="cls-4" x1="480.44" y1="507.97" x2="480.44" y2="519.38"/><polyline class="cls-4" points="470.64 507.97 470.13 496.13 487.49 476.22 487.49 468.91"/></g></svg>