<?xml version="1.0" encoding="UTF-8"?><svg id="Lag_1" xmlns="http://www.w3.org/2000/svg" viewBox="0 0 366.5 366.5"><path d="m.25,125.1c2.38-5.62,3.98-11.75,7.3-16.74,7.04-10.56,17.55-15.92,30.24-15.97,11.02-.04,22.19-.23,33.03,1.4,14.3,2.15,25.3,10.53,33.17,22.63,7.25,11.15,14.2,22.51,21.17,33.84,1.24,2.02,2.55,2.96,5.05,2.91,8.66-.18,17.32-.07,26.69-.07-4.09-17.78-8.09-35.14-12.2-52.99,14.87-3.45,29.49-6.84,44.45-10.31,14.89,64.23,29.72,128.14,44.69,192.73,39.5-9.15,78.85-18.26,118.6-27.46,3.43,14.77,6.84,29.4,10.33,44.42-7.8,1.82-15.38,3.61-22.96,5.37-31.11,7.2-62.21,14.42-93.33,21.56-2.08.48-2.78,1.4-2.9,3.56-.98,18.19-13.41,32.27-31.26,35.63-.55.1-1.07.42-1.6.63h-9.99c-.53-.22-1.05-.53-1.6-.63-16.22-3.06-28.08-15.07-30.95-31.39-2.69-15.24,4.78-30.97,18.66-38.97,1.9-1.09,2.73-1.93,2.15-4.36-6.96-29.58-13.8-59.19-20.57-88.82-.58-2.56-1.58-3.39-4.24-3.37-19.5.12-39,.02-58.5.12-2.75.01-4.47-.65-5.99-3.18-6.82-11.28-13.91-22.41-20.91-33.58-.53-.84-1.13-1.63-2.1-3.02-.14,1.31-.25,1.86-.25,2.41,0,23.78-.05,47.56.09,71.34,0,1.29,1.16,3.05,2.29,3.77,12.68,7.95,25.41,15.83,38.25,23.51,2.52,1.5,3.25,3.17,3.22,5.96-.13,13.43-.05,26.87-.06,40.31-.03,19.97-.08,39.95-.12,59.92h-45.66c.04-25.51.12-51.03.01-76.54,0-1.24-1.39-2.89-2.58-3.63-16.21-10.08-32.48-20.06-48.78-30-10.48-6.39-17.68-15.27-21.12-27.11-.66-2.26-1.16-4.56-1.73-6.85,0-32.34,0-64.69,0-97.03Z"/><path d="m.25,277.07c14.64,9.22,29.31,18.4,43.86,27.76,1.04.67,1.72,2.68,1.73,4.07.11,19.12.08,38.24.08,57.35H.25c0-29.73,0-59.45,0-89.18Z"/><path d="m239.12,177.84c-.06-11.23,6.36-20.22,16.44-22.83,14.46-3.75,28.99-7.29,43.59-10.43,12-2.58,23.42,4.78,26.4,16.74,3.64,14.61,7.05,29.29,10.3,43.99,2.48,11.22-4.2,22.95-15.34,25.97-14.76,4-29.65,7.61-44.63,10.65-12.2,2.48-23.07-4.91-26.12-17.09-3.6-14.38-6.85-28.84-10.21-43.28-.35-1.49-.36-3.06-.44-3.71Z"/><path d="m53.48.97c20.99-.03,38.09,17.07,38.08,38.07-.01,20.95-17.32,38.2-38.17,38.05-20.85-.15-37.82-17.12-37.95-37.96C15.3,18.28,32.52,1,53.48.97Z"/></svg>