<?xml version="1.0" encoding="UTF-8"?><svg id="Lag_1" xmlns="http://www.w3.org/2000/svg" viewBox="0 0 366.5 366.5"><defs><style>.cls-1{fill:#fff;}</style></defs><path class="cls-1" d="m352.45,255.07c3.43,14.78,6.84,29.4,10.33,44.42-7.8,1.83-15.38,3.62-22.97,5.37-31.1,7.21-62.21,14.42-93.33,21.57-2.08.47-2.78,1.4-2.9,3.55-.97,18.2-13.4,32.28-31.26,35.64-.55.1-1.07.42-1.6.63h-9.99c-.53-.22-1.05-.53-1.6-.63-16.22-3.06-28.08-15.08-30.95-31.4-2.69-15.24,4.78-30.97,18.66-38.97,1.9-1.09,2.73-1.93,2.15-4.36-6.95-29.58-13.8-59.19-20.57-88.82-.58-2.56-1.58-3.39-4.24-3.37-19.5.12-39,.02-58.5.12-2.75.01-4.46-.65-5.99-3.18-6.82-11.28-13.91-22.41-20.91-33.58-.53-.84-1.13-1.63-2.1-3.02-.14,1.31-.25,1.86-.25,2.41,0,23.78-.04,47.56.1,71.34,0,1.28,1.15,3.05,2.29,3.77,12.68,7.95,25.41,15.82,38.25,23.51,2.52,1.5,3.25,3.17,3.22,5.96-.13,13.43-.04,26.87-.06,40.3-.03,19.97-.08,39.95-.12,59.92h-45.66c.04-25.51.12-51.03.01-76.54-.01-1.23-1.39-2.89-2.58-3.63-16.21-10.08-32.48-20.06-48.78-30-10.48-6.38-17.68-15.27-21.12-27.1-.65-2.26-1.16-4.56-1.73-6.85v-97.03c2.38-5.61,3.98-11.75,7.3-16.74,7.04-10.56,17.56-15.92,30.25-15.96,11.02-.04,22.19-.23,33.03,1.39,14.3,2.15,25.3,10.54,33.17,22.64,7.25,11.15,14.19,22.5,21.17,33.83,1.24,2.02,2.54,2.97,5.05,2.92,8.66-.18,17.33-.07,26.7-.07-4.1-17.78-8.1-35.14-12.21-52.99,14.88-3.45,29.49-6.84,44.45-10.31,14.9,64.23,29.72,128.14,44.69,192.73,39.51-9.15,78.86-18.26,118.6-27.47Z"/><path class="cls-1" d="m335.86,205.32c2.48,11.21-4.2,22.95-15.34,25.97-14.76,3.99-29.65,7.6-44.63,10.64-12.2,2.48-23.07-4.9-26.12-17.09-3.6-14.38-6.86-28.85-10.21-43.29-.35-1.49-.37-3.05-.44-3.71-.06-11.23,6.36-20.22,16.44-22.83,14.46-3.75,28.99-7.29,43.59-10.43,12-2.58,23.42,4.78,26.4,16.74,3.65,14.61,7.06,29.29,10.31,44Z"/><path class="cls-1" d="m53.48.97c20.99-.03,38.09,17.08,38.08,38.08-.01,20.95-17.31,38.2-38.17,38.05-20.85-.15-37.81-17.12-37.95-37.96C15.3,18.28,32.52,1,53.48.97Z"/><path class="cls-1" d="m45.83,308.9c.12,19.11.08,38.23.08,57.35H.25v-89.18c14.64,9.22,29.31,18.4,43.86,27.75,1.04.68,1.72,2.68,1.72,4.08Z"/></svg>