<?xml version="1.0" encoding="UTF-8"?><svg id="Lag_1" xmlns="http://www.w3.org/2000/svg" viewBox="0 0 384.5 384.5"><path d="m143.97.25h95.81c0,17.59.06,35.18-.07,52.77-.02,2.56.76,3.64,3.14,4.53,12.81,4.77,24.66,11.32,35.54,19.61,2.35,1.79,4.68,3.62,7,5.41,16.26-9.38,32.28-18.63,48.51-28,16.07,27.87,31.92,55.33,47.84,82.94-1.47.89-2.51,1.55-3.58,2.16-14.13,8.17-28.25,16.37-42.44,24.44-1.96,1.12-2.51,2.24-2.13,4.44,2.69,15.5,2.69,31.03.01,46.52-.42,2.42.27,3.55,2.32,4.69,7.84,4.36,15.57,8.91,23.34,13.4,7.42,4.29,14.83,8.59,22.51,13.03-16.04,27.8-31.9,55.28-47.88,83-16.34-9.44-32.39-18.7-48.61-28.06-13.6,11.53-28.75,20.25-45.64,26.36v55.75h-95.67v-55.83c-16.74-6.03-31.89-14.74-45.48-26.26-16.22,9.36-32.27,18.62-48.62,28.05-15.99-27.72-31.85-55.2-47.83-82.9,1.29-.8,2.31-1.48,3.36-2.09,14.03-8.1,28.03-16.25,42.12-24.24,2.3-1.31,3.01-2.55,2.55-5.27-2.6-15.25-2.6-30.54.02-45.79.43-2.52-.13-3.75-2.36-5.02-14.09-7.99-28.09-16.15-42.11-24.25-1.14-.66-2.26-1.35-3.6-2.15,16.06-27.83,31.91-55.3,47.86-82.94,8.36,4.82,16.34,9.42,24.32,14.03,8.08,4.67,16.17,9.33,24.32,14.04,13.1-11.08,27.52-19.57,43.4-25.61,1-.38,1.96-2.38,1.97-3.63.13-17.71.09-35.43.09-53.14Zm48.16,143.72c-26.49-.04-48.08,21.28-48.16,47.56-.09,26.63,21.27,48.17,47.84,48.24,26.5.07,47.99-21.48,47.97-48.11-.02-26.11-21.54-47.64-47.65-47.68Z"/></svg>