<?xml version="1.0" encoding="UTF-8"?><svg id="Lag_1" xmlns="http://www.w3.org/2000/svg" viewBox="0 0 384.5 384.5"><defs><style>.cls-1{fill:#fff;}</style></defs><path class="cls-1" d="M116.27,.25c3.71,2.63,7.88,4.8,11.05,7.96,42.16,42.03,84.18,84.2,126.24,126.34,16.62,16.66,25.06,36.72,24.35,60.33-.64,21.3-8.88,39.46-23.85,54.54-14.68,14.8-29.43,29.52-44.16,44.27-27.33,27.38-54.61,54.82-82.06,82.08-3.36,3.33-7.69,5.68-11.57,8.48h-6.73c-9.31-4.02-13.03-8.91-12.76-16.77,.17-4.8,2.5-8.48,5.8-11.77,19.25-19.23,38.46-38.51,57.69-57.77,23.45-23.5,46.92-46.99,70.36-70.51,20.5-20.57,20.47-49.83-.08-70.44C187.88,114.21,145.18,71.47,102.52,28.69c-9.65-9.68-7.11-22.37,5.45-27.76,.31-.14,.55-.45,.82-.68h7.48Z"/></svg>