<?xml version="1.0" encoding="UTF-8"?><svg id="Lag_1" xmlns="http://www.w3.org/2000/svg" viewBox="0 0 384.5 384.5"><defs><style>.cls-1{fill:#fff;}</style></defs><path class="cls-1" d="M33.55,311.69c4.26,24.41,23.55,40.47,48.69,40.48,73.58,.04,147.17,.02,220.75-.01,2.98,0,6.02-.04,8.94-.56,24.1-4.29,40.26-23.46,40.29-48.1,.08-62.49,.03-124.97,.02-187.45,0-1.19-.15-2.39-.24-3.59h-111.24c-1.54,30.4-24.68,46.39-44.39,47.61-12.06,.75-22.98-2.26-32.6-9.61-12.48-9.54-18.53-22.45-19.22-38.11H33v4.06c0,62.11-.01,124.21,.02,186.32,0,2.99,.02,6.03,.53,8.96ZM176.74,111.72c.04,8.1,4.8,14.31,12,16.02,10.46,2.49,19.71-4.88,19.75-16.02,.1-25.46,.04-50.93,.03-76.39,0-.84-.1-1.69-.17-2.77h-31.63v26.36c0,17.6-.05,35.2,.02,52.8Zm204.59-52.52c1.23,4.53,1.96,9.2,2.92,13.8v238.5c-.24,1.07-.58,2.13-.72,3.21-4.07,32.49-28.76,59.95-60.6,67.3-3.73,.86-7.52,1.5-11.29,2.24H73.61c-.84-.22-1.66-.55-2.51-.66C31.47,378.59,1.2,345.21,1.08,305.45c-.11-36.37-.16-72.75-.16-109.12,0-39.12,.06-78.24,.15-117.36C1.14,47.05,21.35,17.76,51.02,6.24c7-2.72,14.55-4.03,21.84-5.99h239.53c.69,.23,1.36,.58,2.06,.68,32.13,4.15,58.38,26.95,66.88,58.27Zm-29.05,20.94c-.2-2.7-.18-5.08-.59-7.39-4.28-24.17-23.37-40.3-47.97-40.42-19.82-.09-39.65-.02-59.48,0-1.18,0-2.36,.14-3.47,.21v47.61h111.51Zm-207.56-.13V32.58c-.92-.13-1.4-.25-1.88-.25-21.57,.02-43.15-.3-64.72,.16-21.29,.46-40.19,17.11-44.16,38.09-.58,3.08-.7,6.26-1.04,9.43h111.8Z"/><path class="cls-1" d="M303.73,288.26c9.39,.07,16.39,6.67,16.67,15.64,.27,8.75-6.68,16.19-15.98,16.33-16.06,.24-32.13,.26-48.18-.02-9.31-.17-15.98-7.61-15.69-16.55,.28-8.73,7.29-15.32,16.48-15.4,7.72-.06,15.44-.01,23.16-.01s15.69-.04,23.54,.01Z"/></svg>