<?xml version="1.0" encoding="UTF-8"?><svg xmlns="http://www.w3.org/2000/svg" viewBox="0 0 456.5 595.87"><defs><style>.cls-1{fill:#fff;}</style></defs><g id="Lag_1"><g><path class="cls-1" d="M33.55,523.06c4.26,24.41,23.55,40.47,48.69,40.48,73.58,.04,147.17,.02,220.75-.01,2.98,0,6.02-.04,8.94-.56,24.1-4.29,40.26-23.46,40.29-48.1,.08-62.49,.03-124.97,.02-187.45,0-1.19-.15-2.39-.24-3.59h-111.24c-1.54,30.4-24.68,46.39-44.39,47.61-12.06,.75-22.98-2.26-32.6-9.61-12.48-9.54-18.53-22.45-19.22-38.11H33v4.06c0,62.11-.01,124.21,.02,186.32,0,2.99,.02,6.03,.53,8.96Zm143.19-199.97c.04,8.1,4.8,14.31,12,16.02,10.46,2.49,19.71-4.88,19.75-16.02,.1-25.46,.04-50.93,.03-76.39,0-.84-.1-1.69-.17-2.77h-31.63v26.36c0,17.6-.05,35.2,.02,52.8Zm204.59-52.52c1.23,4.53,1.96,9.2,2.92,13.8v238.5c-.24,1.07-.58,2.13-.72,3.21-4.07,32.49-28.76,59.95-60.6,67.3-3.73,.86-7.52,1.5-11.29,2.24H73.61c-.84-.22-1.66-.55-2.51-.66-39.63-5-69.9-38.38-70.02-78.14-.11-36.37-.16-72.75-.16-109.12,0-39.12,.06-78.24,.15-117.36,.07-31.92,20.28-61.21,49.95-72.73,7-2.72,14.55-4.03,21.84-5.99h239.53c.69,.23,1.36,.58,2.06,.68,32.13,4.15,58.38,26.95,66.88,58.27Zm-29.05,20.94c-.2-2.7-.18-5.08-.59-7.39-4.28-24.17-23.37-40.3-47.97-40.42-19.82-.09-39.65-.02-59.48,0-1.18,0-2.36,.14-3.47,.21v47.61h111.51Zm-207.56-.13v-47.43c-.92-.13-1.4-.25-1.88-.25-21.57,.02-43.15-.3-64.72,.16-21.29,.46-40.19,17.11-44.16,38.09-.58,3.08-.7,6.26-1.04,9.43h111.8Z"/><path class="cls-1" d="M303.73,499.63c9.39,.07,16.39,6.67,16.67,15.64,.27,8.75-6.68,16.19-15.98,16.33-16.06,.24-32.13,.26-48.18-.02-9.31-.17-15.98-7.61-15.69-16.55,.28-8.73,7.29-15.32,16.48-15.4,7.72-.06,15.44-.01,23.16-.01s15.69-.04,23.54,.01Z"/></g></g><g id="Lag_3"><g><path class="cls-1" d="M378.18,82.47c13.5,4.5,26.38,10.37,38.26,18.27,6.45,4.29,12.54,9.02,18.01,14.54,5.75,5.81,11.01,12.1,14.63,19.4,4.57,9.21,7.02,18.99,6.87,29.51-.31,22.29-.22,44.59,0,66.89,.05,5.81-2.34,8.33-7.3,10.34-3.15,1.27-6.32,1.92-9.47,1.92-3.83,0-7.62-.96-11.32-2.93-3.53-1.88-5.64-4.83-5.63-8.94,.03-8.68-3.37-16.03-8.36-22.89-8.13-11.2-19.25-18.46-31.6-24.06-19.07-8.66-39.22-12.1-60.03-12.12-31.81-.03-63.62,0-95.42,0-.63,0-1.25,.05-2.21,.09,0,4.89-.09,9.54,.03,14.19,.16,6.72-2.87,11.83-8.43,15.04-16.75,9.69-33.74,9.46-50.46-.1-10.66-6.09-21.04-12.66-31.54-19.03-12.89-7.82-25.76-15.68-38.66-23.49-8.64-5.23-17.27-10.48-25.99-15.59-6.38-3.75-11.64-8.66-14.1-15.65-.7-1.99-1.06-4.05-1.06-6.13,0-2.79,.65-5.6,1.99-8.31,3.29-6.67,8.84-10.88,15.05-14.56,11.83-7.02,23.54-14.25,35.31-21.37,11.64-7.05,23.28-14.09,34.93-21.11,8.65-5.22,17.37-10.32,25.97-15.63,5.79-3.57,12.17-5.15,18.8-5.71,9.52-.8,18.72,.54,27.29,5.08,5.29,2.81,9.17,6.83,10.69,12.74,.38,1.5,.17,3.15,.18,4.73,.02,4.41,.01,8.81,.01,13.49h3.23c27.61,.04,55.23-.09,82.84,.17,23.05,.23,45.6,3.92,67.49,11.22Zm-11.13,74.35c15.51,3.38,30.44,8.33,44.37,16.04,3.53,1.96,6.98,4.04,10.77,6.24,0-6.94-.15-13.5,.04-20.05,.15-5.01-1.33-9.68-3.14-14.09-3.48-8.49-9.08-15.63-15.89-21.77-9.29-8.37-19.94-14.61-31.45-19.36-19.94-8.22-40.81-12.19-62.3-12.36-33.3-.26-66.61-.08-99.92-.13-2.28,0-4.63-.02-6.83-.54-7.42-1.74-12.36-4.53-11.76-14.02,.39-6.22,.07-12.49,.07-18.74v-2.81c-.69,.34-.95,.46-1.2,.61-7.64,4.64-15.27,9.32-22.93,13.94-11.13,6.71-22.3,13.36-33.42,20.09-13.11,7.93-26.21,15.9-39.28,23.91-2.68,1.64-5.57,3.11-5.95,6.92-.36,3.6,1.17,6.04,4.03,7.81,6.36,3.92,12.76,7.77,19.15,11.64,10.79,6.52,21.58,13.03,32.36,19.57,10.92,6.61,21.82,13.24,32.74,19.85,4.69,2.85,9.39,5.67,14.5,8.75v-2.98c0-7.19,.02-14.39-.01-21.58-.01-3.85,1.68-6.68,4.97-8.6,3.99-2.34,8.35-3.07,12.93-3.07,36.47,.03,72.94,.07,109.41,0,16.42-.04,32.68,1.24,48.74,4.73Z"/><path class="cls-1" d="M371.75,103.83c11.51,4.75,22.16,10.99,31.45,19.36,6.81,6.14,12.41,13.28,15.89,21.77,1.81,4.41,3.29,9.08,3.14,14.09-.19,6.55-.04,13.11-.04,20.05-3.79-2.2-7.24-4.28-10.77-6.24-13.93-7.71-28.86-12.66-44.37-16.04-16.06-3.49-32.32-4.77-48.74-4.73-36.47,.07-72.94,.03-109.41,0-4.58,0-8.94,.73-12.93,3.07-3.29,1.92-4.98,4.75-4.97,8.6,.03,7.19,.01,14.39,.01,21.58v2.98c-5.11-3.08-9.81-5.9-14.5-8.75-10.92-6.61-21.82-13.24-32.74-19.85-10.78-6.54-21.57-13.05-32.36-19.57-6.39-3.87-12.79-7.72-19.15-11.64-2.86-1.77-4.39-4.21-4.03-7.81,.38-3.81,3.27-5.28,5.95-6.92,13.07-8.01,26.17-15.98,39.28-23.91,11.12-6.73,22.29-13.38,33.42-20.09,7.66-4.62,15.29-9.3,22.93-13.94,.25-.15,.51-.27,1.2-.61v2.81c0,6.25,.32,12.52-.07,18.74-.6,9.49,4.34,12.28,11.76,14.02,2.2,.52,4.55,.54,6.83,.54,33.31,.05,66.62-.13,99.92,.13,21.49,.17,42.36,4.14,62.3,12.36Z"/></g></g></svg>