<?xml version="1.0" encoding="UTF-8"?><svg id="Lag_1" xmlns="http://www.w3.org/2000/svg" viewBox="0 0 384.5 384.5"><defs><style>.cls-1{fill:#fff;}</style></defs><path class="cls-1" d="M360.98,216.23c-.87,.05-1.74,.02-2.62,.02H26.79c-13.25,0-22.77-7.32-25.29-19.37-.33-1.59-.49-3.18-.49-4.75,0-12.24,9.7-23.09,22.43-23.83,1.62-.09,3.24-.05,4.86-.05H355.01c17.35,0,23.1,3.98,29.24,20.25v7.5c-1.03,2.66-1.75,5.49-3.14,7.94-4.4,7.77-11.24,11.77-20.13,12.29Z"/><path class="cls-1" d="M354.77,280.19c17.33,0,23.39,4.12,29.48,20.06v8.25c-.71,1.84-1.29,3.73-2.14,5.51-4.19,8.75-11.1,13.54-20.83,14.12-1.24,.07-2.49,.06-3.74,.06-109.91,0-219.81,.01-329.72-.06-3.56,0-7.3-.26-10.67-1.33-9.73-3.11-16.2-12.53-16.2-22.46,0-1,.07-2.01,.2-3.01,1.57-11.8,10.94-20.35,23.15-21.09,1.62-.1,3.24-.05,4.87-.05H354.77Z"/><path class="cls-1" d="M357.92,56.32c14.01,0,21.53,5.59,25.86,19.12,.07,.22,.31,.38,.47,.56v8.25c-.24,.56-.55,1.1-.71,1.68-3.02,10.93-11.41,17.7-22.79,18.34-1,.06-2,.04-3,.04-110.15,0-220.31,.01-330.46-.04-2.96,0-6.02-.27-8.87-1.05C8.01,100.37,.95,90.77,.95,80.31c0-.92,.06-1.84,.17-2.77,1.42-11.84,11.03-20.71,22.97-21.18,1.12-.04,2.24-.05,3.36-.05,110.16,0,220.32,0,330.47,.01Z"/></svg>