<?xml version="1.0" encoding="UTF-8"?><svg id="Lag_1" xmlns="http://www.w3.org/2000/svg" viewBox="0 0 384.5 384.5"><defs><style>.cls-1{fill:#fff;}</style></defs><path class="cls-1" d="M383.32,184.55c.28,1.08,.62,2.14,.93,3.2v9c-.93,2.83-1.63,5.76-2.83,8.47-6.35,14.4-21.99,21.91-37.09,17.94-15.5-4.08-25.08-18-23.72-34.48,1.24-15.01,14.01-27.09,29.99-28.38,14.76-1.18,28.94,9.33,32.72,24.25Z"/><path class="cls-1" d="M192.71,160.22c17.52,.08,31.87,14.49,31.88,32.02,.01,17.51-14.34,31.94-31.87,32.04-17.55,.1-32.23-14.65-32.06-32.21,.16-17.58,14.6-31.94,32.05-31.85Z"/><path class="cls-1" d="M64.78,192.08c.08,17.66-13.94,31.96-31.59,32.2-17.39,.24-32.04-14.18-32.18-31.68-.15-17.75,14.15-32.29,31.84-32.39,17.49-.1,31.84,14.23,31.93,31.87Z"/></svg>