<?xml version="1.0" encoding="UTF-8"?><svg id="Lag_1" xmlns="http://www.w3.org/2000/svg" viewBox="0 0 384.5 384.5"><defs><style>.cls-1{fill:#7ad8e7;}</style></defs><path class="cls-1" d="M237.44,.87c26.88,2.12,51.72,10.45,74.14,25.41,37.64,25.09,61.04,59.92,69.78,104.44,1.27,6.45,1.94,13.02,2.89,19.53v13.5c-2.36,5.93-5.88,10.66-12.57,12.07-9.01,1.9-17.66-3.77-19-12.91-.81-5.54-.65-11.22-1.27-16.8-5.73-51.93-42.34-95.05-92.58-109.13-10.87-3.04-21.94-4.53-33.22-4.68-8.13-.11-13.92-4.22-16.18-10.97-2.56-7.66,1.02-16.07,8.32-19.54,1.1-.52,2.21-1.03,3.32-1.54h13.47c.97,.21,1.92,.54,2.9,.62Z"/><path class="cls-1" d="M92.09,1.23c11.68,2.75,21.32,8.5,28.65,18.3,9.5,12.7,19.38,25.1,29.19,37.56,14.77,18.76,14.09,45.35-1.48,63.55-6.41,7.49-12.3,15.42-18.61,23-1.6,1.94-.82,3.4-.08,5.1,12.58,29.02,30.84,53.84,54.81,74.43,15.53,13.35,32.74,24.02,51.49,32.25,2.22,.98,3.69,.89,5.62-.72,7.76-6.48,15.73-12.69,23.55-19.1,18.86-15.45,45.74-14.75,64.32,1.01,11.79,10,24.29,19.16,36.56,28.58,9.83,7.55,15.1,17.68,17.41,29.62,.16,.83,.48,1.63,.73,2.44v11.25c-1.66,7.97-3.49,16-8.69,22.44-7.06,8.73-14.04,17.66-22.12,25.39-18.76,17.95-41.78,26.24-67.5,27.13-1.67,.06-3.34,.09-5,.09-27.19,0-52.71-7.67-77.36-18.85-36.73-16.67-68.92-40.07-98.08-67.75-34.97-33.2-64.3-70.68-84.56-114.78C9.46,157.18,1.67,131.26,1.67,103.63c0-1.9,.03-3.82,.11-5.74,.88-22.6,7.12-43.69,22.09-60.79,9.53-10.88,21.12-20.06,32.39-29.26,3.95-3.22,9.69-4.27,14.64-6.22,1.59-.62,3.3-.92,4.95-1.37h12.73c1.17,.33,2.33,.7,3.51,.98Zm120.33,331.49c21.6,10.74,44.16,18.37,70.76,18.83,2.75-.23,7.63-.35,12.42-1.11,15.76-2.52,29.42-9.08,39.91-21.53,3.94-4.67,8.03-9.23,12.04-13.84,7.01-8.04,5.97-19.27-2.37-25.76-12.51-9.72-25.02-19.45-37.53-29.18-6.66-5.19-15.46-5.13-22.11,.21-10.8,8.67-21.64,17.3-32.36,26.08-5.77,4.72-11.83,5.71-18.8,2.93-65.91-26.37-112.1-72.45-138.5-138.5-2.9-7.27-1.99-13.48,2.94-19.49,8.71-10.62,17.22-21.4,25.79-32.14,5.36-6.72,5.5-15.44,.31-22.16-9.76-12.65-19.56-25.27-29.35-37.9-6.31-8.15-17.18-9.27-25.09-2.53-4.65,3.97-9.07,8.23-13.85,12.03-6.01,4.77-10.33,10.77-13.91,17.42-6.16,11.45-8.95,23.78-9.25,36.69-.42,18.66,3.91,36.42,10.66,53.64,11.9,30.34,29.65,57.09,50.64,81.75,33.2,38.99,71.57,71.66,117.65,94.56Z"/><path class="cls-1" d="M235.89,64.98c44.11,5.35,78.36,39.77,83.83,84,.27,2.23,.34,4.48,.5,6.72,.15,.02,.31,.04,.46,.06-.39,3.19-.35,6.52-1.25,9.56-2.13,7.21-9.63,11.81-16.84,10.8-8.11-1.14-13.94-7.33-14.1-15.44-.18-9.37-1.7-18.44-5.83-26.86-11.78-24.07-31.15-36.57-57.89-37.56-8.62-.32-14.96-5.9-16.07-14.3-.97-7.34,3.88-15.42,11.24-16.84,5.15-.99,10.7-.77,15.95-.14Z"/></svg>