<?xml version="1.0" encoding="UTF-8"?><svg id="Lag_1" xmlns="http://www.w3.org/2000/svg" viewBox="0 0 384.5 384.5"><defs><style>.cls-1{fill:#7ad8e7;}</style></defs><path class="cls-1" d="M192.45,128.16c-13.12-.08-23.71-10.57-23.77-23.87-.1-26.72-.08-53.44,0-80.16,.03-10.67,6.64-19.46,16.77-22.8,.91-.3,1.79-.72,2.68-1.08h8.24c.69,.25,1.37,.55,2.08,.75,10.72,2.95,17.97,11.87,18.03,22.98,.13,26.84,.17,53.69-.02,80.53-.09,13.33-10.95,23.73-24.01,23.65Z"/><path class="cls-1" d="M132.81,66.14c7.48,11.55,4.1,25.98-8.13,33.85-23.84,15.35-41.02,36.14-51.33,62.6-28.15,72.25,15.89,154.28,91.63,170.65,70.93,15.33,139.49-30.13,153.14-101.54,9.55-49.99-12.65-102.39-55.34-130.09-7.59-4.92-13.54-10.62-14.19-20.23-.65-9.72,3.05-17.43,11.28-22.53,8.24-5.11,16.87-5.07,25.15-.02,15.68,9.56,29.51,21.38,41.26,35.5,30.93,37.14,44.93,79.98,41.29,128.17-6.01,79.4-65.32,144.66-143.82,158.85-6.59,1.19-13.26,1.94-19.9,2.9h-21.71c-6.64-.92-13.33-1.59-19.93-2.79-70.54-12.78-125.27-65.21-140.97-134.91C5,174.43,36.27,99.18,98.94,59.59c12.04-7.61,26.52-4.81,33.87,6.55Z"/></svg>