<?xml version="1.0" encoding="UTF-8"?><svg id="Lag_1" xmlns="http://www.w3.org/2000/svg" viewBox="0 0 1125 2438.37"><defs><style>.cls-1{fill:#d3ddc3;}.cls-2{fill:#92fdd0;}.cls-3{fill:#7bd490;}.cls-4{fill:#a9eade;}.cls-5{fill:#75fd9c;}.cls-6{fill:#9febcd;}.cls-7{fill:#99bfa9;}.cls-8{fill:#8fcae3;}.cls-9{fill:#b9fdea;}.cls-10{fill:#89fbbb;}.cls-11{fill:#85e3fc;}.cls-12{fill:#95aec8;}.cls-13{fill:#95d66c;}.cls-14{fill:#b3fec8;}.cls-15{fill:#78b983;}.cls-16{fill:#b0f0fe;}</style></defs><path class="cls-3" d="M1124.78,2134.66c0,98.09-.12,196.18,.22,294.27,.03,7.8-1.57,9.42-9.37,9.38-71.04-.38-142.09-.22-213.13-.22,2.54-9.26,.38-17.94-3.25-26.45-4.37-10.22-14.17-6.15-21.6-8.36-4.34-1.3-7.37,.64-7.84,4.41-1.24,9.85-7.84,9.58-15.21,9.57-95.61-.13-191.22-.12-286.83-.14,.15-2.6,.11-5.23,.48-7.81,2.76-19.39,4.14-20.4,25.33-18.96,.86,.06,1.75,.16,2.6,.06,35.16-4.32,70.45-1.11,105.67-1.85,24.39-.51,48.97-1.87,73.16,.41,23.66,2.22,47.31-8.48,70.69,.98,.92,.37,2.55-.5,3.65-1.14,5.07-2.94,10.31-3.62,16.51-.12,0-64.2,.06-126.92-.14-189.65-.01-4.21-1.66-8.53-3.08-12.6-3.18-9.11-8.99-13.57-19.08-10.15-9.22,3.13-18.81,2.93-28.41,2.92-71.9-.09-143.8-.05-215.69-.06-12.39,0-25.04,3.61-36.97-2.7-.11-.79-.2-1.57-.28-2.36,0-2.72,0-5.45,0-8.17,5.27-3.84,5.41-9.55,5.54-15.26,19.34-.08,38.69-.23,58.03-.24,70.95-.03,141.9-.1,212.85,.06,13.52,.03,27.96-.57,30.21,18.49,.16,1.39,1.66,3.14,2.98,3.78,4.48,2.16,32.56-7.45,34.19-12.57,2.92-9.21,7.88-16.68,14.8-23.11,67.95-4.6,136-1.4,203.99-2.39Z"/><path class="cls-8" d="M1124.78,1185.15v15.69c-85.32-.09-170.65-.19-255.97-.28-3.08-12.66-5.38-25.38-5.36-38.53,.11-75.68-.25-151.37,.32-227.04,.1-12.91-3.05-17.21-16.58-17.12-85.22,.59-170.46,.3-255.69,.3-3.45-.29-6.89-.58-10.34-.88-.14-3.64-.81-7.6-4.65-8.56-14.2-3.55-15.15-15.23-16.41-26.4-2.09-18.5-2.26-18.93-21.55-18.93-79.14,0-158.28,.27-237.42-.27-13.67-.09-28.17,2.91-41.03-5.09-.29-1.71-.59-3.42-.88-5.13,0-61.02,0-122.05,0-183.07,.3-1.71,.6-3.42,.89-5.13,7.22-4.57,15.07-5.5,23.56-5.47,77.91,.22,155.82,.12,233.73,.11,10.88,0,21.77,.19,32.64-.13,8.34-.24,14.19-4.74,11.55-13.25-3.11-10,1.51-13.49,8.9-18.4,16.03-10.65,26.46-24.42,26.31-45.82-.66-91.86-.24-183.72-.22-275.58,3.45-.03,6.89-.07,10.34-.11,5.38,.9,10.33-1.2,15.44-2.18,1.01,.86,2.03,1.72,3.04,2.58,.85,9.5,2.42,18.99,2.44,28.49,.19,85.44,.07,170.87,.21,256.31,.01,6.4-1.23,11.75-5.51,16.75-5.09,5.95-13.1,10.98-5.99,21.32,2.14,3.1-2.34,7.57-6.85,9.58-7.32,3.27-12.93,8.3-16.44,15.94-2.14,4.67-6.39,10.46-11.64,9.14-14.04-3.53-14.47,5.99-16.77,14.88-1.66,6.41-2.33,12.78-2.32,19.36,.08,41.85,.21,83.69-.11,125.54-.07,8.86,1.7,17.32,3.33,25.81,1.04,5.44,3.06,12.13,10.77,10.19,7.78-1.96,11.2,2.48,14.86,7.57,2.73,3.8,4.72,7.96,10.29,9.23,9.93,2.27,15.1,8.75,12.3,19.22-1.73,6.44,1.58,9.37,6.52,10.57,7.98,1.93,16.08,5.33,24.31,3.88,26-4.58,52.15-1.82,78.21-2.17,40.09-.54,80.19-.52,120.27,.1,17.5,.27,17.5,1.21,17.5-16.5,0-88.92-.02-177.85,.07-266.77,0-5.08-1.52-10.54,2.33-15.09,1.79-.11,3.59-.21,5.38-.32,.98,.22,1.97,.44,2.95,.65-.28,16.93-.8,33.86-.79,50.79,.08,84.75,.3,169.51,.47,254.26-2.9,5.19-2.76,10.86-2.76,16.55,.03,78.87,0,157.75,.04,236.62,0,16.18,.6,16.72,17.15,16.72,79.72,.03,159.45,.02,239.18,.03Z"/><path class="cls-2" d="M518.08,2438.09h-196.13c2.08-14.17-3.43-26.25-9.92-38.31-7.08-13.15-21.87-16.37-31.7-25.87-23.76,10.07-15.35-9.7-15.61-18.23-2.08-68.59,2.83-137.29-2.88-205.85-.37-4.43,.44-8.66,2.65-12.58,73.37,0,146.75,.02,220.12-.06,5.07,0,10.5,1.42,15.05-2.34,4.65-.5,9.12,.09,13.31,2.29,0,3.8,3.17,7.59,.68,11.33-4.84,7.26-1.13,12.15,3.01,18.4,10.97,16.57,28.06,22.15,45.36,27.84,.03,64.57,.06,129.14,.09,193.71-43.59,7.73-43.9,8.08-44.02,49.66Z"/><path class="cls-1" d="M.29,1828.62v-303.42c84.57-.11,169.14-.23,253.71-.34,.99,.98,1.98,1.96,2.97,2.94,.09,4.48-1.46,9.27,2.4,13.06-.02,93.31-.03,186.61-.05,279.92-4.23,2.88-10.53,2.33-13.16,7.89-81.96-.01-163.92-.02-245.88-.03Z"/><path class="cls-16" d="M868.55,609.52c-1.79,.11-3.59,.21-5.38,.32,2.16-7.14,2.74-14.42,2.73-21.89-.11-83.2,.1-166.41-.28-249.61-.05-10.71,5.17-21.41,.22-32.12,.77-.82,1.54-1.63,2.3-2.45,85.54,1.69,171.08,3,256.63,2.49v300.81c-79.96,0-159.91-.02-239.87,.09-5.5,0-11.38-1.59-16.37,2.36Z"/><path class="cls-6" d="M254,1524.85c-84.57,.11-169.14,.23-253.72,.34v-306.04c68.8-.05,137.6-.1,206.41-.15,3.58,.11,7.16,.21,10.74,.31,.9,9.65-2.04,19.41,4.89,28.68,10.09,13.5,23.68,9.97,36.79,10.1,.04,3.59,.09,7.18,.13,10.77-.05,74.76-.26,149.52,.06,224.28,.04,9.84-4.43,19.67-.19,29.51-1.7,.73-3.41,1.47-5.11,2.2Z"/><path class="cls-8" d="M1124.78,306.26c-85.56,.51-171.1-.8-256.63-2.5,.02-84.55,.04-169.1,.06-253.64,.08-6.96,.17-13.92,.25-20.89,19.26-3.97,27.29-12.06,28.81-29.01C970.05,.22,1042.84,.38,1115.63,0c7.81-.04,9.4,1.57,9.37,9.38-.33,98.96-.22,197.92-.22,296.88Z"/><path class="cls-15" d="M871.18,915.23c-.17-84.75-.39-169.51-.47-254.26-.02-16.93,.51-33.86,.79-50.79,8.7-.05,17.41-.12,26.11-.13,75.72-.12,151.45-.24,227.17-.36v306.04c-4.41-.12-8.82-.23-13.22-.35-26.92-3.18-53.85-3.19-80.77,0-8.82,0-17.63,0-26.45,0-27.8-3.21-55.59-3.22-83.38,0-16.59-.05-33.18-.11-49.77-.16Z"/><path class="cls-5" d="M.29,1828.62c81.96,.01,163.92,.02,245.88,.03,0,0-.09,.59-.09,.59,3.91,5.97,8.29,10.95,8.25,19.47-.52,94.41-.39,188.83-.44,283.25-5.23,2.57-10.68-1.15-15.94,.55-79.22-.16-158.44-.32-237.66-.47v-303.42Z"/><path class="cls-10" d="M.29,303.65C.29,205.79,.4,107.92,.09,10.06,.06,2.02,1.75-.03,10.03,0c83.92,.36,167.85,.22,251.77,.22-2.28,7.12-2.6,14.42-2.74,21.86-.61,30.85,3.87,61.5,2.84,92.41-1.4,42.08,1.85,84.28-2.66,126.31-4.24,5.11-5.7,13.36-14.65,13.17-18.6-.4-41.59,31.5-48.01,51.21-17.42,3.65-34.71-4-51.89-1.09-16.79,2.84-33.87,1.51-50.23,.98-31.4-1.01-62.86,1.99-94.17-1.42Z"/><path class="cls-12" d="M1124.78,1831.24v298.19c-77.28,1.44-154.6-2.13-231.89,1.61-8.13,.39-17.33,3.86-25.3-1.97,.04-98.31,.08-196.63,.12-294.94,6.93-3.48,14.06-3.38,21.48-1.75,7.08,1.56,14.38,3.63,21.06-1.49,71.51,.11,143.02,.22,214.53,.34Z"/><path class="cls-11" d="M1124.78,1221.77v300.81c-76.58,.02-153.16,0-229.75,.12-8.3,.01-16.5-.36-24.62-2.09,.12-7.41,.32-14.81,.33-22.22,.09-92.37,.16-184.73,.23-277.1l253.81,.48Z"/><path class="cls-13" d="M259.21,669.87c0,61.02,0,122.05,0,183.07-5.89,1.38-5.41,6.2-5.07,10.37,.82,10.26-1.79,16.97-13.88,16.23-3.67-.23-7.68,2.32-8.02,5.52-1.2,11.29-10.51,11.82-20.94,14.69,7.77,3.33,9.43,7.79,8.6,13.33-4.42,.37-9.13-.97-13.09,2.17-1.75,.29-3.5,.57-5.25,.86-6.18-.59-12.37-1.18-18.55-1.76-2.55-5.29-7.45-3.59-11.52-3.6-48.7-.1-97.4-.1-146.1,.01-4.07,0-8.94-1.7-11.66,3.38-4.48,.54-8.96,1.07-13.44,1.61,0-102.01,0-204.03,0-306.04,65.97-.04,131.93-.08,197.9-.14,6.49,0,13.05,.38,19.33-1.91,4.87,2.6,10.23,2.06,15.45,2.39-1.41,9.03,1.42,16.44,9.61,20.6,10.12,5.13,12.08,13.31,11.7,23.66-.2,5.33-3.39,12.58,4.94,15.59Z"/><path class="cls-10" d="M1124.78,1831.24c-71.51-.11-143.02-.22-214.52-.33-6.81-9.01-14.26-17.38-16.71-29.24-1.06-5.13-6.45-9.54-12.88-9.37-7.47,.19-10.06-3.45-9.78-10.36,.12-2.91-1.61-4.83-4.37-5.78-.11-20.91-.34-41.83-.29-62.75,.13-53.15,.39-106.31,.6-159.46,13.3-4.3,26.61,0,39.91-.02,72.68-.06,145.37,.01,218.05,.04v277.27Z"/><path class="cls-4" d="M1111.56,915.38c4.41,.12,8.82,.23,13.22,.35v269.42c-79.72,0-159.45,0-239.18-.03-16.55,0-17.14-.54-17.15-16.72-.04-78.87,0-157.75-.04-236.62,0-5.69-.14-11.36,2.76-16.55,16.59,.05,33.18,.1,49.77,.16,2.96,3.38,6.97,2.81,10.79,2.81,20.61,.03,41.21,.03,61.82,0,3.81,0,7.83,.57,10.78-2.82,8.82,0,17.63,0,26.45,0,3.37,3.74,7.88,2.78,12.07,2.8,18.88,.08,37.76,.08,56.64,0,4.19-.02,8.7,.94,12.07-2.81Z"/><path class="cls-5" d="M259.24,240.8c4.51-42.03,1.26-84.22,2.66-126.31,1.03-30.9-3.45-61.56-2.84-92.41,.15-7.44,.46-14.74,2.74-21.86h237.97c.32,22.53,19.01,49.59,39.38,55.91,7.37,2.29,15.27,2.87,22.94,4.23,.01,55.81,.02,111.62,.03,167.44-5.98,.89-11.96,2.54-17.94,2.55-83.83,.17-167.66,.67-251.48-.46-13.57-.18-24.94-1.05-33.47,10.9Z"/><path class="cls-1" d="M217.51,607.64c-6.28,2.28-12.83,1.9-19.33,1.9-65.97,.07-131.93,.1-197.9,.14V303.65c31.31,3.41,62.77,.41,94.17,1.42,16.36,.53,33.44,1.86,50.23-.98,17.18-2.91,34.48,4.74,51.89,1.1,3.5,.14,7,.27,10.51,.39,2.36,3.82,8.09,4.85,7.74,11.12-.85,15.2,2.79,30.13,2.72,45.43-.41,81.83-.09,163.67-.03,245.51Z"/><path class="cls-12" d="M.29,2132.05c79.22,.16,158.44,.32,237.66,.47,20.95,6.33,15.64,23.55,15.92,38.45,1.37,71.59-2.92,143.24,2.53,214.79-5.3-9.85-13.7-10.38-23.24-7.88-1.62,.43-3.45,.07-5.19,.07-75.9,0-151.79-.01-227.69-.02v-245.88Z"/><path class="cls-16" d="M.29,915.73c4.48-.54,8.96-1.07,13.43-1.6,15.12,2.33,30.34,.99,45.5,.99,41.26-.01,82.52-.5,123.78-.79,6.18,.59,12.37,1.18,18.55,1.76,.02,85.74-.03,171.48,.17,257.22,.02,9.48,3.71,19.52,1.54,28.27-1.88,7.55-.89,12.22,3.44,17.43-68.8,.05-137.6,.1-206.4,.16,0-101.14,0-202.28,0-303.42Z"/><path class="cls-7" d="M.29,2377.92c75.9,0,151.79,.01,227.69,.02,1.73,0,3.57,.36,5.19-.07,9.53-2.51,17.93-1.97,23.24,7.88,.32,15.75,14.82,20.09,23.81,28.43,7.41,6.87,13.66,13.16,12.96,23.9-94.23,0-188.46-.18-282.69,.28-9.38,.05-10.83-2.44-10.43-10.94,.78-16.47,.23-33,.23-49.5Z"/><path class="cls-3" d="M1124.78,1553.97c-72.68-.03-145.37-.1-218.05-.04-13.3,.01-26.61-4.28-39.92,.02-.42-5.99-.84-11.97-1.25-17.96,5.18-4,1.11-10.92,4.85-15.37,8.12,1.72,16.32,2.1,24.62,2.09,76.58-.11,153.16-.1,229.75-.12v31.39Z"/><path class="cls-15" d="M567.76,2417.11c95.61,.02,191.22,.01,286.84,.14,7.37,.01,13.97,.28,15.21-9.57,.47-3.77,3.5-5.7,7.84-4.41,7.43,2.22,17.23-1.86,21.6,8.36,3.64,8.52,5.8,17.19,3.25,26.45h-345.19c.08-6.1,.15-12.19,.23-18.29,3.56-.33,7.42,.52,10.22-2.69Z"/><path class="cls-7" d="M565.15,.22c101.12,0,202.23,0,303.35,0-.79,6.16,2.11,12.88-2.84,18.39-17.94,8.75-37.35,4.28-55.8,4.66-72.85,1.48-145.75,.81-218.62,.95-2.57-3.31-5.15-3.29-7.73-.03-6.92-.07-13.82-3.7-20.75-.04,.8-7.98,1.6-15.95,2.39-23.93Z"/><path class="cls-12" d="M1124.78,1221.77c-84.6-.16-169.21-.32-253.81-.47-3.64-6.6-2.3-13.73-2.16-20.73,85.32,.09,170.65,.19,255.97,.28v20.93Z"/><path class="cls-6" d="M293.18,2438.09c.7-10.74-5.56-17.03-12.96-23.9-8.99-8.34-23.49-12.69-23.81-28.43-5.45-71.54-1.16-143.2-2.53-214.79-.29-14.9,5.03-32.12-15.92-38.45,5.26-1.7,10.71,2.02,15.94-.55,3.53,.01,7.06,.02,10.58,.03l-.17,.4,.18,4.87c-2.21,3.91-3.02,8.14-2.65,12.58,5.71,68.56,.79,137.25,2.88,205.85,.26,8.52-8.15,28.29,15.61,18.23,9.83,9.49,24.62,12.72,31.7,25.87,6.49,12.06,12,24.14,9.92,38.31h-28.77Z"/><path class="cls-3" d="M565.15,.22c-.8,7.98-1.6,15.95-2.4,23.92,.06,3.38,.13,6.77,.19,10.16,.05,8.71,.09,17.41,.14,26.12l-1-.05c-7.66-1.36-15.56-1.95-22.93-4.23-20.36-6.32-39.06-33.38-39.38-55.91,21.79,0,43.58,0,65.38,0Z"/><path class="cls-7" d="M867.58,2129.08c7.97,5.83,17.18,2.36,25.3,1.97,77.29-3.74,154.61-.17,231.89-1.61v5.23c-67.99,.99-136.04-2.21-203.99,2.39-12.42-2.53-25.08-1.04-36.29,3.22-10.25,3.89-15.69,.97-21.17-6.39,1.42-1.6,2.84-3.2,4.26-4.8Z"/><path class="cls-6" d="M518.08,2438.09c.12-41.58,.43-41.93,44.02-49.66-1.62,7.77-3.25,15.55-4.87,23.32-14.41,3.86-20.23,11.22-20.84,26.34h-18.31Z"/><path class="cls-9" d="M1124.78,609.69c-75.72,.12-151.45,.23-227.17,.36-8.7,.01-17.41,.09-26.11,.13-.98-.22-1.97-.43-2.95-.65,4.99-3.96,10.87-2.36,16.37-2.36,79.95-.11,159.91-.08,239.87-.09v2.62Z"/><path class="cls-12" d="M865.66,18.62c4.95-5.51,2.05-12.24,2.84-18.39h28.77c-1.52,16.96-9.55,25.04-28.81,29.01-.16-.91-.31-1.82-.47-2.73-.78-2.63-1.55-5.26-2.33-7.89Z"/><path class="cls-7" d="M536.38,2438.09c.61-15.12,6.44-22.48,20.85-26.33,.1,2.68,.21,5.37,.31,8.05-.08,6.1-.15,12.19-.23,18.29h-20.92Z"/><path class="cls-5" d="M557.54,2419.8c-.1-2.68-.2-5.36-.31-8.05,1.62-7.78,3.25-15.55,4.87-23.33-.03-64.57-.06-129.14-.08-193.71,.16-6.09,.3-12.18,.45-18.27,11.93,6.3,24.59,2.69,36.97,2.7,71.9,.02,143.8-.03,215.69,.06,9.6,.01,19.2,.21,28.41-2.92,10.1-3.43,15.9,1.04,19.08,10.15,1.43,4.08,3.07,8.39,3.08,12.6,.2,62.73,.14,125.45,.14,189.65-6.2-3.5-11.45-2.81-16.51,.12-1.1,.64-2.72,1.51-3.65,1.14-23.38-9.47-47.03,1.24-70.69-.98-24.19-2.27-48.76-.92-73.16-.41-35.22,.74-70.51-2.47-105.67,1.85-.85,.1-1.73,0-2.6-.06-21.19-1.44-22.57-.43-25.33,18.96-.37,2.57-.33,5.2-.48,7.81-2.8,3.21-6.67,2.36-10.22,2.69Z"/><path class="cls-15" d="M863.32,2133.88c5.48,7.36,10.92,10.29,21.17,6.39,11.21-4.26,23.88-5.75,36.29-3.22-6.92,6.43-11.88,13.89-14.8,23.11-1.62,5.12-29.71,14.72-34.19,12.57-1.33-.64-2.82-2.39-2.98-3.78-2.25-19.06-16.69-18.46-30.21-18.49-70.95-.16-141.9-.09-212.85-.06-19.34,0-38.69,.16-58.03,.24-1.73-.08-3.46-.16-5.19-.23-7.9-7.04-5.15-11.67,3.51-14.58,3.23-1.09,6.72-1.37,10.1-2.02,95.73,.02,191.45,.05,287.18,.07Z"/><path class="cls-6" d="M562.47,2176.44c-.15,6.09-.3,12.18-.45,18.27-17.31-5.69-34.4-11.27-45.37-27.84-4.14-6.25-7.84-11.14-3.01-18.4,2.49-3.74-.68-7.52-.68-11.33,6.05,.11,12.09,.22,18.14,.34,.43,1.68,1.69,3.71,1.15,4.99-7.53,18.12,6.99,21.16,17.99,26.53,3.88,1.9,7.96,3.4,11.95,5.08,.08,.79,.18,1.58,.28,2.36Z"/><path class="cls-10" d="M562.19,2174.08c-3.99-1.68-8.07-3.18-11.95-5.08-11-5.37-25.52-8.41-17.99-26.53,.53-1.28-.73-3.31-1.15-4.99,3.28,.06,6.73,1.3,7.26,4.35,2.16,12.49,12.86,16.22,21.53,22.11,.77,.65,1.53,1.31,2.3,1.96,0,2.72,0,5.45,0,8.17Z"/><path class="cls-5" d="M562.19,2165.9c-.77-.65-1.53-1.31-2.3-1.97,.88-4.51,1.76-9.02,2.65-13.53,1.73,.08,3.46,.15,5.19,.23-.13,5.71-.27,11.42-5.54,15.26Z"/><path class="cls-11" d="M865.84,306.22c4.95,10.71-.27,21.41-.22,32.12,.37,83.2,.17,166.41,.28,249.61,.01,7.47-.57,14.75-2.73,21.89-3.85,4.55-2.32,10.01-2.33,15.09-.09,88.92-.06,177.85-.07,266.77,0,17.71,0,16.77-17.5,16.5-40.08-.62-80.19-.64-120.27-.1-26.06,.35-52.21-2.41-78.21,2.17-8.22,1.45-16.33-1.95-24.31-3.88-4.95-1.2-8.25-4.13-6.52-10.57,2.81-10.47-2.36-16.95-12.3-19.22-5.57-1.27-7.56-5.44-10.29-9.23-3.66-5.1-7.08-9.53-14.86-7.57-7.7,1.94-9.72-4.76-10.77-10.19-1.63-8.49-3.4-16.95-3.33-25.81,.32-41.84,.19-83.69,.11-125.54-.01-6.58,.66-12.95,2.32-19.36,2.3-8.89,2.73-18.41,16.77-14.88,5.25,1.32,9.5-4.47,11.64-9.14,3.51-7.65,9.12-12.68,16.44-15.94,4.51-2.01,8.98-6.48,6.85-9.58-7.11-10.34,.89-15.37,5.99-21.32,4.28-5,5.52-10.34,5.51-16.75-.14-85.44-.01-170.87-.21-256.31-.02-9.5-1.59-18.99-2.44-28.49,80.15-.09,160.3-.18,240.45-.26Z"/><path class="cls-7" d="M868.81,1200.56c-.14,7-1.48,14.13,2.16,20.73-.07,92.36-.14,184.73-.23,277.09,0,7.4-.21,14.81-.33,22.22-3.74,4.46,.33,11.38-4.85,15.38-6.41-13.9-18.68-14.15-31.34-13.48,5.16-9.3,.19-18.78,.22-28.15,.36-86.71,.19-173.42,.25-260.12,0-8.16,.83-15.38-11.53-15.27-72.74,.62-145.48,.65-218.22,.88-2.79-.21-5.58-.41-8.37-.62-2.7-2.16-5.26-4.53-8.13-6.44-6.03-4.01-4.65-8.77,.37-11.02,8.73-3.91,7.93-8.47,3.85-15.31-1.61-2.7-1.34-6.73-1.34-10.16,0-86.03,.09-172.07,.16-258.1,85.23,0,170.46,.29,255.68-.3,13.53-.09,16.68,4.2,16.58,17.12-.57,75.68-.21,151.36-.32,227.04-.02,13.14,2.28,25.86,5.36,38.53Z"/><path class="cls-9" d="M865.84,306.22c-80.15,.09-160.3,.17-240.45,.26-1.01-.86-2.02-1.71-3.03-2.58,2.12-7.11,8.1-5.01,13.03-5.54,5.52-.59,11.65,1.68,17.79-2.96-20.45-4.88-20.27-4.95-28.47-26.06-2.83-7.28-6.62-14.22-10.29-21.14-2.81-5.31-7.9-10.03-13.39-9.12-17.52,2.9-25.42-3.46-24.02-21.24,.02-.2-1.4-.52-2.15-.79q-4.8,20.28-10.47,24.11c-.29-4.54,1.09-9.36-2.27-13.36,0-55.81-.02-111.62-.03-167.44,0,0,1,.05,1,.05,11.32-2.35,8.75,8.7,11.99,14.13,4.66-3.58,2.27-8.05,3.76-11.46,.9-2.06,2.31-4.71,4.54-3.71,14.64,6.57,30.08,3.17,45.02,3.34,60.44,.65,120.89,.22,181.34,.33,7.13,.01,14.85-1.99,20.36,5.44,2.4,3.24,4.77,.42,7.59-1.08,9.69-5.18,22.31-5.39,28.01-17.2,.17-.35,1.65-.07,2.52-.08-.02,84.55-.04,169.09-.06,253.64-.77,.82-1.54,1.64-2.31,2.45Z"/><path class="cls-12" d="M596.58,306.2c-.02,91.86-.44,183.72,.22,275.58,.15,21.4-10.28,35.17-26.31,45.82-7.39,4.91-12.01,8.39-8.9,18.4,2.65,8.51-3.21,13.01-11.55,13.25-10.87,.32-21.76,.12-32.64,.13-77.91,0-155.82,.11-233.73-.11-8.49-.02-16.34,.9-23.57,5.47-2.65-10.72,1.22-21,2.11-31.48,20.09-2.39,39.32-8.62,60.18-8.31,73.45,1.12,146.94,.44,220.41,.42,3.91,0,7.93,.42,11.7-.34,7.39-1.47,10.98-10.43,6.79-15.99,.41-3.87,1.18-7.74,1.18-11.61,0-96.98-.1-193.95-.17-290.93,8.65-1.18,17.74,1.65,26.03-2.85,3.01,.02,6.03,0,8.26,2.54Z"/><path class="cls-12" d="M260.09,858.06c12.87,8.01,27.37,5,41.03,5.09,79.14,.54,158.28,.26,237.42,.27,19.28,0,19.46,.43,21.55,18.93,1.26,11.17,2.22,22.85,16.41,26.4,3.84,.96,4.52,4.92,4.65,8.57-2.75,.2-5.5,.4-8.25,.6-6.4-11.51-17.62-12.57-28.82-12.59-83.4-.15-166.8-.05-250.19-.1-22.72-.01-25.53-1.96-31.94-20.79-.1-2.62-.2-5.25-.3-7.87-.72-.93-1.45-1.86-2.17-2.79,.2-5.24,.41-10.47,.61-15.71Z"/><path class="cls-15" d="M572.91,917.91c2.75-.2,5.5-.39,8.25-.59,3.44,.28,6.89,.58,10.34,.87-.07,86.03-.15,172.07-.16,258.1,0,3.43-.27,7.46,1.34,10.16,4.08,6.84,4.87,11.4-3.85,15.31-5.02,2.25-6.41,7-.37,11.02,2.87,1.91,5.43,4.28,8.13,6.44,0,0,.01-.01,.01-.01-11.3-.06-22.61-.12-33.91-.19-.08-100.21-.16-200.42-.24-300.62,3.49-.16,6.98-.32,10.47-.48Z"/><path class="cls-4" d="M564.38,241.17q5.68-3.83,10.47-24.11c.75,.27,2.16,.58,2.15,.79-1.39,17.78,6.5,24.14,24.02,21.24,5.49-.91,10.57,3.81,13.39,9.12,3.67,6.93,7.46,13.86,10.29,21.14,8.2,21.11,8.03,21.18,28.47,26.06-6.14,4.64-12.27,2.36-17.79,2.96-4.94,.53-10.92-1.57-13.03,5.54-5.11,.99-10.07,3.09-15.44,2.19,.32-1.69,.1-4.41,1.05-4.93,11.87-6.42,1.66-12.64,.34-19.2-1.72-8.59-6.77-14.79-12.34-20.83-.48-.52-2.9-.28-3.37,.37-8.4,11.44-8.18,.57-10.42-3.96-2.02-4.09-4.06-8.16-6.97-14-2.35,7.11-5.21,11.79-12.15,10.28-.71-4.34-.42-8.57,1.31-12.66Z"/><path class="cls-6" d="M563.07,253.83c6.94,1.51,9.8-3.17,12.15-10.28,2.91,5.84,4.95,9.91,6.97,14,2.23,4.53,2.02,15.4,10.42,3.96,.48-.65,2.89-.89,3.37-.37,5.57,6.04,10.61,12.24,12.34,20.83,1.32,6.56,11.52,12.78-.34,19.2-.96,.52-.73,3.23-1.05,4.93-3.45,.03-6.89,.07-10.34,.1-2.23-2.54-5.25-2.52-8.25-2.55,.56-2.07,2.07-5.66,1.54-6-9.11-5.74-1.66-27.34-21.62-22.72-1.53,.35-3.66-1.89-5.52-2.93,.12-6.06,.23-12.12,.35-18.18Z"/><path class="cls-15" d="M260.09,858.06c-.2,5.24-.41,10.47-.62,15.71,.72,.93,1.45,1.86,2.17,2.78,.1,2.62,.2,5.25,.3,7.87-3.89,3.85-2.27,8.8-2.6,13.34-1.08,14.64-3.47,16.73-18.23,15.64-3.05-.22-5.97-.04-8.34,2.25-2.43-.03-4.86-.06-7.29-.08-1.87-.84-3.74-1.67-5.6-2.51,.84-5.54-.83-10-8.6-13.33,10.43-2.87,19.74-3.4,20.94-14.69,.34-3.2,4.36-5.74,8.02-5.52,12.09,.74,14.7-5.97,13.88-16.23-.33-4.17-.82-8.99,5.07-10.37,.29,1.71,.59,3.42,.88,5.13Z"/><path class="cls-15" d="M262.21,633.26c-.89,10.48-4.76,20.76-2.11,31.48-.29,1.71-.59,3.42-.89,5.13-8.33-3-5.14-10.25-4.94-15.59,.39-10.35-1.57-18.53-11.7-23.66-8.19-4.16-11.03-11.57-9.61-20.6q28.27-1.12,29.24,23.24Z"/><path class="cls-7" d="M562.54,2150.41c-.88,4.51-1.76,9.01-2.65,13.53-8.67-5.88-19.37-9.62-21.53-22.1-.53-3.05-3.98-4.29-7.26-4.35-6.05-.11-12.09-.22-18.14-.33-4.19-2.19-8.66-2.79-13.31-2.29-2.66-2.96-6.23-2.66-9.7-2.66-75.22,.06-150.44,.13-225.65,.19,0,0,.17-.4,.17-.4-2.32-7.1-2.7-14.38-2.7-21.82,0-93.77-.12-187.55-.22-281.32,5.66-.08,11.31-.22,16.97-.22,73.56-.02,147.12-.02,220.68,0,12.86,0,23.95-2.19,28.98-16.66,2.59-7.45,8.67-13.98,16-16.4,10.13-3.34,16.03-9.08,18.11-19.24q.9,31.26,25.47,31.32c77.32,.03,154.64-.13,231.97,.25,8.59,.04,16.73-2.88,25.72-1.01,17.41,3.62,20.09,.64,20.45-17.73,.08-4.34,.4-8.67,.61-13.01,2.75,.95,4.48,2.87,4.37,5.78-.28,6.91,2.31,10.55,9.78,10.36,6.43-.16,11.82,4.25,12.88,9.37,2.45,11.86,9.9,20.23,16.71,29.24-6.69,5.12-13.98,3.04-21.06,1.48-7.42-1.63-14.56-1.74-21.48,1.75-3.01-5.77-8.41-5.24-13.66-5.24-97.05,.1-194.1,.19-291.14,.27-.98-2.71,.69-6.12-2.24-8.46-4.2,1.09-3.21,7.11-7.78,7.99-16.17,3.11-18.29,13.41-14.18,27.33,1.07,3.62,.25,7.8,.25,11.72,0,81.07,0,162.14,0,243.2,0,3.49-.19,6.99,.07,10.46,.73,9.68,5.93,12.87,15,9.26,2.79-1.11,5.43-2.6,8.14-3.92,3.38,4.87,11.23,.88,13.95,7.05-3.37,.65-6.87,.94-10.1,2.02-8.66,2.91-11.4,7.54-3.51,14.58Z"/><path class="cls-10" d="M264.3,2132.39c75.22-.07,150.44-.13,225.65-.19,3.47,0,7.04-.3,9.7,2.66-4.54,3.77-9.98,2.34-15.05,2.35-73.37,.09-146.75,.06-220.12,.06-.06-1.62-.12-3.25-.18-4.87Z"/><path class="cls-4" d="M259.32,1820.77c.02-93.31,.03-186.61,.05-279.92,8.7-4.07,4.32-10.1,2.37-15.77,4.83-2.48,10.05-2.28,15.29-2.44,13.06-.4,25.79,2.73,38.91,2.67,81.32-.38,162.65-.15,243.97-.12,0,77.89-.12,155.78,.15,233.67,.03,9.94-1.66,15.77-13.05,18.34-15.98,3.6-31.19,13.52-32.44,30.07-1.28,17.09-10.16,16.11-21.13,16.11-64.82,.03-129.64,.47-194.45-.37-13.13-.17-26.67,1.95-39.67-2.24Z"/><path class="cls-6" d="M259.32,1820.77c13,4.19,26.55,2.07,39.67,2.24,64.81,.84,129.63,.4,194.45,.37,10.96,0,19.84,.98,21.13-16.11,1.24-16.55,16.46-26.46,32.44-30.07,11.39-2.57,13.08-8.4,13.05-18.34-.27-77.89-.15-155.78-.15-233.67,0,0-.03-.13-.03-.13,0,0,1.25,.01,1.25,.01l1.25-.08c.06,.87,.12,1.75,.18,2.62-.08,82.91-.17,165.82-.25,248.72-2.08,10.15-7.98,15.9-18.11,19.24-7.33,2.42-13.41,8.95-16,16.4-5.03,14.46-16.12,16.66-28.98,16.66-73.56-.02-147.12-.01-220.68,0-5.66,0-11.31,.14-16.97,.22-5.16,.13-10.32,.26-15.48,.39,0,0,.09-.59,.09-.59,2.63-5.56,8.92-5,13.16-7.89Z"/><path class="cls-6" d="M261.74,1525.08c1.95,5.67,6.34,11.7-2.37,15.77-3.87-3.79-2.31-8.57-2.41-13.06,.82-.96,1.65-1.91,2.47-2.87,.76,.08,1.53,.13,2.3,.16Z"/><path class="cls-4" d="M259.44,1524.92c-.83,.96-1.65,1.91-2.47,2.87-.99-.98-1.97-1.96-2.96-2.94,1.7-.74,3.41-1.47,5.11-2.2,.1,.76,.21,1.52,.32,2.27Z"/><path class="cls-10" d="M259.44,1524.92c-.12-.76-.22-1.51-.32-2.27-4.24-9.83,.23-19.67,.19-29.51-.32-74.76-.11-149.52-.06-224.28,5.86-1.65,11.72-2.77,17.93-2.76,88.72,.12,177.44,.26,266.16-.14,12.13-.05,18.35,3.23,16.7,16.11,0,80.07,0,160.15,0,240.23-.05,.92-.1,1.84-.15,2.77,0,0,.03,.13,.03,.13-81.32-.03-162.65-.26-243.97,.12-13.12,.06-25.85-3.07-38.91-2.67-5.23,.16-10.45-.04-15.29,2.44-.77-.02-1.54-.08-2.3-.16Z"/><path class="cls-3" d="M560.04,1282.07c1.65-12.88-4.57-16.16-16.7-16.11-88.72,.4-177.44,.26-266.16,.14-6.21,0-12.07,1.11-17.93,2.76-.04-3.59-.09-7.18-.13-10.77-.85-12.07-1.69-24.15-2.54-36.23,.07-.72,.12-1.44,.15-2.16,.93-.21,1.87-.42,2.8-.63,1.65,.12,3.3,.24,4.95,.37,4.95,4.09,10.86,2.39,16.35,2.4,87.02,.11,174.04,.08,261.05,.09,6.06,0,12.24-.71,17.85,2.52,3.32,4.88,2.69,10.51,2.99,15.96,.06,7.85,.11,15.7,.17,23.55-.23,6.01-.46,12.02-.69,18.02-.72,0-1.44,.03-2.15,.08Z"/><path class="cls-7" d="M259.53,1219.08c-.93,.21-1.87,.42-2.81,.63-.99,.26-1.98,.53-2.98,.8,.94,.46,1.89,.91,2.83,1.37,.85,12.08,1.69,24.15,2.54,36.23-13.11-.13-26.7,3.4-36.79-10.1-6.93-9.27-3.99-19.03-4.89-28.68,.89-.03,1.78-.07,2.68-.1,6.02-.09,12.05-.17,18.07-.26,2.98-.1,7.48,.3,6.46-3.97-1.53-6.42,1.6-11.96,1.59-18.04-.14-89.32-.15-178.64,0-267.96,.01-7.76-2.5-11.61-10.6-10.53-.95-.93-1.91-1.87-2.86-2.8,2.37-2.28,5.29-2.47,8.34-2.25,14.76,1.09,17.15-1,18.23-15.64,.33-4.54-1.29-9.49,2.6-13.34,6.41,18.83,9.22,20.78,31.94,20.8,83.4,.05,166.8-.04,250.19,.1,11.2,.02,22.42,1.08,28.82,12.59-3.49,.15-6.98,.31-10.47,.47-2.64-3.03-6.23-2.63-9.69-2.63-94.01-.02-188.01,.04-282.02-.16-8.08-.02-11.81,2.09-11.78,10.96,.36,97.5,.43,195.01,.58,292.51Z"/><path class="cls-4" d="M220.11,1219.21c-.89,.03-1.79,.07-2.68,.1-3.58-.1-7.16-.21-10.74-.31-4.33-5.21-5.32-9.88-3.44-17.43,2.18-8.74-1.51-18.79-1.54-28.27-.2-85.74-.14-171.48-.17-257.22,1.75-.28,3.5-.57,5.25-.86,2.88,3.56,7.03,2.65,10.8,3.07-.08,86.22-.89,172.46,.51,258.66,.22,13.87-6.81,28.68,2,42.25Z"/><path class="cls-4" d="M868.21,50.13c-.87,.01-2.35-.27-2.52,.08-5.7,11.81-18.33,12.02-28.01,17.2-2.82,1.51-5.19,4.33-7.59,1.08-5.51-7.43-13.23-5.43-20.36-5.44-60.45-.11-120.9,.32-181.34-.33-14.95-.16-30.38,3.23-45.02-3.34-2.23-1-3.64,1.65-4.54,3.71-1.49,3.41,.91,7.89-3.76,11.46-3.24-5.44-.67-16.48-11.99-14.13-.04-8.71-.09-17.41-.14-26.12,8.22-.59,22.36,10.87,20.56-10.11,2.59-3.27,5.17-3.28,7.73,.02-2.45,16.46,9.48,9.93,16.55,9.95,70.85,.17,141.7,.26,212.54-.02,15.3-.06,31.72,4.93,45.1-7.5,.48-.45,1.69-.11,2.56-.13,.16,.91,.31,1.82,.47,2.73-.08,6.97-.17,13.93-.25,20.89Z"/><path class="cls-8" d="M1004.34,915.38c-2.95,3.39-6.97,2.81-10.78,2.82-20.61,.03-41.21,.03-61.82,0-3.81,0-7.83,.56-10.79-2.81,27.8-3.23,55.59-3.22,83.39,0Z"/><path class="cls-8" d="M1111.56,915.38c-3.36,3.75-7.88,2.79-12.07,2.81-18.88,.08-37.76,.08-56.64,0-4.19-.02-8.7,.94-12.07-2.8,26.93-3.2,53.85-3.19,80.77,0Z"/><path class="cls-3" d="M246.07,1829.25c5.16-.13,10.32-.26,15.48-.39,.09,93.78,.21,187.55,.21,281.32,0,7.43,.38,14.72,2.7,21.82-3.53-.01-7.05-.02-10.58-.03,.05-94.42-.08-188.83,.44-283.25,.05-8.52-4.33-13.5-8.25-19.47Z"/><path class="cls-3" d="M563.07,253.83c-.12,6.06-.23,12.12-.35,18.18-.1,4.45-.2,8.9-.3,13.35-92.25-.01-184.49-.01-276.74-.05-8.7,0-17.27,1.26-25.87,1.98-11.22,.94-14.1,6.54-13.9,16.08-12.9,1.45-26.1-2.31-38.83,2.21-3.5-.13-7.01-.25-10.51-.39,6.42-19.72,29.41-51.62,48.01-51.22,8.96,.19,10.41-8.06,14.65-13.17,8.53-11.95,19.89-11.08,33.47-10.9,83.81,1.13,167.65,.62,251.48,.46,5.98-.01,11.96-1.66,17.94-2.55,3.36,4.01,1.98,8.83,2.27,13.36-1.74,4.09-2.03,8.32-1.32,12.66Z"/><path class="cls-16" d="M576.15,2133.81c-2.72-6.17-10.57-2.18-13.95-7.05,.15-6.52,.42-13.04,.43-19.56,.12-92.68,.2-185.35,.29-278.03,97.05-.09,194.1-.18,291.14-.27,5.24,0,10.65-.53,13.66,5.24-.04,98.32-.08,196.63-.12,294.94-1.43,1.6-2.85,3.2-4.27,4.8-95.73-.03-191.45-.05-287.18-.07Z"/><path class="cls-7" d="M207.08,305.58c12.73-4.52,25.93-.77,38.83-2.21,6.52,4.49,14.04-2,20.62,1.89-4.83,4.64-7.66,9.68-7.64,17,.27,91.03,.31,182.06,.07,273.1-.03,10.1,3.62,14.22,13.64,14.19,96.23-.26,192.46-.36,288.69-.5,4.19,5.56,.61,14.52-6.79,15.99-3.77,.75-7.8,.34-11.7,.34-73.47,.01-146.95,.69-220.41-.42-20.86-.32-40.1,5.92-60.18,8.31q-.97-24.36-29.24-23.24c-5.23-.32-10.58,.22-15.45-2.38-.06-81.83-.38-163.67,.03-245.5,.08-15.3-3.56-30.23-2.72-45.43,.35-6.27-5.38-7.3-7.74-11.12Z"/><path class="cls-15" d="M183,914.33c-41.26,.3-82.52,.78-123.78,.79-15.16,0-30.39,1.34-45.5-.99,2.73-5.09,7.6-3.38,11.67-3.39,48.7-.11,97.4-.11,146.1-.01,4.06,0,8.97-1.69,11.52,3.6Z"/><path class="cls-7" d="M217.6,918.3c-3.77-.42-7.92,.49-10.8-3.07,3.96-3.14,8.67-1.8,13.09-2.17,1.87,.84,3.74,1.67,5.6,2.51-2.08,2.52-4.97,2.67-7.89,2.73Z"/><path class="cls-1" d="M562.3,1776.33c.08-82.91,.17-165.82,.25-248.72,6.01-3.51,12.67-2.53,19.12-2.54,72.55-.04,145.1-.03,217.65,.02,11.71,0,23.42,.33,34.91-2.6,12.67-.67,24.94-.41,31.34,13.48,.41,5.99,.82,11.98,1.25,17.96-.2,53.15-.46,106.31-.59,159.46-.05,20.92,.18,41.83,.29,62.75-.2,4.33-.52,8.67-.6,13.01-.36,18.37-3.04,21.35-20.45,17.73-8.99-1.87-17.13,1.05-25.72,1.01-77.32-.37-154.64-.21-231.97-.25q-24.58-.01-25.47-31.32Z"/><path class="cls-6" d="M867.99,26.5c-.87,.03-2.08-.31-2.56,.13-13.39,12.43-29.8,7.44-45.1,7.5-70.85,.28-141.7,.19-212.54,.02-7.07-.02-19,6.51-16.55-9.95,72.88-.13,145.77,.54,218.62-.94,18.46-.37,37.86,4.09,55.8-4.66,.77,2.63,1.55,5.26,2.32,7.89Z"/><path class="cls-6" d="M583.5,24.19c1.8,20.99-12.34,9.52-20.56,10.11-.06-3.39-.12-6.77-.19-10.16,6.92-3.65,13.83-.03,20.75,.04Z"/><path class="cls-14" d="M834.22,1522.5c-11.48,2.93-23.2,2.61-34.91,2.6-72.55-.05-145.1-.07-217.65-.02-6.45,0-13.1-.97-19.12,2.54-.06-.88-.12-1.75-.18-2.62-.04-.88-.08-1.76-.12-2.65-.02-80.12-.04-160.24-.06-240.35,.23-6.01,.46-12.02,.69-18.03,3.98,3.11,1.27,18.87,13.38,6.9,2.37-2.34,4.42,1.25,6.23,2.97,2.47,2.34,6.12,3.87,7.7,.37,5.03-11.14,17.38-15.21,23.16-25.98,9.07-16.88,8.65-20.61-8.41-28.39,72.74-.23,145.48-.26,218.22-.88,12.36-.11,11.53,7.11,11.53,15.27-.06,86.71,.11,173.42-.25,260.12-.04,9.37,4.94,18.84-.22,28.15Z"/><path class="cls-6" d="M604.95,1219.83c17.06,7.79,17.48,11.51,8.41,28.39-5.78,10.77-18.13,14.83-23.16,25.98-1.58,3.5-5.23,1.97-7.7-.37-1.81-1.71-3.86-5.31-6.23-2.97-12.12,11.97-9.4-3.79-13.38-6.9-.05-7.85-.11-15.7-.16-23.55,2.48,4.47,5.12,8.86,7.39,13.43,1.27,2.56,2.64,4.39,5.8,3.79,5.67-1.06,20.67-19.51,20.71-25.53,.03-4.3-.02-8.61-.03-12.92,0,0-.01,.01-.01,.01,2.79,.21,5.58,.41,8.37,.62Z"/><path class="cls-9" d="M561.29,609.05c-96.23,.14-192.46,.24-288.69,.5-10.02,.03-13.66-4.09-13.64-14.19,.24-91.03,.2-182.06-.07-273.1-.02-7.33,2.81-12.36,7.64-17,7.79-.32,15.57-.91,23.36-.91,89.94-.04,179.88,0,269.83,.03,.86,.71,1.71,1.41,2.57,2.12,.07,96.98,.16,193.95,.17,290.93,0,3.87-.77,7.74-1.18,11.61Z"/><path class="cls-7" d="M562.29,306.51c-.86-.71-1.71-1.41-2.57-2.13,5.43-5.7,4.03-12.37,2.7-19.02,.1-4.45,.2-8.9,.3-13.35,1.85,1.03,3.99,3.28,5.52,2.93,19.97-4.62,12.51,16.98,21.62,22.72,.54,.34-.97,3.92-1.54,6-8.29,4.5-17.38,1.67-26.04,2.85Z"/><path class="cls-7" d="M261.65,876.56c-.73-.93-1.45-1.86-2.17-2.78,.73,.93,1.45,1.86,2.17,2.78Z"/><path class="cls-1" d="M259.53,1219.08c-.15-97.5-.22-195.01-.58-292.51-.03-8.87,3.7-10.98,11.78-10.96,94.01,.19,188.01,.14,282.02,.16,3.46,0,7.04-.41,9.69,2.63,.08,100.21,.16,200.42,.24,300.63-.81,.78-1.62,1.56-2.43,2.35-2.36-2.57-5.52-2.25-8.52-2.25-95.75,.1-191.5,.22-287.25,.34l-4.95-.37Z"/><path class="cls-7" d="M560.25,1221.36c.81-.78,1.62-1.56,2.43-2.35,11.3,.06,22.61,.12,33.91,.19,.01,4.31,.07,8.61,.03,12.92-.05,6.02-15.05,24.47-20.71,25.53-3.15,.59-4.52-1.24-5.8-3.79-2.28-4.57-4.91-8.97-7.39-13.43-.3-5.45,.33-11.07-2.99-15.96,.17-1.03,.35-2.07,.52-3.1Z"/><path class="cls-8" d="M217.6,918.3c2.92-.06,5.81-.21,7.89-2.73,2.43,.03,4.86,.06,7.29,.08,.95,.93,1.9,1.87,2.86,2.8-.01,85.97-.5,171.95,.43,257.91,.15,14.07-5.8,28.82,2.11,42.58-6.03,.09-12.05,.17-18.07,.26-8.81-13.56-1.77-28.38-2-42.25-1.4-86.2-.59-172.44-.51-258.66Z"/><path class="cls-15" d="M562.92,1829.17c-.09,92.68-.17,185.35-.29,278.03,0,6.52-.28,13.04-.43,19.56-2.71,1.32-5.35,2.8-8.14,3.92-9.07,3.62-14.27,.42-15-9.26-.26-3.47-.07-6.97-.07-10.46,0-81.07,0-162.14,0-243.2,0-3.92,.81-8.1-.25-11.72-4.11-13.92-1.99-24.23,14.18-27.33,4.57-.88,3.58-6.9,7.78-7.99,2.93,2.34,1.26,5.75,2.24,8.46Z"/><path class="cls-2" d="M562.25,1522.35c.04,.88,.08,1.77,.12,2.65,0,0-1.25,.08-1.25,.08,0,0-1.25-.01-1.25-.01,.05-.92,.1-1.85,.15-2.76,0,0,1.11,.09,1.11,.09l1.11-.04Z"/><path class="cls-5" d="M562.25,1522.35l-1.11,.04s-1.11-.08-1.11-.09c0-80.08,0-160.16,0-240.23,.72-.05,1.44-.07,2.15-.08,.02,80.12,.04,160.24,.06,240.36Z"/><path class="cls-15" d="M560.25,1221.36c-.17,1.03-.35,2.07-.52,3.1-5.61-3.23-11.8-2.52-17.85-2.52-87.02-.02-174.04,.02-261.05-.09-5.48,0-11.39,1.69-16.35-2.4,95.75-.12,191.5-.24,287.25-.34,3,0,6.16-.32,8.52,2.25Z"/><path class="cls-15" d="M256.57,1221.87c-.94-.46-1.89-.91-2.83-1.37,.99-.27,1.98-.53,2.98-.8-.03,.73-.08,1.44-.15,2.16Z"/><path class="cls-12" d="M238.18,1218.95c-7.9-13.77-1.95-28.52-2.11-42.58-.94-85.96-.45-171.94-.43-257.91,8.1-1.08,10.61,2.77,10.6,10.53-.16,89.32-.15,178.64,0,267.96,0,6.07-3.12,11.62-1.59,18.04,1.02,4.27-3.48,3.87-6.46,3.97Z"/><path class="cls-15" d="M562.42,285.36c1.34,6.66,2.73,13.32-2.7,19.02-89.94-.02-179.89-.07-269.83-.03-7.78,0-15.57,.6-23.36,.91-6.58-3.9-14.1,2.6-20.62-1.9-.2-9.54,2.68-15.14,13.9-16.08,8.6-.72,17.17-1.98,25.87-1.98,92.25,.04,184.49,.04,276.74,.05Z"/></svg>