<?xml version="1.0" encoding="UTF-8"?><svg id="Lag_1" xmlns="http://www.w3.org/2000/svg" viewBox="0 0 384.5 384.5"><defs><style>.cls-1{fill:#fdff9a;}</style></defs><path class="cls-1" d="M173.49,50.49c3.81-11.88,14.44-17.82,25.29-14.15,6.46,2.19,10.61,6.72,12.7,13.24,7.9,24.71,15.84,49.41,23.76,74.11,3.23,10.05,8.18,13.71,18.7,13.71,25.69,0,51.39,0,77.08,0,10.16,0,17.46,4.86,20.25,13.43,2.81,8.6-.19,16.93-8.32,22.89-20.83,15.27-41.67,30.52-62.51,45.78-8.84,6.48-10.63,11.99-7.29,22.33,7.92,24.57,15.85,49.14,23.75,73.73,3.08,9.59,.59,18.19-6.68,23.41-7.36,5.29-16.22,4.95-24.28-.99-20.49-15.1-40.97-30.22-61.44-45.34-8.76-6.48-14.94-6.47-23.74,.03-20.47,15.12-40.96,30.22-61.46,45.31-8.16,6.02-16.9,6.41-24.28,1.15-7.42-5.28-9.87-13.91-6.7-23.73,7.93-24.57,15.88-49.14,23.83-73.7,3.26-10.1,1.48-15.72-7.16-22.07-21.12-15.5-42.28-30.95-63.41-46.44-6.78-4.97-9.72-11.76-8.14-19.98,1.55-8.05,6.67-13.24,14.67-15.29,1.9-.48,3.95-.5,5.93-.5,12.85-.04,25.7-.02,38.55-.02s26.19,.01,39.29,0c9.77-.02,15.03-3.85,18-13.14,7.88-24.59,15.7-49.19,23.61-73.77Z"/><path d="M143.19,40.35c7.28-22.56,26.68-37.07,49.44-37.07s42.12,14.46,49.42,37.07c6.56,20.3,13.1,40.6,19.45,60.97,1,3.2,2.41,4.1,5.72,4.08,21.21-.18,42.42-.1,63.62-.09,27.71,.01,47.61,16.59,52.79,43.94,.11,.6,.41,1.17,.62,1.75v12.75c-.86,3.23-1.55,6.53-2.62,9.69-3.28,9.71-8.85,17.91-17.11,24.03-18.35,13.59-36.76,27.09-55.27,40.46-2.52,1.82-2.83,3.33-1.91,6.14,6.86,20.85,13.68,41.72,20.24,62.67,9.27,29.63-7.29,59.46-37.03,66.53-15.7,3.73-30.15,.38-43.16-9.2-17.17-12.66-34.4-25.25-51.51-38-2.38-1.78-3.89-1.98-6.39-.1-17.59,13.15-35.2,26.28-53.02,39.11-25.53,18.38-60.57,10.21-75.54-17.52-6.52-12.08-8.11-24.95-4.05-38.09,6.74-21.81,13.82-43.51,20.96-65.19,1.05-3.19,.44-4.73-2.23-6.66-17.72-12.77-35.35-25.65-52.88-38.66-14.55-10.79-21.56-26.58-21.56-42.18,0-19.02,10.42-37.77,30.33-46.86,7.03-3.21,14.44-4.62,22.16-4.62,21.45,.02,42.91-.08,64.37,.1,3.31,.02,4.72-.88,5.72-4.08,6.35-20.37,12.9-40.67,19.44-60.97Zm37.57,252.33c8.8-6.5,14.98-6.51,23.74-.03,20.47,15.12,40.95,30.24,61.44,45.34,8.06,5.94,16.92,6.28,24.28,.99,7.27-5.22,9.76-13.82,6.68-23.41-7.9-24.59-15.83-49.16-23.75-73.73-3.34-10.34-1.55-15.85,7.29-22.33,20.84-15.26,41.68-30.51,62.51-45.78,8.13-5.96,11.13-14.29,8.32-22.89-2.79-8.57-10.09-13.43-20.25-13.43-25.69,0-51.39,0-77.08,0-10.52,0-15.47-3.66-18.7-13.71-7.92-24.7-15.86-49.4-23.76-74.11-2.09-6.52-6.24-11.05-12.7-13.24-10.85-3.67-21.48,2.27-25.29,14.15-7.91,24.58-15.73,49.18-23.61,73.77-2.97,9.29-8.23,13.12-18,13.14-13.1,.02-26.2,0-39.29,0s-25.7-.02-38.55,.02c-1.98,0-4.03,.02-5.93,.5-8,2.05-13.12,7.24-14.67,15.29-1.58,8.22,1.36,15.01,8.14,19.98,21.13,15.49,42.29,30.94,63.41,46.44,8.64,6.35,10.42,11.97,7.16,22.07-7.95,24.56-15.9,49.13-23.83,73.7-3.17,9.82-.72,18.45,6.7,23.73,7.38,5.26,16.12,4.87,24.28-1.15,20.5-15.09,40.99-30.19,61.46-45.31Z"/></svg>