<?xml version="1.0" encoding="UTF-8"?><svg id="Lag_1" xmlns="http://www.w3.org/2000/svg" viewBox="0 0 384.5 384.5"><defs><style>.cls-1{fill:#fff;}</style></defs><path class="cls-1" d="M81.11,282.91c30.97,37.13,70.86,55.08,119.09,53.13,68.04-2.74,125.67-55.98,134.73-123.7,10.27-76.77-39.09-146.51-115.31-161.37-44.16-8.61-84.01,2.44-119.03,30.79-.28,.23-.49,.54-1.13,1.29,5.19,5.14,10.58,10.11,15.5,15.5,2.62,2.87,5.3,6.2,6.44,9.8,2.79,8.9-3.25,17.91-12.42,19.53-1.59,.29-3.22,.41-4.83,.41-23.21,.03-46.41,.05-69.61,.01-10.95-.02-17.59-6.58-17.62-17.45-.05-23.5-.05-47,0-70.5,.02-9.33,5.03-15.68,13.46-17.2,5.76-1.04,10.53,1.06,14.54,5.1,6.76,6.82,13.5,13.66,20.28,20.54,5.63-4.36,10.8-8.64,16.24-12.53C110.64,15.42,143.13,3.57,178.92,.86c.83-.06,1.65-.4,2.48-.61h23.2c.83,.21,1.64,.49,2.48,.61,8.86,1.31,17.82,2.15,26.57,3.97,74.83,15.58,135.37,78.96,147.64,154.36,1.14,7,1.98,14.04,2.96,21.06v22.5c-.58,4.8-1.05,9.62-1.75,14.4-5.63,38.87-21.22,73.21-47.43,102.43-29.75,33.17-66.64,53.84-110.54,61.7-7.09,1.27-14.28,1.99-21.43,2.97h-21.7c-7.15-.98-14.33-1.72-21.43-2.97-40.29-7.05-74.87-25.23-103.62-54.29-27.45-27.73-44.63-61.02-52.02-99.33-.73-3.78-1.45-7.71-1.45-11.54,0-.98,.04-1.95,.15-2.91,1.37-12.33,11.37-20.9,23.39-20.95,12.03-.05,22.09,8.43,23.96,20.54,4.04,26.12,13.79,49.8,30.73,70.11Z"/><path class="cls-1" d="M182.79,112.32c11.38-1.2,22.4,6.87,25.11,18.56,.53,2.28,.59,4.7,.6,7.07,.07,9.12,.03,18.24,.03,27.37,0,9.87-.12,19.75,.1,29.62,.04,1.87,.96,4.14,2.24,5.49,7.07,7.4,14.55,14.41,21.58,21.86,13.03,13.81,6.39,35.94-11.99,40.06-8.22,1.84-15.7-.21-21.75-6.14-9.81-9.61-19.49-19.36-29.1-29.17-5.95-6.07-8.88-13.57-8.93-22.02-.11-22.87-.2-45.75,.02-68.62,.12-13.12,9.23-22.72,22.09-24.08Z"/></svg>